<svg width="95" height="53" viewBox="0 0 95 53" fill="none" xmlns="http://www.w3.org/2000/svg">
<path d="M1.3731 19.9888L1.3976 19.9889C1.76316 19.9894 2.0923 19.7678 2.22945 19.4293L2.23105 19.4253L2.23106 19.4253C5.29096 12.0547 11.1677 6.211 18.5559 3.19236L18.5595 3.19085L18.5596 3.19087C19.2616 2.91054 20.4963 2.48301 21.8041 2.34525C23.0976 2.20901 24.5773 2.34525 25.6438 3.33112L25.6439 3.33126C26.3272 3.96339 26.6964 4.78394 26.9211 5.67824C27.1418 6.55619 27.2336 7.55174 27.3271 8.56685L27.3298 8.59581L27.3309 8.60757L27.3308 8.60758C27.4028 9.65997 27.5504 10.7054 27.7723 11.7368C28.4125 14.1146 29.8612 16.1949 31.869 17.6202L31.8691 17.6203C33.8782 19.0473 36.3217 19.7286 38.7791 19.5489C39.2702 19.4963 39.627 19.0577 39.5777 18.5662C39.5281 18.073 39.088 17.7126 38.5938 17.7617L38.5853 17.7625L38.5768 17.7631C36.5593 17.894 34.5581 17.3263 32.9094 16.1557C31.2608 14.9852 30.0651 13.2838 29.5225 11.3354L29.5182 11.32L29.5149 11.3045C29.3146 10.3553 29.1824 9.39233 29.1181 8.42454C28.9021 6.08148 28.6585 3.67309 26.8633 2.01333L1.3731 19.9888ZM1.3731 19.9888C1.08332 19.9812 0.814917 19.8342 0.653382 19.5937L0.652985 19.5931C0.486484 19.346 0.453771 19.032 0.565269 18.7556C3.81371 10.9306 10.0529 4.72745 17.8956 1.52307C21.803 -0.0366602 24.9369 0.233338 26.8632 2.01324L1.3731 19.9888Z" fill="#FF4E6D" stroke="white"/>
<path d="M61.9761 29.4087C63.6899 29.6035 65.4158 29.1738 66.8377 28.199L66.8579 28.1852L66.8765 28.1695C67.8717 27.334 68.7543 26.3724 69.5016 25.3091L69.5016 25.3091L69.5045 25.3048C70.4472 23.9334 71.6254 22.74 72.9843 21.7794C75.84 20.1513 79.3366 20.1264 82.2157 21.7147C84.9085 23.2211 87.1647 25.4006 88.7632 28.04L88.7686 28.0489L88.7743 28.0574C91.8233 32.6531 93.7722 37.8901 94.4678 43.3608C94.4974 43.5971 94.4322 43.8355 94.2867 44.0241C94.1403 44.212 93.9251 44.3344 93.6898 44.3641C93.6545 44.3685 93.6205 44.371 93.5886 44.3715L93.5767 44.3715C93.1246 44.3709 92.7432 44.0341 92.6869 43.5862L92.6868 43.5855C92.0259 38.3934 90.1778 33.4244 87.2862 29.062C85.8604 26.6829 83.8462 24.7103 81.4374 23.3346L81.4374 23.3346L81.4337 23.3326C79.1196 22.0365 76.3032 22.0174 73.9715 23.2813L73.9416 23.2975L73.9141 23.3177C72.7354 24.1823 71.7124 25.241 70.8904 26.4493C70.0519 27.6322 69.0581 28.6981 67.937 29.6184C66.1426 30.874 63.9515 31.4305 61.7745 31.1834M61.9761 29.4087L62.0326 28.9119M61.9761 29.4087L62.0326 28.9119M61.9761 29.4087C60.2624 29.214 58.677 28.4078 57.5101 27.1387L57.5024 27.1304L57.4952 27.1217C57.1761 26.7416 56.6099 26.6922 56.23 27.011L56.2295 27.0114C56.0471 27.1641 55.933 27.3836 55.9127 27.6198L55.9126 27.6208C55.8919 27.8563 55.9645 28.0894 56.1141 28.2699C57.5812 29.9 59.5953 30.9359 61.7745 31.1834M62.0326 28.9119C63.6268 29.0931 65.2323 28.6934 66.555 27.7866L57.8781 26.8003M62.0326 28.9119C60.4385 28.7308 58.9637 27.9809 57.8781 26.8003M61.7745 31.1834L61.7181 31.6802M61.7745 31.1834L61.7181 31.6802M61.7181 31.6802C64.0226 31.9418 66.3422 31.3503 68.2395 30.017L55.4146 27.577C55.3821 27.9467 55.4975 28.314 55.7363 28.5976C57.2858 30.3225 59.4147 31.4186 61.7181 31.6802ZM57.8781 26.8003C57.3817 26.2088 56.5001 26.1316 55.9086 26.628L57.8781 26.8003Z" fill="#FF4E6D" stroke="white"/>
<path d="M18.9417 27.6496C19.8875 27.6265 20.8186 27.4101 21.6775 27.0136L21.7772 26.9676H21.7825C22.1969 26.7826 22.6064 26.5729 23.0293 26.3554C23.4813 26.1213 23.9412 25.8843 24.3994 25.6931L24.7679 25.5394L24.9993 25.8648C25.4868 26.55 26.1788 27.0644 26.9756 27.3345L26.9826 27.3369L26.9895 27.3395C28.2213 27.798 29.6036 27.5769 30.6308 26.7576C31.0032 26.4348 31.0462 25.8709 30.7258 25.4953C30.4037 25.1186 29.8367 25.0737 29.4594 25.3958L29.4288 25.4219L29.3945 25.4427C28.8443 25.7771 28.174 25.8477 27.5664 25.6374L27.73 25.1649L27.5664 25.6374C26.9591 25.4272 26.4758 24.958 26.2495 24.3551L26.2353 24.3174L26.2274 24.2778C26.1803 24.0437 26.0424 23.8381 25.8438 23.7062L25.8433 23.7059C25.648 23.5759 25.4083 23.5276 25.1763 23.5717C24.1426 23.8241 23.1501 24.2193 22.2264 24.7475L22.2171 24.7528L22.2076 24.7577C21.8182 24.9588 21.4125 25.168 20.9946 25.3522C19.9895 25.9316 18.7704 26.0024 17.704 25.5429L17.6332 25.5124L17.5749 25.4619C17.2945 25.2195 17.1204 24.8784 17.0882 24.5099C17.0522 24.2737 17.0865 24.0305 17.1903 23.812L17.5441 23.9801L17.469 23.5572C17.4689 23.5572 17.4698 23.5569 17.4724 23.5558L17.4841 23.551C17.4921 23.5476 17.509 23.5405 17.5276 23.5333C17.9767 23.3487 18.1977 22.8416 18.027 22.3873C17.8557 21.9313 17.3531 21.6954 16.8938 21.8544L16.8898 21.8558L16.8898 21.8557C16.8276 21.8767 16.766 21.901 16.7059 21.928C15.713 22.3932 14.6502 22.6903 13.5604 22.8084C12.6059 22.9162 11.6608 22.5381 11.0452 21.7995L11.0185 21.7673L10.9974 21.7312C10.7776 21.3542 10.7231 20.904 10.8432 20.4868C10.8921 20.3089 10.9806 20.1405 11.1085 19.9974L11.1621 19.9374L11.2318 19.8972C11.308 19.8534 11.3839 19.8081 11.458 19.7623L11.4594 19.7614C11.8638 19.513 12.0053 18.9928 11.7821 18.5736C11.5581 18.1555 11.0475 17.9832 10.6159 18.1799C10.4732 18.2458 10.3362 18.324 10.207 18.4136L10.1865 18.4277L10.1647 18.4398C7.6158 19.8541 4.5991 20.1643 1.81508 19.2991L1.81185 19.2981C1.3401 19.148 0.835391 19.409 0.684937 19.8815L18.9417 27.6496ZM18.9417 27.6496L18.9166 27.6501C18.1041 27.6645 17.3059 27.4346 16.6261 26.9905C15.9234 26.4938 15.4539 25.7314 15.3266 24.8797L15.2484 24.3565L14.7304 24.4641C14.358 24.5414 13.9792 24.5885 13.5987 24.6052L13.5904 24.6056L13.582 24.6062C11.9877 24.7298 10.4437 24.0187 9.50196 22.7283C9.2624 22.3546 9.10239 21.9356 9.03206 21.4983L8.94266 20.9424L8.40124 21.0969C6.06575 21.7631 3.58599 21.7328 1.26783 21.0082C0.795787 20.8582 0.534752 20.3543 0.684889 19.8817L18.9417 27.6496Z" fill="#FF4E6D" stroke="white"/>
<path d="M70.3808 42.7111C71.9529 42.7422 73.4753 42.1571 74.6223 41.0807L74.9693 40.7549L75.3117 41.0855C76.367 42.1043 77.7813 42.6683 79.2485 42.6556C80.7158 42.6429 82.1195 42.0544 83.1571 41.0176L83.5248 40.6502L83.8776 41.0319C86.179 43.5211 89.4065 44.9474 92.7952 44.9744H92.8171C93.0945 44.9744 93.3709 44.9644 93.6485 44.9449C94.1418 44.9073 94.5116 44.478 94.4756 43.9849L94.4756 43.9844C94.4401 43.4902 94.0112 43.1185 93.5173 43.153L93.5111 43.1534C89.8323 43.3641 86.3122 41.6313 84.2365 38.5865L84.2303 38.5774L84.2304 38.5773C84.055 38.3075 83.7468 38.1545 83.4265 38.1779L83.4234 38.1781C83.1008 38.1995 82.8149 38.3918 82.6742 38.6822L82.6741 38.6822C82.2543 39.548 81.5265 40.2266 80.6322 40.5834L70.3808 42.7111ZM70.3808 42.7111C68.5326 42.6176 66.8346 41.6672 65.7892 40.1406L65.6083 39.8765L65.2927 39.9303C61.4191 40.5901 57.535 38.5878 54.0086 36.4984C53.582 36.245 53.4415 35.6944 53.6937 35.2684C53.9471 34.8418 54.4979 34.7012 54.9239 34.9536C56.6601 35.9823 58.4833 36.9998 60.3077 37.628C62.1112 38.249 63.959 38.5048 65.7553 37.9842H65.7576L65.8283 37.9628C66.2674 37.8302 66.7361 38.0502 66.9137 38.4726L66.9141 38.4736C67.3114 39.413 68.0522 40.1659 68.9853 40.5781L68.9855 40.5782C69.9191 40.9903 70.9747 41.0313 71.9369 40.6914L71.7703 40.2199L71.9369 40.6914C72.8985 40.3516 73.6951 39.6582 74.1631 38.751L74.1631 38.7509C74.3171 38.4523 74.6251 38.2645 74.9611 38.2645H74.9635C75.3003 38.2658 75.6079 38.4549 75.7606 38.754L75.7606 38.7541C76.1984 39.6109 76.9412 40.2745 77.8422 40.6125C78.7429 40.9512 79.7387 40.9409 80.6321 40.5834C80.632 40.5835 80.6318 40.5835 80.6316 40.5836L70.3808 42.7111Z" fill="#FF4E6D" stroke="white"/>
<path d="M30.0139 52.0718H29.9996C29.5682 52.0718 29.1984 51.7659 29.1175 51.3428L29.1174 51.3421C29.036 50.9198 29.2665 50.4988 29.6667 50.3396L29.6668 50.3396C36.5351 47.607 41.7943 41.6272 46.1219 36.334L46.1225 36.3333L47.325 34.857L47.3253 34.8566C51.6809 29.4977 56.1198 24.0432 62.088 20.4911L62.1098 20.4781C62.5326 20.2435 63.0675 20.386 63.3169 20.8038C63.5698 21.2296 63.4306 21.7799 63.0058 22.0343C57.3018 25.4292 52.922 30.8177 48.7529 35.9469L48.7188 35.9888L48.7186 35.989L47.5122 37.4715C47.5121 37.4716 47.512 37.4717 47.5119 37.4719C42.954 43.0452 37.5502 49.1345 30.3306 52.0082L30.3294 52.0087C30.2297 52.0486 30.1225 52.07 30.0139 52.0718Z" fill="#FF4E6D" stroke="white"/>
<path d="M43.4372 10.4469L43.4378 10.4472L63.0383 21.0624C63.0383 21.0624 63.0384 21.0625 63.0384 21.0625C63.1704 21.1337 63.3171 21.1706 63.4654 21.1706C63.8771 21.1706 64.2356 20.8918 64.3369 20.4929C64.4375 20.0945 64.255 19.6782 63.8938 19.4827L63.8936 19.4826L44.2928 8.86724C44.2928 8.86721 44.2927 8.86718 44.2926 8.86715C43.8565 8.63142 43.3115 8.79348 43.0748 9.23007L43.4372 10.4469ZM43.4372 10.4469C43.2282 10.3341 43.0724 10.1424 43.0037 9.91358M43.4372 10.4469L43.0037 9.91358M43.0037 9.91358C42.9359 9.68475 42.9617 9.43913 43.0747 9.23019L43.0037 9.91358Z" fill="#FF4E6D" stroke="white"/>
<path d="M14.7809 39.4896V39.4896C14.3576 39.4891 13.9917 39.1928 13.9036 38.7782C13.8154 38.3633 14.0292 37.9436 14.4169 37.7706L14.4187 37.7698C27.0362 32.0821 37.1611 22.0089 42.9149 9.42047L42.9159 9.41836C43.1199 8.96644 43.6517 8.76548 44.1037 8.96955C44.5551 9.17334 44.7563 9.70515 44.553 10.1571C38.6152 23.147 28.1661 33.5409 15.1446 39.413C15.0309 39.4635 14.9072 39.4896 14.7809 39.4896Z" fill="#FF4E6D" stroke="white"/>
<path d="M28.6034 51.1254C28.9968 51.1238 29.3442 50.8647 29.4581 50.4866C29.5725 50.1069 29.4246 49.6975 29.0941 49.479L29.0938 49.4789C23.833 45.9979 18.6849 42.2151 13.7915 38.2341C13.4069 37.9229 12.8431 37.9814 12.5306 38.3654L28.6034 51.1254ZM28.6034 51.1254H28.5978C28.4211 51.1254 28.2498 51.0737 28.1035 50.9769L28.1034 50.9768C22.7936 47.4628 17.5971 43.6449 12.6587 39.6262C12.276 39.3131 12.2189 38.7485 12.5305 38.3654L28.6034 51.1254Z" fill="#FF4E6D" stroke="white"/>
<path d="M29.0136 42.437L29.001 42.4369C28.7205 42.4337 28.4432 42.3686 28.19 42.2463C27.3584 41.8291 26.9828 40.8471 27.3244 39.9818L27.3244 39.9816C27.6651 39.1175 28.6091 38.6559 29.5012 38.9171C29.5728 38.9399 29.6379 38.9693 29.6957 39.005L29.7371 39.0305L29.7826 39.0476C29.8469 39.0717 29.9096 39.104 29.9674 39.1428C30.4604 39.5 30.7463 40.0771 30.7323 40.6861L30.7323 40.6861C30.7183 41.2957 30.4066 41.8584 29.898 42.1929C29.6314 42.3536 29.3256 42.4382 29.0136 42.437Z" fill="#FF4E6D" stroke="white"/>
<path d="M48.3487 23.0253C47.7482 22.9516 47.2341 22.5613 47.0012 22.0036C46.8251 21.5417 46.851 21.0266 47.0719 20.5842L47.072 20.5842L47.0749 20.5782C47.3087 20.0939 47.7341 19.7295 48.2478 19.5736C49.1343 19.34 50.0727 19.675 50.6103 20.4182L50.6103 20.4183L50.6143 20.4237C50.9105 20.8217 50.8282 21.3847 50.4312 21.681L50.4312 21.681L50.4287 21.6829C50.3878 21.7138 50.3438 21.7408 50.2976 21.7634L50.1117 21.8544L50.0444 22.0502C49.9958 22.1919 49.9251 22.3248 49.835 22.4436C49.5428 22.8267 49.086 23.0488 48.6037 23.0427L48.5731 23.0423C48.4979 23.0408 48.4247 23.0355 48.3547 23.026L48.3547 23.026L48.3487 23.0253Z" fill="#FF4E6D" stroke="white"/>
<path d="M42.7575 37.0659C41.5976 37.7168 40.2924 38.065 38.962 38.0791L38.9325 38.0793C38.0134 38.0846 37.1033 37.8978 36.2607 37.5309C34.7922 36.8199 33.6303 35.6027 32.9876 34.1028C32.3447 32.6016 32.2653 30.9202 32.7643 29.366C33.2358 28.0488 34.0626 26.8875 35.1531 26.0101C36.2455 25.1311 37.5606 24.5715 38.9512 24.3931L38.9995 24.3869L39.0456 24.3715C41.0175 23.7148 43.1895 24.1458 44.7611 25.5057C46.5001 27.1134 47.2579 29.5219 46.7526 31.8361C46.2271 34.0668 44.7763 35.9678 42.7632 37.0627L42.7632 37.0627L42.7575 37.0659ZM38.2106 26.4196L38.1593 26.7613L38.0552 26.4446C36.3952 26.9905 35.0774 28.2667 34.4772 29.907L34.4727 29.9194L34.4688 29.932C34.1233 31.0569 34.1828 32.2667 34.6376 33.3523C35.0912 34.4371 35.9102 35.3301 36.9531 35.8742L36.9787 35.8876L37.0056 35.8979C38.6114 36.5126 40.4095 36.3629 41.8918 35.4923C43.4473 34.6557 44.5745 33.1978 44.9926 31.4818L44.9927 31.4818L44.9952 31.4706C45.3624 29.7961 44.8296 28.0518 43.5902 26.8685L43.581 26.8598L43.5714 26.8515C42.8403 26.2213 41.9095 25.8688 40.9436 25.8568L40.7685 25.8546L40.6303 25.9621C40.4806 26.0786 40.2941 26.1363 40.1062 26.125L40.1062 26.1248L40.0925 26.1243C39.8991 26.118 39.7064 26.1235 39.5154 26.1397L39.4286 26.147L39.3495 26.1833C39.2452 26.231 39.144 26.2846 39.0457 26.3439L39.0449 26.3444C38.8352 26.4716 38.5829 26.5056 38.348 26.4389L38.2626 26.7393L38.2114 26.4196H38.2106Z" fill="#FF4E6D" stroke="white"/>
</svg>
