<svg width="96" height="90" viewBox="0 0 96 90" fill="none" xmlns="http://www.w3.org/2000/svg">
<path d="M77.3249 36.6604V36.6605C77.8021 36.6596 78.1931 36.2928 78.2249 35.825L78.2249 35.825L78.2256 35.8168C78.6402 31.1389 80.4399 26.688 83.3967 23.026L83.3967 23.0259C86.3543 19.3639 90.3366 16.6551 94.8417 15.2401L94.8416 15.24L94.8494 15.2378C95.33 15.0974 95.601 14.5998 95.4614 14.1277L95.4613 14.1274C95.3222 13.6555 94.8233 13.3812 94.343 13.5194C89.4844 15.0457 85.1893 17.9679 81.9994 21.9166C78.8103 25.8659 76.8696 30.6649 76.4228 35.7082C76.3916 36.1976 76.7643 36.6241 77.263 36.6576L77.2667 36.6578C77.2898 36.6596 77.3086 36.6604 77.3249 36.6604Z" fill="#FF4E6D" stroke="white" stroke-width="0.8"/>
<path d="M53.3162 24.6028H53.3162L53.3163 24.5977C53.3895 20.2508 54.6573 16.0076 56.983 12.3256C59.3079 8.64385 62.6028 5.66464 66.5091 3.70993L66.5091 3.70989L66.514 3.70753C66.7305 3.60286 66.8954 3.41756 66.9732 3.19335L66.9733 3.1931C67.0509 2.9701 67.0361 2.72407 66.9315 2.51017C66.8261 2.29686 66.64 2.13322 66.4125 2.05595L66.4122 2.05586C66.1855 1.97866 65.9364 1.99408 65.721 2.09844C61.5122 4.20498 57.9639 7.41487 55.4592 11.381L55.4592 11.3811C52.9538 15.3463 51.5881 19.9169 51.5091 24.5978C51.5083 25.0889 51.9084 25.4928 52.4087 25.4948L52.4125 25.4949L52.4146 25.4949C52.9144 25.4929 53.3142 25.0927 53.3162 24.6028Z" fill="#FF4E6D" stroke="white" stroke-width="0.8"/>
<path d="M76.7098 37.302H76.7288C77.1453 37.2935 77.501 37.0046 77.5919 36.6041L77.592 36.6035C77.6847 36.1977 77.4828 35.7803 77.1006 35.5986C77.1005 35.5986 77.1005 35.5986 77.1004 35.5985L53.5016 24.4242L53.4997 24.4233C53.2835 24.3194 53.0341 24.3056 52.8064 24.3852C52.5795 24.4648 52.3946 24.6303 52.2916 24.8448C52.1887 25.0592 52.176 25.3052 52.2561 25.5295C52.3359 25.752 52.5027 25.9357 52.721 26.0384L52.7219 26.0389L76.321 37.214C76.4434 37.2719 76.5767 37.302 76.7098 37.302Z" fill="#FF4E6D" stroke="white" stroke-width="0.8"/>
<path d="M87.1192 12.6867L94.5032 14.2811C94.5033 14.2812 94.5035 14.2812 94.5036 14.2812C94.5681 14.295 94.6315 14.3021 94.6929 14.3024L94.6973 14.3024C95.1612 14.3019 95.5464 13.9546 95.5948 13.5019L95.5949 13.5014C95.6439 13.0488 95.3417 12.6294 94.8894 12.5321L94.8891 12.5321L87.5042 10.9367L87.5033 10.9365C87.268 10.8851 87.0217 10.9289 86.8207 11.0574L86.8203 11.0577C86.6178 11.1867 86.4761 11.3899 86.4255 11.6211C86.3747 11.8536 86.4187 12.0959 86.5481 12.295L86.5484 12.2954C86.6782 12.4956 86.8826 12.6362 87.1183 12.6865L87.1192 12.6867Z" fill="#FF4E6D" stroke="white" stroke-width="0.8"/>
<path d="M87.6387 12.084L87.6486 12.084C87.9716 12.0835 88.2689 11.9124 88.4304 11.6365C88.5909 11.3603 88.5917 11.0208 88.4329 10.7447L88.432 10.743C87.8216 9.66918 87.6044 8.41762 87.8183 7.20244L87.8183 7.20244L87.8187 7.2002C87.9067 6.71626 87.5829 6.24919 87.091 6.16126L87.0906 6.1612C86.597 6.07254 86.1287 6.39862 86.0412 6.88295L86.0411 6.88309C85.7458 8.51273 86.036 10.1936 86.8625 11.6319C87.0213 11.9079 87.3163 12.0803 87.6387 12.084Z" fill="#FF4E6D" stroke="white" stroke-width="0.8"/>
<path d="M78.0507 8.669C78.0887 9.13006 78.4763 9.48926 78.9472 9.4914H78.95C78.9989 9.4914 79.0483 9.48724 79.0962 9.47905L79.0962 9.47904L79.0986 9.47866L86.8045 8.20855C86.8045 8.20855 86.8045 8.20854 86.8046 8.20854C86.8046 8.20853 86.8046 8.20853 86.8046 8.20853C87.2994 8.12667 87.6286 7.66476 87.548 7.17982C87.4665 6.69328 87.0033 6.36137 86.5089 6.44254C86.5089 6.44255 86.5089 6.44255 86.5088 6.44255C86.5088 6.44256 86.5088 6.44257 86.5087 6.44257L78.8031 7.71263C78.8031 7.71264 78.803 7.71265 78.803 7.71265C78.3374 7.78974 78.0127 8.20711 78.0507 8.669Z" fill="#FF4E6D" stroke="white" stroke-width="0.8"/>
<path d="M79.6023 9.54267L79.6071 9.54267C79.6656 9.54235 79.7235 9.53662 79.781 9.52544C80.0168 9.47803 80.2232 9.34034 80.3552 9.14333L80.3552 9.14332C80.4878 8.94542 80.5356 8.70469 80.4886 8.47249L80.4886 8.47213L79.5256 3.68673L79.5256 3.68658C79.4285 3.20346 78.9536 2.88641 78.4625 2.98443L78.4621 2.98453C77.971 3.08191 77.6566 3.5545 77.7536 4.03726L78.7165 8.8223C78.8005 9.23879 79.1696 9.54214 79.6023 9.54267Z" fill="#FF4E6D" stroke="white" stroke-width="0.8"/>
<path d="M70.2477 6.55447C69.8032 6.55196 69.4293 6.23033 69.3607 5.7985C69.2919 5.36465 69.5503 4.94381 69.9742 4.80791L69.9745 4.80781L77.4102 2.41768C77.4103 2.41765 77.4104 2.41761 77.4105 2.41757C77.8868 2.26578 78.3945 2.5267 78.547 2.9946L70.2477 6.55447ZM70.2477 6.55447H70.2529C70.3478 6.55447 70.4409 6.53982 70.5299 6.51085L70.5313 6.51041L77.9677 4.1203C77.9678 4.12027 77.9679 4.12023 77.968 4.12019C78.4427 3.96623 78.6991 3.4622 78.547 2.99472L70.2477 6.55447Z" fill="#FF4E6D" stroke="white" stroke-width="0.8"/>
<path d="M70.9705 6.33521H70.98C71.2855 6.33201 71.5686 6.17555 71.7324 5.92067C71.8972 5.66303 71.9188 5.34018 71.79 5.06455C71.79 5.06453 71.79 5.06451 71.79 5.06449L69.8534 0.921373L69.8427 0.89843C69.7402 0.693535 69.5619 0.534007 69.3442 0.454815C69.1183 0.372662 68.8688 0.38322 68.6512 0.484012L68.6505 0.484344C68.4337 0.584219 68.2659 0.76641 68.1834 0.990052C68.1022 1.21254 68.1131 1.45858 68.214 1.67381L68.2143 1.67437L70.1491 5.81546L70.1494 5.81539C70.2969 6.13124 70.617 6.33521 70.9705 6.33521Z" fill="#FF4E6D" stroke="white" stroke-width="0.8"/>
<path d="M1.30317 69.8734L1.30323 69.8737C1.56624 69.8741 1.81667 69.7596 1.9881 69.5617L1.98825 69.5615C16.8035 52.4748 32.7334 36.3746 49.6734 21.3639C50.0449 21.0343 50.0768 20.4701 49.7458 20.1017L49.7456 20.1015C49.414 19.7317 48.8412 19.6988 48.4683 20.0291C31.4697 35.092 15.4855 51.2484 0.618309 68.395L0.618183 68.3951C0.388546 68.6597 0.335361 69.0322 0.481586 69.35C0.627914 69.6673 0.948536 69.8729 1.30317 69.8734Z" fill="#FF4E6D" stroke="white" stroke-width="0.8"/>
<path d="M27.7073 87.8178V87.818C27.954 87.8176 28.1884 87.7176 28.3577 87.5417L28.3585 87.5408C46.2395 69.0587 65.5134 51.9581 86.0134 36.3878C86.4063 36.0857 86.4793 35.528 86.1792 35.1374C85.8777 34.7457 85.3118 34.6688 84.9154 34.9671C64.3429 50.5917 44.9992 67.7534 27.0547 86.3035L26.7672 86.0254L27.0549 86.3032C26.8049 86.5621 26.7349 86.9432 26.8757 87.2719C27.0169 87.6012 27.3438 87.8173 27.7073 87.8178Z" fill="#FF4E6D" stroke="white" stroke-width="0.8"/>
<path d="M50.9717 57.3467L50.9722 57.3417C51.2058 57.3422 51.4302 57.252 51.5978 57.0906L51.5988 57.0897C58.1505 50.8259 65.2241 45.1221 72.7423 40.0404C73.1532 39.7616 73.2579 39.2072 72.9789 38.7997L72.9788 38.7996C72.6998 38.3918 72.1383 38.2837 71.724 38.5621C64.1216 43.7 56.9696 49.4672 50.3444 55.8021C50.0798 56.0557 49.9971 56.4427 50.1339 56.7806C50.2708 57.1182 50.6017 57.3418 50.9717 57.3418V57.3467Z" fill="#FF4E6D" stroke="white" stroke-width="0.8"/>
<path d="M31.0727 45.5401L31.0676 45.5401C30.7017 45.5396 30.3732 45.3205 30.2336 44.9874L30.2335 44.9872C30.0942 44.6554 30.169 44.2718 30.425 44.0152C35.8453 38.5869 41.5899 33.4885 47.6278 28.7478C48.0196 28.4411 48.5877 28.508 48.8969 28.8965L31.0727 45.5401ZM31.0727 45.5401C31.3128 45.5386 31.5413 45.4428 31.708 45.2746L31.7091 45.2735C37.0786 39.897 42.7691 34.8466 48.7498 30.1506C49.1395 29.8432 49.2041 29.2828 48.897 28.8966L31.0727 45.5401Z" fill="#FF4E6D" stroke="white" stroke-width="0.8"/>
<path d="M72.5497 38.9493L50.2985 27.6726L50.2983 27.6729C49.8529 27.4484 49.3099 27.626 49.084 28.066C48.8594 28.5036 49.0327 29.0411 49.4755 29.2675C49.4756 29.2676 49.4758 29.2677 49.476 29.2678L71.728 40.5442L71.7293 40.5448C71.8547 40.6089 71.9952 40.6425 72.1382 40.6425H72.1448C72.5622 40.6395 72.9211 40.3548 73.0177 39.9562C73.1147 39.5552 72.9229 39.1387 72.5497 38.9493Z" fill="#FF4E6D" stroke="white" stroke-width="0.8"/>
<path d="M50.3993 55.9345C50.5086 55.9817 50.6275 56.0068 50.7479 56.0079H50.756C51.1867 56.0079 51.5551 55.7083 51.6418 55.2934C51.7278 54.8793 51.5103 54.4603 51.1157 54.2909C44.6039 51.4982 38.3085 48.2313 32.2798 44.5185L32.277 44.5167C32.073 44.3887 31.8261 44.3467 31.5905 44.4C31.3549 44.4541 31.1514 44.599 31.0249 44.8016C30.8984 45.0042 30.8587 45.2481 30.9139 45.4795C30.9699 45.7112 31.1165 45.9119 31.3221 46.0367L31.3242 46.0381C37.4287 49.7982 43.8044 53.1059 50.3984 55.9341L50.3993 55.9345Z" fill="#FF4E6D" stroke="white" stroke-width="0.8"/>
<path d="M23.0205 64.0105L23.0195 64.0105L23.0195 64.0105C22.6425 64.0105 22.3072 63.7791 22.175 63.4318L22.175 63.4316C22.0428 63.0849 22.1398 62.6923 22.4198 62.4463L22.5558 62.3268V62.326L30.2479 55.5648L30.2486 55.5642C30.4274 55.4063 30.6628 55.3252 30.9028 55.3398L30.9036 55.3399C31.1433 55.354 31.3672 55.4626 31.5264 55.6412L23.0205 64.0105ZM23.0205 64.0105C23.2408 64.011 23.4531 63.9308 23.6177 63.7854L23.6184 63.7848M23.0205 64.0105L23.6184 63.7848M23.6184 63.7848L31.3105 57.0236V57.0223M23.6184 63.7848L31.3105 57.0223M31.3105 57.0223L31.4471 56.9028M31.3105 57.0223L31.4471 56.9028M31.4471 56.9028C31.627 56.7454 31.7354 56.5248 31.75 56.2884L31.75 56.2876M31.4471 56.9028L31.75 56.2876M31.75 56.2876C31.7652 56.0515 31.685 55.8192 31.5264 55.6412L31.75 56.2876Z" fill="#FF4E6D" stroke="white" stroke-width="0.8"/>
<path d="M28.8833 67.289C29.1062 67.2877 29.3213 67.2035 29.486 67.0532L29.4862 67.053L37.1917 60.0338L37.1919 60.0336C37.5582 59.7003 37.5833 59.1356 37.2473 58.771L37.2473 58.771C36.9102 58.4052 36.3376 58.3804 35.9697 58.7158L35.9696 58.7158L28.2643 65.7342C27.9899 65.9845 27.8991 66.3746 28.0332 66.7173C28.1675 67.0608 28.501 67.289 28.8752 67.289H28.8833Z" fill="#FF4E6D" stroke="white" stroke-width="0.8"/>
<path d="M39.3352 66.0706C39.4532 65.6988 39.3154 65.2933 38.9919 65.0684C33.6286 61.3476 27.925 58.1368 21.9563 55.4765L21.9561 55.4765C21.5001 55.2729 20.9652 55.4768 20.7615 55.9278L20.7615 55.928C20.5587 56.3764 20.7593 56.9059 21.2152 57.1092C27.0795 59.7229 32.6844 62.8784 37.9549 66.5345L37.9557 66.535C38.1068 66.6404 38.2876 66.6973 38.4724 66.6973V66.6973C38.8687 66.6973 39.2172 66.442 39.3352 66.0706Z" fill="#FF4E6D" stroke="white" stroke-width="0.8"/>
<path d="M25.6041 88.058C25.7388 88.1376 25.8937 88.1806 26.0532 88.1823L26.0633 88.1823C26.4714 88.1828 26.8277 87.9112 26.9349 87.5228C27.0418 87.1352 26.8749 86.7228 26.524 86.5164C26.5239 86.5164 26.5239 86.5164 26.5238 86.5164L4.50096 73.5874C3.85633 73.261 3.27165 72.8268 2.77394 72.3043L2.77193 72.3021C2.43018 71.938 2.28999 71.4293 2.39714 70.9419L2.40598 70.9017L2.42284 70.8641C2.62416 70.4152 2.42337 69.8872 1.96848 69.6839C1.51496 69.4812 0.984606 69.6799 0.777424 70.1228C0.56505 70.6628 0.503714 71.2501 0.599461 71.8223C0.695667 72.3973 0.946337 72.9354 1.32606 73.3796C1.95173 74.0895 2.70611 74.6767 3.54981 75.1113L3.55963 75.1164L3.56915 75.1219L25.6031 88.0574L25.6041 88.058Z" fill="#FF4E6D" stroke="white" stroke-width="0.8"/>
<path d="M78.2319 60.3237L77.799 60.331C75.2718 60.3737 72.8157 59.4994 70.8917 57.8723C70.522 57.5442 70.4891 56.9819 70.8179 56.6131L78.2319 60.3237ZM78.2319 60.3237C80.2668 60.2527 82.2527 59.6686 84.0023 58.6246C87.8684 56.1086 90.4825 52.0857 91.2 47.5508L91.2015 47.5415L91.2034 47.5322C91.9805 43.7781 91.5133 39.8739 89.8698 36.406C88.1555 32.862 84.9401 30.2602 81.098 29.3112C80.8646 29.2597 80.6205 29.3022 80.4185 29.4289C80.2153 29.5571 80.0728 29.7587 80.0205 29.9897C79.9688 30.2217 80.0113 30.4639 80.1397 30.6641L80.1398 30.6643C80.2681 30.8646 80.4717 31.0068 80.7067 31.0586L80.7067 31.0585L80.7182 31.0614C84.0264 31.8951 86.7909 34.1494 88.2579 37.2139L88.2579 37.2139L88.2592 37.2167C89.7219 40.3335 90.1323 43.8369 89.4281 47.2034C88.8084 51.2369 86.505 54.8226 83.0867 57.0804L83.0795 57.0851L83.0722 57.0895C79.5818 59.1859 74.8709 58.983 72.0946 56.5378L72.0944 56.5376C71.7208 56.2081 71.1488 56.2427 70.8179 56.613L78.2319 60.3237Z" fill="#FF4E6D" stroke="white" stroke-width="0.8"/>
<path d="M37.5134 85.8901L37.5218 85.8821L37.5307 85.8747C48.7406 76.4541 60.5884 67.8091 72.9882 59.9997L72.9892 59.999C73.1919 59.8722 73.3349 59.6709 73.387 59.44L73.387 59.44L73.3872 59.4391C73.4398 59.208 73.3977 58.9656 73.2699 58.7647L73.2699 58.7647C73.1424 58.5642 72.939 58.4217 72.7045 58.3699L72.7045 58.3699L72.7035 58.3697C72.4697 58.3175 72.2233 58.3604 72.021 58.4883L72.0204 58.4887C59.5743 66.325 47.6843 74.9999 36.43 84.4512C35.1356 85.6846 33.6403 86.691 32.0074 87.4269L32.0074 87.427L32.0027 87.429C30.5395 88.0658 28.8498 87.907 27.5333 87.0061L27.5155 86.994L27.4991 86.9799C27.1207 86.6561 26.549 86.6985 26.2226 87.0743C25.8993 87.4474 25.9402 88.0092 26.3146 88.3324C27.3463 89.1779 28.6489 89.6274 29.9865 89.5987L30.0417 89.5975L30.0455 89.5985C30.9205 89.5883 31.7875 89.4254 32.6073 89.1181C34.4198 88.3342 36.0807 87.2425 37.5134 85.8901Z" fill="#FF4E6D" stroke="white" stroke-width="0.8"/>
</svg>
