<svg width="95" height="53" viewBox="0 0 95 53" fill="none" xmlns="http://www.w3.org/2000/svg">
<path d="M81.9514 35.393C81.8308 35.1052 81.5424 35.0106 81.1423 34.8801C80.9423 34.813 80.6988 34.734 80.4186 34.614L80.0575 34.4537C78.2101 33.6396 74.7685 32.1166 70.7095 32.9127C67.0881 33.6306 63.9319 34.9703 61.0618 37.01C59.1477 38.3698 58.0989 40.3432 58.0951 42.5849C52.2007 45.5892 47.6121 49.8109 44.4745 55.107C43.8272 55.9136 43.3342 56.8119 43.0084 57.7744L42.9844 57.9146C41.9161 60.1929 41.0988 62.6001 40.5474 65.0914C40.3946 63.4774 40.2972 62.0035 40.25 60.6273C40.2739 59.9601 40.2679 59.2839 40.232 58.6286C40.1975 54.4784 40.5002 50.4034 41.1107 46.421C41.6277 44.7474 44.1741 37.6271 50.4071 35.0327C50.954 35.4935 51.7204 35.4547 52.1961 35.3138C52.7603 35.5449 53.4315 35.7499 54.0803 35.949L54.3867 36.0444C55.246 36.2986 55.7779 36.4037 56.1128 36.4037C56.4296 36.4037 56.5705 36.3105 56.6454 36.1674C56.8087 35.8498 56.5263 35.4696 55.5996 34.7547C55.4482 34.6391 55.2677 34.537 55.1014 34.4252C55.2752 34.4527 55.4452 34.4676 55.6086 34.4676C57.5398 34.4676 58.7302 32.6606 59.5401 31.429L59.645 31.2709C60.1829 30.4621 60.0413 29.0949 59.3207 28.1578C58.4644 27.0455 56.993 26.7309 55.279 27.2975C54.2489 27.6382 53.5597 28.1698 53.0786 28.7639C53.0569 28.0758 52.9048 27.847 52.6801 27.7784C52.34 27.6621 51.9968 28.002 51.4911 28.9048C50.9046 29.9403 50.4955 31.2978 50.4506 32.3401C50.1576 32.5175 49.834 32.9044 49.8018 33.4963C46.4314 34.8695 44.0526 37.3505 42.4346 39.7912C44.1262 33.0162 46.7894 26.5817 50.3607 20.6015C50.4101 20.6008 50.458 20.5963 50.5075 20.5888C50.7337 20.5493 50.9293 20.4084 51.1188 20.2258C51.0544 20.5784 51.0371 20.9064 51.1038 21.1771C51.19 21.5319 51.3937 21.7861 51.6942 21.9144H51.6949C51.9459 22.0187 52.1721 22.0724 52.3736 22.0724C52.5325 22.0724 52.6763 22.0403 52.8089 21.9762C52.9108 21.9263 52.9902 21.8413 53.0711 21.7593C53.0854 21.927 53.1251 22.0814 53.2075 22.2185C53.3783 22.5026 53.6952 22.6822 54.1776 22.7665C54.2346 22.7761 54.2893 22.7829 54.3454 22.7829C54.6009 22.7829 54.8451 22.677 55.0616 22.4765C55.1208 22.63 55.2025 22.762 55.3164 22.8701C55.5164 23.0594 55.7936 23.1519 56.1584 23.1519C56.2378 23.1519 56.3217 23.1474 56.4094 23.1377H56.4101C56.7323 23.1049 57.002 22.9208 57.1878 22.6069C57.4649 22.1402 57.5324 21.4082 57.4357 20.571C58.1362 21.8972 58.8434 22.9819 59.6848 23.2138C59.7957 23.2459 59.9073 23.2608 60.0167 23.2608C60.2602 23.2608 60.5021 23.1862 60.7381 23.0364C60.8962 22.938 61.088 22.736 61.1165 22.3394C61.1307 22.1418 61.085 21.9003 61.0146 21.6446C61.4259 21.9897 61.8326 22.2193 62.235 22.2566C62.2769 22.2611 62.3174 22.2633 62.3571 22.2633C62.6785 22.2633 62.9744 22.1418 63.2388 21.8965C63.3767 21.7728 63.531 21.5417 63.4898 21.1473C63.4748 20.9997 63.4284 20.8372 63.361 20.665C64.042 21.0318 64.651 21.2606 65.1485 21.2606C65.4923 21.2606 65.7845 21.1518 66.0122 20.911C66.1388 20.7783 66.1861 20.5979 66.1433 20.4026C66.0467 19.9582 65.4174 19.3432 64.5379 18.6976C65.2099 18.9145 65.8354 19.0748 66.3314 19.0748C66.8888 19.0748 67.3105 18.9071 67.548 18.506C67.6447 18.3457 67.6492 18.1541 67.5623 17.9692C67.3525 17.5205 66.4902 17.0113 65.3634 16.5401C65.5575 16.5506 65.7845 16.5863 65.9658 16.5863C66.8296 16.5863 67.5405 16.4604 68.0035 16.1197C68.3159 15.8908 68.5017 15.5754 68.5564 15.1826C68.5803 15.0051 68.5519 14.742 68.2814 14.4848C67.9256 14.1463 67.2266 13.9108 66.3696 13.7602C67.1891 13.5261 67.8402 13.2174 68.19 12.7672C68.4283 12.4593 68.5212 12.1022 68.465 11.7078C68.441 11.5326 68.3428 11.2881 68.0125 11.1121C67.4423 10.8147 66.3561 10.8408 65.1192 11.0607C65.9785 10.4218 66.598 9.78367 66.7636 9.13143C66.8602 8.7542 66.8033 8.3919 66.5935 8.05196C66.5014 7.90211 66.3141 7.71649 65.9448 7.6874C65.9118 7.68293 65.8758 7.68293 65.8406 7.68293C65.3544 7.68293 64.6914 7.94609 63.9685 8.35387C64.4315 7.72766 64.7184 7.12901 64.7117 6.56616C64.7064 6.09948 64.5004 5.68647 64.0996 5.34356H64.0988C63.916 5.18775 63.5909 5.02373 63.083 5.14227C62.784 5.20936 62.4484 5.38829 62.0993 5.6179C62.2312 5.1937 62.2776 4.79934 62.2057 4.4415C62.1136 3.98228 61.8341 3.61549 61.3764 3.35008C61.1689 3.22931 60.8213 3.13314 60.3411 3.34039C60.0654 3.46041 59.7717 3.69301 59.4765 3.97703C59.5042 3.4343 59.457 2.97657 59.3087 2.66347C59.1484 2.32502 58.9072 2.21318 58.7319 2.1804H58.7289C58.3355 2.11106 57.9752 2.19009 57.6568 2.41523C57.3152 2.65677 57.0455 3.06904 56.817 3.5812C56.7361 2.99524 56.5968 2.50694 56.3787 2.1983C56.157 1.88742 55.9015 1.81065 55.727 1.80095C55.3314 1.76889 55.001 1.90159 54.7381 2.16551C54.4759 2.42718 54.3073 2.82601 54.1935 3.30836C53.9732 2.3914 53.6661 1.6474 53.2787 1.27469C53.0031 1.01302 52.7408 0.983208 52.5686 1.00632H52.5663C52.0778 1.07714 51.7085 1.31942 51.4665 1.7302C51.3751 1.88601 51.3077 2.06493 51.2567 2.25578C51.0358 1.86439 50.8013 1.54308 50.5555 1.36267C50.2476 1.13827 49.9802 1.14797 49.8154 1.19493C49.3396 1.32539 49.0033 1.61092 48.8175 2.04854C48.6759 2.38103 48.6369 2.78361 48.6662 3.22494C48.3493 2.8768 48.0376 2.60841 47.7477 2.4951C47.3963 2.36017 47.1491 2.4459 47 2.53983L47.0008 2.54281C46.6659 2.75752 46.4554 3.06018 46.3782 3.44039C46.2644 4.00026 46.4546 4.69506 46.812 5.46891C46.131 4.91501 45.492 4.53927 45.002 4.4923C44.6409 4.44757 44.4117 4.6086 44.2941 4.7413C44.0296 5.04173 43.912 5.38765 43.9404 5.7768C43.9929 6.45967 44.5053 7.20593 45.2627 7.99541C44.2071 7.48101 43.2938 7.1843 42.8234 7.31477C42.6279 7.37068 42.4885 7.4989 42.4301 7.67186C42.1476 8.50905 42.9477 9.29332 44.2258 10.0693C43.171 9.83296 42.3013 9.76437 41.9004 9.97834C41.7221 10.0745 41.6135 10.2281 41.594 10.41C41.5071 11.2136 42.2892 11.781 43.5111 12.2417C43.3373 12.3028 43.1875 12.3744 43.0661 12.4579C42.7387 12.6845 42.6623 12.9529 42.6571 13.1385C42.6421 13.5426 42.7702 13.8758 43.0362 14.13C43.4032 14.4826 44.0026 14.6474 44.7382 14.707C44.5607 14.801 44.4056 14.9023 44.2903 15.0172C44.0221 15.2811 43.9951 15.5465 44.0198 15.7216C44.0722 16.0996 44.2461 16.3926 44.5367 16.5842C44.8312 16.7818 45.2244 16.86 45.6867 16.86C46.1924 16.86 46.7872 16.7616 47.4225 16.6229C47.3438 16.7124 47.2315 16.7959 47.1768 16.8898C46.9932 17.2074 46.9663 17.5287 47.0974 17.8247C47.2906 18.2727 47.5409 18.5389 47.86 18.6373C47.9567 18.6693 48.0541 18.682 48.1544 18.682C48.568 18.682 49.0355 18.4427 49.6003 18.1027C49.3171 18.5485 49.1126 18.9832 49.0969 19.3544C49.0961 19.3939 49.1134 19.4253 49.1149 19.4625C48.2151 20.9543 47.3791 22.4802 46.5902 24.0303C46.5647 22.924 46.2861 21.758 45.5332 20.6553C42.6136 16.3964 41.2113 14.5377 40.4351 14.5377C40.4022 14.5377 40.3684 14.5422 40.3385 14.5496C40.1894 14.5817 39.9984 14.6972 39.9354 15.0625C39.8837 15.3749 39.6732 15.8714 39.4305 16.4477C38.6619 18.2712 37.4992 21.0242 38.8986 23.2884C40.6074 26.037 42.9044 28.0552 44.3127 28.9602C42.0247 34.4373 40.3796 40.1994 39.4582 46.1752C39.4268 46.2863 39.408 46.3601 39.4005 46.3899L39.3384 46.6345L39.4028 46.6509C39.1578 48.3118 38.9451 49.9832 38.8087 51.6724C38.6679 51.2788 38.4821 50.8919 38.3225 50.5013L38.3892 50.4647L38.2678 50.2433C38.2086 50.1345 38.1464 50.039 38.0865 49.9324C37.5688 48.7374 36.995 47.5535 36.3035 46.401L36.2668 46.3376C35.585 45.203 34.9445 44.1085 34.3257 43.0322C36.0271 41.0729 41.2315 34.4045 39.9481 27.3804C39.7915 25.8908 39.4919 25.1453 38.9772 24.9575C38.3823 24.7406 37.7883 25.3206 37.1515 25.9319C36.8945 26.1764 36.6293 26.4307 36.3761 26.62C35.3018 27.4229 31.5838 32.2544 31.1912 37.083C31.1844 37.1673 31.1987 37.2426 31.1942 37.3253C31.0331 37.0145 30.8578 36.6894 30.7042 36.3867C30.6151 36.1676 30.1274 34.986 29.2164 33.3355C26.4198 27.2812 25.3768 22.9194 26.1058 20.3578C26.2174 20.3332 26.3343 20.331 26.44 20.2773C27.0438 19.9739 27.3142 19.3179 27.3914 19.0994C27.9885 18.7423 28.6372 18.2622 29.3108 17.7635C29.8899 17.3341 30.2255 17.0284 30.4555 16.775C33.6109 14.9858 33.9009 14.1695 33.9226 13.9897L33.9271 13.9569L33.9218 13.9241C33.6956 12.4346 32.9936 12.0835 32.4213 12.0552C32.6535 11.5922 32.6565 11.3648 32.6415 11.2836L32.6198 11.2202C31.9388 9.8194 31.1342 9.72098 30.5694 9.88872C30.2383 9.98713 29.9087 10.2212 29.5858 10.5343C29.8083 9.60096 29.6989 9.26921 29.6457 9.17453L29.603 9.11862C28.4912 8.02199 27.6941 8.19495 27.2176 8.53638C26.9097 8.76003 26.6535 9.13278 26.4399 9.592C26.2684 8.92701 26.0781 8.72646 26.0009 8.6728L25.9432 8.64074C24.4741 8.09801 23.8223 8.58483 23.5333 9.08654C23.3999 9.31838 23.328 9.61212 23.2905 9.93864C22.9789 9.40337 22.7609 9.26844 22.677 9.23638L22.6118 9.21998C21.0446 9.05 20.5442 9.70082 20.3929 10.2629C20.1576 11.1434 20.676 12.4764 21.4552 13.7959C21.354 14.0665 21.4604 14.5384 21.79 15.3406C22.301 16.5811 23.17 17.8193 23.9693 18.5373C23.9229 18.9078 24.009 19.4617 24.5199 19.903C23.9895 21.7645 24.1828 24.2143 25.1245 27.3715C22.707 24.5385 20.013 22.3945 17.0987 20.9855C16.5121 19.2239 14.7606 15.3019 10.6087 14.4854C4.41917 13.2777 1.57001 12.8662 1.08153 13.608C0.989386 13.7481 0.928705 13.9852 1.16544 14.3259C1.39019 14.6435 1.63441 15.2473 1.9176 15.9473C2.79863 18.1287 4.12985 21.429 7.21337 22.173C10.8302 23.0527 14.4113 22.9103 16.4206 22.5159C22.3404 25.413 26.1336 31.1682 27.8671 34.3343C28.2634 35.1827 28.6912 36.0579 29.1325 36.9302C25.836 33.4026 22.5839 30.9611 19.4323 29.6311C19.3252 28.9534 18.7543 28.4845 18.3206 28.2728C18.0277 27.6637 17.6276 26.9928 17.2403 26.3435L17.1901 26.26C16.3016 24.763 15.9248 24.52 15.6131 24.6482C15.276 24.7698 15.225 25.2424 15.4273 26.3838C15.4603 26.5716 15.5232 26.7752 15.5704 26.9712C14.1612 25.2089 11.8223 25.7911 10.2723 26.178L10.0715 26.2295C9.1276 26.4606 8.30503 27.5632 8.1994 28.7366C8.07279 30.1359 8.94331 31.36 10.59 32.098C11.3257 32.4253 11.9977 32.5572 12.6068 32.5572C12.8248 32.5572 13.0249 32.5222 13.2264 32.4909C12.7806 33.009 12.7214 33.2916 12.8383 33.4921C12.9252 33.6397 13.0818 33.7158 13.3343 33.7158C13.6017 33.7158 13.974 33.6323 14.4842 33.466C15.6207 33.0858 16.8426 32.3575 17.5819 31.6276C17.931 31.6984 18.4435 31.6284 18.8705 31.1915C23.2913 33.0962 27.3585 37.2009 30.2915 40.8016C29.3558 40.2224 28.4021 39.7959 27.4335 39.5246C25.2198 38.9036 23.5154 39.2726 22.5961 39.6014C22.1204 39.3061 21.5578 39.333 21.3892 39.3524C20.8865 39.0243 20.2865 38.7023 19.6504 38.3713C19.0863 38.0753 18.7147 37.9255 18.4263 37.842C15.8387 36.0722 15.0798 36.1602 14.9262 36.2086L14.8663 36.2384C13.8017 36.9653 13.7643 37.6318 13.9441 38.0992C13.5163 38.0992 13.3417 38.1805 13.2833 38.2207L13.2346 38.2677C12.3776 39.3472 12.615 40.0271 12.9649 40.4088C13.153 40.6138 13.4459 40.7659 13.7778 40.8949C13.0129 41.0745 12.8061 41.2788 12.7544 41.3556L12.7244 41.4145C12.2682 42.7109 12.7147 43.276 13.1702 43.5213C13.4451 43.6711 13.807 43.7352 14.2198 43.7374C13.8115 44.0923 13.7321 44.301 13.7193 44.3786L13.7126 44.4114L13.7156 44.4442C13.8422 45.8114 14.4857 46.1424 15.0019 46.1775C15.0341 46.1797 15.0656 46.1797 15.0978 46.1797C15.2881 46.1797 15.5008 46.1126 15.7143 46.0425C15.4326 46.4667 15.4079 46.6829 15.4147 46.7589L15.4289 46.8238C15.8282 47.9204 16.3976 48.1992 16.8725 48.1992C16.9572 48.1992 17.0388 48.1896 17.116 48.1754C17.9004 48.027 18.7552 47.1183 19.5014 46.0119C19.7584 45.9754 20.0888 45.7189 20.5832 45.171C21.3638 44.3115 22.0119 43.1738 22.2801 42.277C22.6224 42.154 23.0457 41.8088 23.1618 41.1379C23.8181 40.903 25.1779 40.5885 27.0259 41.1155C30.3597 42.0668 33.6786 45.3939 36.6415 50.719C37.7585 53.3244 38.432 55.9642 38.5825 58.6033L38.5848 59.231C38.5848 59.7088 38.5848 60.1852 38.602 60.6474L38.5953 60.9389C38.5923 61.0888 38.5878 61.2379 38.578 61.3877C37.1666 58.7405 34.0479 54.0527 29.1432 52.8391C27.9393 52.438 27.253 52.4104 26.916 52.7526C26.5264 53.1447 26.7646 53.8254 27.0156 54.544C27.1145 54.8281 27.2164 55.1203 27.2733 55.379C27.5153 56.498 29.9418 61.0746 33.543 63.0501C34.6824 63.6756 35.8361 63.9894 36.9913 63.9894C37.5906 63.9894 38.1907 63.8791 38.79 63.7091C38.9061 65.3902 39.0507 67.0318 39.2612 68.6332C40.2464 76.1016 40.0359 83.9769 38.6342 92.0368C38.557 92.4826 38.8589 92.909 39.3204 92.9903C39.3631 92.997 39.4066 93 39.4493 93C39.8523 93 40.1932 92.7122 40.2621 92.3171C41.49 85.2609 41.8765 78.5635 41.4136 72.4136C41.4068 72.3346 40.9708 64.3391 45.7774 56.1364C48.0167 53.3804 52.1409 52.3054 55.2566 51.8916C56.7347 53.3968 59.4272 55.4341 62.6695 56.7523C65.6151 57.9578 68.6419 56.0456 70.6459 54.7835C71.2774 54.3869 71.822 54.044 72.1839 53.918C72.5772 53.7831 72.6701 53.5564 72.6791 53.3887C72.724 52.503 70.1776 51.1775 64.4524 48.5436C60.4317 46.6896 56.5975 49.064 55.0805 50.2247C53.3461 50.4484 50.9609 50.9218 48.7539 51.9275C51.4216 48.7672 54.775 46.1379 58.738 44.0997C60.5734 45.1985 66.1735 48.2141 69.3267 46.281C70.395 45.6258 71.6333 45.048 72.9451 44.4367C76.0556 42.9867 79.2717 41.4883 80.6614 38.7202L80.8546 38.34C81.8323 36.4046 82.129 35.8164 81.9514 35.3945V35.393ZM50.351 33.2729C50.4424 32.9911 50.6259 32.8271 50.7293 32.7674L50.9526 32.8047L50.9548 32.5087C50.9615 31.5403 51.3638 30.1626 51.9355 29.1548C52.2494 28.5949 52.4329 28.3854 52.5206 28.3101C52.5595 28.4354 52.6045 28.7932 52.543 29.6192C52.5355 29.7161 52.5333 29.7914 52.5228 29.9025L52.4576 30.5929L52.388 31.3249L52.6284 31.105L52.8757 30.8784C53.2105 30.5727 53.5492 30.2984 53.8788 30.0658C54.4924 29.6341 54.7905 29.4992 54.9246 29.4575C54.8857 29.6207 54.7269 30.0293 54.1095 30.9708C53.8166 31.4248 53.5095 31.8826 53.2158 32.3045L52.8794 32.7899L53.4645 32.6967C54.0339 32.6057 54.6257 32.5617 55.1808 32.5826C55.879 32.6042 56.181 32.6713 56.3083 32.7175C56.1862 32.8204 55.8431 33.0374 54.9006 33.3862C54.7231 33.4533 54.544 33.5167 54.3673 33.5816C54.2339 33.63 54.1021 33.6777 53.9702 33.7262C53.9275 33.7426 53.8833 33.7575 53.8413 33.7732L53.3087 33.9715L53.7417 34.1959L53.8114 34.2324C54.341 34.5082 54.8535 34.828 55.2917 35.1576C55.8102 35.5587 56.0274 35.7853 56.1166 35.9038H56.1158C55.9323 35.9038 55.5038 35.8524 54.5373 35.5654L54.2324 35.4699C53.5582 35.2649 52.8622 35.0517 52.3012 34.8124L52.0487 34.7058L52.0022 34.846C51.8 34.8929 51.3834 34.9369 51.0074 34.7826C50.91 34.7423 50.8133 34.7036 50.7257 34.6275C50.6665 34.5753 50.626 34.4829 50.5751 34.4113C50.5189 34.3308 50.4492 34.2809 50.4088 34.172C50.3586 34.0341 50.3563 33.9312 50.3376 33.8172C50.3249 33.7359 50.2911 33.6397 50.2926 33.5689C50.2934 33.4511 50.3234 33.3624 50.3511 33.273L50.351 33.2729ZM58.9184 28.4689C59.5754 29.3225 59.5874 30.4451 59.221 30.9953L59.1147 31.1556C58.2546 32.4572 57.0883 34.2412 55.1516 33.9267L55.0003 33.9013C54.9898 33.8991 54.9823 33.8984 54.9711 33.8969C55.0063 33.8842 55.0422 33.8715 55.076 33.8581C56.6372 33.2781 56.9211 32.9441 56.8687 32.6235C56.811 32.2664 56.3413 32.1151 55.1943 32.0771C54.7898 32.0629 54.3695 32.0838 53.9515 32.1241C54.147 31.8363 54.3433 31.5381 54.5336 31.2444C55.524 29.7392 55.5682 29.2874 55.3164 29.0473C55.0482 28.7864 54.5635 28.9631 53.5844 29.6534C53.3963 29.7861 53.2053 29.9315 53.0143 30.0873L53.027 29.9524C53.0345 29.8659 53.039 29.7973 53.045 29.7175C53.4435 28.9429 54.1552 28.2034 55.44 27.7785C55.9899 27.5966 56.4649 27.5243 56.8739 27.5243C57.9872 27.5243 58.6105 28.0678 58.9183 28.4688L58.9184 28.4689ZM49.9323 34.3471C49.975 34.4605 50.0507 34.5164 50.1061 34.6081C45.4898 36.5769 42.8564 40.9225 41.559 43.8314C41.7193 42.9889 41.8939 42.1525 42.0819 41.3198C43.6184 38.6233 46.0945 35.5936 49.8642 34.014C49.8897 34.1258 49.8874 34.2227 49.9324 34.3472L49.9323 34.3471ZM50.5121 16.9539C50.2537 17.1074 50.0109 17.2573 49.7847 17.3974C48.9988 17.885 48.3695 18.2719 48.0114 18.1549C47.8406 18.1012 47.6945 17.9282 47.5627 17.6226H47.5619C47.4975 17.475 47.5155 17.3169 47.6166 17.1417C47.7725 16.8734 48.1463 16.5863 48.6467 16.3262C49.1771 16.0503 49.8799 15.8252 50.71 15.6858C50.8665 15.6589 51.0029 15.6172 51.1684 15.5993C51.1879 15.5971 51.1999 15.5971 51.2186 15.5948C51.2935 15.688 51.3565 15.7879 51.4374 15.8781C51.4936 15.9393 51.564 15.9892 51.6232 16.0488C51.6262 16.0533 51.6307 16.0563 51.6352 16.0593C51.6209 16.069 51.6104 16.0794 51.5977 16.0891C51.3849 16.2375 51.1909 16.397 50.9984 16.5573C50.859 16.6751 50.7189 16.7861 50.5916 16.9076C50.5616 16.9241 50.5414 16.9367 50.5122 16.9539H50.5121ZM44.8192 16.1651C44.6491 16.0526 44.5562 15.8893 44.524 15.6522L44.5233 15.65C44.5188 15.6172 44.5038 15.5173 44.6491 15.3742C44.9705 15.0558 45.7436 14.8247 46.6554 14.6958C47.1304 14.6287 47.6308 14.5817 48.1492 14.5817C48.1657 14.5817 48.1807 14.5847 48.1964 14.5847C48.6669 14.5869 49.1396 14.6145 49.5839 14.6816C50.2506 14.7822 50.5795 14.8836 50.7406 14.9552C50.7608 14.988 50.79 15.0163 50.8102 15.0484C50.763 15.0857 50.6724 15.1378 50.533 15.2042C49.7502 15.3429 49.0415 15.5591 48.4654 15.8476C46.9941 16.2285 45.4486 16.5819 44.8192 16.1651L44.8192 16.1651ZM43.3883 13.7662C43.228 13.6126 43.1553 13.4136 43.165 13.1549V13.1526C43.1658 13.1154 43.1695 12.9991 43.3561 12.8708C43.5891 12.7098 43.9809 12.6092 44.4551 12.5548C44.7008 12.5272 44.9645 12.5078 45.2507 12.5063H45.2649C45.7684 12.5063 46.3257 12.5585 46.8846 12.6412C47.1993 12.6875 47.4922 12.7717 47.8031 12.8433C48.1342 12.92 48.4751 12.976 48.7823 13.0803C49.2774 13.2503 49.5651 13.3756 49.7629 13.4717C50.0281 13.6007 50.1128 13.6745 50.1293 13.682C50.121 13.6924 50.0851 13.7215 50.0034 13.7587C49.8154 13.8452 49.3396 13.9802 48.1859 14.0771C47.6121 14.0748 47.0315 14.1173 46.4876 14.1986C45.1383 14.2694 43.8804 14.2374 43.3883 13.7662L43.3883 13.7662ZM42.102 10.4636L42.1447 10.4218V10.4196C42.2481 10.3637 42.4174 10.3361 42.6399 10.3361C43.4452 10.3361 44.9532 10.6954 46.579 11.297C47.3955 11.5982 48.2383 11.9575 49.043 12.3698C49.1914 12.4459 49.3037 12.5085 49.4266 12.5748C49.6476 12.6948 49.8371 12.8 49.9885 12.8902C49.996 12.9476 50.0207 13.0027 50.0304 13.0601C49.7637 12.914 49.4281 12.7642 48.9486 12.6009C47.4975 12.1059 45.8022 11.9188 44.5427 12.041C43.1126 11.6146 42.0307 11.1062 42.1019 10.4636L42.102 10.4636ZM42.9126 7.83273L42.9643 7.80067C43.0085 7.78651 43.0609 7.78129 43.1201 7.78129C43.7464 7.78129 45.2282 8.44254 46.8277 9.443C47.6428 9.95293 48.4856 10.5448 49.267 11.1934C49.5742 11.4499 49.7974 11.6489 49.9855 11.8226C49.981 11.8569 49.9727 11.8897 49.9705 11.924C49.9622 12.0284 49.96 12.1335 49.9585 12.2401C49.8723 12.2088 49.775 12.1715 49.6708 12.1313C49.5442 12.0627 49.4228 11.9963 49.2753 11.9218C48.5321 11.5401 47.6908 11.18 46.8457 10.8647C44.6477 9.82766 42.6107 8.72888 42.9126 7.83266V7.83273ZM44.4476 5.7357C44.4281 5.48595 44.5038 5.26976 44.6754 5.07519V5.07296C44.7076 5.03792 44.7653 4.98946 44.8941 4.98946C44.9136 4.98946 44.9331 4.9917 44.9541 4.99393C45.5511 5.04985 46.5475 5.80206 47.5648 6.85321C47.9469 7.24832 48.3305 7.6807 48.6991 8.14292C49.174 8.74006 49.6213 9.37448 49.9951 10.0067C49.9959 10.0089 49.9974 10.0096 49.9981 10.0119C50.1315 10.237 50.2236 10.4115 50.3172 10.5859C50.2933 10.6373 50.2805 10.694 50.2596 10.7462C50.1944 10.9042 50.1285 11.0623 50.0843 11.2293C49.9374 11.1003 49.7764 10.9609 49.5921 10.8081C48.8631 10.2012 48.0076 9.59513 47.1476 9.05391C45.7234 7.82607 44.5172 6.63778 44.4476 5.73564V5.7357ZM47.2765 2.96402C47.3236 2.93643 47.4046 2.90065 47.5641 2.96625C47.9327 3.10939 48.386 3.59546 48.8489 4.27238C49.1554 5.46964 49.7809 6.80111 50.3915 7.9126L50.563 8.22496C50.7233 8.5157 50.8462 8.73787 50.9758 8.96896C50.993 9.03308 51.0178 9.09793 51.0335 9.1613C51.0687 9.29847 51.0859 9.38793 51.1144 9.50647C50.981 9.63395 50.8462 9.75993 50.7331 9.90755C50.6889 9.96496 50.6604 10.0313 50.6192 10.0917C50.5525 9.97316 50.5173 9.8904 50.4387 9.75845C49.7944 8.66854 48.8924 7.50778 47.9687 6.54687C47.2337 5.33842 46.731 4.25231 46.8764 3.54254C46.9251 3.29355 47.0577 3.10642 47.2764 2.96405L47.2765 2.96402ZM49.2835 2.24611C49.4078 1.95462 49.6251 1.76824 49.9495 1.67952H49.9502C49.9622 1.67728 49.9825 1.67206 50.0117 1.67206C50.0634 1.67206 50.1435 1.68995 50.2544 1.77047C50.5616 1.99487 50.874 2.5279 51.1586 3.21673C51.2718 3.48958 51.3789 3.78181 51.48 4.0994C51.6928 4.76811 51.8763 5.51211 52.0059 6.28002C52.0749 6.68409 52.1228 7.08815 52.1595 7.48847C52.1842 7.75684 52.2067 8.02597 52.2142 8.28541C52.2195 8.47328 52.221 8.62386 52.2217 8.7752C52.0119 8.8669 51.8149 8.97426 51.6291 9.09726C51.5699 8.99438 51.5078 8.88479 51.4456 8.77223C51.3047 8.52025 51.1579 8.25635 51.0066 7.97902L50.8358 7.6689C50.8118 7.6264 50.799 7.59062 50.7766 7.54887C50.3061 6.67887 49.9645 5.9043 49.697 5.18942C49.5509 4.79803 49.4251 4.42603 49.3427 4.09205C49.1509 3.30778 49.1074 2.65846 49.2835 2.24619V2.24611ZM52.6374 1.50657C52.6719 1.49464 52.773 1.49017 52.9251 1.63703C53.442 2.13503 53.8443 3.65143 54.0031 5.35703C54.0646 6.01679 54.0915 6.70341 54.0706 7.37277C54.0608 7.70749 54.0406 8.03776 54.0084 8.35607C54.0054 8.38142 54.0031 8.39782 54.0009 8.42242C53.8009 8.42317 53.5993 8.40826 53.4023 8.43286C53.2959 8.44702 53.1985 8.48132 53.0952 8.50144C53.0255 8.32327 52.9536 8.14137 52.8816 7.95499L52.7273 7.56062C52.7003 7.4898 52.6869 7.43239 52.6599 7.36382C52.5205 5.92725 52.164 4.35644 51.6845 3.15181C51.6897 2.67172 51.7437 2.25647 51.9032 1.98362C52.0651 1.70927 52.3063 1.55347 52.6374 1.5065L52.6374 1.50657ZM55.6415 2.30277C55.661 2.30277 55.6805 2.30277 55.6992 2.305H55.7C55.7329 2.30724 55.8378 2.31171 55.9629 2.48914C56.2484 2.89395 56.3795 3.77662 56.3817 4.83886C56.3825 5.2951 56.3667 5.77371 56.318 6.27842C56.2454 7.03063 56.112 7.80669 55.9322 8.5455C55.9172 8.60887 55.9 8.66851 55.8835 8.73113C55.8086 8.70578 55.7367 8.66627 55.6603 8.64242C55.3239 8.54103 54.9845 8.47915 54.6444 8.44038C54.6414 8.3882 54.6369 8.34496 54.6347 8.29054L54.6279 8.20406C54.6107 7.92375 54.5935 7.63898 54.5785 7.35345C54.595 6.71755 54.5732 6.05405 54.5163 5.40318C54.5163 4.09259 54.6422 2.97732 55.0961 2.52177C55.243 2.37416 55.4213 2.3026 55.6415 2.3026L55.6415 2.30277ZM58.4577 2.6621C58.5154 2.6621 58.5761 2.66657 58.6368 2.6785C58.693 2.68819 58.7731 2.72248 58.848 2.87978C59.0099 3.22272 59.0091 3.85416 58.8952 4.61978C58.006 5.7358 57.1632 7.37734 56.6701 9.04363C56.569 8.99219 56.4619 8.96535 56.3585 8.92062C56.6904 7.65402 56.8859 6.18692 56.8889 4.8987C57.1534 3.92284 57.4852 3.15647 57.949 2.82838C58.1055 2.71507 58.2733 2.66214 58.4576 2.66214L58.4577 2.6621ZM60.5426 3.8042C60.6647 3.75053 60.7756 3.72518 60.8753 3.72518C60.9652 3.72518 61.0468 3.74456 61.121 3.78855C61.4521 3.97791 61.6431 4.22467 61.7061 4.54001C61.7997 5.0052 61.6169 5.59488 61.2783 6.25317C61.1322 6.53721 60.9532 6.8369 60.7554 7.14331C60.2429 7.9395 59.5957 8.79234 58.9491 9.63692L58.8285 9.79124C58.6727 9.9955 58.5371 10.1617 58.403 10.328C58.3775 10.3012 58.3453 10.2788 58.3183 10.252C58.125 10.0596 57.9265 9.87175 57.7063 9.70253C57.698 9.69582 57.6913 9.68762 57.6823 9.68091C57.6209 9.63394 57.5527 9.60412 57.4898 9.55939C57.4208 9.51019 57.3467 9.47142 57.277 9.42445C57.2231 9.38942 57.1699 9.35587 57.1152 9.32158C57.465 8.08853 58.0217 6.84647 58.6465 5.83861C58.7776 5.62837 58.9087 5.41964 59.0428 5.23251C59.1544 5.07745 59.266 4.94401 59.3791 4.80832C59.7807 4.32673 60.1808 3.96069 60.5426 3.80413L60.5426 3.8042ZM63.4179 5.60756C63.5595 5.60756 63.6756 5.64707 63.7692 5.7261C64.0584 5.97509 64.2007 6.25093 64.2052 6.57224C64.215 7.40794 63.3205 8.46804 62.175 9.57503C61.6618 10.0723 61.1022 10.5777 60.5426 11.0787L60.4032 11.2047C60.3321 11.2681 60.2789 11.3113 60.2122 11.3702C59.9567 11.5946 59.7297 11.7862 59.529 11.9465C59.3259 11.5126 59.054 11.1063 58.7393 10.7238C58.8929 10.536 59.057 10.3287 59.2345 10.0984L59.3536 9.94257C60.2669 8.75127 61.1374 7.60087 61.6821 6.56839C62.232 6.08009 62.7616 5.7312 63.1954 5.63429C63.2748 5.6149 63.3497 5.60745 63.4179 5.60745L63.4179 5.60756ZM65.9051 8.18916C66.0759 8.20332 66.1329 8.26594 66.1621 8.31291L66.1628 8.31515C66.2984 8.53657 66.3344 8.7632 66.2722 9.00548C66.0842 9.74204 65.0638 10.5427 63.7857 11.3523C63.5183 11.5223 63.2403 11.6923 62.9542 11.8623C62.5631 12.0956 62.1638 12.3274 61.7622 12.5593C61.727 12.5794 61.6926 12.5995 61.6574 12.6204L61.4618 12.733C60.7913 13.1192 60.3381 13.345 59.971 13.5135C59.968 13.4882 59.9643 13.4621 59.9605 13.4352C59.9485 13.3465 59.9425 13.26 59.9253 13.1698C59.9126 13.1065 59.9156 13.0461 59.9006 12.9827C59.8939 12.9551 59.8804 12.9291 59.8736 12.9022C59.8497 12.8105 59.8099 12.7218 59.7822 12.6308C59.8789 12.5108 59.9575 12.4072 60.0796 12.2641C60.2385 12.0769 60.4145 11.8935 60.5876 11.7094C60.6438 11.6602 60.6835 11.6311 60.7411 11.579L60.882 11.453C61.4559 10.9386 62.014 10.4331 62.5264 9.93886C63.8367 8.90859 65.1328 8.18396 65.8309 8.18396C65.8578 8.18545 65.8811 8.18694 65.905 8.18917L65.9051 8.18916ZM67.775 11.5595C67.9279 11.6385 67.9556 11.7206 67.9616 11.7765L67.9623 11.7787C67.999 12.0374 67.9421 12.2588 67.7885 12.4571C67.3428 13.0296 66.1883 13.3584 64.7867 13.591C63.4562 13.5247 61.987 13.6059 60.7412 13.8355C60.5704 13.8668 60.4258 13.8974 60.2782 13.9287C60.6662 13.7461 61.1158 13.5172 61.7166 13.1713L61.9129 13.0587C62.6403 12.6397 63.3453 12.2282 63.9941 11.8197C65.6573 11.3828 67.172 11.2419 67.7752 11.5595L67.775 11.5595ZM68.053 15.1118V15.114C68.0185 15.3705 67.9039 15.5658 67.7016 15.7156C66.9727 16.2546 65.269 16.1174 63.3983 15.8446C62.4304 15.5531 61.4191 15.3056 60.4886 15.155C60.2683 15.1185 60.0728 15.0901 59.8892 15.064C59.9267 14.9142 59.9567 14.7636 59.9777 14.6086C59.9821 14.5757 59.9821 14.5422 59.9851 14.5094C60.2151 14.4535 60.4946 14.3953 60.8347 14.3327C60.9193 14.3163 61.0107 14.3081 61.0969 14.294C61.7187 14.1911 62.3675 14.1195 63.014 14.0875C63.6313 14.0576 64.2374 14.0651 64.8105 14.0957C66.2714 14.1739 67.4947 14.4334 67.9308 14.8479C68.056 14.9694 68.0604 15.0558 68.053 15.1118L68.053 15.1118ZM67.112 18.2466L67.1113 18.2489C66.6311 19.063 64.4541 18.2362 62.229 17.2581C61.4394 16.8309 60.6198 16.4351 59.8466 16.1264C59.7223 16.0765 59.6189 16.0385 59.5073 15.996C59.5672 15.8916 59.6436 15.7947 59.6931 15.6858C59.7126 15.6434 59.7186 15.5964 59.7373 15.5531C59.9313 15.5785 60.1516 15.612 60.4063 15.6538C61.3847 15.8133 62.3579 16.0556 63.2599 16.327C65.2692 16.9338 66.8813 17.7099 67.1023 18.1848C67.1225 18.228 67.1165 18.2399 67.112 18.2466L67.112 18.2466ZM65.6459 20.5645L65.6437 20.5667C65.1875 21.0446 64.1109 20.5742 62.844 19.7698C62.1158 18.7417 60.8669 17.5855 59.544 16.8101C59.3776 16.7139 59.2465 16.6506 59.1034 16.576C59.1461 16.5261 59.2008 16.488 59.242 16.4351C59.2488 16.4374 59.2563 16.4403 59.2638 16.4433C59.3919 16.4918 59.5087 16.5343 59.6593 16.5954C60.4564 16.9137 61.2498 17.2999 61.9945 17.7047C63.9544 18.7715 65.532 19.9823 65.6482 20.5115C65.6572 20.5525 65.6497 20.56 65.646 20.5644L65.6459 20.5645ZM62.898 21.5254L62.8958 21.5277C62.7055 21.7029 62.5047 21.7916 62.2845 21.7565C61.7413 21.7066 61.091 21.099 60.4295 20.3147C60.0078 19.5819 59.4272 18.8081 58.7604 18.1162C58.5229 17.7792 58.3461 17.5101 58.23 17.3103C58.3012 17.2663 58.3739 17.226 58.4405 17.1791C58.5125 17.1276 58.5911 17.0859 58.6593 17.0292C58.687 17.0069 58.708 16.9756 58.7342 16.9524C58.8945 17.0315 59.0616 17.1172 59.2871 17.2477C59.3882 17.3066 59.4879 17.3766 59.589 17.4422C60.0422 17.7307 60.4835 18.064 60.897 18.4211C61.3083 18.7782 61.6822 19.1487 62.0013 19.5155C62.1901 19.7332 62.3579 19.9464 62.4987 20.1521C62.7714 20.551 62.9565 20.9185 62.9865 21.2025C63.0097 21.4247 62.9258 21.5015 62.898 21.5253L62.898 21.5254ZM60.6123 22.3067C60.5959 22.5311 60.4992 22.593 60.4685 22.6124C60.2475 22.7503 60.0392 22.7876 59.822 22.7309C58.9432 22.4864 58.0435 20.6808 57.2509 19.0876L57.182 18.9497C56.9565 18.4942 56.8029 18.1461 56.6935 17.8703C56.9827 17.824 57.2561 17.7517 57.5191 17.6555C57.5715 17.698 57.6052 17.7197 57.6622 17.7689C57.8929 17.9657 58.1184 18.1834 58.3387 18.4093C59.0197 19.1085 59.6242 19.9144 60.0408 20.6479C60.4146 21.3062 60.6401 21.9078 60.6124 22.3066L60.6123 22.3067ZM56.3578 22.6377C56.0236 22.6676 55.7974 22.628 55.6663 22.5028C55.5442 22.3872 55.488 22.1718 55.461 21.9019C55.9068 21.0573 56.0971 19.7131 55.924 18.2558C55.9098 18.1358 55.891 18.0508 55.8746 17.9457C55.8895 17.9457 55.9045 17.9501 55.9195 17.9501C55.969 17.9501 56.0169 17.9501 56.0679 17.9479C56.0783 17.9479 56.0881 17.9449 56.0993 17.9434C56.178 18.0866 56.2656 18.264 56.372 18.5175C57.0972 20.2358 57.1129 21.747 56.7541 22.3485C56.6485 22.5267 56.5181 22.6199 56.3578 22.6378L56.3578 22.6377ZM54.7246 22.1032C54.5755 22.2434 54.4272 22.2963 54.2661 22.2709C53.9387 22.2135 53.7357 22.1129 53.6451 21.9608C53.4488 21.6336 53.6795 20.9484 53.9717 20.0851C54.0579 19.8287 54.1507 19.5529 54.2414 19.2599C54.4571 18.5755 54.6332 18.123 54.7718 17.8129C54.8984 17.8397 55.0243 17.8643 55.1509 17.8822C55.2183 17.8919 55.2865 17.8926 55.3546 17.9001C55.3644 17.9515 55.3726 18.0112 55.3816 18.0708C55.3943 18.1551 55.4071 18.2132 55.4206 18.3146C55.5644 19.5156 55.4303 20.5175 55.1883 21.2281C55.1157 21.4428 55.0355 21.6224 54.9434 21.7745C54.8707 21.8923 54.8033 22.0287 54.7246 22.1033L54.7246 22.1032ZM52.585 21.5232C52.424 21.6067 52.2015 21.5791 51.8936 21.4509C51.743 21.3875 51.6463 21.2593 51.5969 21.0588C51.4313 20.3781 51.8891 18.9407 53.0832 17.5065C53.1619 17.4126 53.2173 17.3559 53.2833 17.2821C53.4795 17.3835 53.6803 17.4722 53.8826 17.5505C53.8279 17.8785 53.7335 18.3176 53.5627 18.9326C53.4803 19.2241 53.4091 19.5015 53.3417 19.7586C53.1125 20.6488 52.9312 21.3533 52.585 21.5232V21.5232ZM52.7746 16.3762C52.7169 16.3345 52.654 16.3047 52.597 16.2622C52.5843 16.2525 52.5753 16.2406 52.5626 16.2309C52.5386 16.2115 52.5199 16.1891 52.4959 16.1697C52.4787 16.1556 52.4659 16.1399 52.4487 16.1257C52.4 16.0862 52.3596 16.0415 52.3131 16.0005C52.2951 15.9841 52.2786 15.9684 52.2607 15.952C52.2142 15.9118 52.1693 15.87 52.1251 15.8268C52.1123 15.8149 52.0996 15.8044 52.0876 15.7925C52.0801 15.7858 52.0726 15.7798 52.0659 15.7724C52.0112 15.7187 51.949 15.6717 51.8973 15.6173C51.8748 15.5935 51.8471 15.5748 51.8254 15.551C51.7902 15.5115 51.7602 15.4697 51.7258 15.4302C51.6935 15.3929 51.6696 15.3519 51.6389 15.3146C51.5737 15.2356 51.5168 15.1521 51.4561 15.0709C51.4321 15.0381 51.4066 15.0068 51.3834 14.974C51.301 14.8562 51.2081 14.7443 51.1354 14.6213C50.9743 14.35 50.8358 14.0697 50.7294 13.7812C50.6994 13.6977 50.6889 13.6112 50.6627 13.5269C50.6035 13.3324 50.5511 13.137 50.5189 12.938C50.5181 12.9328 50.5159 12.9276 50.5144 12.9216C50.5076 12.8814 50.4896 12.8411 50.4844 12.8008C50.4776 12.7539 50.4836 12.7114 50.4791 12.6637C50.4769 12.6413 50.4784 12.6189 50.4762 12.5966C50.4709 12.5302 50.4694 12.4661 50.4679 12.4013C50.4672 12.367 50.4634 12.3319 50.4634 12.2976C50.4634 12.2581 50.4567 12.2156 50.4582 12.1761C50.4604 12.1001 50.4664 12.0263 50.4732 11.9525C50.4739 11.9383 50.4776 11.9256 50.4799 11.913C50.4881 11.8235 50.5039 11.7355 50.5189 11.6491C50.5196 11.6423 50.5211 11.6349 50.5219 11.6289C50.5473 11.4843 50.5833 11.3449 50.6267 11.207C50.6312 11.1921 50.6372 11.1794 50.6417 11.1645C50.6732 11.0713 50.7031 10.9789 50.7414 10.8901C50.7444 10.8827 50.7466 10.8752 50.7496 10.8678C50.7818 10.7962 50.8193 10.7276 50.8567 10.659C50.8672 10.6389 50.8815 10.6203 50.8934 10.6001C50.9683 10.4689 51.0395 10.3347 51.1339 10.2132C51.1669 10.1707 51.2103 10.1372 51.2455 10.0954C51.3122 10.0172 51.3819 9.94485 51.4553 9.87552C51.4673 9.86509 51.477 9.85167 51.4883 9.84049C51.5505 9.78159 51.6126 9.72493 51.6793 9.67126C51.6801 9.67051 51.6816 9.67051 51.6816 9.66902C51.746 9.61758 51.8179 9.5736 51.8868 9.52812C51.9955 9.45581 52.1018 9.38201 52.2187 9.32088C52.3004 9.27913 52.3895 9.24708 52.4757 9.21204C52.5603 9.177 52.6397 9.13302 52.7289 9.10394C52.7469 9.09723 52.7641 9.08978 52.7828 9.08456C52.8637 9.05921 52.9529 9.04952 53.0353 9.02865C53.1177 9.00852 53.2009 8.98913 53.2855 8.97273C53.3477 8.9623 53.4046 8.94068 53.4691 8.93248C53.6256 8.91086 53.7844 8.90564 53.9448 8.90117C53.98 8.90042 54.0159 8.89446 54.0519 8.89446C54.0909 8.89446 54.1306 8.90415 54.1688 8.90489C54.177 8.90489 54.186 8.90713 54.1942 8.90713C54.2714 8.90937 54.3486 8.92204 54.4265 8.92726C54.434 8.92726 54.4407 8.928 54.4482 8.92949C54.5246 8.9362 54.6018 8.93993 54.6782 8.94962C54.9831 8.98914 55.2858 9.05399 55.5869 9.15091C55.6439 9.1688 55.7031 9.17626 55.76 9.19713C55.7855 9.20533 55.8094 9.22099 55.8342 9.22993C55.8881 9.25006 55.9405 9.27988 55.9945 9.3015C56.0199 9.31194 56.0447 9.32536 56.0709 9.3358C56.1233 9.35816 56.1773 9.38276 56.2297 9.40662C56.3293 9.45284 56.432 9.48862 56.5294 9.54155C56.6065 9.58181 56.68 9.63101 56.7556 9.67649C56.8305 9.72047 56.9025 9.77266 56.9766 9.82111C57.0006 9.83602 57.0238 9.85093 57.0463 9.86734C57.116 9.9143 57.1894 9.9553 57.2568 10.0053C57.2943 10.0328 57.3362 10.0537 57.3737 10.082C57.4051 10.1066 57.4299 10.1357 57.4606 10.1603C57.6808 10.3348 57.8913 10.5182 58.0794 10.7157C58.0816 10.718 58.0839 10.7187 58.0861 10.7209C58.1438 10.7821 58.188 10.8514 58.2427 10.914C58.2525 10.9245 58.2599 10.9364 58.2697 10.9468C58.3169 11.0012 58.3596 11.0594 58.4053 11.1146C58.4195 11.1325 58.4345 11.1496 58.448 11.1682C58.7154 11.5134 58.9529 11.875 59.1222 12.2619C59.1567 12.3409 59.1739 12.4244 59.2039 12.5042C59.2084 12.5146 59.2106 12.5258 59.2144 12.5362C59.2398 12.607 59.2638 12.6771 59.2863 12.7487C59.2938 12.7726 59.3028 12.7949 59.3103 12.818C59.3395 12.912 59.3822 13.0029 59.4047 13.0991C59.4054 13.1036 59.4054 13.1088 59.4069 13.1133C59.4114 13.1334 59.4099 13.152 59.4144 13.1721C59.4361 13.2706 59.4391 13.3645 59.4541 13.4621C59.4668 13.5486 59.4818 13.6351 59.4893 13.7193C59.4893 13.7223 59.4901 13.7261 59.4901 13.729C59.4968 13.8103 59.514 13.8923 59.5148 13.9728C59.5155 14.0116 59.5073 14.0466 59.5065 14.0854C59.5065 14.0951 59.5043 14.1048 59.5043 14.113C59.5036 14.1592 59.4968 14.2024 59.4946 14.2486C59.4938 14.2755 59.4901 14.3023 59.4878 14.3292C59.4871 14.3508 59.4848 14.3717 59.4833 14.3933C59.4781 14.4551 59.4781 14.5193 59.4691 14.5811C59.4661 14.605 59.4683 14.6296 59.4638 14.6527C59.4444 14.7735 59.4062 14.8861 59.3747 15.0023C59.3695 15.0217 59.3627 15.0396 59.3575 15.0583C59.338 15.1224 59.3208 15.1872 59.2983 15.2506C59.2938 15.2633 59.2915 15.2759 59.2863 15.2894C59.2608 15.3564 59.2458 15.4273 59.2151 15.4921C59.2084 15.5063 59.1979 15.5175 59.1912 15.5309C59.1537 15.6099 59.1013 15.6807 59.0571 15.756C59.0451 15.7762 59.0331 15.7955 59.0218 15.8157C58.9896 15.8679 58.9627 15.9223 58.9282 15.973C58.9132 15.9946 58.9035 16.0192 58.8885 16.0393C58.869 16.0662 58.8593 16.0967 58.839 16.1228C58.8218 16.1444 58.7993 16.1594 58.7814 16.1802C58.7619 16.2041 58.7364 16.2227 58.7162 16.2466C58.6862 16.2816 58.651 16.3114 58.6188 16.3457C58.5619 16.4054 58.5072 16.4658 58.4457 16.5209C58.4383 16.5276 58.433 16.5351 58.4255 16.541C58.3693 16.591 58.3206 16.6469 58.2599 16.6931C58.2457 16.7036 58.2285 16.7103 58.215 16.7207C58.1588 16.7625 58.0959 16.793 58.0367 16.831C58.0202 16.8415 58.0045 16.8504 57.988 16.8609C57.9206 16.9034 57.8547 16.9496 57.7827 16.9883C57.7236 17.0204 57.6696 17.0592 57.6089 17.0875C57.5917 17.0949 57.5722 17.0979 57.555 17.1054C57.4823 17.1374 57.4007 17.1568 57.3243 17.1844C57.2306 17.2187 57.1385 17.2552 57.0418 17.2813C56.8717 17.3283 56.6942 17.3574 56.5122 17.382C56.4575 17.3894 56.4035 17.3969 56.3488 17.4021C56.3234 17.4043 56.2986 17.4095 56.2739 17.4118C56.1998 17.4185 56.1323 17.4364 56.0567 17.4386C56.0522 17.4386 56.0492 17.4394 56.0447 17.4394C56.0342 17.4394 56.0222 17.4371 56.0117 17.4371C55.9301 17.4401 55.8477 17.4245 55.766 17.423C55.7008 17.4222 55.6364 17.4155 55.5705 17.411C55.5458 17.4103 55.521 17.4088 55.4963 17.4066C55.4289 17.4013 55.3607 17.4036 55.2925 17.3946C55.2731 17.3924 55.2536 17.3939 55.2349 17.3917C55.1562 17.3812 55.0783 17.3641 54.9996 17.3492C54.9179 17.3343 54.8363 17.3074 54.7546 17.288C54.673 17.2686 54.5913 17.2508 54.5097 17.2269C54.485 17.2194 54.4595 17.2165 54.4348 17.2075C54.3501 17.1807 54.2662 17.1583 54.1815 17.1285C54.0999 17.0987 54.0205 17.0562 53.9396 17.0219C53.8429 16.9816 53.7463 16.9406 53.6504 16.8944C53.5665 16.8542 53.4803 16.8258 53.3979 16.7818C53.3657 16.7639 53.3357 16.7393 53.3035 16.7207C53.2608 16.6961 53.2219 16.6648 53.1792 16.6395C53.1477 16.6201 53.1177 16.5992 53.087 16.5798C53.0503 16.556 53.0144 16.5328 52.9776 16.5082C52.9424 16.4844 52.9057 16.462 52.8705 16.4389C52.8421 16.4203 52.8068 16.4009 52.7746 16.3763L52.7746 16.3762ZM50.6229 17.6041C50.7121 17.5079 50.7893 17.4125 50.8896 17.3163C51.0357 17.1762 51.2065 17.042 51.3759 16.9018C51.5796 16.7348 51.7722 16.5648 52.0104 16.4046C52.0456 16.4359 52.0771 16.4694 52.1138 16.5C52.1707 16.5469 52.2157 16.6029 52.2749 16.6476C52.2801 16.6506 52.2831 16.6558 52.2876 16.6595C52.352 16.7087 52.4217 16.743 52.4876 16.79C52.5438 16.8295 52.6015 16.8638 52.6584 16.9011C52.5468 17.1113 52.3782 17.3923 52.197 17.689C52.152 17.7614 52.1318 17.8053 52.0823 17.8844C51.9243 18.1363 51.7819 18.3771 51.6471 18.6023C51.3474 19.1055 51.0897 19.5215 50.844 19.7906C50.7009 19.9464 50.5615 20.0649 50.4222 20.0895C50.4102 20.0918 50.3952 20.0828 50.3832 20.0828C50.2993 20.0881 50.2117 20.0754 50.1113 20.0314C50.0094 19.9867 49.9 19.9188 49.7772 19.8189L49.7742 19.8167C49.7 19.7571 49.697 19.6445 49.6708 19.5506C49.6536 19.4887 49.5996 19.4544 49.6034 19.3754C49.6079 19.2814 49.6633 19.1554 49.697 19.0429C49.8184 18.6366 50.13 18.1386 50.623 17.604L50.6229 17.6041ZM39.8979 16.6461C40.1631 16.0147 40.3737 15.5174 40.4358 15.1469C40.4456 15.088 40.4576 15.056 40.4561 15.044C41.1018 15.088 43.8071 19.0347 45.1128 20.9403C46.0642 22.3351 46.1878 23.8432 46.0073 25.1733C45.4769 26.2632 44.9967 27.377 44.5217 28.4931C43.1597 27.6052 40.9729 25.6706 39.3301 23.0257C38.0678 20.983 39.1698 18.373 39.8979 16.6464L39.8979 16.6461ZM35.9798 46.55L35.8726 46.6753C36.0255 46.9295 36.1348 47.1956 36.2794 47.4521C36.7873 48.3549 37.2578 49.2666 37.6586 50.1963C37.6691 50.2216 37.6766 50.2477 37.6878 50.2731C37.7208 50.3521 37.7448 50.4333 37.7777 50.5124C37.8107 50.5914 37.8354 50.6719 37.8676 50.7509C38.1756 51.5121 38.4924 52.271 38.7277 53.0426L39.1337 54.3793L39.2229 52.9845C39.357 50.8918 39.59 48.8238 39.8911 46.7752C39.9039 46.691 39.9234 46.6097 39.9361 46.5262C39.9488 46.4427 39.9683 46.3607 39.981 46.2772C39.9915 46.2101 40.0065 46.1438 40.0177 46.076C40.1024 45.5317 40.214 44.9965 40.3107 44.456C40.3803 44.0668 40.4463 43.6777 40.5212 43.2908C41.4719 38.4375 42.8886 33.7371 44.7637 29.2337C44.7966 29.1547 44.8333 29.0779 44.8671 28.9996C45.2604 28.0648 45.6567 27.1314 46.0882 26.2144C46.2373 25.8983 46.3676 25.5717 46.5212 25.2579C47.3865 23.4881 48.3327 21.7578 49.3441 20.0617C49.3838 20.1101 49.4063 20.1698 49.4557 20.21C49.5943 20.3234 49.7254 20.4001 49.855 20.4643C46.0402 26.8823 43.2722 33.8205 41.6067 41.133C41.5348 41.4469 41.4576 41.7608 41.3895 42.0768C41.322 42.3944 41.2561 42.7127 41.1932 43.0311C40.9759 44.1158 40.7849 45.2079 40.6156 46.3076C40.5961 46.4328 40.5811 46.5588 40.5631 46.684C40.5504 46.7675 40.5392 46.8518 40.5279 46.9353C39.9736 50.7604 39.6926 54.6669 39.7256 58.6434C39.7608 59.2942 39.7675 59.9547 39.7436 60.6234C39.8072 62.4969 39.9623 64.5299 40.2185 66.8349L40.4171 68.6241L40.7197 66.8491C41.2516 63.7478 42.1911 60.7615 43.5163 57.9739L43.6032 57.6996L43.5763 57.6921C43.8804 56.8781 44.3164 56.1124 44.8911 55.3922C48.0241 50.1096 52.5903 45.9273 58.465 42.9625L58.6066 42.8917L58.6036 42.7314C58.5594 40.597 59.5378 38.711 61.3575 37.419C64.1668 35.4225 67.2593 34.1112 70.8096 33.4089C74.7128 32.6351 78.057 34.1186 79.8527 34.9141L80.2175 35.0743C80.5149 35.2048 80.7726 35.289 80.9847 35.3584C81.2251 35.4374 81.4529 35.5105 81.4843 35.585C81.5713 35.7945 81.1307 36.6675 80.3988 38.1181L80.2055 38.5006C78.8945 41.1106 75.7592 42.5725 72.7282 43.9844C71.4029 44.6024 70.1518 45.1854 69.0595 45.8571C65.9961 47.7432 60.0418 44.3064 58.8777 43.5997L58.7563 43.5252L58.6297 43.59C54.1684 45.8623 50.4608 48.8727 47.6118 52.5368L46.8469 53.5186L47.9362 52.9103C50.3701 51.5527 53.235 50.9712 55.2106 50.7222L55.2803 50.7147L55.335 50.6708C56.7411 49.5816 60.4196 47.2468 64.2373 49.0053C66.8212 50.1951 72.1979 52.6686 72.1716 53.3612C72.1716 53.3612 72.1461 53.4007 72.0158 53.4447C71.5977 53.5908 71.0569 53.93 70.3714 54.3617C68.4565 55.5694 65.5618 57.3839 62.858 56.291C59.6209 54.9752 56.9501 52.9296 55.5289 51.4541L55.4398 51.3632L55.3132 51.3796C52.0933 51.7941 47.7541 52.9004 45.3576 55.8555C40.4506 64.2259 40.8986 72.369 40.9038 72.4533C41.3637 78.5643 40.9787 85.2206 39.759 92.2366C39.7321 92.3902 39.6002 92.5005 39.4451 92.5005C39.4227 92.5005 39.4002 92.496 39.3912 92.496C39.2174 92.464 39.0998 92.3007 39.129 92.1292C40.5389 84.0174 40.7517 76.0936 39.7605 68.5729C39.547 66.9515 39.4017 65.2852 39.2856 63.5796C39.2661 63.2963 39.2481 63.0122 39.2309 62.726C39.2062 62.2914 39.1672 61.8761 39.1485 61.4318L39.1387 61.2104L39.09 61.2059C39.093 61.1224 39.0953 61.0382 39.0968 60.9562L39.1043 60.6557C39.087 60.1801 39.087 59.709 39.087 59.2356L39.0848 58.5944C38.9395 56.0649 38.3139 53.5436 37.307 51.0521C37.2748 50.9731 37.2471 50.8941 37.2134 50.8151C37.1647 50.6988 37.1265 50.5802 37.0756 50.4632C36.5729 49.2979 36.008 48.1386 35.3195 46.9907C35.297 46.9534 34.6333 45.8546 33.5095 44.2503C33.2121 43.8261 32.8877 43.3729 32.5259 42.8846C32.2757 42.5461 32.0075 42.1942 31.7288 41.8327C28.7366 37.9531 24.1713 32.9747 19.1527 30.7725C19.2044 30.683 19.2658 30.6219 19.3108 30.5131C19.3594 30.3975 19.3849 30.2887 19.4074 30.1806C22.8528 31.682 26.4338 34.5454 30.0664 38.7405L31.5086 40.4036L30.4837 38.4587C30.2013 37.922 29.9271 37.3956 29.6611 36.8708C29.1899 35.9419 28.7396 35.019 28.3156 34.1133C26.5394 30.8645 22.6528 24.978 16.5621 22.0309L16.4849 21.9936L16.401 22.0115C14.4592 22.4059 10.9179 22.5594 7.33013 21.6894C4.49976 21.0051 3.22765 17.8509 2.38571 15.7634C2.0793 15.006 1.83807 14.4059 1.58037 14.0413C1.5077 13.937 1.5062 13.8893 1.50395 13.8893C1.88378 13.3055 7.70917 14.4417 10.5081 14.9881C14.4778 15.7672 16.123 19.6251 16.646 21.2496L16.6789 21.354L16.7763 21.3987C20.0029 22.9375 22.9606 25.4014 25.5662 28.7225L26.4855 29.893L26.0075 28.4862C24.7968 24.9242 24.4477 22.2211 24.9474 20.2343L25.5588 20.414C24.8853 23.1403 25.9326 27.4433 28.7606 33.5638C29.6664 35.2076 30.1428 36.3631 30.2387 36.5979C30.5429 37.1965 30.8725 37.8212 31.2044 38.4497C31.304 38.639 31.3977 38.8202 31.501 39.0118C31.6292 39.2503 31.7692 39.5016 31.9018 39.7431C32.4682 40.7838 33.069 41.8604 33.7051 42.9696C33.75 43.0479 33.7935 43.1246 33.8384 43.2029C33.8834 43.2812 33.9246 43.3558 33.9695 43.4325C34.3343 44.0655 34.7157 44.714 35.1022 45.3672C35.345 45.7787 35.578 46.1798 35.8297 46.5972L35.9615 46.5182L36.0477 46.4668L35.9798 46.55ZM33.7848 62.6148C30.3154 60.7115 27.9683 56.217 27.7652 55.279C27.703 54.9912 27.5944 54.6834 27.4903 54.3859C27.3187 53.8946 27.1045 53.2848 27.273 53.1148C27.3097 53.0775 27.3989 53.0283 27.6131 53.0283C27.8633 53.0283 28.2866 53.0954 28.9961 53.3295C34.6185 54.7229 37.8406 60.8962 38.7276 62.8383C38.7351 62.9643 38.7449 63.0873 38.7524 63.2125C37.099 63.7113 35.4276 63.5167 33.7847 62.6147L33.7848 62.6148ZM27.1638 40.6387C26.3809 40.4151 25.6722 40.3353 25.058 40.3353C24.2676 40.3353 23.6465 40.4702 23.2023 40.6067C23.1057 40.6365 23.0217 40.6626 22.9438 40.6909C22.8547 40.723 22.761 40.7573 22.6966 40.7848L22.6914 40.7751L22.379 40.2347C22.4029 40.2242 22.4389 40.2101 22.4659 40.1996C22.5475 40.1646 22.6389 40.1281 22.746 40.0893C22.8224 40.0617 22.9064 40.0334 22.9955 40.0058C23.8825 39.7292 25.3763 39.4832 27.2957 40.0177C28.7019 40.4114 30.0751 41.1494 31.4124 42.2243C32.45 43.5774 33.2808 44.7731 33.8772 45.6685C31.724 43.0167 29.4535 41.2932 27.164 40.6387L27.1638 40.6387ZM22.4052 41.622C22.313 41.7107 22.2172 41.7778 22.143 41.8099C22.1303 41.7979 22.1265 41.7853 22.1138 41.7726C22.0239 41.6839 21.9744 41.5929 21.9063 41.502C21.71 41.2351 21.5766 40.9697 21.5279 40.7229C21.4875 40.5164 21.4785 40.3308 21.4912 40.1713C21.4942 40.1347 21.501 40.1124 21.5054 40.0796C21.5159 39.9976 21.5272 39.9074 21.5422 39.8507C21.5661 39.8507 21.6073 39.8574 21.6358 39.8574C21.7294 39.8582 21.8291 39.8597 21.9475 39.8813C21.9355 39.888 21.9107 39.8984 21.901 39.9036L21.7744 39.9707L21.6695 40.0267L21.9834 40.5694L21.9961 40.5918L22.3325 41.1732L22.4689 41.4096L22.4966 41.4565L22.5535 41.4245C22.5101 41.5057 22.4599 41.5691 22.4052 41.622L22.4052 41.622ZM20.202 44.8426C19.8881 45.1885 19.706 45.3458 19.5884 45.4322C19.5757 45.4419 19.551 45.4643 19.5397 45.4718C19.5465 45.3577 19.5847 45.137 19.6925 44.7717C19.745 44.5943 19.8087 44.3923 19.9023 44.1328L20.39 42.7872L19.7727 43.1644C19.4903 43.3374 19.2423 43.4574 18.9921 43.5812C18.9359 43.6087 18.873 43.6483 18.819 43.6744C18.7823 43.6915 18.7381 43.7206 18.7022 43.7362C18.5733 43.7951 18.4984 43.8205 18.395 43.8622C18.2557 43.9196 18.1156 43.9778 18.0204 44.0098C17.944 44.0352 17.8886 44.0501 17.8354 44.0642C17.8054 44.0717 17.7537 44.0911 17.729 44.0956C17.7934 43.9927 17.9328 43.8123 18.1755 43.5461C18.3238 43.3836 18.5006 43.198 18.7501 42.9572L18.834 42.8759C19.0453 42.6709 19.2528 42.4771 19.4625 42.2795C19.5914 42.158 19.7225 42.0276 19.8491 41.9127L20.3031 41.5012L20.3173 41.4886L20.3196 41.4878H20.3121L20.0244 41.4811L19.9113 41.4789L19.6858 41.4737C19.6618 41.4737 19.6431 41.4669 19.6184 41.4662C19.5742 41.4655 19.539 41.4543 19.4948 41.4535C19.3532 41.4468 19.2296 41.4222 19.0917 41.4095C18.9141 41.3931 18.7418 41.3782 18.5748 41.3536C18.4384 41.3335 18.2774 41.3342 18.1508 41.3074C18.0624 41.2895 18.0219 41.2746 17.9477 41.2575C17.6998 41.1986 17.5237 41.1486 17.4106 41.1054C17.3641 41.0882 17.2997 41.0666 17.2697 41.0532C17.2675 41.0524 17.2615 41.0502 17.2593 41.0487C17.3559 41.0018 17.5567 40.9309 17.893 40.8474C18.0961 40.7975 18.3365 40.7431 18.6677 40.6842H18.6684C18.804 40.6603 18.9366 40.6379 19.0715 40.6148C19.0842 40.6126 19.0962 40.6104 19.1089 40.6081C19.2498 40.5835 19.3914 40.5589 19.53 40.5358C19.5644 40.5306 19.6011 40.5231 19.6349 40.5179L19.9001 40.4762L20.1952 40.4292L20.1375 40.3822L20.1106 40.3606L19.9637 40.2421L19.7555 40.0743C19.6708 40.005 19.5952 39.932 19.5135 39.8604C19.3427 39.712 19.1816 39.5629 19.0311 39.4101C18.9044 39.2819 18.7756 39.1529 18.667 39.0254C18.3298 38.6229 18.192 38.3977 18.1343 38.2792C18.1448 38.2814 18.1665 38.2874 18.1793 38.2911C18.3358 38.3276 18.6445 38.4387 19.1906 38.7123C19.2745 38.7541 19.345 38.7869 19.4409 38.8376C19.8379 39.0448 20.2387 39.2617 20.62 39.4817C20.7684 39.5674 20.9189 39.6524 21.0538 39.7404C21.0485 39.765 21.0441 39.7828 21.0373 39.8112C21.0201 39.8947 21.0051 39.9908 20.9954 40.1012C20.9931 40.1213 20.9954 40.1474 20.9946 40.1698C20.9901 40.2316 20.9894 40.2972 20.9901 40.3643C20.9901 40.3822 20.9879 40.3986 20.9894 40.418C20.9901 40.4568 20.9961 40.4948 20.9976 40.5343C20.9976 40.535 20.9984 40.5373 20.9984 40.5395C21.0028 40.5895 21.0126 40.6431 21.0186 40.6968C21.0208 40.7117 21.0216 40.7259 21.0238 40.7408C21.0261 40.7512 21.0261 40.7624 21.0283 40.7736C21.0538 40.9212 21.0972 41.0725 21.1572 41.2298C21.2186 41.3901 21.3033 41.5519 21.4119 41.7129C21.513 41.8628 21.6404 42.0104 21.791 42.1557C21.546 42.9542 20.9317 44.024 20.2282 44.8076C20.2207 44.818 20.2117 44.8314 20.202 44.8426L20.202 44.8426ZM17.0179 47.6873C16.8524 47.7246 16.3437 47.8178 15.9257 46.7189C15.9549 46.6153 16.0957 46.2657 16.767 45.544C17.0075 45.2853 17.3446 44.9618 17.7409 44.6017C17.8255 44.5898 17.9409 44.5525 18.048 44.5212C18.281 44.4541 18.5507 44.358 18.9096 44.1977C19.0796 44.1209 19.2535 44.0366 19.4325 43.9412L19.425 43.9628C19.0459 45.0207 18.9815 45.5112 19.0752 45.7669C18.3987 46.7607 17.6517 47.5666 17.0179 47.6872L17.0179 47.6873ZM15.0349 45.6804C14.8641 45.6685 14.3494 45.6334 14.2243 44.4675C14.2745 44.381 14.494 44.1081 15.1855 43.6511C15.3593 43.5356 15.572 43.4074 15.814 43.2672C16.1429 43.0771 16.5249 42.8699 17.0037 42.632C17.4644 42.4047 17.9985 42.1557 18.6218 41.8821C18.6496 41.8866 18.6765 41.8903 18.7058 41.894C18.8279 41.9089 18.9403 41.9343 19.0668 41.9454C19.0444 41.9671 19.0219 41.9879 18.9994 42.0096C18.8256 42.1751 18.6518 42.3428 18.4772 42.5105L18.4121 42.5739L18.3941 42.5918C17.2246 43.7249 17.0583 44.129 17.2044 44.4004C16.8875 44.6963 16.6246 44.9595 16.4088 45.1899C15.9241 45.4948 15.4724 45.6826 15.1053 45.6826C15.0813 45.6841 15.0573 45.6819 15.0349 45.6804L15.0349 45.6804ZM13.18 41.6464C13.2796 41.5756 13.7276 41.3512 15.0791 41.2126C15.5563 41.2759 16.0567 41.3169 16.5781 41.3169C16.6456 41.3169 16.7137 41.314 16.7812 41.3125C16.925 41.472 17.2389 41.6025 17.7379 41.7247C16.4523 42.3137 15.5787 42.7953 14.984 43.1814C14.3322 43.2806 13.7636 43.2769 13.4085 43.0853C13.2587 43.004 12.8055 42.7595 13.18 41.6464L13.18 41.6464ZM14.4281 37.9927C14.3561 37.8391 14.1359 37.3746 15.0971 36.6985C15.2461 36.7015 15.9189 36.817 17.6578 37.9509C17.5094 38.1746 17.6323 38.5123 18.0563 39.0654C18.1283 39.1594 18.1874 39.2436 18.2788 39.3517C18.3036 39.3808 18.3388 39.4106 18.365 39.4397C18.4871 39.5783 18.6302 39.7177 18.7718 39.8564C18.8512 39.9347 18.9156 40.0137 19.0003 40.0905C17.6825 39.837 16.2021 39.3666 15.2695 38.7836C15.0882 38.6703 14.9151 38.5548 14.7833 38.434C14.6821 38.3423 14.6222 38.2461 14.5555 38.15C14.5173 38.097 14.4544 38.0471 14.4282 37.9927L14.4281 37.9927ZM14.2887 38.6219C14.9727 39.3636 16.4066 39.9571 17.8623 40.3328C17.4832 40.4215 17.2105 40.5095 17.0292 40.5989C16.8853 40.6705 16.7932 40.7435 16.737 40.8188C16.1257 40.8255 15.5398 40.7875 15.008 40.7085C14.2618 40.5959 13.6377 40.4028 13.3366 40.0733C13.2205 39.9496 12.8728 39.5679 13.5913 38.6345C13.6625 38.6144 13.8745 38.5853 14.2888 38.6218L14.2887 38.6219ZM18.3461 30.9738C18.1214 31.1267 17.8996 31.1587 17.7573 31.1505V30.7144L17.319 31.1781C16.6575 31.8781 15.4236 32.6244 14.3201 32.9949C13.705 33.1977 13.4563 33.2357 13.3102 33.2215C13.3649 33.106 13.5702 32.8145 14.1703 32.2486C14.2452 32.1771 14.3036 32.1182 14.3935 32.0369L14.8625 31.606L15.4303 31.0841L15.1307 31.0849L14.7846 31.0856C14.3246 31.0715 13.9005 31.0603 13.4983 31.0021C12.7551 30.9112 12.4427 30.8106 12.3161 30.7524C12.4554 30.6562 12.8495 30.4624 13.941 30.1903C14.4684 30.0524 15.0056 29.9242 15.5157 29.8123L16.0986 29.6841L15.6027 29.3546C15.0805 29.0094 14.6295 28.6479 14.2594 28.2773C13.7597 27.7965 13.5814 27.543 13.517 27.4252C13.6781 27.432 14.0766 27.502 15.0063 27.877C15.318 28.0008 15.6214 28.126 15.9225 28.2542C15.9622 28.2714 16.0034 28.2863 16.0432 28.3034L16.3668 28.4414L16.5803 28.5323L16.4095 28.0619L16.3818 27.9859C16.1765 27.4215 16.0184 26.84 15.9255 26.3048C15.8139 25.6681 15.8064 25.3535 15.8207 25.2081C15.9563 25.3297 16.2387 25.6584 16.7526 26.5239L16.8028 26.6082C17.2014 27.2769 17.6134 27.968 17.8996 28.577L17.94 28.6634L18.0292 28.703C18.0622 28.7171 18.5649 28.9437 18.8098 29.3814C18.8638 29.4775 18.899 29.5879 18.9192 29.7049C18.9342 29.7906 18.9432 29.8779 18.9334 29.974C18.9214 30.0829 18.8967 30.1977 18.845 30.3214C18.8023 30.4258 18.7491 30.4884 18.6997 30.5682C18.6532 30.6442 18.6105 30.7359 18.5611 30.7933C18.4914 30.8739 18.418 30.9246 18.3461 30.9738L18.3461 30.9738ZM10.7946 31.6455C8.82725 30.7658 8.6393 29.479 8.70144 28.791C8.79808 27.7205 9.55024 26.8855 10.19 26.7276L10.393 26.6784C11.128 26.4927 11.9933 26.2773 12.8285 26.2773C13.717 26.2773 14.5681 26.5218 15.1884 27.3106L15.2656 27.409C15.2776 27.4231 15.2851 27.4336 15.2956 27.4477C15.2626 27.4336 15.2289 27.4209 15.1959 27.4075C13.6504 26.7894 13.2175 26.8431 13.0353 27.1175C12.8375 27.4187 13.0817 27.8473 13.9028 28.6361C14.177 28.9104 14.4931 29.1825 14.849 29.4449C14.5051 29.5262 14.1575 29.6127 13.8137 29.7014C12.0681 30.1375 11.7249 30.4528 11.746 30.7906C11.7685 31.1596 12.242 31.3594 13.4309 31.5047C13.6594 31.5368 13.8999 31.5606 14.1493 31.5756C14.1164 31.6054 14.0819 31.6367 14.0497 31.6665C13.9808 31.7284 13.9486 31.7672 13.8879 31.8246C13.0668 32.1295 12.0352 32.1966 10.7946 31.6456L10.7946 31.6455ZM20.8806 10.3985C20.9278 10.2166 21.0664 9.70367 22.1422 9.70367C22.2508 9.70367 22.3684 9.71037 22.498 9.72007C22.5872 9.79387 22.8823 10.0995 23.3071 11.1604C23.4652 11.5547 23.6397 12.0557 23.8293 12.6857C23.7948 12.7826 23.7701 12.9175 23.7469 13.0554C23.7004 13.3298 23.666 13.6586 23.6547 14.117C23.648 14.3534 23.6525 14.6083 23.6667 14.8819L23.5746 14.7895C22.6584 13.8703 22.1826 13.5616 21.8785 13.537C21.1652 12.3233 20.6866 11.1245 20.8806 10.3985L20.8806 10.3985ZM23.9731 9.34134C24.045 9.21535 24.2226 8.90747 24.7897 8.90747C25.0242 8.90747 25.3231 8.96114 25.7089 9.09906C25.7733 9.18554 25.9614 9.52475 26.1007 10.5133C26.13 10.7205 26.1577 10.9501 26.1801 11.2185C26.2079 11.5406 26.2296 11.9103 26.2438 12.3323C26.2678 13.0517 26.2656 13.9291 26.2273 14.9893C26.1831 15.0541 26.1404 15.1153 26.0977 15.1838C26.0266 15.2964 25.9494 15.3888 25.8805 15.5066C25.876 15.4925 25.8707 15.4776 25.8662 15.4641C25.7778 15.1905 25.685 14.914 25.5921 14.6381C25.5741 14.5845 25.5576 14.5323 25.5396 14.4786L25.5141 14.4018C24.9103 12.6052 24.5822 12.2622 24.2338 12.2763C24.0825 11.791 23.9371 11.3832 23.8023 11.0396C23.7191 10.3328 23.7529 9.72599 23.9731 9.34132L23.9731 9.34134ZM27.5152 8.95144C27.5946 8.89404 27.7482 8.78147 27.9954 8.78147C28.2726 8.78147 28.6666 8.92162 29.2016 9.43899C29.227 9.56946 29.2488 10.1323 28.7266 11.5912C28.3655 12.1279 28.0306 12.743 27.7302 13.3848C27.4845 13.4482 27.1728 13.733 26.7548 14.2496C26.79 12.5611 26.7248 11.381 26.6162 10.5579C26.8402 9.82205 27.1324 9.22639 27.5152 8.9513L27.5152 8.95144ZM30.7142 10.3746C30.7711 10.3567 30.8603 10.3306 30.9726 10.3306C31.2543 10.3306 31.6858 10.4961 32.1361 11.39C32.1256 11.469 32.0574 11.7053 31.796 12.1399C30.6512 12.4747 29.2579 13.742 28.1154 15.1048C28.2368 14.5874 28.287 14.2243 28.2832 13.9709C28.2802 13.7867 28.248 13.6607 28.1963 13.5698C28.499 12.9271 28.8354 12.333 29.189 11.8149C29.6887 11.085 30.2138 10.5244 30.7143 10.3746L30.7142 10.3746ZM32.3548 12.5529C32.5608 12.5574 33.1827 12.5626 33.4104 13.9433C33.3415 14.0887 32.9369 14.7253 30.7726 16.0121C30.7703 16.0076 30.7726 16.0024 30.7703 15.9979C30.6287 15.7005 30.183 15.6721 29.2788 15.8794C29.1851 15.901 29.111 15.9114 29.0068 15.9383C28.9356 15.9562 28.8577 15.9919 28.7858 16.0121C28.6045 16.0635 28.4172 16.1306 28.2292 16.197C28.0779 16.2506 27.9348 16.2834 27.7812 16.3453C27.7835 16.3379 27.7857 16.3304 27.788 16.3229C28.7656 15.0049 30.0984 13.6108 31.2334 12.9533C31.4049 12.8542 31.5735 12.7588 31.7331 12.6969C31.8619 12.6477 31.9803 12.6305 32.0994 12.6089C32.1788 12.5947 32.268 12.5515 32.3421 12.5515C32.3459 12.553 32.3504 12.553 32.3549 12.553L32.3548 12.5529ZM21.928 14.1103C21.9273 14.0961 21.9228 14.0752 21.9213 14.0641C22.0052 14.1013 22.1745 14.2094 22.4435 14.4331C22.639 14.5956 22.8817 14.8125 23.2121 15.145L24.2924 16.2394L24.2227 15.5275C24.1755 15.0474 24.1583 14.6396 24.1613 14.2698C24.1613 14.2251 24.1583 14.1729 24.1605 14.1297C24.1628 14.0507 24.1673 13.994 24.1703 13.9224C24.1748 13.821 24.1778 13.71 24.1845 13.6242C24.1973 13.4312 24.2145 13.2895 24.2332 13.171C24.24 13.1262 24.2474 13.08 24.2534 13.045C24.2699 12.963 24.2849 12.8951 24.2984 12.8519C24.3471 12.9168 24.4228 13.0487 24.5171 13.244C24.6453 13.5094 24.8116 13.909 25.0303 14.5636L25.0573 14.6404C25.2176 15.1182 25.3749 15.5961 25.518 16.0598C25.5353 16.1142 25.5555 16.1731 25.5727 16.2268L25.754 16.8329L25.7593 16.8224L25.8566 16.6308L25.9503 16.4467L26.0402 16.2693C26.0746 16.2022 26.1143 16.1418 26.1496 16.0762C26.1578 16.0591 26.169 16.0441 26.1773 16.027C26.2672 15.8615 26.3578 15.6945 26.453 15.5387C26.5421 15.3941 26.6343 15.2658 26.7257 15.1324C26.8126 15.0064 26.8972 14.8715 26.9864 14.7582C27.1048 14.6053 27.2051 14.4823 27.2958 14.378C27.5041 14.1364 27.6382 14.0134 27.7243 13.9486C27.7341 13.9411 27.7468 13.9307 27.7558 13.924C27.7588 13.9217 27.7655 13.9157 27.7685 13.9135C27.7768 14.0119 27.7655 14.2296 27.6958 14.6061C27.6809 14.6896 27.6681 14.7641 27.6457 14.8655C27.6015 15.0653 27.5445 15.2994 27.4674 15.5819C27.4569 15.6215 27.4449 15.6602 27.4344 15.6982C27.3924 15.8458 27.3505 15.9897 27.3085 16.1366C27.2523 16.3319 27.1969 16.5287 27.14 16.7211L27.0883 16.8918L26.9789 17.2571L27.2141 17.1482L27.2224 17.1438L27.4898 17.02C27.6232 16.9589 27.7483 16.9335 27.8816 16.8791C28.0824 16.7956 28.2757 16.733 28.4735 16.6652C28.6922 16.5906 28.9237 16.4803 29.1297 16.4281H29.1305C29.8145 16.2551 30.1269 16.2328 30.258 16.244C30.24 16.2715 30.2063 16.3133 30.1681 16.3595C30.0497 16.4982 29.804 16.7337 29.353 17.0893C29.2324 17.1848 29.12 17.275 28.9649 17.3905C28.687 17.597 28.4001 17.8065 28.1146 18.0085C27.8022 18.2285 27.4936 18.4342 27.1954 18.6131C27.158 18.5818 27.1182 18.5535 27.0688 18.5162C26.9969 18.4641 26.9182 18.4096 26.8216 18.353C26.7894 18.3336 26.7489 18.3179 26.7144 18.2985C26.626 18.2516 26.5384 18.2046 26.435 18.1629C26.4185 18.1562 26.3983 18.1524 26.3811 18.1457C26.3062 18.1166 26.2245 18.092 26.1428 18.0689C25.9645 18.0167 25.772 17.981 25.5607 17.9661C25.4071 17.9556 25.2431 17.9661 25.0723 17.9832C24.8273 18.0086 24.5696 18.0674 24.2961 18.1703C23.5672 17.5068 22.7274 16.2969 22.2553 15.1532C22.2164 15.0593 22.1909 14.9862 22.1595 14.9064C21.9991 14.4756 21.9422 14.234 21.928 14.1103L21.928 14.1103ZM24.4542 18.6347C24.4587 18.634 24.461 18.634 24.4647 18.6325C24.5958 18.5825 24.7067 18.584 24.8288 18.5564C25.2678 18.4573 25.6641 18.4528 25.981 18.5393C26.0709 18.5639 26.1391 18.5959 26.2185 18.628C26.2237 18.6302 26.2282 18.6325 26.2327 18.6347C26.3399 18.6787 26.456 18.7189 26.5407 18.7681C26.6058 18.8054 26.6425 18.8367 26.695 18.8725C26.7617 18.9195 26.8418 18.9694 26.886 19.006C26.8763 19.0298 26.8486 19.0693 26.8366 19.0954C26.7751 19.2281 26.6785 19.372 26.5466 19.5263C26.4493 19.6419 26.3489 19.7612 26.208 19.832C25.9751 19.9483 25.7158 19.9505 25.4199 19.8484L25.4027 19.8432C24.7442 19.6024 24.5352 19.2125 24.476 18.9143C24.455 18.8047 24.4498 18.7063 24.4542 18.6347L24.4542 18.6347ZM31.6964 37.1282C32.0778 32.4427 35.7726 27.7074 36.6798 27.0282C36.957 26.8209 37.2349 26.5548 37.5024 26.2983C37.9339 25.8861 38.4186 25.4216 38.719 25.4216C38.749 25.4216 38.7767 25.4261 38.8029 25.4358C38.9692 25.4947 39.2741 25.8369 39.445 27.4538C40.6639 34.1291 35.8258 40.5045 34.0585 42.568C33.2119 41.0867 32.4216 39.6614 31.7047 38.3111C31.6875 37.9235 31.6627 37.5373 31.6965 37.128L31.6964 37.1282Z" fill="#FF4E6D" stroke="#FF4E6D" stroke-width="0.1"/>
</svg>
