<svg width="84" height="62" viewBox="0 0 84 62" fill="none" xmlns="http://www.w3.org/2000/svg">
<path d="M12.528 12.7349C12.4229 13.0288 12.0957 13.1832 11.7973 13.0791C11.4989 12.9756 11.3422 12.6533 11.4479 12.3593C12.77 8.70481 15.18 5.69984 18.2794 3.56712C21.4111 1.41199 25.2448 0.150464 29.368 0.0114726C33.3734 -0.123374 36.8288 0.93825 39.793 2.78646C42.714 4.60743 45.1505 7.18908 47.1614 10.1362C49.1728 7.18908 51.6088 4.60743 54.5298 2.78646C57.4941 0.93884 60.9489 -0.122825 64.9548 0.0114726C65.6399 0.034538 66.3184 0.0889505 66.9879 0.172933C71.8537 0.786253 76.1942 2.99289 79.2731 6.38305C82.3557 9.77669 84.1725 14.349 83.987 19.6898C83.963 20.3835 83.9048 21.0909 83.8111 21.8119C82.6007 31.1287 77.7806 39.1465 71.9924 45.5147C62.4578 56.0037 50.1921 62.0317 47.1702 61.9999H47.1516C46.1832 62.0099 44.305 61.4209 41.8932 60.2823C41.7845 60.2823 41.674 60.2521 41.5761 60.1889C41.4717 60.1208 41.3684 60.0511 41.2663 59.9801C39.0868 58.9066 36.526 57.418 33.8326 55.548C29.5672 52.5861 24.932 48.6565 20.9061 43.8908C20.8659 43.8541 20.8263 43.8169 20.7872 43.7784C20.0001 43.0031 18.8574 41.094 18.2926 39.3663C18.0842 38.7293 17.9533 38.1059 17.9401 37.5488C17.6381 37.715 17.3181 37.8528 16.983 37.9581C17.3613 38.3567 17.6951 38.8902 17.9815 39.4923C18.7513 41.1128 19.222 43.2933 19.222 44.3947C19.222 45.4451 18.7897 46.3961 18.0908 47.0846C17.3919 47.773 16.4265 48.1988 15.36 48.1988C14.2936 48.1988 13.3282 47.773 12.6293 47.0846C11.9304 46.3961 11.4981 45.4451 11.4981 44.3947C11.4981 43.2993 12.0607 41.1537 12.9013 39.5391C13.2111 38.9429 13.5659 38.4112 13.9568 38.0073C13.6182 37.9126 13.2933 37.7855 12.9865 37.6293C12.9685 38.1746 12.8214 38.785 12.5915 39.4102C11.9724 41.0916 10.7397 42.9618 9.94908 43.7407C9.19496 44.4836 8.20666 44.855 7.21832 44.855C6.22998 44.855 5.2418 44.4836 4.48756 43.7407C3.73332 42.9979 3.35636 42.0244 3.35636 41.0508C3.35636 40.0773 3.73342 39.1039 4.48756 38.3609C5.27471 37.5856 7.21279 36.46 8.96674 35.9036C9.61338 35.6984 10.2462 35.5694 10.8118 35.5564C10.6431 35.2589 10.5032 34.9437 10.3964 34.6137C9.99167 34.9863 9.4501 35.3151 8.83884 35.5972C7.19371 36.3554 4.98002 36.8191 3.86195 36.8191C2.79561 36.8191 1.8301 36.3933 1.13119 35.7049C0.432301 35.0164 0 34.0654 0 33.015C0 31.9645 0.432301 31.0135 1.13119 30.3251C1.83008 29.6366 2.79553 29.2108 3.86195 29.2108C4.97393 29.2108 7.15221 29.765 8.79134 30.593C9.39656 30.8987 9.93634 31.2477 10.3464 31.6327C10.4425 31.2992 10.5715 30.9792 10.7301 30.677C10.1765 30.6592 9.55685 30.5143 8.92216 30.2878C7.21524 29.678 5.31665 28.4638 4.52583 27.685C3.77171 26.9421 3.39464 25.9686 3.39464 24.9951C3.39464 24.0216 3.7717 23.0481 4.52583 22.3052C5.27875 21.5635 6.26702 21.1933 7.25659 21.1933V21.1909C8.24488 21.1909 9.23311 21.5623 9.98735 22.3052C10.7745 23.0805 11.9171 24.9896 12.482 26.7173C12.6904 27.3543 12.8213 27.9777 12.8345 28.5348C13.1365 28.3686 13.4565 28.2308 13.7915 28.1255C13.4133 27.7269 13.0794 27.1935 12.793 26.5913C12.0233 24.9708 11.5526 22.7903 11.5526 21.6889C11.5526 20.6385 11.9849 19.6875 12.6838 18.999C13.3827 18.3106 14.3481 17.8848 15.4145 17.8848C16.481 17.8848 17.4464 18.3106 18.1453 18.999C18.8442 19.6875 19.2765 20.6385 19.2765 21.6889C19.2765 22.7843 18.7139 24.9299 17.8733 26.5446C17.5635 27.1407 17.2087 27.6724 16.8178 28.0763C17.1564 28.171 17.4812 28.2981 17.7881 28.4543C17.8061 27.909 17.9532 27.2986 18.1831 26.674C18.8022 24.9926 20.0348 23.1225 20.8255 22.3435C21.5796 21.6006 22.5679 21.2292 23.5563 21.2292C24.5446 21.2292 25.5328 21.6006 26.287 22.3435C27.0413 23.0863 27.4182 24.0598 27.4182 25.0334C27.4182 26.0069 27.0412 26.9803 26.287 27.7233C25.4999 28.4986 23.5618 29.6242 21.8078 30.1806C21.1612 30.3858 20.5284 30.5148 19.9627 30.5278C20.1315 30.8253 20.2714 31.1405 20.3782 31.4705C20.7829 31.0979 21.3245 30.7691 21.9357 30.487C23.5809 29.7288 25.7946 29.2651 26.9126 29.2651C27.979 29.2651 28.9445 29.6909 29.6434 30.3793C30.3423 31.0678 30.7746 32.0188 30.7746 33.0692C30.7746 34.1197 30.3423 35.0707 29.6434 35.7591C28.9445 36.4476 27.9791 36.8734 26.9126 36.8734C25.8007 36.8734 23.6224 36.3192 21.9832 35.4912C21.378 35.1855 20.8382 34.8365 20.4282 34.4515C20.3315 34.7874 20.2012 35.1092 20.0415 35.4132C20.8113 35.4386 21.7077 35.7059 22.5921 36.0933C24.0776 36.7439 25.569 37.7315 26.2481 38.3999C27.0022 39.1427 27.3793 40.1162 27.3793 41.0897C27.3793 42.0633 27.0022 43.0367 26.2481 43.7796C25.4939 44.5226 24.5056 44.8939 23.5173 44.8939C23.4423 44.8939 23.3672 44.8915 23.2922 44.8874C26.8683 48.7992 30.8172 52.0752 34.4905 54.6259C35.785 55.5249 37.0417 56.3327 38.2323 57.0454C37.2542 55.7608 36.4581 54.2905 35.8493 52.703C33.8432 52.0862 32.5704 50.8756 31.8355 49.3501C31.0484 47.7166 30.8964 45.7359 31.124 43.7575C31.3474 41.8116 31.9364 39.8618 32.6413 38.2535C33.6206 36.0202 34.8958 34.3932 35.8235 34.2235C36.0949 34.1738 36.4443 34.3477 36.7998 34.7185C37.2627 35.2011 37.9538 36.151 38.6052 37.4036C39.25 38.6444 39.8631 40.1934 40.1842 41.8961C40.8069 45.1964 40.3439 49.0625 36.9522 52.3917C38.0312 55.1661 39.7159 57.5401 41.9705 59.0902C44.3926 60.2784 46.2497 60.8917 47.1521 60.8752H47.1701C50.0017 60.9278 61.8083 55.0318 71.1407 44.7654C76.7942 38.5459 81.5003 30.7296 82.6772 21.6728C82.7661 20.9897 82.8207 20.3173 82.8441 19.6573C83.0182 14.623 81.3143 10.3215 78.4215 7.1367C75.5257 3.94821 71.4357 1.87227 66.8449 1.29329C66.2133 1.21345 65.5708 1.16258 64.9194 1.1407C61.1614 1.01413 57.9204 2.01011 55.1404 3.74354C52.2332 5.55573 49.8208 8.1775 47.8406 11.1719C47.948 11.3416 48.0543 11.5125 48.1588 11.6846C48.3617 12.017 48.0951 11.5788 48.2789 11.8792C49.0618 13.1561 50.2428 15.0824 50.0237 16.7929C49.87 17.9905 49.1699 18.7599 48.3065 19.113C47.9018 19.2786 47.4617 19.3496 47.0264 19.3277C46.5893 19.3058 46.1564 19.1911 45.7692 18.9859C44.937 18.5446 44.3083 17.6965 44.2747 16.461C44.2297 14.8405 45.3128 13.0745 46.0448 11.8797C46.2171 11.5988 45.9427 12.0501 46.1655 11.6851C46.2706 11.513 46.3762 11.3421 46.4837 11.1724C44.5035 8.17798 42.0904 5.55607 39.1838 3.74403C36.4033 2.01057 33.1622 1.01521 29.4048 1.14119C25.507 1.27248 21.887 2.46186 18.9348 4.49349C16.0288 6.49312 13.7688 9.31066 12.5289 12.7381L12.528 12.7349ZM65.5385 3.85275L65.4437 3.84387L65.3362 3.83441L65.2281 3.82554L65.12 3.81726L65.012 3.80957L64.9039 3.80247L64.7952 3.79597L64.6865 3.79005L64.5779 3.78473L64.4686 3.78L64.3593 3.77586L64.3203 4.90549L64.423 4.90904L64.525 4.91318L64.6271 4.91791L64.7292 4.92324L64.8306 4.92915L64.9321 4.93566L65.0336 4.94275L65.1344 4.95044L65.2353 4.95872L65.3362 4.96759L65.4311 4.97647L65.5385 3.85097L65.5385 3.85275ZM80.0795 19.5764L80.0801 19.5279L80.0807 19.4125L80.0801 19.2972L80.0789 19.1825L80.0771 19.0677L80.0747 18.9536L80.0711 18.8394L80.0669 18.7259L80.0621 18.6123L80.0567 18.4994L80.0513 18.4089L78.9057 18.4757L78.9105 18.5591L78.9159 18.6644L78.9207 18.7703L78.9243 18.8767L78.9273 18.9832L78.9297 19.0902L78.9315 19.1973L78.9327 19.3049L78.9333 19.4125L78.9327 19.5208L78.9321 19.5693L80.0795 19.5764ZM79.4665 14.9466L79.4383 14.8491L79.4083 14.7479L79.3776 14.6468L79.3458 14.5462L79.3134 14.4457L79.2804 14.3458L79.2468 14.2464L79.2125 14.147L79.1777 14.0483L79.1423 13.9495L79.0984 13.8306L78.0231 14.2263L78.0615 14.3304L78.0945 14.4215L78.127 14.5131L78.1588 14.6048L78.19 14.6971L78.2206 14.7899L78.2506 14.8828L78.2801 14.9762L78.3089 15.0697L78.3371 15.1637L78.3653 15.2613L79.4677 14.9467L79.4665 14.9466ZM77.4834 10.6967L77.463 10.6671L77.4059 10.5837L77.3483 10.5003L77.29 10.4175L77.2312 10.3353L77.1718 10.2537L77.1117 10.172L77.0511 10.091L76.9898 10.0106L76.8661 9.8509L76.8037 9.77165L76.7821 9.74444L75.8838 10.4482L75.9007 10.4695L76.0159 10.6162L76.073 10.6901L76.1294 10.7647L76.1853 10.8392L76.2405 10.9143L76.2957 10.99L76.3504 11.0657L76.4044 11.142L76.4579 11.2189L76.5107 11.2958L76.5311 11.3253L77.484 10.6955L77.4834 10.6967ZM74.2591 7.25926L74.2266 7.23382L74.1468 7.17231L74.0663 7.1114L73.9042 6.99075L73.8225 6.93101L73.7403 6.87187L73.658 6.81332L73.5752 6.75536L73.4917 6.69799L73.4083 6.64121L73.3242 6.58502L73.2966 6.56669L72.6589 7.50647L72.758 7.57331L72.8355 7.62594L72.9129 7.67917L72.9898 7.73299L73.066 7.78741L73.1423 7.84241L73.2179 7.89741L73.293 7.95301L73.368 8.00919L73.4425 8.06597L73.5163 8.12275L73.5488 8.14818L74.2585 7.25984L74.2591 7.25926ZM70.1414 4.93728L70.0585 4.90534L69.9619 4.86867L69.8646 4.83259L69.7673 4.7971L69.6695 4.76221L69.5716 4.72791L69.4731 4.69419L69.3747 4.66107L69.2756 4.62855L69.1765 4.59661L69.0769 4.56526L69.0216 4.54811L68.6818 5.62807L68.7298 5.64285L68.8223 5.67183L68.9147 5.70141L69.0066 5.73157L69.0985 5.76232L69.1903 5.79367L69.2816 5.82561L69.3729 5.85813L69.4635 5.89125L69.5542 5.92497L69.6443 5.95868L69.7271 5.99062L70.1402 4.9361L70.1414 4.93728ZM26.2703 25.029C26.2703 24.3447 26.0055 23.6604 25.4753 23.1382C24.9452 22.616 24.2505 22.3552 23.5558 22.3552C22.8612 22.3552 22.1665 22.616 21.6363 23.1382C20.9296 23.8343 19.8218 25.5229 19.258 27.0535C18.9062 28.0086 18.7657 28.8555 19.1121 29.1968C19.4778 29.557 20.412 29.4351 21.458 29.1033C23.0492 28.5983 24.785 27.5993 25.4755 26.9197C26.0056 26.3975 26.2704 25.7132 26.2704 25.029L26.2703 25.029ZM28.8323 34.9562C29.3234 34.4724 29.6272 33.804 29.6272 33.0654C29.6272 32.3267 29.3234 31.6584 28.8323 31.1746C28.3411 30.6908 27.6627 30.3915 26.9128 30.3915C25.9125 30.3915 23.9167 30.8132 22.4199 31.5028C21.4857 31.9334 20.7783 32.4338 20.7783 32.917C20.7783 33.4268 21.5253 33.9916 22.5028 34.4848C23.99 35.2359 25.9354 35.7386 26.9123 35.7386C27.6623 35.7386 28.3407 35.4393 28.8318 34.9556L28.8323 34.9562ZM23.5174 43.7602C24.2121 43.7602 24.9068 43.4994 25.4369 42.9771C25.9671 42.4549 26.2319 41.7706 26.2319 41.0863C26.2319 40.4021 25.9671 39.7178 25.4369 39.1956C24.8317 38.5994 23.4844 37.7111 22.1303 37.1184C20.9061 36.5826 19.7227 36.2792 19.2861 36.7091C18.9205 37.0693 19.0442 37.9896 19.381 39.0199C19.8938 40.5873 20.9079 42.2971 21.5978 42.9772C22.1279 43.4995 22.8226 43.7603 23.5173 43.7603L23.5174 43.7602ZM13.4394 46.2838C13.9306 46.7676 14.6091 47.0669 15.3589 47.0669C16.1088 47.0669 16.7873 46.7676 17.2784 46.2838C17.7696 45.8 18.0734 45.1317 18.0734 44.3931C18.0734 43.4077 17.6453 41.4418 16.9452 39.9674C16.5081 39.0472 16.0002 38.3504 15.5096 38.3504C14.992 38.3504 14.4186 39.0861 13.918 40.049C13.1554 41.514 12.6451 43.4303 12.6451 44.3926C12.6451 45.1313 12.9489 45.7996 13.4401 46.2834L13.4394 46.2838ZM4.50167 41.0485C4.50167 41.7328 4.76646 42.4171 5.29663 42.9392C5.8268 43.4615 6.52149 43.7223 7.21613 43.7223C7.9108 43.7223 8.6055 43.4615 9.13562 42.9392C9.84232 42.2431 10.9501 40.5546 11.5139 39.024C11.8658 38.0688 12.0063 37.222 11.6598 36.8807C11.2942 36.5205 10.3599 36.6423 9.31395 36.9741C7.72278 37.4792 5.98696 38.4782 5.29651 39.1577C4.76634 39.68 4.50155 40.3643 4.50155 41.0485L4.50167 41.0485ZM1.93968 31.1213C1.44854 31.6051 1.14472 32.2734 1.14472 33.0121C1.14472 33.7507 1.44854 34.4191 1.93968 34.9029C2.43082 35.3867 3.1093 35.6859 3.85918 35.6859C4.85947 35.6859 6.85524 35.2642 8.35204 34.5746C9.28628 34.1441 9.99363 33.6437 9.99363 33.1605C9.99363 32.6507 9.2467 32.0859 8.26919 31.5927C6.78195 30.8416 4.8366 30.3389 3.85964 30.3389C3.10972 30.3389 2.43124 30.6381 1.94014 31.1219L1.93968 31.1213ZM7.25457 22.3149C6.56109 22.3149 5.86641 22.5769 5.33507 23.1003C4.80491 23.6225 4.54011 24.3068 4.54011 24.9911C4.54011 25.6754 4.80491 26.3597 5.33507 26.8818C6.04177 27.578 7.75596 28.6692 9.30979 29.2246C10.2795 29.5712 11.1392 29.7095 11.4857 29.3683C11.8513 29.0081 11.7276 28.0878 11.3908 27.0575C10.878 25.4901 9.86393 23.7803 9.17403 23.1002C8.64387 22.5779 7.94917 22.3171 7.25454 22.3171L7.25457 22.3149ZM17.3325 19.7936C16.8414 19.3099 16.1629 19.0106 15.413 19.0106C14.6631 19.0106 13.9846 19.3099 13.4935 19.7936C13.0024 20.2774 12.6986 20.9458 12.6986 21.6844C12.6986 22.6697 13.1267 24.6356 13.8268 26.11C14.2639 27.0303 14.7718 27.7271 15.2624 27.7271C15.7799 27.7271 16.3533 26.9913 16.854 26.0284C17.6165 24.5634 18.1269 22.6472 18.1269 21.6849C18.1269 20.9462 17.8231 20.2778 17.3319 19.7941L17.3325 19.7936ZM18.2794 30.188C17.5391 29.4588 16.5159 29.0075 15.3854 29.0075C14.2554 29.0075 13.2323 29.4588 12.4914 30.188C11.7511 30.9173 11.293 31.9251 11.293 33.0387C11.293 34.1518 11.7511 35.1596 12.4914 35.8894C13.2317 36.6187 14.2549 37.0699 15.3854 37.0699C16.5154 37.0699 17.5385 36.6187 18.2794 35.8894C19.0197 35.1602 19.4778 34.1523 19.4778 33.0387C19.4778 31.9257 19.0197 30.9178 18.2794 30.188ZM35.3732 51.3139C34.266 47.6683 34.0823 43.5347 34.885 39.6639C34.9481 39.3593 35.2501 39.1623 35.5599 39.2244C35.8691 39.2865 36.0691 39.584 36.006 39.8892C35.2255 43.653 35.4212 47.6724 36.5302 51.191C39.2386 48.2764 39.5965 44.9532 39.0573 42.096C38.7589 40.5127 38.1873 39.0696 37.5856 37.9121C36.99 36.7671 36.3722 35.9137 35.9645 35.4878C35.8864 35.4068 36.1452 35.3074 36.0281 35.3287C35.4655 35.4316 34.5283 36.7919 33.6932 38.6963C33.0267 40.2169 32.4707 42.0539 32.2612 43.8779C32.0552 45.6687 32.1825 47.44 32.87 48.866C33.3677 49.8992 34.1717 50.7574 35.3731 51.3146L35.3732 51.3139ZM47.1737 12.2584L47.1587 12.2342L47.023 12.4571L47.0236 12.4577C47.041 12.4288 47.056 12.4045 47.0236 12.4577C46.3602 13.5401 45.3791 15.1405 45.4145 16.4291C45.4361 17.2022 45.8113 17.7238 46.3085 17.987C46.5463 18.1129 46.8104 18.1833 47.077 18.1963C47.346 18.2099 47.6162 18.1662 47.8636 18.065C48.3751 17.8563 48.7912 17.3867 48.8861 16.6456C49.0548 15.3291 47.9957 13.6016 47.2938 12.4565C47.2488 12.3831 47.2752 12.4257 47.2938 12.4565H47.2944L47.1737 12.2577L47.1737 12.2584ZM47.2944 12.4571C47.3076 12.479 47.3172 12.4944 47.295 12.4571H47.2944ZM47.023 12.4571C46.9774 12.5317 47.0026 12.4914 47.0236 12.4577L47.023 12.4571Z" fill="#FF4E6D"/>
</svg>
