<svg width="72" height="100" viewBox="0 0 72 100" fill="none" xmlns="http://www.w3.org/2000/svg">
<path d="M49.1665 54.3375C48.867 54.5541 48.4299 54.5124 48.1903 54.2417C47.9499 53.971 47.9972 53.576 48.2966 53.3587C51.153 51.2803 53.9469 48.5993 56.0893 45.8516C56.989 44.698 57.7721 43.5356 58.3921 42.4067C56.6831 44.1229 54.5399 45.7769 52.0616 47.2955C48.3194 49.5904 43.8041 51.5832 38.8656 53.025C40.9178 55.077 42.2408 57.0222 42.2109 58.8509C42.2058 59.197 41.8926 59.4749 41.5094 59.4713C41.1262 59.4676 40.8202 59.1831 40.8239 58.837C40.8727 55.8165 35.9153 51.9416 30.4844 47.6992C26.0479 44.2317 21.3061 40.5257 18.5488 36.6684C19.1039 38.631 19.9329 40.4856 20.9805 42.234C23.0515 45.6898 25.978 48.733 29.3283 51.3805L29.332 51.3842C30.4568 52.1691 31.6661 53.4376 32.7072 54.7471C34.3346 56.7925 35.5738 59.031 35.4695 59.7428C35.4207 60.0873 35.071 60.328 34.6915 60.2849C34.3119 60.2395 34.0438 59.9249 34.0927 59.5819C34.1568 59.1415 33.0313 57.3046 31.5808 55.4815C30.6009 54.251 29.4849 53.0696 28.4913 52.3804C28.4651 52.3643 28.441 52.3489 28.4185 52.3299C28.2567 52.2194 28.0964 52.1236 27.9413 52.0453C27.588 51.8617 27.2798 51.6518 26.9666 51.4404C26.7473 51.2919 26.5258 51.1411 26.2665 50.9927C24.8444 50.1763 23.2745 49.4425 21.6988 48.7043C18.9385 47.4146 16.1549 46.114 14.0365 44.3451C16.5119 48.2641 21.0584 52.0921 24.8663 55.2957C26.2031 56.4193 27.4496 57.4697 28.5059 58.4383C28.774 58.6849 28.7704 59.0835 28.4972 59.3264C28.224 59.5693 27.7832 59.5656 27.5151 59.3191C26.4952 58.3842 25.2524 57.3366 23.9193 56.2167C18.4994 51.6549 11.6217 45.8675 10.8837 40.0036C10.8422 39.659 11.1169 39.3481 11.4979 39.3093C11.8439 39.2742 12.1593 39.4769 12.246 39.7724C13.6528 43.5303 18.0231 45.5721 22.335 47.5874C22.9178 47.8603 23.4977 48.1309 24.0725 48.4075C22.4152 46.6803 20.953 44.8243 19.759 42.8317C17.8512 39.6488 16.633 36.125 16.4102 32.2514C16.3912 31.9054 16.6855 31.6099 17.068 31.5923C17.4162 31.5762 17.7171 31.795 17.7834 32.0942C19.0436 37.1 25.4945 42.1411 31.3932 46.7507C31.9796 47.2086 32.561 47.6629 33.1321 48.1143L33.2399 36.3577C33.1911 36.3489 33.1423 36.3387 33.0935 36.3263C31.8834 36.1426 30.669 35.2721 29.607 33.9158C28.3656 32.3306 27.2954 30.046 26.6893 27.4402C26.6506 27.2742 26.6128 27.0957 26.5727 26.9055C26.0664 24.4233 26.0839 22.1073 26.5312 20.3471C27.02 18.421 28.0457 17.1063 29.5056 16.8284L29.5697 16.8182C29.9281 16.7589 30.2902 16.7655 30.6508 16.8321C31.1068 15.7626 31.6707 14.8707 32.3095 14.2278C33.0912 13.4392 33.9946 13.0076 34.9656 13.0325C35.9178 13.0566 36.7759 13.5182 37.5001 14.3156C38.1302 15.0098 38.6642 15.9726 39.0663 17.1247C39.1479 17.1372 39.2302 17.1525 39.3104 17.1701C39.3228 17.1716 39.3344 17.1752 39.3468 17.1789L39.4109 17.1964C40.8402 17.5827 41.7436 18.9689 42.0569 20.9243C42.3439 22.7122 42.1509 25.0217 41.4216 27.4563C41.3743 27.6121 41.3204 27.7869 41.2563 27.9808C40.4156 30.5382 39.1342 32.744 37.7485 34.2384C36.7476 35.3167 35.6723 36.0438 34.624 36.3027L34.514 48.2846C35.0341 47.9664 35.6089 47.6189 36.223 47.2502C41.3559 44.1617 49.2739 39.397 50.5014 34.9238C50.5677 34.6582 50.8198 34.4519 51.1367 34.4329C51.5199 34.4117 51.8506 34.6743 51.8732 35.0203C52.0961 38.0723 50.9873 41.657 48.4115 45.0813C47.0587 46.8802 45.3007 48.6365 43.1182 50.2497C46.1064 49.0961 48.8602 47.7412 51.2803 46.2577C55.1756 43.8685 58.1937 41.1538 59.9152 38.4164C60.0543 38.1962 60.3348 38.0652 60.6269 38.1069C61.0043 38.1611 61.2637 38.4829 61.2032 38.8253C60.7785 41.1939 59.2886 43.9242 57.2206 46.5753C55.0067 49.4159 52.1153 52.1877 49.1612 54.3377L49.1665 54.3375ZM48.0977 40.9693C48.164 40.8537 48.3207 40.8083 48.4474 40.8661C48.5742 40.9254 48.6266 41.0673 48.5603 41.1822C48.097 41.9986 47.5266 42.8464 46.9103 43.654C46.2626 44.5033 45.5662 45.3095 44.8945 45.9927C44.799 46.0907 44.6337 46.0995 44.5251 46.0117C44.4173 45.9247 44.4086 45.7754 44.504 45.6796C45.1655 45.008 45.8481 44.2165 46.4812 43.3862C47.0866 42.5925 47.6453 41.7622 48.0963 40.967L48.0977 40.9693ZM20.9031 41.1822C20.8368 41.0666 20.8892 40.9254 21.016 40.8661C21.1428 40.8069 21.2994 40.8522 21.3657 40.9693C21.8166 41.7645 22.3754 42.5933 22.9808 43.3885C23.6124 44.2188 24.2964 45.0089 24.958 45.6819C25.0534 45.7799 25.0447 45.9284 24.9369 46.014C24.829 46.101 24.6637 46.093 24.5675 45.995C23.8958 45.3117 23.1994 44.5055 22.5517 43.6563C21.9354 42.8486 21.3642 42.0008 20.9016 41.1844L20.9031 41.1822ZM36.3217 69.4625L38.588 99.3291C38.6142 99.6752 38.3236 99.9758 37.9404 99.9985C37.5572 100.021 37.2264 99.7593 37.201 99.4133L35.4067 75.7679L33.2517 99.4226C33.2204 99.7687 32.8846 100.028 32.5014 99.9976C32.1182 99.9698 31.8326 99.6655 31.8647 99.3195L34.5834 69.4885C34.1375 69.4168 33.7966 69.2961 33.5387 69.1373C31.7546 72.7995 31.1005 77.4169 30.4455 82.0336C30.0922 84.5208 29.7403 87.008 29.2129 89.3623C29.1816 89.551 29.0548 89.7244 28.8545 89.8217C28.5165 89.9863 28.0954 89.8721 27.9125 89.5664L24.9782 84.6461L21.4188 85.0711C21.3175 85.0901 21.2097 85.0901 21.1041 85.066C20.7318 84.9804 20.5067 84.638 20.6007 84.3001C21.5492 80.9269 23.0878 77.9569 25.0059 75.2165C25.8225 74.0489 26.7084 72.9231 27.6466 71.8236C25.3475 73.4455 23.0411 74.746 20.9386 73.9282C20.1016 73.6034 19.5202 72.839 19.2383 71.9077C19.0292 71.2157 18.9804 70.4183 19.1181 69.6458C19.2572 68.8609 19.5865 68.0935 20.1293 67.473C20.5066 67.0414 20.9823 66.6815 21.5615 66.4386C21.5527 66.4386 21.544 66.4372 21.5353 66.435C20.0229 66.3479 18.912 65.7342 18.1601 64.8673C17.5685 64.1855 17.2116 63.3501 17.06 62.4971C16.9122 61.6544 16.9661 60.7875 17.1977 60.0326C17.5146 59.0033 18.1688 58.162 19.1123 57.8057C21.9601 56.7311 25.1872 59.031 28.3292 61.2718C29.9479 62.4254 31.5425 63.5616 32.9508 64.135C33.2378 63.5374 33.8927 63.116 35.3511 63.067H35.3613H35.4101C36.7695 63.1109 37.4325 63.4759 37.7516 64.0056C38.9805 63.4254 40.364 62.4269 41.786 61.3998C44.9369 59.124 48.266 56.7187 51.3053 57.8028C52.2611 58.1437 52.9225 58.9791 53.2424 60.0084C53.4741 60.7545 53.5294 61.6097 53.3888 62.4414C53.246 63.2856 52.9 64.1159 52.3289 64.8015C51.572 65.7101 50.4333 66.3553 48.8684 66.4372C49.4498 66.6823 49.9248 67.04 50.3043 67.4738C50.847 68.0942 51.1763 68.8616 51.3155 69.6466C51.4532 70.4176 51.4043 71.2143 51.1953 71.9085C50.9133 72.8419 50.332 73.6042 49.495 73.929C47.3926 74.7469 45.084 73.4469 42.7869 71.8244C43.7252 72.9224 44.6111 74.0475 45.4277 75.2173C47.3458 77.9599 48.8844 80.9277 49.8329 84.3008C49.9269 84.6381 49.7025 84.9804 49.3295 85.0668C49.2217 85.0909 49.1153 85.0909 49.0148 85.0719L45.4553 84.6469L42.521 89.5671C42.3404 89.8729 41.9186 89.9863 41.5791 89.8224C41.3788 89.7244 41.252 89.5518 41.2207 89.363C40.6932 87.009 40.3399 84.5216 39.988 82.0344C39.3426 77.4761 38.695 72.9158 36.9612 69.2786C36.782 69.3554 36.573 69.4183 36.3296 69.4658L36.3217 69.4625ZM32.1219 68.9329C29.9343 71.1545 27.8974 73.4268 26.1796 75.884C24.5106 78.2695 23.1403 80.8357 22.2195 83.7078L25.2727 83.3427C25.567 83.3076 25.8416 83.4459 25.9742 83.6675L28.2019 87.4014C28.5413 85.5996 28.8043 83.7365 29.0688 81.8731C29.72 77.2848 30.3691 72.6966 32.1234 68.9314L32.1219 68.9329ZM28.1516 69.8473C29.7251 68.69 31.2761 67.5525 32.7382 67.0155C32.7397 66.9175 32.7433 66.818 32.747 66.72C32.7506 66.6183 32.7542 66.5174 32.7542 66.3125C32.7542 66.1077 32.7506 66.0068 32.747 65.9051C32.7419 65.7427 32.7368 65.5803 32.7346 65.4193C31.0598 64.8253 29.2779 63.5546 27.4654 62.2628C24.6388 60.2473 21.7372 58.18 19.6413 58.9694C19.1212 59.1654 18.7395 59.698 18.5326 60.3696C18.3519 60.957 18.3097 61.6366 18.4284 62.303C18.5435 62.9584 18.8131 63.5912 19.2501 64.0982C19.7703 64.698 20.5469 65.1224 21.6156 65.1853C21.6382 65.1853 21.6593 65.1853 21.6819 65.1867L29.2227 65.7895V65.791C29.5621 65.8173 29.8368 66.0653 29.8564 66.3821C29.8776 66.7281 29.5833 67.0251 29.2001 67.0448L23.1951 67.3543C22.3056 67.3996 21.6544 67.7508 21.2144 68.2548C20.8283 68.6974 20.5893 69.2614 20.4851 69.8474C20.3788 70.445 20.4137 71.0566 20.5718 71.5833C20.7459 72.1598 21.0606 72.6126 21.4839 72.7787C23.2403 73.4619 25.7274 71.6338 28.1503 69.8525L28.1516 69.8473ZM35.382 68.3001C36.6801 68.2496 36.6561 67.5086 36.6321 66.7529C36.627 66.5693 36.6197 66.3879 36.6197 66.3103C36.6197 66.2335 36.627 66.0514 36.6321 65.8677C36.6561 65.1128 36.6823 64.3717 35.382 64.3205C34.0838 64.371 34.1078 65.1121 34.1319 65.8677C34.137 66.0514 34.1443 66.2328 34.1443 66.3103C34.1443 66.3871 34.137 66.5693 34.1319 66.7529C34.1078 67.5079 34.0816 68.2489 35.382 68.3001ZM38.0192 66.72C38.0243 66.8648 38.0294 67.0082 38.0294 67.1516C39.3902 67.7281 40.821 68.7807 42.2729 69.8467C44.6958 71.628 47.1829 73.4547 48.9393 72.7729C49.3626 72.6083 49.6773 72.154 49.8514 71.5775C50.0095 71.0515 50.0445 70.4414 49.9381 69.8416C49.8339 69.2563 49.5972 68.6916 49.2089 68.249C48.774 67.7508 48.1329 67.4033 47.2579 67.3507C47.2441 67.3507 47.2303 67.3507 47.2142 67.3492L41.0301 66.919C40.6906 66.8964 40.4123 66.6498 40.3875 66.3338C40.3613 65.9878 40.652 65.6871 41.0352 65.6645L48.7529 65.1824H48.7631C49.877 65.1282 50.6797 64.6769 51.2101 64.0412C51.6348 63.5327 51.8941 62.9014 52.0041 62.2533C52.1171 61.5927 52.0755 60.9233 51.8963 60.3461C51.6894 59.6803 51.3099 59.1558 50.7927 58.9707C48.4965 58.1529 45.4891 60.3256 42.643 62.3812C41.0396 63.54 39.4836 64.6637 38.025 65.2797C38.0265 65.4845 38.0199 65.6922 38.0127 65.9022C38.009 66.0039 38.0054 66.1048 38.0054 66.3097C38.0054 66.5145 38.009 66.6154 38.0127 66.7171L38.0192 66.72ZM44.2472 75.8841C42.5294 73.4269 40.4925 71.1539 38.3049 68.933C40.0577 72.6997 40.709 77.2864 41.3595 81.8747C41.624 83.7379 41.8869 85.6011 42.2264 87.403L44.4541 83.6691C44.5867 83.4475 44.8613 83.3092 45.1556 83.3443L48.2087 83.7094C47.2879 80.8373 45.9184 78.2718 44.2487 75.8856L44.2472 75.8841ZM43.939 10.7349C43.8662 11.0758 43.5005 11.2975 43.1224 11.2316C42.745 11.165 42.4995 10.8351 42.5724 10.4942C42.9396 8.81239 42.9344 7.28338 42.6074 6.14737C42.3269 5.17588 41.8279 4.52847 41.1489 4.40264C40.6965 4.31852 40.1778 4.46409 39.6366 4.79255C39.069 5.1371 38.4965 5.67186 37.9603 6.35366C38.6829 7.42316 39.3073 8.71369 39.748 10.1291C39.8522 10.4627 39.6365 10.8109 39.2657 10.9031C38.8964 10.9975 38.5117 10.8014 38.409 10.4678C37.8153 8.56062 36.8719 6.92121 35.8257 5.81161C34.8823 4.8116 33.8988 4.26805 33.0967 4.42021C33.0603 4.42753 33.0741 4.42387 33.0618 4.42753C32.385 4.57457 31.8903 5.25051 31.6259 6.252C31.3228 7.40052 31.3403 8.92647 31.725 10.5973C31.7636 10.7597 31.7964 10.8995 31.8277 11.0165C31.9166 11.3538 31.6864 11.691 31.3141 11.7715C30.9418 11.8519 30.5674 11.6442 30.4785 11.3062C30.4312 11.1299 30.3933 10.9792 30.3656 10.8519C29.9394 9.00256 29.927 7.28263 30.2767 5.96159C30.665 4.49339 31.5057 3.47439 32.7398 3.20659L32.8126 3.19049C33.112 3.13489 33.418 3.12612 33.7261 3.16269C34.0831 2.31117 34.5406 1.595 35.0717 1.06315C35.7404 0.393796 36.5301 0.0111931 37.3991 0.00021881C38.2471 -0.0100227 39.0353 0.339655 39.718 0.965116C40.2993 1.49842 40.8115 2.24458 41.2165 3.14294C41.2864 3.15025 41.3556 3.16049 41.4256 3.17439C42.672 3.40483 43.5332 4.38949 43.9498 5.83501C44.3293 7.14958 44.3432 8.87598 43.9359 10.7379L43.939 10.7349ZM38.8666 3.7486C39.1733 3.56352 39.4807 3.41649 39.791 3.31188C39.4843 2.70543 39.1259 2.2058 38.7325 1.84368C38.3151 1.46108 37.8678 1.24747 37.4198 1.2526C36.9637 1.25772 36.515 1.49181 36.1056 1.90074C35.6983 2.30822 35.3377 2.87809 35.0441 3.57013C35.6779 3.88835 36.3008 4.37264 36.8858 4.99299C36.9674 5.08004 37.0497 5.16929 37.1298 5.2622C37.6813 4.62576 38.2699 4.11003 38.8687 3.74864L38.8666 3.7486ZM58.8756 46.4267C58.4997 46.3535 58.2615 46.0192 58.3431 45.6783C58.4021 45.4303 58.6162 45.2482 58.8741 45.1962C58.9754 45.1019 59.1073 45.0338 59.2624 45.0112C59.9938 44.8992 60.8709 44.3418 61.7495 43.4574C62.6601 42.54 63.5438 41.2921 64.2562 39.8267C65.1355 38.019 65.5806 36.2473 65.5893 34.8435C65.5966 33.6042 65.2826 32.7022 64.6474 32.4315C64.0646 32.1836 63.2166 32.4945 62.3009 33.2026C61.2337 34.0278 60.1424 35.3613 59.2601 37.0133C59.0933 37.3264 58.6788 37.4573 58.332 37.3052C57.9874 37.1552 57.841 36.7792 58.0085 36.4661C58.976 34.657 60.1933 33.18 61.3975 32.2486C62.7358 31.2142 64.1097 30.8192 65.2337 31.2962C65.4792 31.4008 65.6985 31.5412 65.8915 31.7139C66.7169 31.2333 67.5241 30.9063 68.2583 30.7592C69.2141 30.569 70.0636 30.6736 70.7163 31.1228C71.3552 31.5632 71.6947 32.2552 71.7574 33.1169C71.8098 33.828 71.667 34.6692 71.3487 35.5741C71.3836 35.6071 71.4164 35.6422 71.4499 35.6787C71.4638 35.6912 71.4762 35.7051 71.4885 35.719C72.2564 36.6122 72.1311 37.9406 71.3042 39.3877C70.5626 40.6847 69.2345 42.12 67.4921 43.4061C67.3318 43.5246 67.2065 43.616 67.1162 43.6789C65.6665 44.6979 64.1534 45.4668 62.7649 45.9423C61.2802 46.4507 59.9158 46.6278 58.8813 46.4244L58.8756 46.4267ZM62.2886 44.7624C63.5416 44.3308 64.9206 43.6264 66.2554 42.6878C66.412 42.5773 66.5307 42.4917 66.6101 42.4347C68.2026 41.2584 69.4038 39.9686 70.0633 38.815C70.6373 37.8121 70.7874 36.9642 70.3853 36.4938C70.378 36.485 70.3693 36.4762 70.3627 36.466C70.1172 36.2019 69.6772 36.0673 69.1046 36.0534C68.4621 36.0358 67.6826 36.1704 66.823 36.4396C66.6125 37.6547 66.179 38.9935 65.5263 40.3359C64.7534 41.9233 63.7874 43.2885 62.7813 44.3001C62.6196 44.4647 62.4542 44.6183 62.2888 44.7654L62.2886 44.7624ZM69.1431 34.7973C69.4913 34.8061 69.8147 34.8478 70.1127 34.9232C70.3145 34.275 70.4034 33.6876 70.3669 33.196C70.3305 32.7029 70.1688 32.3277 69.8708 32.1228C69.5641 31.9129 69.1081 31.8748 68.5552 31.9867C67.9753 32.1023 67.3174 32.3745 66.621 32.7819C66.8592 33.3606 66.9758 34.0629 66.9729 34.85C66.9729 34.9254 66.9714 35.0022 66.9678 35.079C67.756 34.8778 68.4925 34.7798 69.1416 34.7974L69.1431 34.7973ZM13.0865 47.2511C13.3422 47.3038 13.5563 47.4852 13.6139 47.7332C13.694 48.0727 13.4536 48.4062 13.0777 48.4779C12.0403 48.6791 10.6759 48.497 9.1964 47.9849C7.81591 47.5057 6.30871 46.7317 4.85667 45.7039C4.72772 45.6132 4.60097 45.5203 4.47931 45.4296C2.74404 44.1376 1.42248 42.6995 0.686758 41.3988C-0.134975 39.9496 -0.253008 38.6212 0.51629 37.7316C0.528675 37.7177 0.540332 37.7038 0.552715 37.6914C0.585497 37.6548 0.620466 37.6197 0.65689 37.5846C0.34218 36.6775 0.202308 35.8369 0.256223 35.1251C0.322516 34.2648 0.663454 33.5713 1.30598 33.1345C1.96017 32.6868 2.8096 32.5859 3.76398 32.7798C4.4954 32.9283 5.30111 33.2589 6.12426 33.7432C6.3195 33.5698 6.53878 33.4301 6.78574 33.3269C7.912 32.8529 9.28384 33.2552 10.6184 34.2955C11.8175 35.2304 13.0275 36.711 13.9884 38.5253C14.1537 38.8384 14.0073 39.2122 13.6613 39.3607C13.3167 39.5092 12.9022 39.3783 12.7368 39.0652C11.8612 37.4119 10.7749 36.0746 9.70999 35.2444C8.79792 34.5348 7.95213 34.2217 7.36725 34.4682C6.73054 34.736 6.41364 35.6358 6.41655 36.8751C6.41801 38.2804 6.8573 40.0529 7.72711 41.8635C8.43228 43.3281 9.31086 44.5798 10.22 45.503C11.0934 46.3911 11.9676 46.95 12.6983 47.0656C12.8535 47.0898 12.9875 47.1585 13.0866 47.2529L13.0865 47.2511ZM5.71117 44.7164C7.03776 45.6549 8.41236 46.3645 9.66914 46.8013C9.50523 46.6565 9.34205 46.5006 9.18032 46.336C8.18155 45.3221 7.22064 43.9556 6.45433 42.363C5.80669 41.017 5.37835 39.6767 5.17291 38.4617C4.31619 38.1888 3.53671 38.0542 2.89264 38.0681C2.31275 38.082 1.86764 38.2166 1.62214 38.4858L1.6083 38.5019C1.20252 38.9701 1.34896 39.8202 1.9201 40.8267C2.57429 41.9819 3.77048 43.2774 5.35925 44.4589C5.47581 44.5445 5.59237 44.6301 5.71111 44.7143L5.71117 44.7164ZM1.88877 36.9379C2.18673 36.8647 2.51163 36.8245 2.85985 36.8157C3.50749 36.7996 4.24545 36.8999 5.03363 37.1062C5.03218 37.0293 5.02999 36.9525 5.02999 36.8757C5.02853 36.0871 5.14801 35.3863 5.3906 34.8076C4.69781 34.3987 4.03996 34.1244 3.46 34.0051C2.90854 33.8932 2.4503 33.9283 2.14434 34.1383C1.84492 34.3431 1.68319 34.7169 1.64459 35.21C1.60598 35.703 1.69194 36.2919 1.89154 36.9386L1.88877 36.9379ZM17.9463 18.931C18.1256 19.239 17.9951 19.618 17.6557 19.7789C17.3162 19.9398 16.8966 19.8228 16.7174 19.5148C16.0035 18.288 15.5824 17.1182 15.5008 16.1204C15.4119 15.0509 15.7062 14.154 16.4289 13.5424C16.4988 13.4832 16.5717 13.429 16.6467 13.3763C16.4049 12.1898 16.3786 11.1107 16.5753 10.2299C16.8019 9.21823 17.322 8.44499 18.1489 8.02066C18.9947 7.5854 20.0168 7.58686 21.1168 7.95043C22.0135 8.24743 22.9722 8.79463 23.9295 9.54811C24.215 9.33524 24.5319 9.17429 24.8816 9.07627C25.938 8.7756 27.0767 9.07774 28.1781 9.85024C29.2053 10.5723 30.218 11.7186 31.0958 13.1628C31.2801 13.4671 31.157 13.8497 30.8204 14.0157C30.4846 14.1833 30.0613 14.0713 29.877 13.7678C29.0888 12.4707 28.2044 11.459 27.3288 10.8438C26.5908 10.3266 25.8842 10.1079 25.2941 10.2754C24.3857 10.5344 23.7905 11.6529 23.5603 13.2506C23.3082 15.0181 23.5326 17.3093 24.2946 19.7021C24.3223 19.7913 24.366 19.9186 24.4214 20.0832C24.4491 20.1637 24.4942 20.2895 24.5554 20.4607C24.6756 20.7914 24.4767 21.1462 24.1118 21.2544C23.7461 21.3627 23.3527 21.1827 23.2325 20.8543C23.2012 20.7672 23.1538 20.6341 23.0912 20.4519C23.0584 20.3561 23.0147 20.2215 22.9586 20.0467C22.3874 18.2566 22.1004 16.5103 22.0727 14.9638C21.0055 14.4671 20.0082 14.1635 19.1625 14.083C18.3859 14.0099 17.7616 14.1247 17.3696 14.4554C16.9777 14.7861 16.8247 15.3347 16.8823 16.0253C16.95 16.8541 17.3172 17.8534 17.9422 18.9266L17.9463 18.931ZM17.9565 12.871C18.3725 12.8008 18.8249 12.7905 19.3072 12.8359C20.1602 12.9164 21.1175 13.1753 22.1249 13.593C22.1409 13.4233 22.1599 13.2573 22.1839 13.0949C22.3282 12.0809 22.621 11.2053 23.0486 10.5236C22.2094 9.85933 21.3862 9.38236 20.6358 9.13364C19.9204 8.89589 19.2975 8.87468 18.8328 9.11462C18.3767 9.34871 18.0788 9.82568 17.9331 10.4782C17.7852 11.1373 17.7954 11.9537 17.9556 12.871L17.9565 12.871ZM13.4486 33.4038C13.6839 33.6782 13.6293 34.0732 13.3269 34.2868C13.0239 34.4997 12.5875 34.4514 12.3507 34.1763C12.1417 33.9335 11.9246 33.6657 11.7016 33.3775C11.4926 33.1068 11.2959 32.8376 11.1152 32.5735C10.1558 31.1719 9.55041 29.8135 9.36392 28.6569C9.16213 27.4125 9.43167 26.3685 10.2432 25.6816C10.3131 25.6224 10.386 25.5682 10.461 25.5156C10.2192 24.329 10.1929 23.2499 10.3896 22.3692C10.6162 21.3574 11.1363 20.5842 11.9632 20.1599C12.809 19.7246 13.8311 19.7261 14.9311 20.0896C15.8257 20.3866 16.7865 20.9338 17.7438 21.6873C18.0293 21.4744 18.3477 21.315 18.6959 21.2155C18.7309 21.2052 18.7513 21.1994 18.76 21.1979V21.1994C20.1923 20.827 21.7783 21.5542 23.2076 23.0473C24.5167 24.4138 25.7333 26.4555 26.5702 28.8623C26.614 28.9845 26.6693 29.1593 26.7429 29.3832C27.2791 31.0665 27.5661 32.7081 27.6222 34.1778C27.6812 35.7316 27.4809 37.1077 27.0445 38.1596C26.9104 38.4845 26.5119 38.6491 26.1513 38.5284C25.7929 38.4076 25.6101 38.0463 25.7441 37.7207C26.1186 36.8202 26.2868 35.6096 26.2351 34.2159C26.1827 32.8421 25.9146 31.3058 25.4119 29.7256C25.3755 29.61 25.3194 29.4439 25.2465 29.2325C24.467 26.9895 23.351 25.1095 22.1606 23.8645C21.0904 22.7474 20.0072 22.1761 19.1439 22.3999V22.4014L19.1125 22.4102C18.3571 22.6252 17.8158 23.4468 17.52 24.6472C17.182 26.021 17.1944 27.8389 17.5929 29.8279C17.6606 30.1688 17.41 30.4958 17.0327 30.5566C16.6553 30.618 16.2947 30.3905 16.227 30.0496C16.0201 29.0181 15.9123 28.024 15.8948 27.0993C14.8275 26.6026 13.8303 26.299 12.9845 26.2185C12.208 26.1454 11.5836 26.2602 11.1917 26.5909C10.743 26.9698 10.6067 27.6326 10.743 28.4679C10.9047 29.4628 11.443 30.6545 12.299 31.9076C12.4695 32.1578 12.6509 32.4058 12.8418 32.6538C13.0159 32.8791 13.2191 33.1278 13.453 33.3985L13.4486 33.4038ZM11.7723 25.0072C12.1883 24.937 12.6407 24.9267 13.1229 24.9721C13.976 25.0525 14.9333 25.3115 15.9407 25.7292C15.9859 25.2501 16.0587 24.7972 16.1614 24.3817C16.3232 23.7226 16.5585 23.1425 16.863 22.6604C16.0237 21.9962 15.2005 21.5207 14.4523 21.2705C13.737 21.0327 13.1141 21.0115 12.6493 21.2514C12.1933 21.4855 11.8953 21.9625 11.7496 22.615C11.6017 23.2741 11.6119 24.0905 11.7722 25.0078L11.7723 25.0072ZM54.8358 20.5169C54.7178 20.8475 54.3259 21.0275 53.9602 20.9207C53.5945 20.8139 53.3963 20.4591 53.5143 20.1292C53.7722 19.4181 53.8815 18.7795 53.829 18.2534C53.7853 17.8145 53.6251 17.4619 53.3417 17.2205C52.9497 16.8884 52.3254 16.7728 51.5488 16.8481C50.7031 16.9286 49.7058 17.2307 48.6399 17.7274C48.621 18.8079 48.4745 19.9843 48.1941 21.2036C48.1154 21.5431 47.7482 21.7611 47.3723 21.6916C46.9964 21.6213 46.756 21.2878 46.8347 20.9491C47.3148 18.8568 47.3723 16.9219 47.0503 15.4501C46.7684 14.1553 46.2111 13.265 45.4214 13.0412C44.9581 12.9102 44.4226 13.017 43.8566 13.3192C43.174 13.6842 42.4674 14.317 41.7921 15.1612C41.5677 15.4428 41.1321 15.5057 40.821 15.3009C40.5092 15.0961 40.4415 14.7047 40.6659 14.4238C41.4512 13.4435 42.3006 12.6915 43.1479 12.2372C44.0564 11.7514 44.9721 11.5956 45.8318 11.8421C46.18 11.9416 46.4983 12.1011 46.7839 12.314C47.7412 11.5627 48.7005 11.0155 49.5951 10.7185C50.6952 10.3535 51.7173 10.3535 52.563 10.7887C53.3899 11.2137 53.91 11.9862 54.1366 12.998C54.3333 13.8788 54.307 14.9571 54.0652 16.1444C54.1402 16.1971 54.2131 16.2512 54.283 16.3105C54.8294 16.7735 55.131 17.3997 55.2053 18.1459C55.2767 18.8489 55.1441 19.6558 54.8308 20.5226L54.8358 20.5169ZM51.4067 15.5966C51.889 15.5513 52.3428 15.5615 52.7574 15.6317C52.9176 14.7144 52.9278 13.898 52.78 13.2389C52.6335 12.5871 52.3363 12.1094 51.8803 11.8753C51.4155 11.6361 50.7904 11.6566 50.0772 11.8943C49.3291 12.1423 48.5051 12.62 47.6666 13.2821C48.0024 13.8132 48.253 14.4635 48.4148 15.2067C48.4934 15.5666 48.5524 15.9492 48.5889 16.3516C49.5964 15.9353 50.5521 15.6771 51.4053 15.5966L51.4067 15.5966ZM57.4693 32.3394C57.3127 32.6554 56.9018 32.7973 56.5521 32.6576C56.2024 32.5157 56.0458 32.1455 56.2003 31.8287C56.6687 30.8814 56.9295 30.0233 56.9484 29.3224C56.9645 28.754 56.8158 28.3071 56.4836 28.0291C56.0852 27.697 55.4587 27.5799 54.6806 27.6553C53.8363 27.7357 52.8426 28.0364 51.7789 28.5324C51.7578 29.7212 51.5837 31.0284 51.2464 32.3796C51.1626 32.719 50.7904 32.9304 50.4159 32.8551C50.0415 32.7783 49.8069 32.4425 49.89 32.1053C50.4327 29.9362 50.5267 27.9193 50.2192 26.381C49.9461 25.0174 49.38 24.0788 48.5605 23.8447L48.5291 23.836V23.8345C47.6659 23.6092 46.5812 24.1805 45.5124 25.299C44.322 26.5419 43.2082 28.4243 42.4265 30.6671C42.3536 30.8785 42.2975 31.0431 42.2596 31.1602C41.7337 32.812 41.4641 34.4163 41.4292 35.8355C41.3942 37.2671 41.5996 38.4938 42.0243 39.3718C42.1773 39.69 42.0171 40.0602 41.6659 40.1984C41.3141 40.3367 40.9054 40.1911 40.7524 39.8736C40.249 38.8319 40.0057 37.4215 40.0443 35.8114C40.0807 34.2891 40.3677 32.5759 40.9287 30.8157C41.0001 30.5904 41.0576 30.417 41.1013 30.2949C41.9384 27.888 43.155 25.8486 44.464 24.4798C45.8933 22.9874 47.4785 22.2602 48.9115 22.6319V22.6304C48.9203 22.6319 48.9414 22.6392 48.9757 22.648C49.3239 22.7475 49.6422 22.907 49.9278 23.1198C50.885 22.3663 51.8444 21.8191 52.7405 21.5221C53.8405 21.1571 54.8626 21.1571 55.7084 21.5924C56.5352 22.0174 57.0554 22.7899 57.2819 23.8017C57.4786 24.6824 57.4524 25.7592 57.2106 26.9481C57.2856 26.9985 57.357 27.0527 57.4262 27.1105C58.0716 27.6489 58.3623 28.4229 58.3382 29.3585C58.3157 30.229 58.0126 31.2496 57.4699 32.3454L57.4693 32.3394ZM54.54 26.405C55.0259 26.3596 55.482 26.3699 55.8979 26.4379C56.0597 25.5184 56.0684 24.702 55.9205 24.0414C55.7741 23.3895 55.4769 22.9119 55.0208 22.6778C54.556 22.4386 53.931 22.459 53.2178 22.6968C52.4675 22.9448 51.6443 23.4225 50.8072 24.0867C51.1641 24.6529 51.4249 25.3538 51.5852 26.1563C51.6479 26.4723 51.6967 26.8067 51.7295 27.1563C52.734 26.7401 53.6891 26.4833 54.5384 26.4028L54.54 26.405ZM33.2983 35.076C33.3369 35.0775 33.3748 35.0833 33.4134 35.0899C33.5525 35.1024 33.6888 35.0987 33.8206 35.076L33.8534 35.0687C34.7305 34.9026 35.3905 33.9392 35.7577 32.4995C36.1664 30.8952 36.1773 28.759 35.7052 26.4482C35.6739 26.2924 35.6375 26.1249 35.5938 25.9428C35.0277 23.5024 34.0414 21.386 32.9042 19.9353C31.8741 18.6193 30.7667 17.8834 29.827 18.0407L29.7942 18.048C28.9171 18.2141 28.2571 19.1775 27.8899 20.6172C27.4812 22.2215 27.4703 24.3597 27.9424 26.67C27.9737 26.8258 28.0101 26.9933 28.0538 27.1754C28.6199 29.6158 29.6062 31.7322 30.7435 33.1828C31.5892 34.2633 32.486 34.9517 33.299 35.0775L33.2983 35.076ZM37.0478 33.0152C38.1842 31.659 39.2215 29.7767 39.9319 27.6142C39.9807 27.4672 40.031 27.3033 40.0871 27.1197C40.7675 24.849 40.9503 22.7188 40.6895 21.0896C40.4542 19.6288 39.8853 18.6199 39.0257 18.3888H39.0242C39.014 18.3851 39.0227 18.3888 38.9929 18.3815L38.9703 18.3763C38.4552 18.2593 37.8528 18.4217 37.2175 18.8079C36.5124 19.2359 35.7882 19.9287 35.1027 20.8197C35.8807 22.1986 36.532 23.8629 36.9545 25.6858C36.9931 25.8533 37.0332 26.0304 37.0711 26.2206C37.5774 28.7027 37.5599 31.0187 37.1126 32.7789C37.0915 32.8579 37.0711 32.9362 37.05 33.013L37.0478 33.0152ZM36.4438 17.7662C36.8474 17.5211 37.2532 17.3382 37.6553 17.2227C37.3231 16.3455 36.9086 15.6213 36.4365 15.1005C35.9681 14.5847 35.4582 14.2877 34.9358 14.2753C34.4011 14.2614 33.8599 14.5445 33.3499 15.0566C32.8174 15.5935 32.3366 16.3639 31.9403 17.3061C32.6717 17.7253 33.3834 18.3756 34.0361 19.2096C34.1403 19.3427 34.243 19.4825 34.3457 19.6258C35.0196 18.8321 35.7313 18.1979 36.4453 17.7641L36.4438 17.7662ZM34.938 49.5393C35.9667 50.3747 36.9363 51.1962 37.8134 52.0023C42.0569 49.831 45.1829 47.1485 47.275 44.3693C48.8122 42.3262 49.7884 40.2339 50.2356 38.2573C47.2487 42.1198 41.2177 45.7505 37.0018 48.2868C36.2449 48.7411 35.5484 49.161 34.9393 49.5399L34.938 49.5393Z" fill="#FF4E6D"/>
</svg>
