<svg width="66" height="82" viewBox="0 0 66 82" fill="none" xmlns="http://www.w3.org/2000/svg">
<path d="M59.8087 11.5319C59.0432 11.4125 58.2725 11.3133 57.5013 11.225C58.9439 10.1789 60.3229 9.0456 61.6522 7.84959C61.9723 7.5617 61.7089 7.02973 61.3073 7.02339C59.5006 6.99796 57.6953 6.97953 55.8892 6.96047C56.7483 5.59532 57.4509 4.19261 58.0084 2.66486C58.1961 2.16405 57.5196 1.8825 57.1811 2.18312C55.0365 4.05547 52.6597 5.21471 49.9513 5.95955C49.8946 5.45875 49.7699 4.97001 49.5185 4.50606C48.8599 3.27881 47.612 2.50794 46.289 2.18254C42.4638 1.23048 39.3779 4.26135 37.1392 6.92947C36.4621 5.95264 35.3211 5.39526 34.0973 5.46961C33.6391 5.50076 33.2198 5.62024 32.8494 5.80138C30.7175 2.47562 26.2782 -0.793022 22.1953 0.171627C19.7816 0.741078 18.8283 2.58854 18.608 4.73732C18.5577 4.6744 18.4833 4.61783 18.3764 4.58669C15.9435 3.92255 13.6914 3.03977 11.5481 1.70576C11.0772 1.41786 10.6578 1.96888 10.8519 2.40104C11.6226 4.07946 12.6262 5.53237 13.8938 6.82258C12.0127 6.74123 10.1564 6.52196 8.30708 6.13365C7.94944 6.05802 7.70507 6.28427 7.66117 6.62175C7.42317 8.56975 9.48561 9.53375 10.878 10.4293C11.1663 10.6104 11.4864 10.8493 11.8186 11.068C9.78022 11.068 7.74904 11.1373 5.78009 11.3877C-1.16775 12.2895 -0.62884 19.9484 1.14543 24.9585C1.15179 24.9712 1.15815 24.9775 1.16452 24.9896C0.788422 25.1707 0.838697 25.8158 1.33952 25.8285C2.54353 25.854 3.74686 25.8724 4.95159 25.8851C5.43395 29.8865 6.50052 33.8384 7.19667 37.8156C8.04305 42.6819 8.70805 47.5852 9.17833 52.5019C10.0374 61.4764 10.2258 70.4949 9.83061 79.5003C9.81788 79.8575 10.0183 80.0761 10.2761 80.1644C10.2697 80.4085 10.4269 80.6589 10.7406 80.6964C18.498 81.5982 26.4552 81.5919 34.2553 81.7667C42.0871 81.9414 49.9387 82.0736 57.778 81.9541C58.7498 81.9351 58.7498 80.4511 57.778 80.4447C56.8878 80.4384 55.9974 80.4384 55.113 80.432C55.0882 80.3882 55.05 80.3507 55.0061 80.3189C49.6574 76.5805 44.4022 72.7413 39.2157 68.7768C39.0152 68.6261 38.7639 68.846 38.7639 69.0583C38.7639 69.1276 38.7887 69.1892 38.8517 69.2458C43.6366 73.2796 48.6907 77.0243 53.9458 80.4244C49.9455 80.3997 45.9504 80.3806 41.9565 80.3431C41.9374 80.3177 41.9126 80.2929 41.8814 80.2738C40.7645 79.6414 39.6427 79.0339 38.508 78.4454C38.5646 75.3141 38.6022 72.1884 38.6276 69.0584C38.6524 66.0465 38.6715 63.0341 38.6779 60.0209C44.7292 64.3858 51.0878 68.4877 57.3834 72.4834C57.3083 74.9259 57.2637 77.3624 57.2523 79.7979C57.2523 80.1735 57.503 80.3801 57.7786 80.4118C58.1298 80.4621 58.5187 80.2549 58.5441 79.7979C59.0329 70.8234 59.2403 61.8375 59.6915 52.8564C60.1306 44.0883 61.2843 35.1465 61.0463 26.3656C61.943 26.3719 62.8397 26.3846 63.737 26.391C63.912 26.391 64.038 26.3217 64.1195 26.2162C64.3574 26.1914 64.5904 26.0529 64.696 25.7586C66.6866 20.1315 67.3013 12.6976 59.808 11.5331L59.8087 11.5319ZM49.8628 10.292C49.7432 9.13911 49.9939 7.91184 49.9939 6.72853C52.3332 6.31478 54.4523 5.37545 56.3652 4.04137C55.8765 5.12499 55.305 6.17046 54.6407 7.17904C54.4402 7.47966 54.7037 7.87433 55.0422 7.88069C56.7164 7.91183 58.3851 7.93725 60.0587 7.96839C58.7981 9.05835 57.4942 10.0784 56.1392 11.068C56.1265 11.0743 56.1202 11.0807 56.1138 11.0934C53.9692 10.8932 51.7999 10.7864 49.6234 10.7489C49.7749 10.674 49.8881 10.5297 49.8627 10.292L49.8628 10.292ZM34.224 6.61529C35.2021 6.58414 36.0611 7.10339 36.4189 8.03001C36.5888 8.46218 36.6321 8.9255 36.5634 9.38309C36.494 9.84069 36.2184 10.1979 36.1376 10.6478C36.1185 10.7546 36.1376 10.8544 36.1752 10.9421C35.2912 10.9675 34.4073 10.9796 33.5349 10.9923C33.2466 10.9986 32.9583 10.9986 32.6758 11.005C32.663 10.9923 32.6567 10.9739 32.6446 10.9612C32.2055 10.4972 31.9738 9.93411 31.9045 9.36402C31.9293 9.37038 31.9548 9.37673 31.9738 9.38309C32.3881 9.48351 32.7012 8.85748 32.2812 8.66301C32.1679 8.6128 32.0559 8.5753 31.9427 8.52573C32.1476 7.51139 32.9443 6.65273 34.2241 6.61531L34.224 6.61529ZM19.7255 5.35119C19.87 2.20717 22.397 0.591559 25.4064 1.41271C28.1715 2.16456 30.3796 4.07432 32.1914 6.2161C31.5766 6.71691 31.1566 7.43128 30.9937 8.18884C29.4263 7.71345 27.6827 7.51834 26.1096 7.4872C25.815 7.4872 25.7335 7.9753 26.0402 8.01914C27.7337 8.25683 29.3011 8.69536 30.9193 9.11547C30.9632 9.79168 31.2139 10.4558 31.716 11.0195C27.8909 11.0634 24.0655 11.1136 20.2404 11.1568C20.3097 11.0628 20.3473 10.9376 20.3155 10.7812C19.9508 8.99526 19.6377 7.17952 19.7255 5.3511L19.7255 5.35119ZM8.82057 7.26031C10.9397 7.6677 13.06 7.88633 15.2295 7.88633C15.6501 7.88633 15.9384 7.31052 15.5935 7.00992C14.3774 5.9638 13.3802 4.78678 12.5643 3.4528C14.3207 4.37943 16.1701 5.10014 18.127 5.51259C18.3147 5.55008 18.4655 5.48144 18.5724 5.37531C18.4973 7.32901 18.9485 9.43956 19.4252 11.0241C19.4443 11.0807 19.4691 11.1245 19.4945 11.1614C17.5943 11.1741 15.6444 11.1175 13.6875 11.0857C12.0501 10.6739 9.46016 8.61986 8.82057 7.26034L8.82057 7.26031ZM5.80476 25.8927C7.47265 25.9118 9.14118 25.9054 10.8086 25.8991C16.7402 29.7258 22.9742 33.0953 29.2941 36.2382C29.275 39.4008 29.2687 42.5631 29.275 45.7256C22.063 42.2815 15.2347 38.235 8.1992 34.4776C7.58511 31.5287 6.81954 28.6364 5.80456 25.8926L5.80476 25.8927ZM12.1627 25.8991C17.9193 25.8679 23.6696 25.7682 29.4199 25.7682C29.3569 28.9434 29.3194 32.1185 29.3003 35.2938C23.5068 32.2998 17.838 29.0991 12.162 25.8991L12.1627 25.8991ZM8.36931 35.3363C14.8533 39.8207 22.1524 43.409 29.2757 46.7216C29.2885 49.5835 29.2821 52.4517 29.2821 55.32C26.0462 53.7044 22.8293 52.0756 19.6939 50.2789C18.0445 49.3395 16.414 48.3564 14.7965 47.354C13.9934 46.8532 13.1909 46.339 12.3942 45.8262C11.8234 45.4569 10.5571 44.9625 9.77296 44.4985C9.41023 41.4428 8.96541 38.3553 8.36976 35.3365L8.36931 35.3363ZM10.9205 53.5099C10.9141 53.3727 10.82 53.2595 10.6889 53.2284C10.6449 52.7899 10.6074 52.3456 10.5641 51.9071C10.3389 49.6839 10.1123 47.4105 9.84312 45.1118C10.5266 45.6501 11.3793 46.0702 12.0004 46.4896C13.8942 47.7671 15.8256 48.9822 17.7881 50.1536C21.5128 52.3704 25.3381 54.4492 29.2824 56.2599C29.2824 58.6897 29.276 61.1263 29.2887 63.5617C26.147 61.99 23.0306 60.3801 19.9391 58.7144C18.422 57.8946 16.9099 57.0734 15.4049 56.2219C15.0848 56.0407 11.8807 54.4372 10.7652 53.9047C10.8594 53.8672 10.9288 53.7852 10.9288 53.6606C10.9205 53.6104 10.9205 53.5602 10.9205 53.51L10.9205 53.5099ZM13.4546 56.1468C14.609 56.8294 15.7748 57.4935 16.9412 58.1449C20.9669 60.412 25.0938 62.4972 29.2945 64.426C29.3136 67.4817 29.3384 70.5443 29.4192 73.6008C23.4372 69.9617 17.4362 66.3549 11.3409 62.9173C11.2276 60.1684 11.059 57.4248 10.8197 54.6882C11.479 55.2577 12.8211 55.7718 13.4543 56.1468L13.4546 56.1468ZM26.1407 79.9938C26.1158 79.9245 26.0656 79.8565 25.9771 79.8126C21.1235 77.3328 16.5085 74.5275 11.8299 71.74C11.6485 71.6332 11.4977 71.7774 11.4977 71.9338C11.4977 72.0088 11.5289 72.0781 11.5982 72.134C15.5806 75.1833 20.0066 77.7198 24.5103 79.9316C20.0893 79.7682 15.6622 79.6246 11.2534 79.7123C11.2782 79.643 11.3036 79.5814 11.31 79.4994C11.4233 76.9819 11.485 74.4583 11.4977 71.9345C11.5168 69.1412 11.4723 66.355 11.3666 63.5675C17.2868 67.3375 23.3126 70.9513 29.3455 74.5338C29.3767 74.5528 29.4085 74.5592 29.4461 74.5713C29.4964 76.4252 29.5593 78.272 29.6402 80.1202C28.4743 80.082 27.3073 80.0382 26.1413 79.9937L26.1407 79.9938ZM29.4453 24.7148C20.328 24.6144 11.1536 24.4453 2.06154 24.915C2.06791 24.8521 2.06791 24.7841 2.04882 24.7084C1.27181 21.2644 -0.0703341 16.5728 3.04601 13.8305C5.5037 11.6703 10.7403 12.5657 13.7822 12.534C19.1373 12.4774 24.4923 12.4272 29.848 12.377C29.659 16.4921 29.533 20.6003 29.4458 24.7148L29.4453 24.7148ZM34.255 80.2508C32.9065 80.2254 31.558 80.1816 30.2045 80.1377C30.3617 74.9027 30.3489 69.6543 30.2987 64.4061C30.3299 64.3184 30.3299 64.2313 30.2923 64.1493C30.2675 61.6192 30.2293 59.089 30.1981 56.559C30.5119 56.4586 30.6741 56.0144 30.305 55.8326C30.2675 55.8135 30.2299 55.7951 30.1918 55.776C30.1542 52.8074 30.1288 49.8394 30.1288 46.8772C30.3922 46.7138 30.4928 46.3071 30.1415 46.138C30.1351 46.138 30.1288 46.138 30.1288 46.1317C30.1351 42.8319 30.1542 39.5246 30.1918 36.2177C30.2669 36.0982 30.2732 35.9482 30.1981 35.823C30.242 32.473 30.2987 29.1154 30.3731 25.7649C31.1005 25.7649 31.8221 25.7585 32.5424 25.7649C34.1792 25.7776 35.816 25.8088 37.4528 25.8399C37.1078 43.9891 36.8571 62.2001 37.5775 80.2989C36.4747 80.2881 35.3648 80.2766 34.2549 80.2506L34.255 80.2508ZM37.4718 24.7766C35.8287 24.7639 34.1856 24.7575 32.5424 24.7391C31.8272 24.7328 31.1131 24.7264 30.4042 24.7201C30.5048 20.6055 30.6295 16.4847 30.7994 12.3701C31.7088 12.3638 32.6239 12.3511 33.5332 12.3447C34.9192 12.332 36.311 12.3136 37.7034 12.3009C37.6283 16.4535 37.5469 20.6119 37.4718 24.7767L37.4718 24.7766ZM40.8325 80.3338C40.0428 80.3275 39.2587 80.3275 38.4753 80.3148C38.4817 79.8572 38.4881 79.4002 38.4944 78.9369C39.2651 79.4186 40.0485 79.8826 40.8325 80.3338L40.8325 80.3338ZM37.1269 10.9243C37.4407 10.6237 37.6157 10.1915 37.7035 9.72822C37.741 9.73458 37.7786 9.73458 37.8167 9.72187C40.1185 9.15814 42.482 8.34399 44.689 7.47335C45.2038 7.27315 45.0091 6.45267 44.451 6.62171C42.2123 7.29158 39.8921 8.10572 37.7539 9.05782C37.7539 8.51951 37.6533 7.98756 37.4841 7.57382C37.5153 7.56111 37.5407 7.54903 37.5719 7.51725C39.5847 5.51913 41.8794 3.00167 44.9717 3.10206C46.6522 3.15863 48.0943 4.00391 48.6468 5.58828C49.1616 7.06592 48.5774 8.74434 48.7779 10.2913C48.809 10.5106 48.9478 10.6548 49.1101 10.7362C45.1098 10.6866 41.0834 10.8239 37.1271 10.9243L37.1269 10.9243ZM57.4061 71.5724C51.4428 67.2075 45.1337 62.955 38.6762 59.354C38.6826 56.5487 38.6889 53.7485 38.6889 50.9495C44.6963 55.5655 51.149 59.7176 57.7268 63.4748C57.6071 66.1734 57.4945 68.8726 57.4067 71.5724H57.4061ZM57.7638 62.648C51.3237 58.5772 45.0153 54.3376 38.682 50.0971V40.6841C44.9904 44.88 51.6996 48.6311 58.2851 52.3572C58.1088 55.7835 57.9274 59.216 57.7639 62.648H57.7638ZM58.3276 51.3626C51.9002 47.4178 45.3914 43.384 38.6805 39.9272C38.6805 36.4832 38.6868 33.0385 38.6996 29.5945C44.7317 34.3789 51.8177 38.0549 58.7409 41.3743C58.5907 44.718 58.4908 48.0616 58.3273 51.3626H58.3276ZM59.3941 31.8858C56.1709 29.9004 52.8606 28.009 49.5367 26.1869C49.4928 26.1615 49.4425 26.1494 49.4056 26.1494C49.1613 26.1494 49.0104 26.5066 49.2612 26.6636C52.5538 28.7494 55.9145 30.7908 59.319 32.7006C59.0746 35.2554 58.9111 37.8293 58.7863 40.4098C51.8448 36.9657 45.4175 32.7946 38.701 28.9368C38.7074 27.9161 38.701 26.8884 38.7074 25.8621C42.2754 25.9314 45.8437 26.0318 49.4048 26.1252C52.9792 26.2193 56.5538 26.3064 60.1283 26.3566C59.8196 28.185 59.588 30.032 59.3939 31.8858L59.3941 31.8858ZM63.4008 25.3721C55.1985 24.8967 46.9467 24.8338 38.7132 24.7836C38.7387 20.6188 38.7826 16.4541 38.8507 12.2893C43.4599 12.2519 48.0749 12.2391 52.6841 12.4266C56.0823 12.5709 61.5698 11.9945 63.7455 15.1315C65.8786 18.2145 64.4678 22.179 63.4012 25.372L63.4008 25.3721Z" fill="#FF4E6D"/>
</svg>
