<svg width="95" height="53" viewBox="0 0 95 53" fill="none" xmlns="http://www.w3.org/2000/svg">
<path fill-rule="evenodd" clip-rule="evenodd" d="M77.6558 48.1278C77.7118 48.976 76.6042 47.7513 76.7329 48.8399C78.2682 48.635 80.9352 46.436 83.4966 47.8334C83.3956 50.9609 80.1842 50.9355 78.5161 52.4752C77.5609 55.1021 76.8872 58.0153 75.6887 60.3952C75.4845 61.0679 76.1339 60.9138 76.0396 61.4831C75.2488 61.2288 75.3754 61.9042 74.9395 62.0123C72.5979 69.0927 69.4187 76.7225 67.75 84.3379C67.0898 85.2529 66.8035 85.9049 66.5468 87.2305C65.9156 87.5294 65.8631 87.7897 64.7872 88.0987C62.4618 89.5637 59.6936 90.6122 56.3548 91.6187C54.8033 92.0845 53.1656 92.8627 51.7806 93.0122C50.8428 93.113 49.4153 93.0209 47.7621 93.3292C44.4571 93.9439 36.3635 94.285 32.0703 93.6916C31.5637 93.6222 30.9082 93.5428 30.4454 93.4367C29.0805 93.119 27.7797 92.9955 26.4269 92.7232C23.0296 92.0438 20.0829 90.9352 17.529 89.1886C17.3087 82.7154 14.5439 77.204 13.1778 71.2488C10.5371 66.2226 9.75481 58.7131 7.35726 54.013C5.39898 53.3857 -1.13503 49.9853 1.59398 47.6239C2.66917 46.6936 4.84107 48.0684 5.7789 48.5743C7.94138 43.1216 9.99073 36.0638 12.7541 29.1379C15.2265 22.9423 16.98 16.5052 20.4339 11.8764C20.9789 11.145 21.2814 10.1084 21.7375 9.54323C23.14 7.79863 26.045 5.39403 28.5524 3.83754C31.2295 2.17571 34.7899 0.35296 37.7164 0.145542C41.0416 -0.0893827 41.7477 -0.0213075 43.9169 0.216954C49.5562 0.836969 56.7726 3.46986 60.2603 6.54797C62.8316 8.81453 64.2875 12.0401 66.1825 14.9286C67.7771 17.3579 69.1332 19.3561 70.2966 22.0236C73.6044 29.6106 75.8174 38.7908 77.6558 48.1285L77.6558 48.1278ZM76.0511 44.8567C75.9393 44.8441 75.8356 44.8267 75.8706 44.6739C74.5111 35.6046 72.0697 27.8027 68.8516 20.7388C65.7918 14.0222 61.2708 8.04947 55.3613 4.32005C50.9898 2.84843 46.71 0.907571 41.5408 0.730053C41.0666 0.857526 39.8445 0.887561 39.3656 1.01169C32.6612 1.3881 28.3752 4.47286 24.3124 7.7625C19.6606 12.5685 17.5002 19.2938 14.9819 25.909C12.4557 32.5383 9.55961 39.2543 7.81276 46.2475C7.32906 46.5632 6.86827 47.6224 7.06296 48.0454C6.98683 48.7595 6.09623 47.7551 6.1434 48.7589C6.88781 49.1086 7.78852 49.3095 8.68788 49.5104C11.4567 40.7635 14.4053 32.8433 17.736 24.3127C21.1219 15.6446 25.3074 8.11962 33.4609 5.33759C41.3665 2.6386 50.7294 4.75494 56.2257 8.48781C60.8916 11.6546 64.1346 17.5858 66.9984 23.2481C70.0105 29.2014 70.8303 36.5114 72.6108 42.6487C74.2411 42.7988 75.2839 44.4654 76.0512 44.8558L76.0511 44.8567ZM64.6586 20.6911C62.6788 17.274 60.6563 13.6821 58.38 11.4042C52.8418 5.84942 43.7181 3.5569 34.7323 5.89282C29.7093 7.19958 27.0814 10.7829 23.5109 13.8977C19.0803 21.8371 15.4241 31.535 12.8029 40.7014C15.0961 38.6264 20.16 39.3245 22.4674 40.9917C23.1498 42.147 23.3546 44.5257 22.7766 45.8744C24.349 44.5436 26.0858 43.3802 28.2859 42.6849C25.2564 40.4725 20.3365 38.4836 18.7076 34.9858C16.1462 29.4845 23.9602 24.5343 29.0007 28.235C29.5477 30.3833 30.8196 31.8335 30.7508 34.5794C34.2661 33.3453 38.0757 34.7662 39.2957 37.0267C41.3539 40.8429 36.9958 45.867 34.2513 47.2692C34.6784 50.0417 33.2381 52.8728 32.3454 54.295C33.9656 54.2936 35.7246 54.4298 37.0894 54.1681C36.3551 52.4203 34.9949 50.7798 35.5117 48.7281C36.1631 46.1352 41.5701 44.8979 44.3004 45.7575C43.4011 39.8743 45.48 34.7247 51.7102 36.0822C51.822 33.4466 50.9577 29.039 53.0879 27.4232C56.2946 24.9899 61.1019 27.7563 62.353 30.7816C62.0397 31.6238 62.1576 32.9012 61.7702 33.6668C66.2044 33.0521 69.3557 35.1044 70.6573 38.1051C69.2823 31.5352 67.7781 26.0819 64.6589 20.6899L64.6586 20.6911ZM52.6867 30.4938C52.9892 33.7915 60.3585 34.9854 60.7089 30.947C59.7139 33.9804 53.5302 33.4377 53.7843 30.325C53.983 27.911 57.8661 27.9224 58.7096 30.2008C58.3263 31.0091 57.2019 31.9081 55.9623 31.2547C55.8841 30.6307 55.7036 29.9185 56.5255 29.8151C57.0907 29.9819 56.6467 31.1259 57.7906 30.7334C58.0729 29.2311 56.0815 29.3065 55.067 29.6182C54.1164 33.1161 60.9508 32.8183 60.5405 29.5001C59.0012 27.0721 52.315 26.4327 52.6868 30.4938L52.6867 30.4938ZM26.0847 27.8417C23.1402 26.8426 18.3342 30.0582 19.4497 33.7302C19.9731 35.4548 23.1272 35.0109 24.7327 34.3322C26.8198 33.4505 28.237 31.9962 28.25 29.8546C26.9161 31.7647 23.8785 34.5538 20.9177 33.0234C19.9442 30.0948 23.6474 27.777 25.8861 29.2853C26.2411 30.6501 25.0494 31.7827 23.4858 31.788C23.0863 31.5103 22.963 30.5866 23.5026 30.3424C24.3474 30.1215 23.7943 31.25 24.7732 30.8997C25.0191 30.6 25.2649 30.3003 25.1531 29.6389C22.864 29.4507 21.7774 30.4832 21.6541 32.4902C24.4672 34.455 29.47 28.9916 26.0847 27.8417L26.0847 27.8417ZM20.8866 35.7336C22.8942 37.7793 24.9334 39.7953 27.9399 40.8739C27.3875 36.666 31.1997 34.7572 28.78 31.3061C27.1133 33.7608 24.9481 35.7095 20.8865 35.7336H20.8866ZM52.6573 33.024C52.2227 34.2467 53.1874 35.7697 52.6175 36.4565C55.2334 36.7221 55.9663 38.8104 56.2088 41.3766C56.772 40.7906 58.0769 40.9555 58.4117 40.1359C58.3551 38.6997 57.7542 38.1424 57.8997 37.0585C58.1583 35.1403 60.5909 34.81 60.8658 32.9359C60.8274 32.7958 60.7156 32.723 60.5034 32.7511C59.0334 35.4466 54.8182 34.4169 52.6571 33.024H52.6573ZM66.8597 35.1737C63.9325 33.6734 58.5014 34.1426 58.9831 37.9749C59.456 41.7204 71.283 42.018 69.0303 36.8243C68.0508 39.315 60.7791 41.8558 60.8208 36.7308C61.7114 35.6276 64.8945 34.8714 65.5669 36.6034C65.0307 37.2181 64.5787 37.9181 63.5433 38.0269C62.4593 37.7653 63.3587 36.5213 62.8332 36.3911C58.5291 39.0488 68.3775 40.0485 67.9377 36.6301C67.223 36.0488 66.5109 35.9773 66.8598 35.1738L66.8597 35.1737ZM37.4569 38.0916C37.6348 41.9932 30.6791 41.5688 30.7055 38.3752C30.7216 36.331 34.0954 35.2264 35.4562 37.7078C35.0251 38.3672 34.6451 39.078 33.7963 39.3149C33.508 38.9399 32.6039 39.1594 32.897 38.2197C33.2439 37.6317 34.5906 38.8744 34.5441 37.6965C34.3346 37.0584 32.4922 37.2733 31.9936 37.4869C31.1919 39.6887 33.5208 40.2539 35.6099 40.238C40.6363 36.0353 27.8 33.5726 29.0564 39.0794C29.885 42.7048 40.6504 43.8493 38.3794 37.3782C37.4565 36.7215 36.4353 35.2125 35.1175 35.5335C36.1941 36.2897 37.3952 36.7088 37.4571 38.0917L37.4569 38.0916ZM64.6505 36.9563C64.8944 36.2889 63.5753 36.2249 63.3779 36.5799C63.7471 36.7801 64.1116 37.4549 64.6505 36.9563ZM52.9508 39.1721C52.5594 37.1118 49.4235 36.9758 47.1337 37.2987C44.0711 39.9764 46.4998 44.0321 49.9698 44.3791C53.9223 44.7749 57.2838 39.9323 53.1515 37.5489C56.3845 42.4997 46.9719 44.285 46.7376 40.0056C46.5941 37.3553 50.6031 36.5644 51.8562 39.1606C51.8238 40.8645 47.9306 41.7942 48.754 39.3055C49.6176 39.7453 50.356 40.7791 51.1213 39.5137C50.7414 38.6921 49.8184 38.3931 48.5815 38.3998C45.1761 41.1335 53.8381 43.8578 52.951 39.172L52.9508 39.1721ZM69.3311 42.2496C69.8835 42.0127 70.7882 42.0233 71.3366 42.2716C71.1615 40.8928 71.2187 39.2883 70.6521 38.288C70.283 39.6815 69.6531 40.8094 69.3311 42.2497V42.2496ZM65.4507 46.5423C65.5174 43.9689 68.5529 43.2841 68.8023 40.6177C68.7639 40.4763 68.6521 40.4048 68.4399 40.4329C66.177 42.2275 61.7234 41.2111 59.5009 40.5116C59.6053 42.4358 60.4353 43.6564 61.0887 45.0466C65.349 45.1754 66.2491 48.6739 65.0176 52.3192C65.5915 52.4147 65.6656 52.0022 66.2955 52.1544C66.5724 49.8051 65.407 48.2261 65.4507 46.5422L65.4507 46.5423ZM11.4844 44.121C11.7438 45.6092 14.5194 46.1579 16.3889 45.9836C18.8302 45.756 21.9252 43.9306 21.7263 41.8884C20.4699 43.5075 17.7187 46.0109 14.572 45.2394C10.3474 44.2042 16.304 38.472 18.8128 41.3124C18.8289 42.6125 16.9635 44.0815 16.2414 42.9095C16.7244 42.3629 17.8973 42.5171 18.0798 41.6668C15.8682 41.5561 14.1833 41.9825 14.0398 43.9695C16.8483 44.8538 20.67 43.9621 20.8237 40.9749C17.8367 39.6601 10.8142 40.2628 11.4846 44.121L11.4844 44.121ZM30.1032 43.0671C32.6874 42.947 33.3288 44.7083 34.0779 46.3662C36.0955 45.5466 37.0279 43.6279 37.9623 41.7131C35.5714 43.748 30.96 42.7209 29.034 40.8882C28.9942 41.9981 29.6268 42.4579 30.1031 43.0673L30.1032 43.0671ZM58.0297 41.5788C57.5433 41.8798 56.9822 42.1027 56.2013 42.1001C54.6815 46.1673 51.9881 49.0445 47.5331 50.133C47.3923 51.9403 46.8493 53.3411 45.663 54.0886C48.8488 53.7929 50.7466 53.5961 53.6931 53.6368C50.446 49.4841 54.7898 45.2382 59.6315 45.03C59.0394 43.9348 59.1229 42.1868 58.0295 41.5789L58.0297 41.5788ZM67.0737 48.1868C68.8799 50.5641 76.6116 51.5632 76.2107 46.6644C75.3127 48.6713 71.3326 50.1642 69.9968 47.8584C69.222 46.5243 69.5643 44.3226 71.1366 43.8961C72.3149 43.5751 72.9792 44.4274 73.871 44.1077C70.7512 41.1338 64.4355 44.7137 67.0736 48.1869L67.0737 48.1868ZM46.1043 47.4066C46.8965 47.5915 47.7056 47.763 47.362 49.0471C51.1049 48.6366 53.033 46.3876 54.3587 43.5257C51.4714 46.188 47.4805 45.3151 45.2473 42.8797C45.1624 44.3326 45.8327 45.7962 46.1042 47.4067L46.1043 47.4066ZM32.4408 45.9857C32.593 44.3699 30.5073 43.1953 28.6332 43.9541C32.3775 43.9321 29.1277 48.1855 26.9557 47.0081C26.4033 45.7707 28.043 45.0327 27.3451 44.8437C26.4424 45.4517 25.7108 46.2332 25.6704 47.7161C27.2394 49.9859 32.2151 48.3635 32.4408 45.9855L32.4408 45.9857ZM12.0077 46.1139C13.1388 49.2285 15.2911 51.7587 18.6865 52.1532C21.3502 51.074 22.2266 47.2111 21.8865 43.6966C19.8541 46.126 15.6592 47.8258 12.0078 46.1139H12.0077ZM74.3952 45.9216C73.8327 46.5096 73.3079 47.1357 72.0132 46.9795C71.4264 46.1993 71.838 45.5072 72.2193 44.813C68.5518 45.3616 71.6278 49.2493 74.1885 48.0887C75.2798 47.5935 75.8396 45.1194 74.4128 44.4773C74.27 44.5167 74.0524 44.4786 74.045 44.6548C74.5657 44.6842 74.3717 45.4103 74.3953 45.9216L74.3952 45.9216ZM27.4705 49.906C26.8156 48.9502 25.2681 49.3647 24.9381 48.0679C24.4119 46.0076 26.2861 45.3462 26.2591 44.2884C22.8598 45.6579 21.6134 50.4718 27.4704 49.906H27.4705ZM72.7482 46.2652C73.5829 46.4407 73.7062 45.8941 73.6745 45.1907C73.3302 45.2281 73.2743 44.9832 72.9456 45.0025C72.8836 45.425 72.6512 45.6772 72.7482 46.2652V46.2652ZM27.6912 46.4741C28.8183 46.4581 29.5498 46.0423 29.894 45.2334C29.6293 44.7169 28.9462 44.6027 28.0765 44.6701C28.6208 45.5471 27.4938 45.441 27.6911 46.4742L27.6912 46.4741ZM55.3987 48.0552C53.5784 55.5848 69.1039 49.0683 63.0759 46.6957C64.5614 48.4229 57.0359 52.3192 56.1115 49.6896C55.2323 47.1895 60.5753 45.6371 60.6944 47.5732C60.7631 48.6798 59.3403 48.846 58.4895 48.8126C58.4828 48.581 58.2598 48.5596 58.3171 48.268C58.7226 47.2996 59.915 48.9995 59.9655 47.5645C58.2766 47.4351 57.1907 47.9196 57.0249 49.3392C59.4845 50.5906 63.4087 48.4609 61.8053 46.1403C59.4556 45.9821 56.5318 46.4106 55.3988 48.0551L55.3987 48.0552ZM45.5564 47.4005C44.5614 46.8746 42.7404 45.5452 41.734 46.6343C42.4811 46.6256 43.1675 46.6757 43.1857 47.3745C42.7607 48.5297 41.9603 49.3019 40.6062 49.5136C40.1967 49.3147 39.9508 48.9589 39.8895 48.423C39.8874 47.8691 40.5517 47.9966 40.4493 47.3438C39.5493 47.6508 39.0326 48.3443 38.9638 49.4942C40.5611 51.688 46.4874 50.5334 45.5565 47.4006L45.5564 47.4005ZM9.04653 49.6944C10.3373 50.4112 12.2424 50.5313 13.7737 51.0125C12.4095 49.5943 11.5263 47.7102 10.5488 45.9162C10.0213 47.1483 9.86101 48.7528 9.04655 49.6944L9.04653 49.6944ZM36.2297 49.2819C36.6319 54.2794 44.5644 52.4914 46.4378 49.94C46.3314 49.5649 46.6763 48.756 46.2707 48.6739C45.3546 51.4009 38.892 52.8518 38.0485 49.8452C37.5541 48.0839 39.4713 47.9158 38.9964 46.7845C37.9778 47.5193 36.718 48.0085 36.2296 49.2819L36.2297 49.2819ZM40.9784 48.794C41.7046 48.6165 42.3466 48.3542 42.2705 47.3631C41.836 47.4686 40.9508 47.1209 40.8114 47.5267C41.357 47.7849 40.4213 48.4583 40.9784 48.7941L40.9784 48.794ZM24.3596 50.592C25.3513 53.0827 27.6876 54.196 30.8848 54.1005C32.9476 53.1461 33.2339 50.3883 33.3336 47.4424C31.0633 49.2238 28.7829 50.9936 24.3596 50.592ZM79.8367 48.3327C76.4973 49.4086 73.5041 50.9417 69.9471 51.8346C66.4372 52.7129 62.8284 53.7994 58.7937 54.0577C55.583 54.2606 52.7266 54.0851 49.6696 54.3147C43.5243 54.7719 37.974 55.2871 31.9682 55.0161C28.2833 54.8493 24.252 53.8162 21.0365 53.8081C19.8966 53.2308 17.7032 52.6215 16.4825 53.2108C14.8866 51.7078 12.2748 52.0762 10.1203 51.3314C9.48163 51.1125 9.07002 50.4998 8.30874 50.2269C7.6775 49.9993 6.59626 50.0854 5.94017 49.8391C4.67704 49.3599 3.78097 47.9131 2.30971 48.3521C1.87385 50.9464 5.05769 51.9849 7.36435 52.9285C16.9104 56.8341 31.0725 58.4333 43.4344 57.1337C54.292 57.986 65.8543 56.0672 74.855 53.1554C77.8049 52.1997 81.3007 51.1398 82.5686 48.5423C81.6403 47.9477 80.5234 48.1125 79.8375 48.3327H79.8367ZM55.537 51.8527C54.0832 51.6531 54.6713 49.4747 53.9337 48.5805C52.971 49.924 53.9983 52.4353 55.537 51.8527ZM19.9584 52.5288C21.4985 52.9446 23.3335 53.0734 24.8729 53.4885C23.7856 52.2191 23.318 50.347 22.3715 48.9429C22.0185 50.5974 20.9177 51.491 19.9584 52.5288V52.5288ZM54.9713 53.4698C58.5425 53.4197 61.122 52.9913 63.9198 52.4874C64.0161 51.5443 64.8919 50.4305 64.3213 49.4207C62.8338 52.4233 58.4481 52.4855 54.9713 53.4698H54.9713ZM67.5765 51.8066C68.6227 51.4676 70.005 51.4683 70.6875 50.7581C69.0531 50.7348 68.4017 49.759 67.0563 49.4514C66.8771 50.5786 67.4895 50.937 67.5764 51.8066L67.5765 51.8066ZM37.8305 52.9145C38.0784 55.0089 42.6991 54.1412 45.2948 54.0838C45.0691 53.1161 46.3787 52.4687 46.4238 51.2059C44.5942 52.1203 40.6121 54.0023 37.8305 52.9145L37.8305 52.9145ZM70.6238 56.3603C71.8654 57.242 72.7196 58.5013 74.0568 59.2915C75.3927 57.3554 76.8621 55.5534 77.595 53.0052C77.5553 52.8658 77.4448 52.7957 77.2326 52.821C75.7343 54.7145 71.4074 53.7407 70.6239 56.3603L70.6238 56.3603ZM10.7387 61.0995C11.5283 59.6452 12.6378 58.516 13.3398 56.9737C11.8152 55.9479 10.4274 54.79 8.4462 54.2067C9.10572 56.6046 9.71405 59.0526 10.7387 61.0997V61.0995ZM69.358 55.4427C69.2967 55.9178 69.7339 55.9125 70.0801 55.9946C70.0438 55.6509 70.2903 55.5968 70.2742 55.2725C69.8498 55.2084 69.5715 55.2925 69.358 55.4426V55.4427ZM62.0493 56.6226C61.7131 57.0384 62.4117 57.5924 62.9466 57.7165C63.1999 57.304 63.6432 56.3269 64.4165 56.4417C64.8349 56.9576 63.5354 57.6577 63.6688 58.45C64.7163 59.4017 65.8683 60.2479 67.1045 61.0195C67.57 59.3576 68.6587 58.3278 69.3398 56.8868C68.179 54.3773 64.3809 57.1518 62.0494 56.6225L62.0493 56.6226ZM14.2622 56.0773C13.9241 55.9298 13.598 55.7703 13.1729 55.7043C13.0934 56.3049 14.1444 56.7261 14.2622 56.0773ZM14.6213 56.6259C15.4735 58.3618 17.1428 59.3063 18.59 60.4662C19.0083 59.0627 20.3799 58.6261 20.6366 57.0558C18.6203 57.2253 16.3035 56.026 14.6213 56.626V56.6259ZM55.9876 60.1691C57.1841 61.0928 58.0403 62.3482 59.604 62.9214C60.6084 61.6247 61.5112 60.2231 62.2064 58.614C61.2262 55.9251 56.1541 57.2892 55.9876 60.1691V60.1691ZM67.4623 61.7455C68.7604 62.2741 69.2509 63.5836 70.5336 64.1288C71.375 62.786 72.306 61.54 73.3132 60.3666C72.3626 59.1432 71.5649 57.7704 69.7003 57.4333C69.2496 59.172 68.1765 60.2772 67.4623 61.7454V61.7455ZM53.4559 58.1523C54.2596 58.3872 54.4408 59.2248 55.4499 59.2589C55.7409 58.8764 56.5702 58.0916 56.1977 57.6411C55.8298 57.9474 54.085 57.5977 53.4559 58.1523H53.4559ZM19.3122 61.0162C20.5471 62.6767 22.2104 63.9267 23.8238 65.2248C24.4611 63.7979 25.5161 62.7954 26.4188 61.6382C25.508 59.5439 22.824 59.1643 21.5428 57.4275C21.1386 58.9665 19.6437 59.4018 19.3122 61.0162ZM27.1606 60.5637C27.3128 59.5005 28.2768 59.2569 28.4641 58.2305C26.7995 57.7479 24.7502 57.786 23.1791 57.8087C24.6463 58.5915 25.6797 59.7942 27.1605 60.5637L27.1606 60.5637ZM43.9659 58.4073C45.5012 59.1822 46.5779 60.4048 48.1293 61.1663C48.5544 59.9483 49.5555 59.3195 49.99 58.1129C47.8335 58.2584 46.1796 57.8346 43.9659 58.4073V58.4073ZM51.0873 57.9455C50.5194 59.5032 49.3863 60.4883 48.6689 61.8926C50.081 62.4325 50.6341 63.8041 52.292 64.1031C52.7521 62.4372 53.9829 61.5496 54.7085 60.1548C53.6852 59.2384 52.7407 58.246 51.0875 57.9456L51.0873 57.9455ZM11.2749 62.0086C12.5616 63.2032 13.9911 64.2623 15.432 65.3081C15.9771 63.6042 17.3817 62.7726 17.8539 60.998C16.4473 59.9181 15.2839 58.6026 13.6961 57.6984C12.924 59.172 11.5046 59.985 11.2749 62.0086ZM32.4789 58.2757C29.4056 57.6357 28.5985 59.1727 27.7026 61.1109C29.0742 62.0466 30.1495 63.2693 31.6813 64.0481C32.6244 62.6265 33.6645 61.3064 34.4682 59.7434C33.6935 59.3603 33.1128 58.7923 32.4789 58.2758V58.2757ZM35.9415 58.496C36.0217 59.0639 35.6734 59.1988 35.5636 59.5758C36.8557 60.7665 38.3237 61.7864 39.7208 62.8754C40.6154 61.2863 41.692 59.8774 42.5098 58.2095C39.4203 58.4598 38.7831 57.8938 35.9415 58.4958L35.9415 58.496ZM35.0227 59.0266C35.0294 58.6682 35.5225 58.803 35.3959 58.3091C34.9593 58.4132 34.0748 58.0655 33.9353 58.4706C34.4083 58.5487 34.479 59.0166 35.0227 59.0266V59.0266ZM74.9558 60.2039C75.2199 59.8635 75.3883 59.4257 75.517 58.9438C74.9605 58.8497 74.0706 60.0136 74.9558 60.2039ZM40.4431 63.4241C41.8079 64.3658 42.9134 65.5598 44.4231 66.3613C45.3481 64.7402 46.7708 63.6237 47.5745 61.8784C46.1517 60.7572 44.6763 59.6853 42.8655 58.9339C41.9803 60.3508 41.4076 62.088 40.4429 63.4241H40.4431ZM60.1432 63.4688C61.2777 64.4553 62.4835 65.3717 63.7595 66.2211C64.7694 64.8697 65.7535 63.4882 66.3659 61.7316C65.3103 60.7298 64.3799 59.6053 62.563 59.3383C62.2228 61.1896 60.8734 62.0159 60.1432 63.4688ZM32.2219 64.4152C33.5598 65.6219 34.8123 66.9112 36.3772 67.8971C36.9269 66.0758 38.5134 65.3083 39.1641 63.5917C37.8713 62.4024 36.4115 61.3733 35.0063 60.2922C33.9755 61.5642 33.0647 62.9537 32.2219 64.4154V64.4152ZM52.8292 64.8317C53.81 65.9663 55.3326 66.5777 56.4469 67.584C57.0855 66.0369 58.3655 65.142 59.0445 63.6369C57.5644 62.7479 56.4764 61.4785 54.8839 60.6984C54.4237 62.3035 53.1842 63.1204 52.8292 64.8315V64.8317ZM71.2548 64.6808C71.6563 65.2421 72.1394 65.7293 72.6972 66.1425C73.0017 64.3044 74.5066 62.7554 74.2177 60.9194C72.5961 61.5301 72.1528 63.3362 71.2548 64.681L71.2548 64.6808ZM26.9601 61.8257C26.178 63.2292 25.3386 64.5706 24.1806 65.5898C25.7011 66.7377 27.0788 68.0245 28.7003 69.0737C29.3712 67.5013 30.4673 66.3554 31.1214 64.7649C29.8684 63.6537 28.7717 62.3964 26.9601 61.8257ZM15.9672 66.0376C17.7915 67.0721 19.0182 68.6824 20.6653 69.8858C21.178 68.3094 23.3081 67.3043 23.0837 65.7579C22.9369 64.7375 19.2229 62.8086 18.568 61.9116C17.5683 63.1523 16.77 64.5966 15.967 66.0374L15.9672 66.0376ZM64.4785 66.7698C65.4412 67.8076 66.5508 68.6972 67.7298 69.5188C68.5988 68.1433 69.3715 66.6717 69.9724 65.0258C68.9464 64.2336 68.0343 63.33 67.0851 62.4637C66.3629 64.0474 65.1665 65.1526 64.4787 66.7698H64.4785ZM45.1388 67.0941C46.4363 67.923 47.3706 69.1023 48.757 69.8452C49.62 68.0992 50.8043 66.6817 51.55 64.817C50.2418 64.2377 49.4522 63.1551 48.111 62.6119C47.2002 64.1843 45.8387 65.3029 45.1388 67.0941ZM13.1957 69.0789C13.8344 68.0818 14.4885 67.0974 14.8752 65.8447C13.672 64.8642 12.318 64.0314 11.2603 62.9114C11.2791 64.8709 12.1664 67.5052 13.1958 69.0789H13.1957ZM37.0987 68.4476C38.3073 69.4807 39.4909 70.5385 40.8963 71.3829C41.6778 69.7978 43.0486 68.8113 43.6812 67.0775C42.3568 66.2152 41.5187 64.8844 40.0683 64.1442C39.0996 65.6018 37.5771 66.4949 37.0987 68.4477V68.4476ZM57.1679 68.1339C58.3711 69.0522 59.416 70.1247 60.9674 70.7054C61.6222 69.3586 62.6812 68.4216 63.2013 66.9365C61.9489 66.0649 61.0692 64.8335 59.3991 64.3636C58.9659 65.934 57.4703 66.4306 57.1678 68.1337L57.1679 68.1339ZM49.4814 70.2156C50.4393 71.3128 51.6258 72.1898 53.1017 72.7871C53.1401 71.3595 56.0901 69.2853 55.8921 68.12C55.6677 66.8133 52.998 66.9828 52.4549 65.5506C51.2699 66.8433 50.3161 69.1525 49.4814 70.2158V70.2156ZM31.8439 65.495C30.5821 66.4708 30.0648 68.2014 29.2428 69.6243C30.7161 70.5786 31.827 71.8867 33.402 72.7424C34.0245 71.1793 35.1454 70.1228 35.6406 68.4303C34.3168 67.5087 33.5078 66.0884 31.8437 65.495H31.8439ZM68.6365 70.2516C69.319 70.7822 69.9583 71.3542 70.6238 71.9008C71.2914 70.5052 71.7818 68.9315 72.1355 67.2209C71.7051 66.6863 71.2995 66.127 70.5099 65.9368C70.159 67.6541 68.8985 68.4475 68.6365 70.2516L68.6365 70.2516ZM21.2048 70.6154C22.8849 71.6091 23.9419 73.2062 25.7245 74.0993C26.4123 72.5429 27.4019 71.2914 28.1456 69.7905C26.5497 68.8334 25.6551 67.199 23.6213 66.6671C23.2973 68.4711 21.7465 69.0331 21.2048 70.6154ZM13.7283 70.3484C14.8183 71.9155 15.8571 73.5278 17.511 74.5477C18.4158 73.2729 19.2444 71.9187 19.9294 70.4185C18.2662 69.0076 17.5164 67.7776 15.4118 66.7552C14.9773 68.0806 14.1992 69.0597 13.7283 70.3484H13.7283ZM41.434 72.1109C42.5321 73.2495 44.1475 73.8895 45.0462 75.2251C46.6368 74.2781 47.1245 72.2131 48.199 70.7422C46.8813 69.7545 45.7556 68.5813 44.4055 67.6275C43.5938 69.3047 42.3831 70.5748 41.434 72.1111V72.1109ZM63.7366 67.8469C63.0852 69.0129 62.1299 69.8751 61.69 71.2574C62.7591 72.1877 63.7266 73.2169 64.9412 74.0057C65.5294 72.5908 66.5554 71.6172 67.1744 70.2363C66.4098 69.0704 64.8671 68.6593 63.7366 67.8471V67.8469ZM53.8195 73.698C54.8185 74.5176 55.8424 75.3138 57.0774 75.9051C58.1054 74.264 59.4696 72.9645 60.4135 71.2433C59.0493 70.5386 57.9956 69.5361 56.6105 68.8514C55.6189 70.4024 54.4332 71.7593 53.8195 73.698ZM36.3578 69.3412C35.6181 70.7848 34.6366 71.9855 34.1193 73.6533C35.2888 74.4888 36.3289 75.4465 37.5551 76.2227C38.3298 74.6917 39.6273 73.6926 40.34 72.0988C39.1752 71.0223 38.0004 69.9572 36.3578 69.341V69.3412ZM26.2629 74.8292C27.6217 75.7169 28.6363 76.9362 30.0598 77.7645C30.8035 76.2642 31.948 75.1703 32.6608 73.6374C31.5405 72.3413 30.344 71.1159 28.6875 70.3378C27.9074 71.8642 26.7661 73.0242 26.2629 74.8294V74.8292ZM65.8494 74.5569C66.8303 75.3331 67.5484 76.3656 68.9247 76.7606C69.075 75.3284 70.2889 74.0029 70.0653 72.7983C68.532 72.4366 69.1383 70.7922 67.5296 71.1418C67.3921 72.7116 65.8366 72.841 65.8494 74.5569L65.8494 74.5569ZM48.7408 71.29C47.9937 72.8504 47.1685 74.3294 46.3157 75.7803C47.3875 76.6479 48.3192 77.6537 49.5695 78.3477C50.2573 76.6065 51.4552 75.3837 52.1773 73.6786C50.9195 72.9898 50.487 71.5048 48.7408 71.29ZM18.2326 75.0989C19.2963 76.9275 20.9644 78.1703 22.5596 79.4851C23.2495 77.8072 24.4143 76.6127 24.9848 74.8146C23.3309 73.7948 22.5926 71.888 20.4651 71.3274C20.0892 72.9592 18.758 73.6207 18.2326 75.0989ZM57.8002 76.4524C58.8376 77.5349 60.2422 78.2583 61.4184 79.206C62.342 77.4635 63.713 76.1706 64.5746 74.3627C62.8803 74.0363 62.4135 72.5232 60.9529 71.9707C60.195 73.7619 58.5061 74.6089 57.8002 76.4522V76.4524ZM38.2777 76.9543C39.6695 78.1075 40.8713 79.4464 42.6175 80.2552C43.2251 78.6794 44.1925 77.4655 44.8581 75.9431C43.6731 74.4588 42.1465 74.2006 40.882 72.6441C40.3767 74.4528 38.6952 75.062 38.2775 76.9543H38.2777ZM15.4767 76.8748C16.2386 76.5498 16.7344 75.9565 16.9574 75.0848C15.92 74.6597 15.5245 73.6125 14.6097 73.0692C14.6569 74.5715 15.4552 75.3477 15.4767 76.8747L15.4767 76.8748ZM50.2913 79.2588C51.5995 79.8394 52.3884 80.9206 53.7303 81.4659C54.3238 79.4471 55.8079 78.3317 56.5247 76.4383C54.9846 75.9044 54.2039 74.6363 52.5372 74.2252C52.2873 76.4089 50.6872 77.2246 50.2913 79.2588ZM30.7825 78.4946C31.9534 79.3262 32.8129 80.4601 34.2183 81.0641C35.2025 79.748 36.2616 78.504 36.8214 76.7567C35.5037 76.0659 34.7417 74.8385 33.3857 74.1858C32.8097 75.9178 31.0419 76.4416 30.7825 78.4946ZM62.1393 79.9375C63.6416 79.9502 63.8908 82.0479 65.0354 81.9584C65.9408 81.887 67.6251 78.5861 67.8191 77.8326C67.0841 76.8161 66.1807 75.9638 65.1135 75.2725C64.1556 76.8616 62.9949 78.2432 62.1393 79.9377V79.9375ZM25.526 75.5433C24.6259 77.069 23.9624 78.8336 23.0987 80.3952C24.7762 80.9759 25.3878 82.5876 27.0802 83.1516C27.6285 81.3303 28.9638 80.3059 29.5053 78.4784C28.1398 77.5387 27.3394 76.0518 25.526 75.5431V75.5433ZM16.0156 77.6036C15.8876 80.882 18.6524 81.3618 19.9634 83.2506C20.5354 82.1841 21.5796 81.5974 21.8227 80.1993C20.5501 78.6322 18.9811 77.3515 17.4931 75.994C17.0384 76.5013 16.9238 77.2407 16.0157 77.6038L16.0156 77.6036ZM45.9461 76.4991C44.848 77.8239 43.9965 79.3983 43.3363 81.1682C44.4909 81.6581 45.1606 82.6185 46.2303 83.1891C47.2765 81.9324 48.2447 80.5976 48.8348 78.8803C47.9604 78.0027 47.1271 77.0817 45.9461 76.4989V76.4991ZM54.4532 82.0165C55.6827 82.8534 56.3807 84.2043 57.8883 84.7669C58.6354 82.9062 60.0696 81.737 60.8619 79.9223C59.817 78.8485 58.4043 78.133 57.061 77.3476C56.5059 79.2224 55.1229 80.2588 54.4532 82.0167V82.0165ZM34.9359 81.9751C36.2341 83.2218 37.5263 84.4711 39.0912 85.457C39.8585 83.8559 41.1978 82.8388 41.8767 81.1523C40.4418 80.0411 39.5297 78.422 37.5383 77.8493C36.8391 79.395 35.5024 80.2967 34.9359 81.9751ZM27.7983 84.0642C28.4989 84.9318 29.4562 85.5545 30.3252 86.2619C31.4435 84.7142 32.8502 83.4575 33.6632 81.6001C32.4324 80.8273 31.308 79.949 30.0415 79.2102C29.4318 80.9654 28.2703 82.1648 27.7981 84.0642H27.7983ZM47.1345 84.1029C48.1006 84.8951 48.8955 85.8514 49.8406 86.665C51.3537 85.5798 52.0293 83.6417 52.9947 81.9998C51.735 81.3745 50.9206 80.316 49.5536 79.7927C48.8564 81.3418 47.7651 82.489 47.1345 84.1029ZM65.762 82.1468C65.8159 82.8082 66.3757 82.9803 66.8439 83.2426C66.8372 82.1635 68.1832 80.6284 67.4286 79.9971C67.2252 81.0696 66.2436 81.3546 65.762 82.1468L65.762 82.1468ZM61.402 80.6518C60.6529 82.5133 59.3763 83.8386 58.6076 85.6794C59.4531 86.0524 60.0324 86.6831 60.7782 87.1496C62.0885 85.7962 63.3686 84.4132 64.2955 82.6721C63.3497 81.98 62.9024 80.806 61.4022 80.6519L61.402 80.6518ZM20.8687 83.8039C22.185 84.7916 22.928 86.336 24.6628 86.9199C25.0333 85.8321 25.6659 85.0105 26.3355 84.2283C25.5285 82.6879 23.8504 81.9904 22.5435 80.9306C22.0436 81.9464 21.2992 82.7172 20.8687 83.8037L20.8687 83.8039ZM17.9255 85.9396C18.8578 85.6045 19.3051 84.779 19.5921 83.7892C18.7197 82.9663 17.9302 82.0646 16.884 81.4112C17.2794 82.8702 17.9221 84.0962 17.9255 85.9396H17.9255ZM39.8124 86.1892C40.9839 87.0781 41.861 88.2562 43.2461 88.9375C43.8719 87.0728 45.1506 85.8727 45.858 84.0875C44.9526 83.1177 43.8061 82.3809 42.6021 81.7022C41.6468 83.1725 40.4693 84.4184 39.8124 86.1892ZM31.2346 86.633C32.3569 88.2848 34.0781 89.3586 35.5662 90.6587C36.3261 88.8087 37.9302 87.8129 38.5405 85.812C36.8354 84.9624 35.7211 83.5388 34.2007 82.5098C33.4913 84.1683 32.179 85.2134 31.2346 86.633ZM53.713 82.9142C52.9181 84.4832 51.8287 85.758 51.1073 87.4005C51.8834 88.3776 52.7396 89.2759 53.9981 89.7837C54.8092 88.1686 56.2879 87.2342 56.9663 85.4802C55.7335 84.7668 55.3313 83.2511 53.7132 82.914L53.713 82.9142ZM64.8321 83.5816C64.0681 85.2561 62.0687 86.6136 61.6807 88.0626C63.6742 87.7195 68.4975 85.1401 64.8321 83.5816ZM18.4299 86.9881C18.0964 89.1111 19.8756 90.235 22.0685 90.5046C22.7691 89.6316 23.4138 88.7005 23.9259 87.6341C22.6984 86.6189 21.7291 85.3528 20.129 84.6988C19.7962 85.6885 19.5078 86.3159 18.43 86.9879L18.4299 86.9881ZM25.3849 87.6515C26.1003 88.4477 26.6824 89.3713 27.9152 89.6684C28.5377 88.7147 29.1548 87.755 29.7719 86.796C28.9164 86.0752 27.9887 85.4278 27.0603 84.7791C26.4298 85.6634 25.7649 86.5096 25.3849 87.6515H25.3849ZM43.7864 89.4861C44.5921 90.5533 45.8175 91.2133 46.8583 92.0503C47.7091 90.4745 48.8867 89.2332 49.4667 87.3825C48.4535 86.635 47.6768 85.6627 46.5759 85C45.6746 86.5257 44.7092 87.9833 43.7862 89.4863L43.7864 89.4861ZM55.0805 90.8796C56.737 89.8772 59.2323 89.7264 60.0427 87.8637C59.2356 87.4526 58.7667 86.7158 57.8707 86.3947C57.0495 87.7896 54.7732 89.5489 55.0803 90.8797L55.0805 90.8796ZM36.2892 91.2073C37.324 92.2852 38.3884 93.4824 40.2787 93.2408C40.9989 91.9608 42.2284 91.1945 42.5105 89.4714C41.3646 88.6158 40.3729 87.6107 39.0748 86.902C38.135 88.3255 37.2155 89.7711 36.2892 91.2073ZM28.8196 90.4004C30.2916 91.535 31.4563 92.9679 34.0796 92.9899C33.9436 91.9968 34.9035 92.1189 34.8294 91.192C33.3837 89.9713 32.2539 88.4436 30.4929 87.5266C30.0429 88.5932 29.2251 89.2873 28.8195 90.4004H28.8196ZM47.7661 92.6055C50.0741 92.4473 52.5646 92.4713 53.2593 90.6794C52.0211 90.1522 51.7139 88.7213 50.1861 88.4757C49.6202 90.0942 48.32 90.9745 47.7663 92.6056L47.7661 92.6055ZM23.1577 91.0584C24.5421 91.0284 25.1014 91.7959 26.6171 91.6397C26.8091 91.2259 27.251 91.0644 27.1783 90.381C26.0755 89.9599 25.7683 88.7706 24.6479 88.3654C24.4472 89.5614 23.5236 90.0273 23.1578 91.0584L23.1577 91.0584ZM41.9249 92.8979C43.1449 93.6901 43.9661 92.7684 45.7561 92.9426C45.4623 91.6178 44.1817 91.2494 43.2292 90.5646C42.8324 91.3808 42.3965 92.1597 41.9249 92.8978L41.9249 92.8979ZM27.8875 92.1957C28.5571 91.6899 29.4457 92.7644 30.0761 92.2211C29.2179 92.0996 28.968 91.3875 28.0801 91.2954C27.9251 91.503 27.8329 91.7759 27.8874 92.1957L27.8875 92.1957ZM35.3571 93.0046C36.0415 92.7717 36.6114 93.5573 36.9988 93.024C36.1951 93.026 36.4726 91.9835 35.5504 92.1043C35.6191 92.5381 35.2122 92.4914 35.3571 93.0046V93.0046Z" fill="#FF4E6D"/>
</svg>
