<svg width="20" height="20" viewBox="0 0 20 20" fill="none" xmlns="http://www.w3.org/2000/svg">
<path d="M11.6766 9.9796L18.9601 2.71557L18.967 2.70875L18.9733 2.70142C19.1618 2.48191 19.2603 2.19941 19.2491 1.91039C19.2379 1.62137 19.1178 1.34733 18.9129 1.14301L18.7364 1.32002L18.9129 1.143C18.7081 0.938694 18.4336 0.819114 18.1444 0.807972C17.8551 0.796831 17.5722 0.894937 17.3522 1.08285L17.3449 1.08912L17.338 1.09594L10.0537 8.36081L2.76924 1.08707L2.76913 1.08696C2.55272 0.871132 2.25935 0.75 1.95359 0.75C1.64783 0.75 1.35446 0.871132 1.13805 1.08696C0.921618 1.30281 0.799907 1.59571 0.799907 1.90127C0.799907 2.20682 0.921618 2.49972 1.13805 2.71557L1.13816 2.71568L8.43035 9.9796L1.14452 17.2372C1.02764 17.3388 0.93251 17.463 0.864905 17.6024C0.795819 17.7448 0.756983 17.8999 0.750858 18.0581C0.744733 18.2162 0.771453 18.3739 0.829324 18.5212L1.06202 18.4298L0.829325 18.5212C0.887196 18.6686 0.974958 18.8023 1.08706 18.9141C1.19917 19.0259 1.3332 19.1134 1.48072 19.171C1.62823 19.2286 1.78608 19.2552 1.94436 19.2491C2.10264 19.243 2.25797 19.2044 2.4006 19.1356C2.54014 19.0682 2.66459 18.9735 2.76649 18.8569L10.0535 11.5982L17.338 18.8633L17.3449 18.8701L17.3522 18.8764C17.5722 19.0643 17.8551 19.1624 18.1444 19.1512C18.4336 19.1401 18.7081 19.0205 18.9129 18.8162C19.1178 18.6119 19.2379 18.3378 19.2491 18.0488C19.2603 17.7598 19.1618 17.4773 18.9733 17.2578L18.967 17.2505L18.9601 17.2436L11.6766 9.9796Z" fill="#1F3948" stroke="#1F3948" stroke-width="0.5"/>
</svg>
