<svg width="80" height="14" viewBox="0 0 80 14" fill="none" xmlns="http://www.w3.org/2000/svg">
<g clip-path="url(#clip0_83_1036)">
<path d="M34.5238 1.05426V0.928711H34.2363V1.03382C34.3325 1.03594 34.4284 1.04276 34.5238 1.05426Z" fill="#1B1C20"/>
<path d="M37.5567 1.41008C37.5585 1.3965 37.5585 1.38277 37.5567 1.3692C38.2995 1.79548 38.6419 2.43781 38.9487 3.413L39.2717 3.34876C39.2523 3.2203 39.2362 3.07723 39.2168 2.93124C38.8938 2.02905 38.4481 1.47139 37.5244 1.10059C37.1506 0.958548 36.7554 0.868003 36.3519 0.831973L36.0677 0.811535C35.9095 0.811535 35.7447 0.811535 35.5768 0.811535C35.3007 0.810943 35.0251 0.832438 34.7532 0.875769C34.8888 0.875769 35.0309 0.858251 35.1763 0.858251C35.4808 0.856295 35.7851 0.872878 36.0871 0.907886C36.184 0.907886 36.2777 0.937083 36.3713 0.954601C36.6365 0.999838 36.8954 1.07131 37.1433 1.16774L37.3144 1.24073L37.2951 1.38964L37.5567 1.41008Z" fill="#1B1C20"/>
<path d="M25.5156 12.5546C25.6093 11.8159 25.7062 10.9575 25.774 10.5341C25.6826 10.5176 25.5877 10.5297 25.5049 10.5684C25.4222 10.6072 25.3565 10.6702 25.3186 10.7473C25.0853 11.2888 24.7724 11.7994 24.3884 12.2655C23.82 12.8991 23.5002 13.0714 22.2438 13.0714H20.5675C19.2078 13.0714 18.7653 12.867 18.7653 11.4509V6.90201H21.207C22.8801 6.90201 22.9964 7.10347 23.3387 8.3969L23.6617 8.6042V4.59836H23.0771C22.7735 5.90931 22.9059 6.29763 21.1909 6.29763H19.3983C19.2298 6.29768 19.0679 6.23816 18.9472 6.13179C18.8265 6.02542 18.7566 5.88061 18.7524 5.72829V1.42756C18.7653 0.957486 18.8428 0.875734 19.3789 0.875734H21.3492C22.6928 0.875734 23.1126 0.969165 23.5325 1.45968C23.9304 1.99651 24.2293 2.58813 24.4175 3.2115L24.7631 3.15311C24.6662 2.37062 24.5758 0.995442 24.5596 0.233398C24.2883 0.259676 23.4744 0.271355 21.3298 0.271355H14.5955V0.358946C14.5948 0.41792 14.6175 0.475175 14.6596 0.520219C14.7017 0.565262 14.7604 0.595078 14.8249 0.604201C15.0152 0.628891 15.2039 0.663005 15.3901 0.706391V0.589603H15.6162V0.82026H15.5903C15.613 1.82172 15.7777 7.59982 15.8487 10.0816H15.881V0.954566C15.9664 1.03598 16.0256 1.13694 16.0522 1.24654V1.08595V1.26989C16.0684 1.32829 16.078 1.3896 16.091 1.45968H16.2169V1.51515H16.0942C16.0942 1.67573 16.1136 1.86843 16.1136 2.09909C16.1136 2.32975 16.1136 2.51661 16.1136 2.77354V11.2232C16.1136 13.0042 16.2105 13.1239 14.237 13.3721V13.5239C13.5397 13.4072 12.9118 13.0685 12.4671 12.5692C11.8208 11.8586 11.2376 11.103 10.723 10.3093C10.077 9.38084 8.91749 7.60274 8.54282 6.99544C9.86706 6.48449 11.4497 5.47135 11.4497 3.52683C11.4659 3.04494 11.3485 2.56704 11.1082 2.13665C10.8678 1.70625 10.5123 1.33703 10.0738 1.0626C9.1791 0.487413 8.0099 0.291793 6.25287 0.291793H0.393931L0.0224994 0.259676L-0.000109534 0.510771C-0.0059256 0.586589 0.0176536 0.661871 0.0665758 0.723679C0.115498 0.785486 0.186708 0.82996 0.267967 0.849457C1.29183 1.07135 1.51146 1.1677 1.505 1.80712C1.53417 1.57158 1.54712 1.33463 1.54376 1.09763C1.54376 1.07719 1.54376 1.05968 1.54376 1.03924V0.983763H1.67618V1.09763C2.025 1.29033 1.99916 1.65238 1.99916 2.55749H2.11544V2.82318H1.99593V11.2115C1.99593 11.9648 2.01208 12.3268 1.88612 12.5254C1.88612 12.3093 1.88612 12.0232 1.88612 11.6173V3.12683C1.88612 1.78084 1.78599 1.94435 1.69879 1.78376C1.7641 2.21909 1.78141 2.65921 1.75047 3.09763L1.46947 11.2203C1.46947 12.7619 1.51146 12.6801 0.775053 12.8553H0.729835C0.628284 12.8722 0.536376 12.9204 0.469809 12.9918C0.403243 13.0632 0.366149 13.1532 0.364863 13.2465V13.667H0.490827H0.910706H6.50156V13.3049C6.50311 13.195 6.46091 13.0882 6.38265 13.0041C6.30439 12.9199 6.19528 12.864 6.07522 12.8465C4.7413 12.6509 4.61534 12.7327 4.61534 11.2027V7.29909L5.1741 7.50347C6.08491 7.50347 6.39498 7.70493 6.9279 8.58376C7.68046 9.84799 8.52345 11.1735 9.30507 12.2276C9.52768 12.5478 9.80079 12.837 10.1158 13.0859C9.1468 12.5312 7.73536 10.3881 7.73536 10.3881C7.73536 10.3881 8.9078 12.6422 9.7088 13.4071C10.5098 14.1721 12.7449 13.8801 12.7449 13.8801L12.6189 13.775L13.2067 13.8071C13.4393 13.8071 14.0465 13.8071 14.1757 13.8071L14.237 13.5765V13.8217L25.3089 13.7224L25.6836 13.702L25.8451 11.1735L25.5156 12.5546ZM16.0231 0.939968H15.8713V0.709311H16.0231V0.939968ZM1.33059 0.709311H1.1045V0.647997H1.33059V0.709311ZM1.65357 0.861136H1.49208V0.72099H1.64065L1.65357 0.861136ZM1.85705 12.7093H1.79245V12.6801H1.84413L1.85705 12.7093ZM2.75818 3.6261V3.66697H2.73557V3.6261H2.75818ZM2.75818 1.88887H2.64836V1.67281H2.75172L2.75818 1.88887ZM2.70327 2.78522V2.84362H2.64836V2.78522H2.70327ZM2.66451 2.46989V2.38522H2.71619V2.46989H2.66451ZM2.66451 3.17062H2.72588V3.27573H2.67097L2.66451 3.17062ZM2.64836 0.939968H2.73234V0.975004H2.64836V0.939968ZM2.62898 1.20566H2.71619V1.41004H2.62898V1.20566ZM2.62898 5.00128H2.68712V5.06551H2.62898V5.00128ZM2.60637 2.04362V2.2042H2.58376V2.04362H2.60637ZM2.58376 1.50639H2.53209V1.3896H2.58376V1.50639ZM2.3706 1.3896V1.31661H2.43196V1.3896H2.3706ZM2.40612 1.75165V1.92975H2.36091V1.75165H2.40612ZM2.40612 1.57062H2.51594V1.75165H2.42227L2.40612 1.57062ZM2.46749 1.8626H2.53209V1.92683H2.46749V1.8626ZM2.54824 1.27865H2.38028V1.09179H2.56439L2.54824 1.27865ZM2.16066 1.17938H2.29308V1.2115H2.1768L2.16066 1.17938ZM2.20264 1.00712V0.91953H2.22525V1.00712H2.20264ZM1.76338 0.71515H1.89581H1.77953H1.76338ZM1.92488 0.91369H1.86674V0.81442H1.9378L1.92488 0.91369ZM1.95718 1.17938V1.12391H2.03469V1.18522L1.95718 1.17938ZM2.08637 1.42464H2.04115V1.36916H2.10252L2.08637 1.42464ZM2.02177 0.954566V0.81442H2.11221V0.954566H2.02177ZM2.02177 12.394H2.14451V12.575H2.02823L2.02177 12.394ZM2.21879 12.8465H2.06053V12.7531H2.21879V12.8465ZM2.21879 2.39982H2.11221V2.16041H2.22848L2.21879 2.39982ZM2.21879 1.52391H2.2737V1.60566H2.22848L2.21879 1.52391ZM2.28339 1.81588H2.26078V1.76624H2.29308L2.28339 1.81588ZM2.28339 1.35749H2.26078V1.29617H2.306L2.28339 1.35749ZM2.28339 0.738508H2.18972V0.662595H2.29954L2.28339 0.738508ZM2.31246 0.843617H2.51594V1.01296H2.32861L2.31246 0.843617ZM2.3706 2.37062H2.35122V2.25384H2.38674L2.3706 2.37062ZM2.38674 2.04362H2.43519V2.16041H2.38674V2.04362ZM2.43842 6.175V5.88303V6.175ZM2.47718 2.33559H2.51917V3.40128H2.59991V3.47719H2.51917V3.88011H2.47718V2.33559ZM2.58376 3.73705V3.775H2.56439V3.73705H2.58376ZM2.58376 4.06989H2.49656V3.97062H2.58376V4.06989ZM2.79047 5.78376H2.59991V5.57354H2.80339L2.79047 5.78376ZM2.96812 4.18668H2.92613V4.03486H2.98104L2.96812 4.18668ZM3.1393 4.94581H3.05209V4.81442H3.15222L3.1393 4.94581ZM10.4258 4.0553H10.3612V3.94143H10.4258V4.0553ZM10.4258 3.70493H10.4064V3.58522H10.4258V3.70493ZM10.6099 3.48011H10.2869V3.375H10.6099V3.48011ZM10.2062 2.95165H10.3354V3.15019H10.2094L10.2062 2.95165ZM10.1868 3.57938H10.245V3.6261H10.1868V3.57938ZM10.1222 4.16332H10.0996V4.08741H10.1222V4.16332ZM10.0124 2.52537H10.1287V2.75603H10.0124V2.52537ZM9.8929 5.21734H9.75402V5.15019H9.87675L9.8929 5.21734ZM9.68942 1.87719H9.84122V2.16916H9.68942V1.87719ZM9.2437 1.50055H9.26631V1.54143H9.2437V1.50055ZM7.82903 6.51661C7.25089 6.96624 6.50802 7.0334 5.39696 7.0334H4.61534V1.66405C4.61534 1.1677 4.69608 1.00712 4.87372 0.896172C5.05136 0.785223 5.37758 0.738508 5.98479 0.738508C7.50604 0.738508 8.8432 1.65238 8.8432 3.99106C8.8432 5.19982 8.55897 5.9677 7.82903 6.51661ZM16.2008 0.875734V0.709311H16.6336V0.875734H16.2008ZM16.4721 1.52099H16.6045V1.56479H16.4721V1.52099ZM16.3171 1.43048V1.29617H16.5302V1.43048H16.3171ZM16.2686 0.975004H16.4495V1.08011H16.2686V0.975004ZM16.4172 2.04362H16.3687V1.83632H16.4172V2.04362ZM16.4172 1.62902H16.2944V1.59982H16.4172V1.62902ZM16.5658 2.95457H16.4333V2.69471H16.5658V2.95457ZM16.6013 1.78668H16.5431V1.73121H16.6013V1.78668ZM16.6433 1.23194H16.6013V1.05968H16.6433V1.23194ZM16.6982 3.93851H16.6659V3.76624H16.6982V3.93851ZM16.6982 0.980843H16.6368V0.966245H16.6982V0.980843ZM16.7499 2.28303H16.7337V2.2188H16.7499V2.28303ZM16.808 4.30931H16.7628V4.248H16.808V4.30931ZM16.8435 1.34289H16.7499V1.26989H16.8435V1.34289ZM16.9081 0.957486H16.7951V0.904931H16.9178L16.9081 0.957486ZM17.1181 0.788143H17.0018V0.72099H17.1181V0.788143ZM17.441 0.773544H17.3764V0.756026H17.441V0.773544ZM17.8738 6.56916H17.7996V6.51077H17.8738V6.56916ZM18.1225 6.72683H18.0321V6.68303H18.1225V6.72683Z" fill="#1B1C20"/>
<path d="M72.9944 0.467363C73.2468 0.344363 73.5132 0.246467 73.7889 0.175392C73.7889 0.175392 73.4982 0.102399 72.9944 0.467363Z" fill="#1B1C20"/>
<path d="M76.2792 5.72848C75.8658 5.50658 75.5008 5.30512 75.1843 5.10658V5.21169H74.984V5.01607H75.0389C74.0054 4.35038 73.5241 3.73724 73.5241 2.68031C73.5241 1.39855 74.2993 0.446729 75.785 0.446729C77.555 0.446729 78.4981 1.41899 78.9794 2.89928L78.763 2.9606C78.664 2.59526 78.5062 2.24505 78.2946 1.92118C77.8974 1.26717 77.0221 0.753299 77.6131 1.22921C78.2042 1.70512 78.5659 3.21169 78.5659 3.21169L79.0569 3.1533H79.1021C79.1858 3.14041 79.2605 3.09826 79.31 3.03597C79.3596 2.97368 79.38 2.89626 79.3669 2.82045C79.228 1.92118 79.115 0.975196 79.0439 0.294904C78.1043 0.130424 77.1518 0.0328008 76.1952 0.00293369C73.3174 1.39838e-05 71.5055 1.59417 71.5055 3.64965C71.5055 5.70512 73.2367 6.77374 75.1681 7.83943C76.7831 8.71534 77.752 9.63213 77.752 11.0278C77.7713 11.5758 77.6238 12.1181 77.3257 12.5956C77.5259 12.1314 78.2236 10.2423 76.7055 9.13578C76.5699 9.03943 76.473 8.96352 76.3987 8.90512C76.8573 9.38103 77.9975 10.9489 76.8154 13.1124C76.3826 13.3958 75.8572 13.5398 75.3232 13.5212C73.3368 13.5212 72.5487 12.2453 72.0933 10.8088C72.0529 10.6854 71.9665 10.5784 71.8487 10.506C71.731 10.4337 71.5892 10.4003 71.4473 10.4117L71.105 10.4351C71.134 10.7883 71.4764 13.0015 71.6121 13.4511C72.7026 13.7671 73.8363 13.9449 74.9808 13.9796C77.8877 13.9796 80.0194 12.2978 80.0194 10.0029C80 7.81899 78.1622 6.73578 76.2792 5.72848ZM79.0666 1.37228H79.1312V1.42775H79.0762L79.0666 1.37228ZM78.918 1.25841H78.8308V1.10658H78.918V1.25841ZM78.7759 0.522642H78.9277V0.671547H78.7759V0.522642ZM78.6111 0.694904H78.7016V0.762058H78.6111V0.694904ZM78.4529 0.402934H78.511V0.461328H78.4529V0.402934ZM78.3754 0.694904H78.4529V0.73578H78.3754V0.694904ZM78.1622 0.490525H78.2365V0.583956H78.1622V0.490525ZM73.8245 4.71534H73.7082V4.5606H73.8245V4.71534ZM74.183 4.97812H74.1152V4.94016H74.183V4.97812ZM74.829 5.70512H74.7321V5.57082H74.829V5.70512ZM75.11 5.86279V5.79271H75.2553V5.86279H75.11ZM75.3748 6.46425H75.1552V6.1314H75.3748V6.46425ZM76.1112 6.44381H75.9659V6.29198H76.1112V6.44381ZM76.1694 5.85987H76.0886V5.79271H76.1694V5.85987ZM77.3418 7.00731H77.4032V7.11826H77.3418V7.00731ZM76.4019 6.45841H76.4665V6.50512H76.4019V6.45841ZM76.5893 6.86717H76.3309V6.69782H76.5893V6.86717ZM76.6862 6.5752V6.51096H76.7508V6.56352L76.6862 6.5752ZM76.8703 6.84965H76.7443V6.71534H76.8703V6.84965ZM77.1319 7.06863H77.0091V6.95768H77.1319V7.06863ZM77.5162 7.44819H77.2255V7.27593H77.5162V7.44819ZM71.5249 11.5854H71.4893V11.492H71.5249V11.5854ZM71.6993 12.1197H71.6476V11.9854H71.7025L71.6993 12.1197ZM71.8382 12.3153H71.7639V12.2628H71.8382V12.3153ZM71.8382 12.581H71.99V12.6949H71.8382V12.581ZM72.0642 13.2088H71.9318V13.0715H72.0642V13.2088ZM72.0642 12.9168H72.0255V12.8467H72.0901L72.0642 12.9168ZM72.2839 12.9168H72.3711V12.9723H72.2839V12.9168ZM72.4874 13.2876H72.3485V13.1883H72.5229L72.4874 13.2876ZM72.9492 13.3927H72.7877V13.3314H72.9492V13.3927ZM77.0447 13.1007H76.9413V13.0803H77.0447V13.1007ZM78.2785 8.09052H78.3495V8.18396H78.2785V8.09052ZM78.188 11.2117H78.2623V11.4715H78.188V11.2117ZM78.0233 11.4657H78.1622V11.5562H78.0524L78.0233 11.4657ZM78.1396 11.7285V11.9066H78.0879V11.7372L78.1396 11.7285ZM77.9135 11.2292H77.9878V11.3285H77.9135V11.2292ZM77.8166 12.0759H77.9393V12.1518H77.8392L77.8166 12.0759ZM77.962 12.2628V12.3212H77.8618V12.2628H77.962ZM77.316 12.619H77.3967V12.6861H77.316V12.619ZM77.4226 12.9285H77.3063V12.8613H77.4226V12.9285ZM77.5065 12.4467H77.7552V12.6569H77.5065V12.4467ZM77.9006 12.8905H77.7326V12.8467H77.9006V12.8905ZM78.0233 12.5664H77.9006V12.5197H78.0233V12.5664ZM78.1331 12.3358H78.0653V12.2102H78.1622L78.1331 12.3358ZM78.2429 12.692H78.1751V12.6453H78.2429V12.692ZM78.3528 12.4205H78.2656V12.3883H78.3528V12.4205ZM78.3818 12.2307H78.2494V12.1577H78.3818V12.2307ZM78.4529 10.7299H78.3883V10.6861H78.4529V10.7299ZM78.5788 8.05257H78.6951V8.3241H78.5788V8.05257ZM78.6305 8.61315H78.6887V8.63943H78.6305V8.61315ZM78.7242 10.4175H78.637V10.3212H78.7242V10.4175ZM78.8921 11.6701V11.5854H79.002V11.6788L78.8921 11.6701Z" fill="#1B1C20"/>
<path d="M71.7026 2.14904C71.998 1.51275 72.4381 0.93976 72.9945 0.467285C72.6091 0.624127 72.2633 0.850616 71.9783 1.13281C71.6934 1.415 71.4753 1.74693 71.3376 2.10816C70.8337 3.61181 71.1406 4.87896 71.9836 5.90378C72.8265 6.9286 70.4946 4.37969 71.7026 2.14904Z" fill="#1B1C20"/>
<path d="M57.4041 1.83658H57.291L57.3944 1.95629V1.87454H57.5397V1.74023H57.4041V1.83658Z" fill="#1B1C20"/>
<path d="M64.7842 0.364985H64.4063V0.534328C64.4073 0.582827 64.4273 0.629429 64.4628 0.665802C64.4983 0.702174 64.547 0.725946 64.6001 0.732868C65.892 0.90805 66.454 1.15915 66.7027 1.84528C66.6842 1.54365 66.6077 1.24724 66.4766 0.969364H66.2828V0.875934H66.4766V0.963525C67.0289 1.23506 67.2098 1.68469 67.2582 2.52265C67.2873 3.14163 67.2421 3.6263 67.2421 5.64673L67.0451 8.75914C67.0427 8.79913 67.0273 8.83758 67.0009 8.86974C66.9745 8.9019 66.9382 8.92633 66.8966 8.94002C66.855 8.9537 66.8098 8.95603 66.7667 8.94671C66.7236 8.9374 66.6845 8.91684 66.6543 8.88761L64.1447 6.46425L67.339 9.82775V10H67.452V10.219H67.2389V10.0146L67.0128 9.77228V9.82484H66.903V9.64965L58.1565 0.291992H54.2161V0.397102H53.7898V0.499291C53.7896 0.555036 53.8113 0.609041 53.8508 0.651777C53.8904 0.694514 53.9455 0.723233 54.0062 0.732868C54.8427 0.873014 55.2981 1.05696 55.8666 1.73725C55.8709 1.74144 55.8742 1.74642 55.8763 1.75185L56.3511 6.39126L56.3123 2.04382L55.8472 1.31389C55.7999 1.22077 55.7414 1.13264 55.6728 1.05112C55.8966 1.19906 56.0937 1.37731 56.2574 1.57958C56.4966 1.87198 56.6185 2.22932 56.603 2.59272V8.219C56.603 10.0146 56.5449 10.8029 56.5061 11.4745C56.4997 11.6921 56.4738 11.9088 56.4286 12.1226L56.4027 9.43944C56.4027 9.43944 56.2671 11.8891 56.2348 12.508C56.0216 12.7183 55.6373 12.7562 54.9429 12.8555C54.8185 12.8723 54.7049 12.9291 54.6231 13.0154C54.5412 13.1018 54.4965 13.2119 54.4971 13.3256V13.673H59.7198V13.2321C59.7198 13.1457 59.6851 13.0623 59.6221 12.9973C59.5592 12.9323 59.4722 12.8902 59.3774 12.8788C57.6979 12.6657 57.4977 12.6861 57.4395 11.4424C57.4008 10.7679 57.3717 10.1548 57.3717 8.23068L57.4912 3.70221C57.4828 3.63598 57.4997 3.56916 57.5392 3.51283C57.5786 3.4565 57.6382 3.41407 57.708 3.39258C57.7778 3.37109 57.8536 3.37184 57.9229 3.39471C57.9921 3.41757 58.0507 3.46118 58.0887 3.51827L67.5522 13.9387H67.7976C67.8625 13.9387 67.9267 13.927 67.9865 13.9043C68.0463 13.8816 68.1005 13.8484 68.146 13.8065C68.1914 13.7646 68.2271 13.715 68.251 13.6605C68.275 13.606 68.2866 13.5477 68.2853 13.4891L68.0496 5.60586C68.0496 3.58834 68.098 3.12411 68.1206 2.52265C68.1626 1.20294 68.4016 0.919729 69.7162 0.639437C69.7889 0.623011 69.8538 0.585646 69.9009 0.532979C69.9481 0.480312 69.9751 0.4152 69.9778 0.347467V0.291992H64.7842V0.364985ZM59.1966 3.71097H59.2741V3.77228H59.1966V3.71097ZM58.3923 2.40002H58.4763V2.50513H58.3923V2.40002ZM58.3923 2.72119V2.85549H58.247V2.72119V2.65404H58.3439V2.72119H58.3923ZM58.1372 2.01462H58.2534V2.09929H58.1372V2.01462ZM58.0758 2.45841V2.37082H58.1953V2.45841H58.163V2.55185H58.0855V2.45841H58.0758ZM58.0532 2.09637H58.0919V2.16644H58.0532V2.09637ZM57.7948 2.23944V2.14601H57.9078V2.23944H57.8788V2.28031H57.8433V2.23944H57.7948ZM57.6269 1.56498H57.6979V1.6117H57.6269V1.56498ZM57.4912 1.32849H57.559V1.3898H57.4912V1.32849ZM57.3329 1.36936H57.4072V1.4336H57.3329V1.36936ZM57.2586 1.20878H57.2877V1.24966H57.2586V1.20878ZM57.0552 0.896372H57.1682V1.01608H57.0681L57.0552 0.896372ZM56.9744 1.0336H57.0423V1.08031H56.9744V1.0336ZM56.2477 0.963525H56.0442V0.794182H56.2477V0.963525ZM56.4576 0.875934H56.5222V0.934328H56.4641L56.4576 0.875934ZM56.6676 1.61754H56.4706V1.52119H56.6676V1.61754ZM56.7677 1.19418H56.687V1.09783H56.7063V1.03944H56.8452V1.1679H56.7677V1.19418ZM56.9098 1.67593H56.8V1.62046H56.9098V1.67593ZM56.9098 1.35769H56.8065V1.28469H56.9098V1.35769ZM56.9647 1.20294H57.0616V1.1679H57.1941V1.3606H57.0616V1.27885H56.9647V1.20294ZM57.0261 1.52411H57.1488V1.60294H57.0261V1.52411ZM57.0713 1.78104H57.2102V1.89199H57.0713V1.78104ZM57.1682 11.9708H57.2619V12.2015H57.1682V11.9708ZM57.2716 12.3153V12.3562H57.1973V12.3153H57.2716ZM57.1747 12.5139H57.2619V12.5927H57.1682L57.1747 12.5139ZM57.2457 12.9139H57.2005V12.8818H57.2457V12.9139ZM57.3039 12.7854H57.2457V12.7153H57.3039V12.7854ZM57.7431 13.0044H57.6462V12.9489H57.7431V13.0044ZM57.6139 12.8905L59.1287 12.9752V13.0161L57.6139 12.9372V12.8905ZM57.5041 12.692H57.5913V12.7737H57.4912L57.5041 12.692ZM57.3878 12.6219H57.4234V12.7212H57.3878V12.6219ZM57.5203 12.8701V13.0424H57.3265V12.8701H57.5203ZM58.8122 3.87447L57.2586 2.12265V1.78104V1.66133H57.3459V1.55331H57.2005V1.41024H57.3459V1.55331H57.5461V1.75185H57.8691V1.95623H57.6495V2.15185H57.559L57.6947 2.30951V2.12557H57.8013V2.38834H57.769L57.8562 2.49053V2.36498H57.9692V2.5752H58.05V2.70659L58.1436 2.81754H58.1888V2.87301L58.6216 3.38104V3.31389H58.725V3.47739H58.7024L58.8187 3.61462V3.45695H58.9349V3.74893L59.1772 4.0409V4.02338H59.358V4.18104H59.2999L64.0478 9.76644L58.8122 3.87447ZM66.6317 9.67301H66.4346V9.50075H66.6317V9.67301ZM66.7641 10.1752H66.6833V10.1372H66.7641V10.1752ZM67.1129 10.5577H67.0257V10.4788H67.1129V10.5577ZM67.1517 10.292H66.9837V10.0905H67.1517V10.292ZM67.3099 10.9226H67.2292V10.6978H67.3099V10.9226ZM67.4197 10.473H67.3099V10.4205H67.4197V10.473ZM66.7738 0.837977H66.9223V0.905131H66.7738V0.837977ZM66.6026 0.732868H66.6349H66.6026ZM66.3022 0.686153H66.412V0.770824H66.3022V0.686153ZM65.54 0.546007H65.7112V0.671554H65.54V0.546007Z" fill="#1B1C20"/>
<path d="M27.2439 8.33301H27.1887V8.40308H27.2439V8.33301Z" fill="#1B1C20"/>
<path d="M40.3051 10.4117L39.6591 10.3445C39.6081 10.3401 39.5568 10.3501 39.5123 10.3731C39.4678 10.3961 39.4322 10.431 39.4104 10.473C38.477 12.3066 38.0281 13.0336 35.8156 13.0336C33.0993 13.0336 31.2196 11.6905 30.4573 9.31387H30.3604V9.22044H30.4509C30.4186 9.11241 30.3863 9.00438 30.3604 8.89343H30.0633V8.49927H30.27C30.1525 7.889 30.0953 7.27052 30.0988 6.65109C30.0988 3.30219 31.7137 0.487591 35.3473 0.487591C36.146 0.46169 36.9421 0.584937 37.6857 0.849635C38.9227 1.33431 39.4201 2.12555 39.8497 3.44234C39.8603 3.47575 39.8845 3.50428 39.9175 3.52216C39.9505 3.54004 39.9897 3.54595 40.0273 3.53869L40.1824 3.50949C40.21 3.50453 40.2347 3.4904 40.2514 3.46987C40.2681 3.44934 40.2758 3.4239 40.2728 3.39854C40.1533 2.55766 40.0241 1.39562 39.9498 0.420438C39.3394 0.364964 37.7891 0 35.9513 0C30.6834 0 27.3018 2.87591 27.3018 7.03358C27.3022 7.50352 27.3487 7.9725 27.4406 8.43504L27.3018 8.45255L27.3534 8.7854L27.5117 8.76788C28.0995 11.1504 29.9664 13.165 33.3513 13.7839C29.9212 13.2993 27.98 11.7985 27.4148 8.91387H27.3211C27.3211 11.7956 29.582 13.962 34.7013 14V13.9504C35.0017 13.9708 35.315 13.9825 35.638 13.9825C36.9329 13.9451 38.22 13.7856 39.4783 13.5066C39.9031 12.599 40.256 11.6652 40.5344 10.7124C40.5439 10.6789 40.5453 10.6439 40.5386 10.6098C40.5319 10.5758 40.5171 10.5434 40.4954 10.5149C40.4737 10.4864 40.4455 10.4625 40.4126 10.4447C40.3798 10.4269 40.3431 10.4156 40.3051 10.4117ZM39.404 1.63504H39.2425V1.57664H39.404V1.63504ZM39.081 1.29635H39.3039V1.43942H39.081V1.29635ZM39.081 1.1562H38.8581V1.01314H39.081V1.1562ZM38.6482 0.70073H38.8678V0.843796H38.6482V0.70073ZM38.5707 1.0073H38.7935V1.14745H38.5707V1.0073ZM38.2154 0.776642H38.3769V0.837956H38.2154V0.776642ZM30.0665 9.12701V9.38394H29.834V9.12701H30.0665ZM30.1311 8.4146H29.9309V8.23358H30.1311V8.4146ZM30.1117 7.53869V7.88321H29.8889V7.55036L30.1117 7.53869ZM31.3488 1.45985H31.5716V1.60292H31.3488V1.45985ZM30.0568 2.75328H30.312V2.9635H30.0568V2.75328ZM29.9082 6.89927H29.5853V6.5927H29.9082V6.89927ZM29.6402 4.64234H29.6046V4.41168H29.6402V4.64234ZM29.7661 6.10219V6.39416H29.6337V6.10219H29.7661ZM29.6369 4.05839H29.54V3.95912H29.6369V4.05839ZM29.6111 7.68175H29.7145V7.82482H29.6111V7.68175ZM29.5368 7.44234V7.17372H29.6951V7.44234H29.5368ZM29.6595 3.43358H29.8243V3.74307H29.6595V3.43358ZM29.5174 2.9489H29.6402V3.32847H29.5174V2.9489ZM29.4948 3.74307H29.582V3.8219H29.4948V3.74307ZM29.2752 6.07883V6.26277H29.0685V6.07883H29.2752ZM29.1008 5.66131V5.58248H29.2009V5.66131H29.1008ZM29.1751 7.41314H29.4981V7.82482H29.1751V7.41314ZM29.1751 7.30803V6.91679H29.4981V7.29927L29.1751 7.30803ZM29.3333 6.65693V6.42336H29.4496V6.65401L29.3333 6.65693ZM29.469 5.99416H29.3236V5.7927H29.469V5.99416ZM29.427 5.20876H29.4496V5.25547H29.427V5.20876ZM29.4173 4.9635H29.3624V4.85255H29.4173V4.9635ZM29.3721 4.08759V4.37956H29.3301V4.08759H29.3721ZM29.2106 3.61168H29.3721V3.94161H29.2106V3.61168ZM29.0491 4.40292H29.1783V4.48175H29.0491V4.40292ZM29.2106 4.61314V4.67153H29.0685V4.61314H29.2106ZM29.0491 5.04526H29.2397V5.40146H29.0491V5.04526ZM28.8036 7.72847V7.62044H28.9684V7.72847H28.8036ZM28.9038 8.72117H28.9684V8.78832H28.9038V8.72117ZM28.7455 5.8219V5.96204H28.6421V5.8219H28.7455ZM28.6615 5.67591V5.63796H28.7067V5.67591H28.6615ZM28.7164 5.57956H28.5614V5.32263H28.7455L28.7164 5.57956ZM28.6066 6.09051V6.18102H28.5743V6.09051H28.6066ZM28.5679 6.39708H28.781V6.68905H28.5679V6.39708ZM28.752 6.19854V6.07299H28.8779V6.19854H28.752ZM28.752 6.82336H28.7843V6.92263H28.7455L28.752 6.82336ZM28.823 7.90365V8.10803H28.5679V7.90365H28.823ZM28.9199 6.85255V6.49051H29.0491V6.85255H28.9199ZM28.9199 5.89197V5.81314H28.9877V5.89197H28.9199ZM28.978 4.14015H29.0426V4.25985H28.978V4.14015ZM28.8262 5.45109H28.9522V5.6146H28.8262V5.45109ZM28.6551 4.37956H28.7455V4.60438H28.6421L28.6551 4.37956ZM28.4774 4.88175H28.8004V5.15912H28.4774V4.88175ZM28.1738 6.88759H28.4225V7.0219H28.1738V6.88759ZM28.3999 8.7562H28.3547V8.70365H28.3999V8.7562ZM28.3999 8.2219H28.2836V7.88321H28.4225L28.3999 8.2219ZM28.4225 7.73139H28.2901V7.47445H28.4225V7.73139ZM28.4225 6.6365H28.2481V6.42336H28.4225V6.6365ZM28.4839 6.21898H28.2481V5.81022H28.4839V6.21898ZM28.5323 7.09489H28.7455V7.43942H28.5517L28.5323 7.09489ZM28.6938 8.55474H28.5388V8.31533H28.6938V8.55474ZM29.0943 9.34307H28.7455V8.98394H29.0879L29.0943 9.34307ZM29.3721 9.63504H29.1783V9.39854H29.3721V9.63504ZM29.2009 9.09197V8.87591H29.3301V9.09197H29.2009ZM29.4238 8.50803L28.9587 8.46715L28.991 8.17518L29.4561 8.21606L29.4238 8.50803ZM29.4722 7.92409H29.5885V8.06715H29.4722V7.92409ZM29.54 9.19708H29.582V9.28759H29.54V9.19708ZM29.5885 10.0292H29.4787V9.86277H29.5885V10.0292ZM29.5885 9.49489H29.5336V9.45401H29.5885V9.49489ZM29.7306 8.8438H29.5304V8.61314H29.7306V8.8438ZM29.7629 7.99124H29.905V8.17518H29.779L29.7629 7.99124ZM29.7855 9.51241H29.9147V9.72555H29.7855V9.51241ZM30.0665 10.0526H29.8436V9.86861H30.0665V10.0526ZM30.0665 10.3445H30.2861V10.5255H30.0665V10.3445ZM30.3023 11.127H30.2377V11.1095H30.3023V11.127ZM30.916 11.0949H30.6834V10.9197H30.9063L30.916 11.0949ZM31.0936 11.8131H30.9386V11.7343H31.0936V11.8131ZM31.4876 11.9328H31.4424V11.8628H31.4876V11.9328ZM31.6524 12.2015H31.5522V12.1606H31.6524V12.2015Z" fill="#1B1C20"/>
<path d="M52.0974 3.22607C51.9177 2.72268 51.6681 2.24195 51.3545 1.79541C51.6303 2.25324 51.847 2.73816 52.0005 3.24067L52.0974 3.22607Z" fill="#1B1C20"/>
<path d="M53.2924 10.5517C53.1468 10.554 53.0068 10.6022 52.8964 10.6881C52.7861 10.7739 52.7125 10.892 52.6884 11.0218C52.6263 11.4673 52.4469 11.8928 52.1652 12.2626C51.5967 12.8962 51.277 12.8466 50.0206 12.8466H48.3572C46.9942 12.8466 46.5582 12.867 46.5582 11.448V7.32248C46.5581 7.26831 46.5702 7.21469 46.5939 7.16493C46.6176 7.11516 46.6523 7.07031 46.6958 7.03311C46.7394 6.99592 46.7909 6.96717 46.8472 6.94865C46.9035 6.93013 46.9634 6.92221 47.0233 6.9254L48.9612 7.01883C50.5373 7.01883 50.7763 7.5619 51.0606 8.43489C51.076 8.48294 51.1083 8.52516 51.1525 8.55518C51.1968 8.5852 51.2507 8.60139 51.306 8.60131H51.4578V4.59839H51.3222C51.2641 4.59849 51.2079 4.61648 51.1626 4.64939C51.1174 4.6823 51.086 4.72817 51.0735 4.77941C50.799 5.9473 50.6148 6.29766 48.987 6.29766H46.5614V1.42759C46.5614 0.957516 46.6357 0.881604 47.1621 0.881604H49.1388C50.4857 0.881604 50.9055 0.975034 51.3254 1.46555C51.7245 2.00138 52.0225 2.59336 52.2072 3.21737L52.3654 3.19109C52.4171 3.18386 52.4638 3.15888 52.4957 3.12137C52.5275 3.08385 52.5422 3.03667 52.5366 2.98963C52.4462 2.18671 52.3687 0.945837 52.3525 0.242188C52.0812 0.271385 51.2673 0.283063 49.1227 0.283063H42.382V0.443647C42.3824 0.483189 42.3987 0.521247 42.4278 0.550773C42.4569 0.580298 42.4968 0.59929 42.5402 0.604231C44.0453 0.811531 43.9065 1.01007 43.9065 2.77357V10.6247H43.984V10.7152H43.9065V11.1181L43.7353 3.11518C43.7353 2.32394 43.7353 1.84803 43.6255 1.5473C43.661 1.99109 43.6255 2.13124 43.6255 2.78525L43.5092 11.229C43.4866 12.8816 43.1378 12.6889 41.8943 13.1181C41.8008 13.1466 41.7195 13.2007 41.6616 13.2729C41.6037 13.3451 41.5722 13.4319 41.5713 13.521V13.6553H42.0009H52.8725C53.0275 13.1181 53.4377 11.2378 53.5508 10.5312L53.2924 10.5517ZM51.0315 7.52978H51.0703V7.56482H51.0315V7.52978ZM50.8248 7.29328H50.7893V7.24365H50.8248V7.29328ZM50.7699 6.97504H50.8119V7.05095H50.7699V6.97504ZM50.5858 7.09182H50.7085V7.14438H50.6181L50.5858 7.09182ZM50.2047 6.87868H50.3855V6.97504H50.2305L50.2047 6.87868ZM52.0037 1.81591H52.0877V1.90058H52.0037V1.81591ZM51.8002 1.27284H51.8196V1.37211H51.8002V1.27284ZM51.6161 1.00423H51.6742V1.06555H51.6161V1.00423ZM51.4223 0.861166H51.5095V0.966275H51.4223V0.861166ZM51.0315 0.7181H51.0767V0.744377H51.0315V0.7181ZM43.4058 0.741458H43.3348V0.685983H43.4058V0.741458ZM43.5124 12.94H43.3477V12.902H43.5124V12.94ZM44.2488 0.703501H44.3877V0.81445H44.2488V0.703501ZM43.9937 0.823209H44.1067V0.91372H43.9937V0.823209ZM44.1842 1.6816H44.0938V1.60861H44.1842V1.6816ZM44.2198 11.7342V11.8714H44.1196V11.7342H44.2198ZM44.1196 12.0816H44.0873H44.1196ZM43.8451 0.791093H43.6868V0.662626H43.8451V0.791093ZM43.7837 0.554596V0.402771H43.9711V0.554596H43.7837ZM43.9258 10.4261V10.2188H44.0357V10.4145L43.9258 10.4261ZM43.9581 11.2874H44.0809V11.4655H43.9581V11.2874ZM43.9162 11.7254H44.0034V11.7546H43.9162V11.7254ZM43.9711 11.9619V12.0115V11.9707V11.9619ZM43.8483 12.8904H43.7191V12.6363H43.8483V12.8904ZM43.9937 12.3561H43.8709V12.3064H43.9937V12.3561ZM43.9937 12.4553H44.0486V12.4962H43.9937V12.4553ZM44.0712 12.8203L44.0001 12.759L44.0938 12.6743L44.1616 12.7385L44.0712 12.8203ZM44.2262 12.4787L44.1455 12.4291L44.2327 12.3152L44.3134 12.3648L44.2262 12.4787ZM44.3425 5.85095L44.3102 2.27138H44.2488V2.19839H44.3005V1.32248L44.3522 1.22905H44.1745V1.08598H44.3619V1.21737L44.4039 1.14438L44.3425 5.85095Z" fill="#1B1C20"/>
</g>
<defs>
<clipPath id="clip0_83_1036">
<rect width="80" height="14" fill="white"/>
</clipPath>
</defs>
</svg>
