<svg width="20" height="20" viewBox="0 0 20 20" fill="none" xmlns="http://www.w3.org/2000/svg">
<path fill-rule="evenodd" clip-rule="evenodd" d="M10 0C4.47715 0 0 4.47716 0 10C0 15.5228 4.47715 20 10 20C15.5228 20 20 15.5228 20 10C20 4.47716 15.5228 0 10 0ZM7.80139 4.69897C8.37007 4.6731 8.55189 4.66675 9.99885 4.66675C11.4478 4.66675 11.6289 4.67308 12.1978 4.69897C12.7655 4.72498 13.1533 4.81487 13.4933 4.94675C13.8444 5.08287 14.1411 5.26509 14.4378 5.56175C14.7345 5.8582 14.9167 6.15576 15.0534 6.50655C15.1845 6.84566 15.2745 7.23322 15.3011 7.80101C15.3267 8.3699 15.3334 8.55168 15.3334 10.0001C15.3334 11.4486 15.3267 11.6299 15.3011 12.1988C15.2745 12.7664 15.1845 13.1541 15.0534 13.4933C14.9167 13.8439 14.7345 14.1415 14.4378 14.438C14.1415 14.7346 13.8443 14.9173 13.4937 15.0535C13.1543 15.1854 12.7663 15.2753 12.1985 15.3013C11.6296 15.3272 11.4484 15.3335 9.99985 15.3335C8.55151 15.3335 8.36984 15.3272 7.80094 15.3013C7.23327 15.2753 6.8456 15.1854 6.50626 15.0535C6.1557 14.9173 5.85814 14.7346 5.56181 14.438C5.26525 14.1415 5.08302 13.8439 4.94669 13.4932C4.81491 13.1541 4.72502 12.7665 4.69891 12.1987C4.67313 11.6298 4.66669 11.4486 4.66669 10.0001C4.66669 8.55168 4.67335 8.36978 4.6988 7.80089C4.72435 7.23334 4.81436 6.84566 4.94658 6.50644C5.08325 6.15576 5.26547 5.8582 5.56214 5.56175C5.85859 5.2652 6.15615 5.08298 6.50693 4.94675C6.84604 4.81487 7.2336 4.72498 7.80139 4.69897Z" fill="black"/>
<path fill-rule="evenodd" clip-rule="evenodd" d="M9.82268 5.62775L10.0004 5.62779C11.4245 5.62779 11.5932 5.6329 12.1556 5.65846C12.6756 5.68224 12.9578 5.76913 13.1458 5.84213C13.3947 5.9388 13.5721 6.05435 13.7587 6.24103C13.9454 6.42769 14.0609 6.60547 14.1578 6.85437C14.2308 7.04214 14.3178 7.32437 14.3415 7.84438C14.367 8.4066 14.3726 8.5755 14.3726 9.99884C14.3726 11.4222 14.367 11.5911 14.3415 12.1533C14.3177 12.6733 14.2308 12.9555 14.1578 13.1433C14.0611 13.3922 13.9454 13.5694 13.7587 13.756C13.572 13.9427 13.3948 14.0582 13.1458 14.1549C12.958 14.2282 12.6756 14.3149 12.1556 14.3387C11.5933 14.3642 11.4245 14.3698 10.0004 14.3698C8.57632 14.3698 8.40754 14.3642 7.84531 14.3387C7.3253 14.3147 7.04308 14.2278 6.85496 14.1548C6.60607 14.0581 6.42829 13.9426 6.24162 13.7559C6.05496 13.5692 5.9394 13.3919 5.84251 13.1429C5.76951 12.9551 5.68251 12.6729 5.65884 12.1529C5.63328 11.5906 5.62817 11.4218 5.62817 9.99751C5.62817 8.57327 5.63328 8.40527 5.65884 7.84305C5.68262 7.32304 5.76951 7.04082 5.84251 6.85281C5.93918 6.60391 6.05496 6.42615 6.24162 6.23947C6.42829 6.0528 6.60607 5.93724 6.85496 5.84036C7.04297 5.76703 7.3253 5.68036 7.84531 5.65646C8.33731 5.63425 8.52798 5.62758 9.52199 5.62646V5.62779C9.61489 5.62766 9.71483 5.6277 9.82268 5.62775ZM12.8473 6.51341C12.494 6.51341 12.2073 6.79974 12.2073 7.15318C12.2073 7.50653 12.494 7.7932 12.8473 7.7932C13.2007 7.7932 13.4873 7.50653 13.4873 7.15318C13.4873 6.79985 13.2007 6.51318 12.8473 6.51318V6.51341ZM7.26154 10.0002C7.26154 8.48758 8.48788 7.26123 10.0005 7.26123C11.5129 7.26123 12.7389 8.48758 12.7389 10.0002C12.7389 11.5127 11.513 12.7385 10.0005 12.7385C8.48788 12.7385 7.26154 11.5127 7.26154 10.0002Z" fill="black"/>
<path d="M10.0005 8.22217C10.9822 8.22217 11.7782 9.01807 11.7782 9.99996C11.7782 10.9818 10.9822 11.7778 10.0005 11.7778C9.01855 11.7778 8.22266 10.9818 8.22266 9.99996C8.22266 9.01807 9.01855 8.22217 10.0005 8.22217Z" fill="black"/>
</svg>
