<svg width="120" height="22" viewBox="0 0 120 22" fill="none" xmlns="http://www.w3.org/2000/svg">
<path d="M20.8135 21.7131H19.3421C15.6584 21.5504 14.7044 20.9574 13.4664 19.2261C12.2283 17.4948 11.0207 15.4861 9.88414 13.487C9.08245 12.1096 8.61565 11.7844 7.24567 11.7844H6.40338V17.6383C6.40338 20.2783 6.63678 20.5652 9.24482 21.0339V21.5026H0V21.0339C2.58774 20.5557 2.83129 20.3452 2.83129 17.6383V4.24697C2.83129 1.60698 2.60803 1.28177 0 0.899159V0.420898H8.86935C11.518 0.420898 13.2837 0.736556 14.6334 1.64525C15.2863 2.08143 15.8137 2.66394 16.168 3.34025C16.5223 4.01656 16.6925 4.76538 16.663 5.51915C16.663 8.57045 14.2782 10.1583 12.2892 10.9618C12.8575 11.9183 14.5827 14.7113 15.5772 16.1748C16.3524 17.419 17.2276 18.6054 18.1954 19.7235C18.8705 20.5131 19.8255 21.0464 20.8846 21.2252L20.8135 21.7131ZM7.62115 11.0861C9.29557 11.0861 10.4118 10.9809 11.2846 10.2635C12.3907 9.40263 12.8169 8.20698 12.8169 6.3035C12.8169 2.63046 10.7873 1.19568 8.50402 1.19568C7.93236 1.13739 7.35454 1.22321 6.8296 1.44438C6.56576 1.61655 6.44397 1.86524 6.44397 2.64959V11.0861H7.62115Z" fill="#202124"/>
<path d="M38.2682 16.6435C38.0957 17.7531 37.4766 20.7087 37.2534 21.5504H20.8745V21.0817C23.8479 20.6896 24.0813 20.5078 24.0813 17.7052V4.40002C24.0813 1.53046 23.9291 1.29133 21.4124 0.956548V0.478287H31.5603C34.7773 0.478287 36.0153 0.47829 36.4212 0.420898C36.4212 1.61655 36.5735 3.77828 36.7257 5.01219L36.198 5.09828C35.918 4.12054 35.4688 3.19303 34.8686 2.35307C34.2394 1.56872 33.6001 1.39655 31.5806 1.39655H28.5971C27.8056 1.39655 27.694 1.5209 27.694 2.25742V9.90959H31.3472C33.9248 9.90959 34.0973 9.29741 34.554 7.24089H35.0817V13.5252H34.5642C34.0466 11.4974 33.8944 10.8565 31.3777 10.8565H27.7041V18.0209C27.7041 20.2496 28.3536 20.5461 30.4136 20.5652H32.9202C34.8179 20.5652 35.2948 20.2974 36.1472 19.3026C36.8159 18.4389 37.3554 17.4926 37.7506 16.4904L38.2682 16.6435Z" fill="#202124"/>
<path d="M60.6442 16.4426C60.1974 18.073 59.6276 19.6712 58.9394 21.2252C57.0432 21.6589 55.1051 21.9089 53.155 21.9713C44.4176 21.9713 40.5918 16.72 40.5918 11.0574C40.5918 4.52435 45.6658 0 53.6218 0C55.6463 0.0711556 57.6618 0.291834 59.6497 0.660002C59.7512 2.25739 59.9542 4.16086 60.147 5.4426L59.5483 5.56695C58.8886 3.37652 58.1478 2.08522 56.2299 1.30087C55.1106 0.882937 53.9117 0.687549 52.7085 0.726958C47.2286 0.726958 44.7931 5.15565 44.7931 10.4165C44.7931 16.7296 47.9998 21.1487 53.4392 21.1487C56.8692 21.1487 58.6045 19.2356 60.0962 16.1843L60.6442 16.4426Z" fill="#202124"/>
<path d="M80.1387 16.6435C79.9662 17.7531 79.3573 20.7087 79.1239 21.5504H62.7856V21.0817C65.759 20.6896 65.9823 20.5078 65.9823 17.7052V4.40002C65.9823 1.53046 65.8402 1.29133 63.3133 0.956548V0.478287H73.4613C76.6783 0.478287 77.9062 0.47829 78.3121 0.420898C78.3121 1.61655 78.4744 3.77828 78.6165 5.01219L78.099 5.09828C77.8196 4.11866 77.3667 3.19054 76.7594 2.35307C76.1303 1.56872 75.5011 1.39655 73.4715 1.39655H70.488C69.6964 1.39655 69.5848 1.5209 69.5848 2.25742V9.90959H73.2381C75.8157 9.90959 75.9983 9.29741 76.455 7.24089H76.9624V13.5252H76.455C75.9374 11.4974 75.7852 10.8565 73.2584 10.8565H69.5848V18.0209C69.5848 20.2496 70.2444 20.5461 72.2943 20.5652H74.8009C76.6985 20.5652 77.1755 20.2974 78.0381 19.3026C78.703 18.4383 79.2391 17.4921 79.6313 16.4904L80.1387 16.6435Z" fill="#202124"/>
<path d="M104.91 0.95654C102.586 1.4348 102.18 1.79828 102.109 3.99828C102.109 4.9548 102.008 5.67219 102.008 8.84784V21.933H101.257L85.8217 4.31393V12.9226C85.8217 15.9644 85.8217 16.9209 85.9333 17.9826C86.0449 20.0678 86.3697 20.5939 89.3836 21.0148V21.4835H81.5088V21.0148C84.0762 20.5844 84.4415 20.173 84.5532 18.0304C84.6141 16.9783 84.7054 15.7348 84.7054 12.9226V4.05567C84.7273 3.48509 84.5411 2.92466 84.1777 2.46784C83.8268 2.01089 83.3705 1.63491 82.8432 1.36817C82.3159 1.10142 81.7313 0.950877 81.1333 0.927845V0.449585H87.08L100.912 15.907V8.81915C100.912 5.6435 100.831 4.93567 100.79 3.96958C100.668 1.76958 99.9984 1.27219 97.0656 0.927845V0.449585H104.9L104.91 0.95654Z" fill="#202124"/>
<path d="M118.579 4.98346C117.889 2.44868 116.458 0.755644 113.647 0.755644C111.405 0.755644 110.238 2.24781 110.238 4.26607C110.238 6.45651 111.536 7.44172 114.398 9.04868C117.26 10.6556 120 12.3391 120 15.7443C120 19.36 116.783 22 112.409 22C110.685 21.9474 108.977 21.6673 107.335 21.1678C107.122 20.46 106.615 16.9782 106.564 16.433L107.092 16.3278C107.782 18.853 109.639 21.273 112.927 21.273C115.494 21.273 116.59 19.5321 116.59 17.3608C116.59 15.1895 115.139 13.7452 112.724 12.3487C109.811 10.6748 107.193 9.05825 107.193 5.76782C107.193 2.47739 109.933 0.0286865 114.297 0.0286865C115.735 0.0704024 117.168 0.22397 118.579 0.48782C118.721 1.65477 118.914 3.35739 119.147 4.88782L118.579 4.98346Z" fill="#202124"/>
</svg>
