<svg xmlns="http://www.w3.org/2000/svg" viewBox="0 0 247.69 47.95"><defs><style>.cls-1{fill:#1b1c20;}</style></defs><g id="Слой_2" data-name="Слой 2"><g id="Слой_1-2" data-name="Слой 1"><path class="cls-1" d="M106.89,3.61V3.18H106v.36A8.25,8.25,0,0,1,106.89,3.61Z"/><path class="cls-1" d="M116.28,4.83a.57.57,0,0,0,0-.14c2.3,1.46,3.36,3.66,4.31,7l1-.22c-.06-.44-.11-.93-.17-1.43-1-3.09-2.38-5-5.24-6.27a12.55,12.55,0,0,0-3.63-.92l-.88-.07c-.49,0-1,0-1.52,0A14.49,14.49,0,0,0,107.6,3c.42,0,.86-.06,1.31-.06a21,21,0,0,1,2.82.17c.3,0,.59.1.88.16A11.39,11.39,0,0,1,115,4l.53.25-.06.51Z"/><path class="cls-1" d="M79,43c.29-2.53.59-5.47.8-6.92a1.27,1.27,0,0,0-1.41.73,22.19,22.19,0,0,1-2.88,5.2c-1.76,2.17-2.75,2.76-6.64,2.76H63.68c-4.21,0-5.58-.7-5.58-5.55V23.64h7.56c5.18,0,5.54.69,6.6,5.12l1,.71V15.75H71.45c-.94,4.49-.53,5.82-5.84,5.82H60.06a2,2,0,0,1-2-1.95V4.89C58.1,3.28,58.34,3,60,3H66.1c4.16,0,5.46.32,6.76,2a20.46,20.46,0,0,1,2.74,6l1.07-.2c-.3-2.68-.58-7.39-.63-10-.84.09-3.36.13-10,.13H45.19v.3a.84.84,0,0,0,.71.84,16.27,16.27,0,0,1,1.75.35v-.4h.7v.79h-.08c.07,3.43.58,23.22.8,31.72h.1V3.27a2.11,2.11,0,0,1,.53,1V3.72h0v.63h0c.05.2.08.41.12.65h.39v.19h-.38c0,.55.06,1.21.06,2s0,1.43,0,2.31V38.44c0,6.1.3,6.51-5.81,7.36v.52a9.18,9.18,0,0,1-5.48-3.27,59.79,59.79,0,0,1-5.4-7.74c-2-3.18-5.59-9.27-6.75-11.35,4.1-1.75,9-5.22,9-11.88a9.9,9.9,0,0,0-4.26-8.44C28.42,1.67,24.8,1,19.36,1H1.22L.07.89,0,1.75A1.12,1.12,0,0,0,.83,2.91C4,3.67,4.68,4,4.66,6.19a19.58,19.58,0,0,0,.12-2.43c0-.07,0-.13,0-.2V3.37h.41v.39h0c1.08.66,1,1.9,1,5h.36v.91H6.18V38.4c0,2.58.05,3.82-.34,4.5,0-.74,0-1.72,0-3.11V10.71c0-4.61-.31-4.05-.58-4.6a22.72,22.72,0,0,1,.16,4.5L4.55,38.43c0,5.28.13,5-2.15,5.6l-.14,0a1.38,1.38,0,0,0-1.13,1.34v1.44h.39v0h1.3v0H20.13V45.57A1.57,1.57,0,0,0,18.81,44c-4.13-.67-4.52-.39-4.52-5.63V25l1.73.7c2.82,0,3.78.69,5.43,3.7,2.33,4.33,4.94,8.87,7.36,12.48a13.32,13.32,0,0,0,2.51,2.94c-3-1.9-7.37-9.24-7.37-9.24s3.63,7.72,6.11,10.34,9.4,1.62,9.4,1.62l-.39-.36,1.82.11c.72,0,2.6,0,3,0l.19-.79v.84L78.36,47v0l1.16-.07.5-8.66ZM49.61,3.22h-.47V2.43h.47ZM4.12,2.43h-.7V2.22h.7Zm1,.52H4.62V2.47h.46Zm.63,40.58H5.55v-.1h.16ZM8.54,12.42v.14H8.47v-.14Zm0-5.95H8.2V5.73h.32ZM8.37,9.54v.2H8.2v-.2ZM8.25,8.46V8.17h.16v.29Zm0,2.4h.19v.36H8.27ZM8.2,3.22h.26v.12H8.2Zm-.06.91h.27v.7H8.14Zm0,13h.18v.22H8.14ZM8.07,7v.55H8V7ZM8,5.16H7.84v-.4H8Zm-.66-.4V4.51h.19v.25ZM7.45,6v.61H7.31V6Zm0-.62h.34V6H7.5Zm.19,1h.2v.22h-.2Zm.25-2H7.37V3.74h.57Zm-1.2-.34H7.1v.11H6.74Zm.13-.59v-.3h.07v.3Zm-1.36-1h.41v0H5.51Zm.5.68H5.78V2.79H6Zm.1.91V3.85h.24v.21Zm.4.84H6.32V4.69h.19ZM6.26,3.27V2.79h.28v.48Zm0,39.18h.38v.62H6.28ZM6.87,44H6.38v-.32h.49Zm0-35.78H6.54V7.4H6.9Zm0-3h.17V5.5H6.9Zm.2,1H7V6.05H7.1Zm0-1.57H7V4.44h.14Zm0-2.12H6.78V2.27h.34Zm.09.36h.63v.58H7.21Zm.18,5.23H7.28v-.4h.11ZM7.39,7h.15v.4H7.39Zm.16,14.15h0v-1h0ZM7.67,8H7.8v3.65h.25v.26H7.8v1.38H7.67ZM8,12.8v.13H7.94V12.8Zm0,1.14H7.73V13.6H8Zm.64,5.87H8.05v-.72h.63Zm.55-5.47H9.06v-.52h.17Zm.53,2.6H9.45v-.45h.31Zm22.56-3.05h-.2V13.5h.2Zm0-1.2h-.06v-.41h.06Zm.57-.77h-1v-.36h1Zm-1.25-1.81H32v.68h-.39Zm-.06,2.15h.18v.16h-.18Zm-.2,2h-.07V14h.07ZM31,8.65h.36v.79H31Zm-.37,9.22H30.2v-.23h.38ZM30,6.43h.47v1H30ZM28.62,5.14h.07v.14h-.07ZM24.24,22.32c-1.79,1.54-4.09,1.77-7.53,1.77H14.29V5.7c0-1.7.25-2.25.8-2.63s1.56-.54,3.44-.54c4.71,0,8.85,3.13,8.85,11.14C27.38,17.81,26.5,20.44,24.24,22.32ZM50.16,3V2.43H51.5V3ZM51,5.21h.41v.15H51Zm-.48-.31V4.44h.66V4.9Zm-.15-1.56h.56V3.7h-.56ZM50.83,7h-.15V6.29h.15Zm0-1.42h-.38V5.48h.38Zm.46,4.54h-.41V9.23h.41Zm.11-4h-.18V5.93h.18Zm.13-1.9H51.4V3.63h.13Zm.17,9.27h-.1V12.9h.1Zm0-10.13h-.19V3.31h.19Zm.16,4.46h-.05V7.6h.05Zm.18,6.94h-.14v-.21h.14Zm.11-10.16h-.29V4.35h.29Zm.2-1.32H52V3.1h.38ZM53,2.7h-.36V2.47H53Zm1-.05H53.8V2.59H54ZM55.34,22.5h-.23v-.2h.23Zm.77.54h-.28v-.15h.28Z"/><path class="cls-1" d="M226,1.6a12.28,12.28,0,0,1,2.46-1S227.56.35,226,1.6Z"/><path class="cls-1" d="M236.17,19.62c-1.28-.76-2.41-1.45-3.39-2.13v.36h-.62v-.67h.17c-3.2-2.28-4.69-4.38-4.69-8,0-4.39,2.4-7.65,7-7.65,5.48,0,8.4,3.33,9.89,8.4l-.67.21a13.15,13.15,0,0,0-1.45-3.56c-1.23-2.24-3.94-4-2.11-2.37S243.25,11,243.25,11l1.52-.2.14,0a1,1,0,0,0,.82-1.14c-.43-3.08-.78-6.32-1-8.65a56.69,56.69,0,0,0-8.82-1C227,0,221.39,5.46,221.39,12.5s5.36,10.7,11.34,14.35c5,3,8,6.14,8,10.92a10.26,10.26,0,0,1-1.32,5.37c.62-1.59,2.78-8.06-1.92-11.85-.42-.33-.72-.59-.95-.79,1.42,1.63,4.95,7,1.29,14.41a7.39,7.39,0,0,1-4.62,1.4c-6.15,0-8.59-4.37-10-9.29a1.91,1.91,0,0,0-2-1.36l-1.06.08c.09,1.21,1.15,8.79,1.57,10.33a38.38,38.38,0,0,0,10.43,1.81c9,0,15.6-5.76,15.6-13.62C247.69,26.78,242,23.07,236.17,19.62ZM244.8,4.7H245v.19h-.17Zm-.46-.39h-.27V3.79h.27Zm-.44-2.52h.47V2.3h-.47Zm-.51.59h.28v.23h-.28Zm-.49-1h.18v.2h-.18Zm-.24,1h.24v.14h-.24ZM242,1.68h.23V2H242ZM228.57,16.15h-.36v-.53h.36Zm1.11.9h-.21v-.13h.21Zm2,2.49h-.3v-.46h.3Zm.87.54v-.24H233v.24Zm.82,2.06h-.68V21h.68Zm2.28-.07h-.45v-.52h.45Zm.18-2h-.25v-.23h.25ZM239.46,24h.19v.38h-.19Zm-2.91-1.88h.2v.16h-.2Zm.58,1.4h-.8v-.58h.8Zm.3-1V22.3h.2v.18Zm.57.94h-.39V23H238Zm.81.75h-.38v-.38h.38ZM240,25.51h-.9v-.59h.9ZM221.45,39.68h-.11v-.32h.11Zm.54,1.83h-.16v-.46H222Zm.43.67h-.23V42h.23Zm0,.91h.47v.39h-.47Zm.7,2.15h-.41v-.47h.41Zm0-1H223V44h.2Zm.68,0h.27v.19h-.27Zm.63,1.27H224v-.34h.54Zm1.43.36h-.5v-.21h.5Zm12.68-1h-.32v-.07h.32Zm3.82-17.16h.22v.32h-.22Zm-.28,10.69h.23v.89h-.23Zm-.51.87H242v.31h-.34Zm.36.9v.61h-.16V40.2Zm-.7-1.71h.23v.34h-.23Zm-.3,2.9h.38v.26H241Zm.45.64v.2h-.31V42Zm-2,1.22h.25v.23h-.25Zm.33,1.06h-.36v-.23h.36Zm.26-1.65h.77v.72h-.77Zm1.22,1.52h-.52V44h.52Zm.38-1.11h-.38v-.16h.38Zm.34-.79h-.21v-.43H242Zm.34,1.22h-.21v-.16h.21Zm.34-.93h-.27v-.11h.27Zm.09-.65h-.41v-.25h.41Zm.22-5.14h-.2v-.15h.2Zm.39-9.17h.36v.93h-.36Zm.16,1.92h.18v.09h-.18Zm.29,6.18h-.27v-.33h.27Zm.52,4.29v-.29h.34V40Z"/><path class="cls-1" d="M222,7.36a16.85,16.85,0,0,1,4-5.76,9.59,9.59,0,0,0-5.13,5.62c-1.56,5.15-.61,9.49,2,13S218.26,15,222,7.36Z"/><polygon class="cls-1" points="177.73 6.29 177.38 6.29 177.7 6.7 177.7 6.42 178.15 6.42 178.15 5.96 177.73 5.96 177.73 6.29"/><path class="cls-1" d="M200.58,1.25h-1.17v.58a.7.7,0,0,0,.6.68c4,.6,5.74,1.46,6.51,3.81a8.9,8.9,0,0,0-.7-3h-.6V3h.6V3.3c1.71.93,2.27,2.47,2.42,5.34.09,2.12-.05,3.78-.05,10.7L207.58,30a.7.7,0,0,1-1.21.44l-7.77-8.3,9.89,11.52v.59h.35V35h-.66V34.3l-.7-.83v.18h-.34v-.6L180.06,1h-12.2v.36h-1.32v.35a.81.81,0,0,0,.67.8c2.59.48,4,1.11,5.76,3.44A.14.14,0,0,1,173,6l1.47,15.89L174.35,7,172.91,4.5a4.77,4.77,0,0,0-.54-.9s0,0,0,0a8.35,8.35,0,0,1,1.81,1.81,5.48,5.48,0,0,1,1.07,3.47V28.15c0,6.15-.18,8.85-.3,11.15a13.75,13.75,0,0,1-.24,2.22l-.08-9.19s-.42,8.39-.52,10.51c-.66.72-1.85.85-4,1.19a1.62,1.62,0,0,0-1.38,1.61v1.19h16.17V45.32a1.22,1.22,0,0,0-1.06-1.21c-5.2-.73-5.82-.66-6-4.92-.12-2.31-.21-4.41-.21-11L178,12.68a1,1,0,0,1,1.85-.63l29.3,35.69h.76a1.51,1.51,0,0,0,1.51-1.54l-.73-27c0-6.91.15-8.5.22-10.56.13-4.52.87-5.49,4.94-6.45a1.07,1.07,0,0,0,.81-1V1H200.58Zm-17.3,11.46h.24v.21h-.24Zm-2.49-4.49h.26v.36h-.26Zm0,1.1v.46h-.45V9.32h0V9.09h.3v.23ZM180,6.9h.36v.29H180Zm-.19,1.52v-.3h.37v.3h-.1v.32h-.24V8.42Zm-.07-1.24h.12v.24h-.12Zm-.8.49V7.35h.35v.32h-.09v.14h-.11V7.67Zm-.52-2.31h.22v.16h-.22ZM178,4.55h.21v.21H178Zm-.49.14h.23v.22h-.23Zm-.23-.55h.09v.14h-.09Zm-.63-1.07H177v.41h-.31Zm-.25.47h.21V3.7h-.21Zm-2.25-.24h-.63V2.72h.63ZM174.8,3H175V3.2h-.18Zm.65,2.54h-.61V5.21h.61Zm.31-1.45h-.25V3.76h.06v-.2H176V4h-.24Zm.44,1.65h-.34V5.55h.34Zm0-1.09h-.32V4.4h.32Zm.17-.53h.3V4h.41v.66h-.41V4.38h-.3Zm.19,1.1h.38v.27h-.38Zm.14.88h.43v.38h-.43ZM177,41h.29v.79H177Zm.32,1.18v.14h-.23v-.14Zm-.3.68h.27v.27H177Zm.22,1.37h-.14v-.11h.14Zm.18-.44h-.18v-.24h.18Zm1.36.75h-.3v-.19h.3Zm-.4-.39,4.69.29v.14l-4.69-.27Zm-.34-.68h.27v.28H178Zm-.36-.24h.11v.34h-.11Zm.41.85v.59h-.6v-.59Zm4-30.81-4.81-6V6.1l0,0V5.69h.27V5.32h-.45V4.83h.45v.49h.62V6h1v.7h-.68v.67h-.28l.42.54V7.28h.33v.9h-.1l.27.35h0V8.1h.35v.72h.25v.45h0l.29.38h.14v.19l1.34,1.74v-.23h.32v.56h-.07l.36.47v-.54h.36v1l.75,1v-.06h.56v.54h-.18l14.7,19.13Zm24.21,19.86h-.61v-.59h.61Zm.41,1.72h-.25v-.13h.25Zm1.08,1.31h-.27v-.27h.27Zm.12-.91h-.52v-.69h.52Zm.49,2.16h-.25v-.77h.25Zm.34-1.54h-.34v-.18h.34Zm-2-33h.46V3.1h-.46Zm-.53-.36h.1v0h-.1Zm-.93-.16h.34v.29h-.34Zm-2.36-.48h.53v.43h-.53Z"/><rect class="cls-1" x="84.18" y="28.54" width="0.17" height="0.24"/><path class="cls-1" d="M124.79,35.66l-2-.23a.77.77,0,0,0-.77.44c-2.89,6.28-4.28,8.77-11.13,8.77-8.41,0-14.23-4.6-16.59-12.74H94v-.32h.28c-.1-.37-.2-.74-.28-1.12h-.92V29.11h.64a35.85,35.85,0,0,1-.53-6.33c0-11.47,5-21.11,16.25-21.11a18,18,0,0,1,7.24,1.24c3.83,1.66,5.37,4.37,6.7,8.88a.47.47,0,0,0,.55.33l.48-.1a.35.35,0,0,0,.28-.38c-.37-2.88-.77-6.86-1-10.2C121.8,1.25,117,0,111.31,0,95,0,84.53,9.85,84.53,24.09a27.29,27.29,0,0,0,.43,4.8l-.43.06.16,1.14.49-.06c1.82,8.16,7.6,15.06,18.08,17.18-10.62-1.66-16.63-6.8-18.38-16.68h-.29c0,9.87,7,17.29,22.85,17.42v-.17c.93.07,1.9.11,2.9.11a57.64,57.64,0,0,0,11.89-1.63,71.29,71.29,0,0,0,3.27-9.57A.83.83,0,0,0,124.79,35.66ZM122,5.6h-.5V5.4h.5Zm-1-1.16h.69v.49H121Zm0-.48h-.69V3.47h.69ZM119.66,2.4h.68v.49h-.68Zm-.24,1.05h.69v.48h-.69Zm-1.1-.79h.5v.21h-.5ZM93.09,31.26v.88h-.72v-.88Zm.2-2.44h-.62V28.2h.62Zm-.06-3V27h-.69V25.86ZM97.06,5h.69v.49h-.69Zm-4,4.43h.79v.72h-.79ZM92.6,23.63h-1V22.58h1Zm-.83-7.73h-.11v-.79h.11Zm.39,5v1h-.41v-1Zm-.4-7h-.3v-.34h.3Zm-.08,12.41H92v.49h-.32Zm-.23-.82v-.92h.49v.92Zm.38-13.73h.51v1.06h-.51Zm-.44-1.66h.38V11.4h-.38Zm-.07,2.72h.27v.27h-.27Zm-.68,8v.63H90v-.63Zm-.54-1.43v-.27h.31v.27Zm.23,6h1v1.41h-1Zm0-.36V23.69h1V25Zm.49-2.23V22h.36v.79Zm.42-2.27h-.45v-.69h.45Zm-.13-2.69h.07V18h-.07ZM91.08,17h-.17v-.38h.17Zm-.14-3v1h-.13V14Zm-.5-1.63h.5V13.5h-.5Zm-.5,2.71h.4v.27h-.4Zm.5.72V16H90v-.2Zm-.5,1.48h.59v1.22h-.59Zm-.76,9.19v-.37h.51v.37Zm.31,3.4h.2v.23h-.2ZM89,19.94v.48h-.32v-.48Zm-.26-.5v-.13h.14v.13Zm.17-.33h-.48v-.88H89Zm-.34,1.75v.31h-.1v-.31Zm-.12,1.05h.66v1h-.66Zm.57-.68V20.8h.39v.43Zm0,2.14h.1v.34H89Zm.22,3.7v.7h-.79v-.7Zm.3-3.6V22.23h.4v1.24Zm0-3.29v-.27h.21v.27Zm.18-6h.2v.41h-.2Zm-.47,4.49h.39v.56h-.39ZM88.72,15H89v.77h-.32Zm-.55,1.72h1v.95h-1Zm-.94,6.87H88v.46h-.77Zm.7,6.4h-.14v-.18h.14Zm0-1.83h-.36V27H88ZM88,26.48h-.41V25.6H88Zm0-3.75h-.54V22h.54Zm.19-1.43h-.73V19.9h.73Zm.15,3H89v1.18H88.4Zm.5,5h-.48v-.82h.48ZM90.08,32H89V30.77h1.06ZM90.94,33h-.6v-.81h.6Zm-.53-1.86v-.74h.4v.74Zm.69-2-1.44-.14.1-1,1.44.14Zm.15-2h.36v.49h-.36Zm.21,4.36h.13v.31h-.13Zm.15,2.85h-.34v-.57h.34Zm0-1.83h-.17v-.14h.17Zm.44-2.23h-.62V29.5h.62Zm.1-2.92h.44V28H92.2Zm.07,5.21h.4v.73h-.4Zm.87,1.85h-.69v-.63h.69Zm0,1h.68v.62h-.68Zm.73,2.68h-.2v-.06h.2ZM95.72,38H95V37.4h.69Zm.55,2.46h-.48v-.27h.48Zm1.22.41h-.14v-.24h.14Zm.51.92h-.31v-.14H98Z"/><path class="cls-1" d="M161.3,11.05A21.4,21.4,0,0,0,159,6.15,23.34,23.34,0,0,1,161,11.1Z"/><path class="cls-1" d="M165,36.14a1.93,1.93,0,0,0-1.87,1.61A9.61,9.61,0,0,1,161.51,42c-1.76,2.17-2.75,2-6.64,2h-5.15c-4.22,0-5.57.07-5.57-4.79V25.08a1.36,1.36,0,0,1,1.44-1.36l6,.32c4.88,0,5.62,1.86,6.5,4.85a.79.79,0,0,0,.76.57h.47V15.75h-.42a.79.79,0,0,0-.77.62c-.85,4-1.42,5.2-6.46,5.2h-7.51V4.89c0-1.61.23-1.87,1.86-1.87h6.12c4.17,0,5.47.32,6.77,2a20,20,0,0,1,2.73,6l.49-.09a.63.63,0,0,0,.53-.69c-.28-2.75-.52-7-.57-9.41-.84.1-3.36.14-10,.14H131.22v.55a.56.56,0,0,0,.49.55c4.66.71,4.23,1.39,4.23,7.43V36.39h.24v.31h-.24v1.38l-.53-27.41c0-2.71,0-4.34-.34-5.37.11,1.52,0,2,0,4.24l-.36,28.92c-.07,5.66-1.15,5-5,6.47a1.47,1.47,0,0,0-1,1.38v.46l1.33,0v0H163.7c.48-1.84,1.75-8.28,2.1-10.7Zm-7-10.35h.12v.12h-.12Zm-.64-.81h-.11v-.17h.11Zm-.17-1.09h.13v.26h-.13Zm-.57.4H157v.18h-.28Zm-1.18-.73H156v.33h-.48Zm5.57-17.34h.26v.29h-.26Zm-.63-1.86h.06V4.7h-.06Zm-.57-.92h.18v.21h-.18Zm-.6-.49h.27v.36h-.27ZM158,2.46h.14v.09H158Zm-23.61.08h-.22V2.35h.22Zm.33,41.78h-.51v-.13h.51ZM137,2.41h.43v.38H137Zm-.79.41h.35v.31h-.35Zm.59,2.94h-.28V5.51h.28Zm.11,34.43v.47h-.31v-.47Zm-.31,1.19v0h-.1v0Zm-.85-38.67h-.49V2.27h.49Zm-.19-.81V1.38h.58V1.9ZM136,35.71V35h.34v.67Zm.1,2.95h.38v.61h-.38Zm-.13,1.5h.27v.1h-.27Zm.17.81v.17h0V41Zm-.38,3.18h-.4v-.87h.4Zm.45-1.83h-.38v-.17h.38Zm0,.34h.17v.14h-.17Zm.24,1.25-.22-.21.29-.29.21.22Zm.48-1.17-.25-.17.27-.39.25.17Zm.36-22.7-.1-12.26H137V7.53h.16l0-3,.16-.32h-.55V3.72h.58v.45l.13-.25Z"/></g></g></svg>