<svg width="120" height="22" viewBox="0 0 120 22" fill="none" xmlns="http://www.w3.org/2000/svg">
    <g clip-path="url(#clip0_83_991)">
        <path d="M51.7857 1.65627V1.45898H51.3545V1.62416C51.4987 1.62748 51.6427 1.63821 51.7857 1.65627V1.65627Z" fill="#1B1C20"/>
        <path d="M56.3349 2.21609C56.3377 2.19476 56.3377 2.17319 56.3349 2.15186C57.4492 2.82173 57.9627 3.83111 58.423 5.36354L58.9075 5.2626C58.8784 5.06073 58.8542 4.83591 58.8251 4.6065C58.3406 3.18877 57.6721 2.31245 56.2864 1.72975C55.7258 1.50655 55.133 1.36427 54.5278 1.30765L54.1015 1.27553C53.8641 1.27553 53.617 1.27553 53.3651 1.27553C52.9509 1.2746 52.5375 1.30838 52.1296 1.37647C52.3331 1.37647 52.5463 1.34894 52.7643 1.34894C53.221 1.34587 53.6775 1.37193 54.1305 1.42694C54.2759 1.42694 54.4164 1.47282 54.5569 1.50035C54.9546 1.57144 55.3429 1.68376 55.7148 1.83528L55.9715 1.94998L55.9425 2.18398L56.3349 2.21609Z" fill="#1B1C20"/>
        <path d="M38.2735 19.7289C38.414 18.5681 38.5593 17.2192 38.6611 16.5539C38.5239 16.5279 38.3816 16.5469 38.2574 16.6078C38.1332 16.6687 38.0347 16.7678 37.9779 16.8889C37.6279 17.7398 37.1586 18.5423 36.5826 19.2747C35.73 20.2703 35.2503 20.541 33.3657 20.541H30.8513C28.8116 20.541 28.1479 20.2198 28.1479 17.9946V10.8463H31.8106C34.3201 10.8463 34.4946 11.1629 35.0081 13.1954L35.4926 13.5212V7.22629H34.6157C34.1603 9.28635 34.3589 9.89657 31.7863 9.89657H29.0975C28.8446 9.89665 28.6018 9.80313 28.4208 9.63597C28.2397 9.46881 28.1349 9.24126 28.1285 9.00189V2.2436C28.1479 1.50492 28.2642 1.37645 29.0684 1.37645H32.0237C34.0391 1.37645 34.669 1.52327 35.2988 2.29407C35.8956 3.13766 36.3439 4.06736 36.6263 5.04694L37.1446 4.95518C36.9993 3.72556 36.8636 1.56456 36.8394 0.367065C36.4325 0.408358 35.2116 0.426711 31.9947 0.426711H21.8933V0.564354C21.8921 0.657028 21.9263 0.747 21.9894 0.817783C22.0526 0.888566 22.1406 0.935419 22.2373 0.949756C22.5228 0.988554 22.8058 1.04216 23.0851 1.11034V0.926815H23.4243V1.28928H23.3855C23.4194 2.863 23.6665 11.9429 23.7731 15.8428H23.8215V1.50033C23.9497 1.62827 24.0384 1.78691 24.0783 1.95914V1.70679V1.99585C24.1025 2.08761 24.1171 2.18396 24.1364 2.29407H24.3254V2.38125H24.1413C24.1413 2.63359 24.1704 2.93641 24.1704 3.29887C24.1704 3.66133 24.1704 3.95497 24.1704 4.35872V17.6367C24.1704 20.4355 24.3157 20.6236 21.3556 21.0136V21.2522C20.3096 21.0688 19.3677 20.5365 18.7006 19.7518C17.7311 18.6352 16.8563 17.4478 16.0845 16.2006C15.1155 14.7416 13.3762 11.9475 12.8142 10.9931C14.8006 10.1902 17.1745 8.59814 17.1745 5.54246C17.1988 4.7852 17.0227 4.03422 16.6622 3.35789C16.3018 2.68155 15.7684 2.10135 15.1107 1.67009C13.7687 0.766231 12.0149 0.458828 9.3793 0.458828H0.590897L0.033749 0.408358L-0.000164301 0.802936C-0.0088884 0.922079 0.0264804 1.04038 0.0998637 1.13751C0.173247 1.23463 0.280062 1.30452 0.401951 1.33516C1.93774 1.68385 2.26719 1.83526 2.2575 2.84006C2.30126 2.46992 2.32068 2.09757 2.31563 1.72515C2.31563 1.69303 2.31563 1.6655 2.31563 1.63338V1.54621H2.51427V1.72515C3.0375 2.02796 2.99874 2.59689 2.99874 4.0192H3.17316V4.43672H2.9939V17.6184C2.9939 18.8021 3.01812 19.371 2.82918 19.683C2.82918 19.3435 2.82918 18.8939 2.82918 18.2561V4.91388C2.82918 2.79876 2.67899 3.0557 2.54818 2.80335C2.64615 3.48744 2.67211 4.17905 2.6257 4.868L2.2042 17.6321C2.2042 20.0547 2.26719 19.9262 1.16258 20.2015H1.09475C0.942426 20.228 0.804564 20.3039 0.704714 20.416C0.604865 20.5281 0.549223 20.6696 0.547294 20.8163V21.477H0.73624H1.36606H9.75234V20.908C9.75467 20.7353 9.69137 20.5675 9.57398 20.4353C9.45659 20.3031 9.29293 20.2152 9.11284 20.1877C7.11195 19.8803 6.923 20.0088 6.923 17.6046V11.4703L7.76115 11.7915C9.12737 11.7915 9.59247 12.108 10.3919 13.4891C11.5207 15.4757 12.7852 17.5587 13.9576 19.215C14.2915 19.7183 14.7012 20.1727 15.1736 20.5639C13.7202 19.6922 11.603 16.3245 11.603 16.3245C11.603 16.3245 13.3617 19.8665 14.5632 21.0686C15.7647 22.2707 19.1173 21.8119 19.1173 21.8119L18.9283 21.6467L19.8101 21.6972C20.1589 21.6972 21.0697 21.6972 21.2635 21.6972L21.3556 21.3347V21.7201L37.9634 21.5641L38.5254 21.532L38.7676 17.5587L38.2735 19.7289ZM24.0347 1.47739H23.807V1.11493H24.0347V1.47739ZM1.99588 1.11493H1.65674V1.01858H1.99588V1.11493ZM2.48035 1.35351H2.23812V1.13328H2.46098L2.48035 1.35351ZM2.78558 19.9721H2.68868V19.9262H2.7662L2.78558 19.9721ZM4.13726 5.69845V5.76269H4.10335V5.69845H4.13726ZM4.13726 2.96852H3.97254V2.629H4.12757L4.13726 2.96852ZM4.0549 4.37708V4.46884H3.97254V4.37708H4.0549ZM3.99677 3.88156V3.7485H4.07428V3.88156H3.99677ZM3.99677 4.98271H4.08882V5.14788H4.00646L3.99677 4.98271ZM3.97254 1.47739H4.09851V1.53245H3.97254V1.47739ZM3.94347 1.89491H4.07428V2.21607H3.94347V1.89491ZM3.94347 7.85945H4.03068V7.96039H3.94347V7.85945ZM3.90956 3.21169V3.46404H3.87565V3.21169H3.90956ZM3.87565 2.36748H3.79813V2.18396H3.87565V2.36748ZM3.55589 2.18396V2.06926H3.64794V2.18396H3.55589ZM3.60918 2.75288V3.03276H3.54136V2.75288H3.60918ZM3.60918 2.46842H3.77391V2.75288H3.63341L3.60918 2.46842ZM3.70124 2.92723H3.79813V3.02817H3.70124V2.92723ZM3.82235 2.00961H3.57043V1.71597H3.84658L3.82235 2.00961ZM3.24098 1.85361H3.43962V1.90408H3.26521L3.24098 1.85361ZM3.30396 1.58292V1.44527H3.33788V1.58292H3.30396ZM2.64508 1.1241H2.84371H2.6693H2.64508ZM2.88732 1.4361H2.80011V1.2801H2.90669L2.88732 1.4361ZM2.93576 1.85361V1.76644H3.05204V1.86279L2.93576 1.85361ZM3.12955 2.23902H3.06173V2.15184H3.15378L3.12955 2.23902ZM3.03266 1.50033V1.2801H3.16831V1.50033H3.03266ZM3.03266 19.4766H3.21676V19.761H3.04235L3.03266 19.4766ZM3.32819 20.1877H3.0908V20.0409H3.32819V20.1877ZM3.32819 3.77144H3.16831V3.39522H3.34272L3.32819 3.77144ZM3.32819 2.39501H3.41055V2.52348H3.34272L3.32819 2.39501ZM3.42508 2.85382H3.39117V2.77582H3.43962L3.42508 2.85382ZM3.42508 2.13349H3.39117V2.03714H3.459L3.42508 2.13349ZM3.42508 1.16081H3.28459V1.04152H3.44931L3.42508 1.16081ZM3.46869 1.32598H3.77391V1.59209H3.49291L3.46869 1.32598ZM3.55589 3.72556H3.52682V3.54204H3.58012L3.55589 3.72556ZM3.58012 3.21169H3.65279V3.39522H3.58012V3.21169ZM3.65763 9.70387V9.24506V9.70387ZM3.71577 3.67051H3.77875V5.34517H3.89987V5.46446H3.77875V6.09762H3.71577V3.67051ZM3.87565 5.8728V5.93245H3.84658V5.8728H3.87565ZM3.87565 6.39584H3.74484V6.23985H3.87565V6.39584ZM4.18571 9.08907H3.89987V8.75872H4.20509L4.18571 9.08907ZM4.45217 6.57937H4.38919V6.34079H4.47155L4.45217 6.57937ZM4.70895 7.77228H4.57814V7.56581H4.72833L4.70895 7.77228ZM15.6387 6.3729H15.5418V6.19397H15.6387V6.3729ZM15.6387 5.82233H15.6097V5.63422H15.6387V5.82233ZM15.9149 5.46905H15.4304V5.30387H15.9149V5.46905ZM15.3093 4.6386H15.5031V4.95059H15.3141L15.3093 4.6386ZM15.2802 5.62504H15.3674V5.69845H15.2802V5.62504ZM15.1833 6.54266H15.1494V6.42337H15.1833V6.54266ZM15.0186 3.96873H15.193V4.33119H15.0186V3.96873ZM14.8393 8.19897H14.631V8.09345H14.8151L14.8393 8.19897ZM14.5341 2.95017H14.7618V3.40898H14.5341V2.95017ZM13.8655 2.35831H13.8995V2.42254H13.8655V2.35831ZM11.7435 10.2407C10.8763 10.9473 9.76203 11.0528 8.09544 11.0528H6.923V2.61524C6.923 1.83526 7.04412 1.58292 7.31058 1.40857C7.57705 1.23422 8.06637 1.16081 8.97718 1.16081C11.2591 1.16081 13.2648 2.59689 13.2648 6.27197C13.2648 8.17144 12.8385 9.37812 11.7435 10.2407ZM24.3012 1.37645V1.11493H24.9504V1.37645H24.3012ZM24.7081 2.39042H24.9068V2.45924H24.7081V2.39042ZM24.4756 2.24819V2.03714H24.7953V2.24819H24.4756ZM24.4029 1.53245H24.6742V1.69762H24.4029V1.53245ZM24.6258 3.21169H24.5531V2.88594H24.6258V3.21169ZM24.6258 2.56018H24.4417V2.5143H24.6258V2.56018ZM24.8486 4.64319H24.65V4.23484H24.8486V4.64319ZM24.9019 2.80794H24.8147V2.72077H24.9019V2.80794ZM24.9649 1.9362H24.9019V1.6655H24.9649V1.9362ZM25.0473 6.18938H24.9988V5.91868H25.0473V6.18938ZM25.0473 1.54162H24.9552V1.51868H25.0473V1.54162ZM25.1248 3.58792H25.1006V3.48698H25.1248V3.58792ZM25.212 6.77207H25.1442V6.67572H25.212V6.77207ZM25.2653 2.11055H25.1248V1.99585H25.2653V2.11055ZM25.3622 1.50492H25.1926V1.42233H25.3767L25.3622 1.50492ZM25.6771 1.23881H25.5027V1.13328H25.6771V1.23881ZM26.1616 1.21587H26.0647V1.18834H26.1616V1.21587ZM26.8108 10.3233H26.6993V10.2315H26.8108V10.3233ZM27.1838 10.571H27.0482V10.5022H27.1838V10.571Z" fill="#1B1C20"/>
        <path d="M109.492 0.734044C109.87 0.540758 110.27 0.386922 110.684 0.275233C110.684 0.275233 110.247 0.16053 109.492 0.734044Z" fill="#1B1C20"/>
        <path d="M114.419 9.00193C113.799 8.65324 113.251 8.33666 112.776 8.02466V8.18984H112.476V7.88243H112.558C111.008 6.83634 110.286 5.87284 110.286 4.21194C110.286 2.19776 111.449 0.702038 113.678 0.702038C116.332 0.702038 117.747 2.22988 118.469 4.55605L118.144 4.6524C117.996 4.0783 117.759 3.52796 117.442 3.01903C116.846 1.9913 115.533 1.18379 116.42 1.93165C117.306 2.67951 117.849 5.04698 117.849 5.04698L118.585 4.95522H118.653C118.779 4.93496 118.891 4.86872 118.965 4.77084C119.039 4.67296 119.07 4.5513 119.05 4.43217C118.842 3.01903 118.673 1.53249 118.566 0.463456C117.156 0.204986 115.728 0.051579 114.293 0.00464496C109.976 5.68522e-05 107.258 2.50517 107.258 5.7352C107.258 8.96523 109.855 10.6445 112.752 12.3191C115.175 13.6956 116.628 15.1362 116.628 17.3294C116.657 18.1906 116.436 19.0428 115.989 19.7932C116.289 19.0637 117.335 16.0952 115.058 14.3563C114.855 14.2049 114.709 14.0856 114.598 13.9938C115.286 14.7417 116.996 17.2055 115.223 20.6053C114.574 21.0506 113.786 21.2768 112.985 21.2476C110.005 21.2476 108.823 19.2426 108.14 16.9852C108.079 16.7913 107.95 16.6232 107.773 16.5095C107.596 16.3958 107.384 16.3434 107.171 16.3613L106.657 16.398C106.701 16.9531 107.215 20.4309 107.418 21.1375C109.054 21.634 110.754 21.9135 112.471 21.9679C116.831 21.9679 120.029 19.3252 120.029 15.7189C120 12.287 117.243 10.5848 114.419 9.00193ZM118.6 2.15647H118.697V2.24364H118.614L118.6 2.15647ZM118.377 1.97753H118.246V1.73895H118.377V1.97753ZM118.164 0.821329H118.392V1.05532H118.164V0.821329ZM117.917 1.09203H118.052V1.19755H117.917V1.09203ZM117.679 0.633216H117.767V0.724979H117.679V0.633216ZM117.563 1.09203H117.679V1.15626H117.563V1.09203ZM117.243 0.77086H117.355V0.917679H117.243V0.77086ZM110.737 7.40986H110.562V7.16669H110.737V7.40986ZM111.275 7.82279H111.173V7.76314H111.275V7.82279ZM112.243 8.96523H112.098V8.75417H112.243V8.96523ZM112.665 9.21299V9.10287H112.883V9.21299H112.665ZM113.062 10.1581H112.733V9.63509H113.062V10.1581ZM114.167 10.126H113.949V9.88744H114.167V10.126ZM114.254 9.2084H114.133V9.10287H114.254V9.2084ZM116.013 11.0115H116.105V11.1859H116.013V11.0115ZM114.603 10.149H114.7V10.2224H114.603V10.149ZM114.884 10.7913H114.496V10.5252H114.884V10.7913ZM115.029 10.3325V10.2315H115.126V10.3141L115.029 10.3325ZM115.305 10.7638H115.116V10.5527H115.305V10.7638ZM115.698 11.1079H115.514V10.9335H115.698V11.1079ZM116.274 11.7043H115.838V11.4336H116.274V11.7043ZM107.287 18.2057H107.234V18.0589H107.287V18.2057ZM107.549 19.0453H107.471V18.8343H107.554L107.549 19.0453ZM107.757 19.3527H107.646V19.2701H107.757V19.3527ZM107.757 19.7702H107.985V19.9492H107.757V19.7702ZM108.096 20.7567H107.898V20.541H108.096V20.7567ZM108.096 20.2979H108.038V20.1877H108.135L108.096 20.2979ZM108.426 20.2979H108.557V20.385H108.426V20.2979ZM108.731 20.8806H108.523V20.7246H108.784L108.731 20.8806ZM109.424 21.0457H109.182V20.9494H109.424V21.0457ZM115.567 20.5869H115.412V20.5548H115.567V20.5869ZM117.418 12.7137H117.524V12.8605H117.418V12.7137ZM117.282 17.6184H117.393V18.0267H117.282V17.6184ZM117.035 18.0176H117.243V18.1598H117.079L117.035 18.0176ZM117.209 18.4305V18.7104H117.132V18.4443L117.209 18.4305ZM116.87 17.6459H116.982V17.8019H116.87V17.6459ZM116.725 18.9765H116.909V19.0958H116.759L116.725 18.9765ZM116.943 19.2701V19.3619H116.793V19.2701H116.943ZM115.974 19.8299H116.095V19.9354H115.974V19.8299ZM116.134 20.3162H115.959V20.2107H116.134V20.3162ZM116.26 19.5592H116.633V19.8895H116.26V19.5592ZM116.851 20.2566H116.599V20.1877H116.851V20.2566ZM117.035 19.7473H116.851V19.6739H117.035V19.7473ZM117.2 19.3848H117.098V19.1875H117.243L117.2 19.3848ZM117.364 19.9446H117.263V19.8712H117.364V19.9446ZM117.529 19.5179H117.398V19.4674H117.529V19.5179ZM117.573 19.2197H117.374V19.105H117.573V19.2197ZM117.679 16.8614H117.582V16.7925H117.679V16.8614ZM117.868 12.6541H118.043V13.0808H117.868V12.6541ZM117.946 13.535H118.033V13.5763H117.946V13.535ZM118.086 16.3704H117.955V16.219H118.086V16.3704ZM118.338 18.3387V18.2057H118.503V18.3525L118.338 18.3387Z" fill="#1B1C20"/>
        <path d="M107.554 3.37688C107.997 2.37701 108.657 1.47659 109.492 0.734131C108.913 0.980597 108.395 1.33651 107.967 1.77996C107.54 2.2234 107.213 2.745 107.006 3.31265C106.25 5.67553 106.711 7.66677 107.975 9.27719C109.24 10.8876 105.742 6.8822 107.554 3.37688Z" fill="#1B1C20"/>
        <path d="M86.1059 2.8859H85.9363L86.0913 3.07402V2.94555H86.3094V2.7345H86.1059V2.8859Z" fill="#1B1C20"/>
        <path d="M97.1762 0.573565H96.6093V0.839676C96.6108 0.915889 96.6408 0.98912 96.6941 1.04628C96.7474 1.10343 96.8203 1.14079 96.9 1.15167C98.8379 1.42695 99.6809 1.82153 100.054 2.89974C100.026 2.42575 99.9115 1.95996 99.7148 1.5233H99.4241V1.37648H99.7148V1.51413C100.543 1.94082 100.815 2.64739 100.887 3.96418C100.931 4.93686 100.863 5.69849 100.863 8.87346L100.567 13.7644C100.564 13.8272 100.541 13.8876 100.501 13.9382C100.462 13.9887 100.407 14.0271 100.345 14.0486C100.282 14.0701 100.215 14.0738 100.15 14.0591C100.085 14.0445 100.027 14.0122 99.9813 13.9663L96.2169 10.1581L101.008 15.4436V15.7143H101.178V16.0584H100.858V15.7373L100.519 15.3565V15.439H100.354V15.1638L87.2347 0.458862H81.3241V0.624034H80.6846V0.784618C80.6843 0.872216 80.7168 0.957082 80.7762 1.02424C80.8355 1.0914 80.9181 1.13653 81.0092 1.15167C82.264 1.3719 82.9471 1.66095 83.7998 2.72998C83.8063 2.73657 83.8112 2.74439 83.8143 2.75292L84.5265 10.0434L84.4683 3.21173L83.7707 2.0647C83.6998 1.91836 83.612 1.77988 83.5091 1.65177C83.5091 1.65177 83.5091 1.65177 83.5091 1.65177C83.8447 1.88426 84.1405 2.16437 84.386 2.48222C84.7448 2.9417 84.9276 3.50323 84.9044 4.07429V12.9156C84.9044 15.7373 84.8172 16.9761 84.759 18.0313C84.7495 18.3733 84.7106 18.7139 84.6428 19.0499L84.604 14.8334C84.604 14.8334 84.4005 18.6828 84.3521 19.6555C84.0323 19.9859 83.4558 20.0455 82.4142 20.2015C82.2276 20.228 82.0573 20.3172 81.9345 20.4529C81.8117 20.5885 81.7447 20.7615 81.7456 20.9402V21.4862H89.5796V20.7934C89.5796 20.6576 89.5276 20.5264 89.4331 20.4243C89.3386 20.3221 89.2082 20.256 89.066 20.2382C86.5467 19.9033 86.2464 19.9354 86.1592 17.9809C86.101 16.921 86.0574 15.9575 86.0574 12.9339L86.2367 5.81778C86.2241 5.71371 86.2495 5.60869 86.3086 5.52018C86.3678 5.43167 86.4571 5.36499 86.5618 5.33122C86.6665 5.29745 86.7803 5.29863 86.8842 5.33456C86.9881 5.37049 87.0759 5.43901 87.133 5.52873L101.328 21.9037H101.696C101.794 21.9037 101.89 21.8853 101.98 21.8497C102.069 21.814 102.151 21.7617 102.219 21.6959C102.287 21.6301 102.341 21.5521 102.376 21.4665C102.412 21.3808 102.43 21.2893 102.428 21.1971L102.074 8.80922C102.074 5.63884 102.147 4.90933 102.181 3.96418C102.244 1.89035 102.602 1.44531 104.574 1.00485C104.683 0.979035 104.781 0.920319 104.851 0.837556C104.922 0.754794 104.963 0.652475 104.967 0.546036V0.458862H97.1762V0.573565ZM88.7947 5.83154H88.911V5.92789H88.7947V5.83154ZM87.5884 3.77148H87.7143V3.93665H87.5884V3.77148ZM87.5884 4.27617V4.48722H87.3703V4.27617V4.17064H87.5157V4.27617H87.5884ZM87.2056 3.16585H87.38V3.2989H87.2056V3.16585ZM87.1136 3.86324V3.7256H87.2928V3.86324H87.2444V4.01006H87.1281V3.86324H87.1136ZM87.0797 3.29431H87.1378V3.40443H87.0797V3.29431ZM86.6921 3.51913V3.37231H86.8616V3.51913H86.818V3.58337H86.7648V3.51913H86.6921ZM86.4402 2.45928H86.5467V2.53269H86.4402V2.45928ZM86.2367 2.08764H86.3384V2.18399H86.2367V2.08764ZM85.9993 2.15188H86.1107V2.25281H85.9993V2.15188ZM85.8879 1.89953H85.9315V1.96376H85.8879V1.89953ZM85.5826 1.4086H85.7522V1.59671H85.602L85.5826 1.4086ZM85.4615 1.62424H85.5633V1.69765H85.4615V1.62424ZM84.3714 1.51413H84.0662V1.24802H84.3714V1.51413ZM84.6864 1.37648H84.7832V1.46825H84.696L84.6864 1.37648ZM85.0013 2.54186H84.7057V2.39046H85.0013V2.54186ZM85.1514 1.87659H85.0303V1.72518H85.0594V1.63342H85.2677V1.8353H85.1514V1.87659ZM85.3646 2.63363H85.1999V2.54645H85.3646V2.63363ZM85.3646 2.13352H85.2096V2.01882H85.3646V2.13352ZM85.447 1.89035H85.5923V1.8353H85.791V2.13811H85.5923V2.00964H85.447V1.89035ZM85.539 2.39505H85.7231V2.51892H85.539V2.39505ZM85.6069 2.7988H85.8152V2.97315H85.6069V2.7988ZM85.7522 18.8113H85.8927V19.1738H85.7522V18.8113ZM85.9072 19.3527V19.4169H85.7958V19.3527H85.9072ZM85.7619 19.6647H85.8927V19.7886H85.7522L85.7619 19.6647ZM85.8685 20.2933H85.8006V20.2428H85.8685V20.2933ZM85.9557 20.0914H85.8685V19.9813H85.9557V20.0914ZM86.6146 20.4355H86.4692V20.3483H86.6146V20.4355ZM86.4208 20.2566L88.693 20.3896V20.4539L86.4208 20.33V20.2566ZM86.2561 19.9446H86.3869V20.073H86.2367L86.2561 19.9446ZM86.0816 19.8345H86.1349V19.9905H86.0816V19.8345ZM86.2803 20.2244V20.4951H85.9896V20.2244H86.2803ZM88.2182 6.08847L85.8879 3.33561V2.7988V2.61069H86.0187V2.44093H85.8006V2.21611H86.0187V2.44093H86.319V2.75292H86.8035V3.07409H86.4741V3.38149H86.3384L86.5419 3.62925V3.3402H86.7018V3.75313H86.6533L86.7841 3.91371V3.71642H86.9537V4.04677H87.0748V4.25323L87.2153 4.42758H87.2831V4.51475L87.9323 5.31308V5.20756H88.0874V5.46449H88.0535L88.2279 5.68013V5.43237H88.4023V5.89119L88.7656 6.35V6.32247H89.0369V6.57023H88.9497L96.0715 15.3473L88.2182 6.08847ZM99.9474 15.2005H99.6518V14.9298H99.9474V15.2005ZM100.146 15.9896H100.025V15.93H100.146V15.9896ZM100.669 16.5907H100.538V16.4668H100.669V16.5907ZM100.727 16.1731H100.475V15.8566H100.727V16.1731ZM100.965 17.1642H100.844V16.8109H100.965V17.1642ZM101.129 16.4576H100.965V16.375H101.129V16.4576ZM100.161 1.31684H100.383V1.42237H100.161V1.31684ZM99.9038 1.15167H99.9522H99.9038ZM99.4532 1.07826H99.6179V1.21131H99.4532V1.07826ZM98.3098 0.858028H98.5666V1.05532H98.3098V0.858028Z" fill="#1B1C20"/>
        <path d="M40.865 13.0945H40.7832V13.2046H40.865V13.0945Z" fill="#1B1C20"/>
        <path d="M60.4577 16.3612L59.4887 16.2557C59.4121 16.2488 59.3352 16.2645 59.2684 16.3007C59.2016 16.3368 59.1483 16.3916 59.1157 16.4576C57.7155 19.3389 57.0421 20.4813 53.7234 20.4813C49.649 20.4813 46.8293 18.3708 45.686 14.6361H45.5406V14.4893H45.6763C45.6278 14.3195 45.5794 14.1497 45.5406 13.9754H45.0949V13.356H45.405C45.2288 12.397 45.1429 11.4251 45.1482 10.4517C45.1482 5.18916 47.5706 0.766215 53.0209 0.766215C54.219 0.725513 55.4131 0.919187 56.5286 1.33514C58.3841 2.09677 59.1302 3.34015 59.7745 5.40938C59.7905 5.46189 59.8268 5.50672 59.8763 5.53482C59.9257 5.56293 59.9846 5.57221 60.041 5.56079L60.2736 5.51491C60.3151 5.50712 60.352 5.48491 60.3771 5.45265C60.4022 5.42039 60.4136 5.38041 60.4092 5.34056C60.23 4.01919 60.0362 2.19312 59.9247 0.660688C59.0091 0.573514 56.6836 0 53.9269 0C46.0251 0 40.9526 4.51929 40.9526 11.0528C40.9534 11.7912 41.0231 12.5282 41.161 13.2551L40.9526 13.2826L41.0302 13.8056L41.2675 13.7781C42.1493 17.522 44.9496 20.6878 50.0269 21.6605C44.8817 20.8989 41.97 18.5406 41.1222 14.0075H40.9817C40.9817 18.536 44.373 21.9404 52.052 22V21.922C52.5026 21.9541 52.9725 21.9725 53.457 21.9725C55.3994 21.9137 57.33 21.663 59.2174 21.2246C59.8546 19.7984 60.384 18.3311 60.8016 16.8338C60.8158 16.7811 60.818 16.7261 60.8079 16.6726C60.7978 16.6191 60.7757 16.5682 60.7431 16.5234C60.7105 16.4787 60.6682 16.441 60.6189 16.413C60.5697 16.3851 60.5147 16.3674 60.4577 16.3612V16.3612ZM59.106 2.56934H58.8637V2.47758H59.106V2.56934ZM58.6215 2.03712H58.9558V2.26194H58.6215V2.03712ZM58.6215 1.81689H58.2872V1.59208H58.6215V1.81689ZM57.9723 1.10115H58.3017V1.32596H57.9723V1.10115ZM57.856 1.5829H58.1903V1.80313H57.856V1.5829ZM57.3231 1.22044H57.5653V1.31679H57.3231V1.22044ZM45.0998 14.3424V14.7462H44.7509V14.3424H45.0998ZM45.1967 13.2229H44.8963V12.9385H45.1967V13.2229ZM45.1676 11.8465V12.3879H44.8333V11.8649L45.1676 11.8465ZM47.0231 2.29406H47.3574V2.51887H47.0231V2.29406ZM45.0852 4.32659H45.468V4.65693H45.0852V4.32659ZM44.8624 10.8417H44.3779V10.36H44.8624V10.8417ZM44.4602 7.2951H44.407V6.93264H44.4602V7.2951ZM44.6492 9.58916V10.048H44.4506V9.58916H44.6492ZM44.4554 6.37748H44.3101V6.22148H44.4554V6.37748ZM44.4166 12.0713H44.5717V12.2961H44.4166V12.0713ZM44.3052 11.6951V11.273H44.5426V11.6951H44.3052ZM44.4893 5.39562H44.7364V5.88196H44.4893V5.39562ZM44.2761 4.63399H44.4602V5.23045H44.2761V4.63399ZM44.2422 5.88196H44.373V6.00584H44.2422V5.88196ZM43.9128 9.55245V9.8415H43.6027V9.55245H43.9128ZM43.6512 8.89635V8.77247H43.8014V8.89635H43.6512ZM43.7626 11.6492H44.2471V12.2961H43.7626V11.6492ZM43.7626 11.484V10.8692H44.2471V11.4703L43.7626 11.484ZM44 10.4609V10.0938H44.1744V10.4563L44 10.4609ZM44.2035 9.4194H43.9855V9.10282H44.2035V9.4194ZM44.1405 8.18519H44.1744V8.2586H44.1405V8.18519ZM44.126 7.79979H44.0436V7.62544H44.126V7.79979ZM44.0581 6.42336V6.88217H43.9951V6.42336H44.0581ZM43.8159 5.6755H44.0581V6.19395H43.8159V5.6755ZM43.5737 6.91887H43.7674V7.04275H43.5737V6.91887ZM43.8159 7.24922V7.34098H43.6027V7.24922H43.8159ZM43.5737 7.92826H43.8595V8.48801H43.5737V7.92826ZM43.2055 12.1447V11.975H43.4525V12.1447H43.2055ZM43.3556 13.7047H43.4525V13.8102H43.3556V13.7047ZM43.1182 9.1487V9.36893H42.9632V9.1487H43.1182ZM42.9923 8.91929V8.85965H43.0601V8.91929H42.9923ZM43.0746 8.76788H42.8421V8.36413H43.1182L43.0746 8.76788ZM42.9099 9.5708V9.71303H42.8615V9.5708H42.9099ZM42.8518 10.0526H43.1715V10.5114H42.8518V10.0526ZM43.1279 9.74056V9.54327H43.3169V9.74056H43.1279ZM43.1279 10.7224H43.1764V10.8784H43.1182L43.1279 10.7224ZM43.2345 12.42V12.7412H42.8518V12.42H43.2345ZM43.3799 10.7683V10.1994H43.5737V10.7683H43.3799ZM43.3799 9.25881V9.13493H43.4816V9.25881H43.3799ZM43.4671 6.50594H43.564V6.69406H43.4671V6.50594ZM43.2394 8.56601H43.4283V8.82294H43.2394V8.56601ZM42.9826 6.88217H43.1182V7.23545H42.9632L42.9826 6.88217ZM42.7161 7.67132H43.2006V8.10719H42.7161V7.67132ZM42.2607 10.8234H42.6338V11.0344H42.2607V10.8234ZM42.5999 13.7597H42.532V13.6772H42.5999V13.7597ZM42.5999 12.9201H42.4254V12.3879H42.6338L42.5999 12.9201ZM42.6338 12.1493H42.4351V11.7456H42.6338V12.1493ZM42.6338 10.4288H42.3722V10.0938H42.6338V10.4288ZM42.7258 9.77268H42.3722V9.13034H42.7258V9.77268ZM42.7985 11.1491H43.1182V11.6905H42.8276L42.7985 11.1491ZM43.0407 13.4432H42.8082V13.0669H43.0407V13.4432ZM43.6415 14.682H43.1182V14.1176H43.6318L43.6415 14.682ZM44.0581 15.1408H43.7674V14.7691H44.0581V15.1408ZM43.8014 14.2874V13.9479H43.9951V14.2874H43.8014ZM44.1356 13.3698L43.438 13.3055L43.4865 12.8467L44.1841 12.9109L44.1356 13.3698ZM44.2083 12.4521H44.3827V12.677H44.2083V12.4521ZM44.3101 14.4526H44.373V14.5948H44.3101V14.4526ZM44.3827 15.7602H44.218V15.4986H44.3827V15.7602ZM44.3827 14.9205H44.3004V14.8563H44.3827V14.9205ZM44.5959 13.8974H44.2955V13.5349H44.5959V13.8974ZM44.6443 12.5577H44.8575V12.8467H44.6686L44.6443 12.5577ZM44.6783 14.9481H44.8721V15.283H44.6783V14.9481ZM45.0998 15.7969H44.7655V15.5078H45.0998V15.7969ZM45.0998 16.2557H45.4292V16.5401H45.0998V16.2557ZM45.4534 17.4853H45.3565V17.4578H45.4534V17.4853ZM46.3739 17.4348H46.0251V17.1595H46.3594L46.3739 17.4348ZM46.6404 18.5635H46.4078V18.4396H46.6404V18.5635ZM47.2315 18.7516H47.1636V18.6415H47.2315V18.7516ZM47.4785 19.1737H47.3283V19.1095H47.4785V19.1737Z" fill="#1B1C20"/>
        <path d="M78.146 5.06983C77.8766 4.27879 77.5022 3.52336 77.0317 2.82166C77.4454 3.5411 77.7705 4.30313 78.0007 5.09277L78.146 5.06983Z" fill="#1B1C20"/>
        <path d="M79.9386 16.5815C79.7203 16.5851 79.5101 16.6609 79.3447 16.7958C79.1792 16.9307 79.0688 17.1162 79.0326 17.3202C78.9395 18.0203 78.6704 18.689 78.2478 19.2701C77.3951 20.2657 76.9155 20.1877 75.0308 20.1877H72.5358C70.4913 20.1877 69.8372 20.2199 69.8372 17.99V11.507C69.8371 11.4219 69.8553 11.3377 69.8908 11.2595C69.9264 11.1813 69.9784 11.1108 70.0437 11.0523C70.1091 10.9939 70.1864 10.9487 70.2708 10.9196C70.3553 10.8905 70.4452 10.878 70.5349 10.8831L73.4418 11.0299C75.806 11.0299 76.1645 11.8833 76.5909 13.2551C76.614 13.3306 76.6624 13.397 76.7288 13.4441C76.7952 13.4913 76.876 13.5168 76.9591 13.5166H77.1868V7.22632H76.9833C76.8962 7.22648 76.8118 7.25475 76.744 7.30647C76.6761 7.35818 76.629 7.43026 76.6102 7.51079C76.1984 9.34603 75.9223 9.89661 73.4805 9.89661H69.8421V2.24363C69.8421 1.50495 69.9535 1.38566 70.7432 1.38566H73.7082C75.7285 1.38566 76.3583 1.53248 76.9881 2.30328C77.5867 3.14531 78.0337 4.07556 78.3107 5.05615L78.5481 5.01485C78.6257 5.00348 78.6957 4.96424 78.7435 4.90528C78.7913 4.84633 78.8133 4.77219 78.8049 4.69827C78.6693 3.43654 78.553 1.48659 78.5288 0.380859C78.1218 0.426741 76.9009 0.445093 73.684 0.445093H63.573V0.697439C63.5736 0.759576 63.598 0.819382 63.6417 0.865779C63.6853 0.912176 63.7453 0.942021 63.8104 0.949785C66.068 1.27554 65.8597 1.58753 65.8597 4.35875V16.6962H65.976V16.8384H65.8597V17.4716L65.6029 4.89556C65.6029 3.65218 65.6029 2.90432 65.4382 2.43175C65.4915 3.12914 65.4382 3.34937 65.4382 4.37711L65.2638 17.6459C65.2299 20.2428 64.7066 19.94 62.8414 20.6144C62.7012 20.6592 62.5792 20.7443 62.4924 20.8577C62.4056 20.9712 62.3582 21.1075 62.3569 21.2476V21.4587H63.0013H79.3088C79.5413 20.6144 80.1566 17.6597 80.3262 16.5494L79.9386 16.5815ZM76.5473 11.8328H76.6054V11.8878H76.5473V11.8328ZM76.2372 11.4612H76.1839V11.3832H76.2372V11.4612ZM76.1548 10.961H76.2178V11.0803H76.1548V10.961ZM75.8787 11.1446H76.0628V11.2272H75.9271L75.8787 11.1446ZM75.307 10.8096H75.5783V10.961H75.3458L75.307 10.8096ZM78.0055 2.85385H78.1315V2.98691H78.0055V2.85385ZM77.7003 2.00046H77.7294V2.15646H77.7003V2.00046ZM77.4242 1.57836H77.5114V1.67471H77.4242V1.57836ZM77.1335 1.35354H77.2643V1.51871H77.1335V1.35354ZM76.5473 1.12872H76.6151V1.17001H76.5473V1.12872ZM65.1088 1.16543H65.0022V1.07825H65.1088V1.16543ZM65.2686 20.3346H65.0216V20.2749H65.2686V20.3346ZM66.3732 1.10578H66.5816V1.28013H66.3732V1.10578ZM65.9905 1.29389H66.1601V1.43613H65.9905V1.29389ZM66.2763 2.6428H66.1407V2.5281H66.2763V2.6428ZM66.3296 18.4397V18.6553H66.1795V18.4397H66.3296ZM66.1795 18.9857H66.131H66.1795ZM65.7676 1.24342H65.5302V1.04155H65.7676V1.24342ZM65.6756 0.871787V0.633206H65.9566V0.871787H65.6756ZM65.8888 16.3842V16.0584H66.0535V16.3658L65.8888 16.3842ZM65.9372 17.7377H66.1213V18.0176H65.9372V17.7377ZM65.8742 18.4259H66.005V18.4718H65.8742V18.4259ZM65.9566 18.7975V18.8755V18.8113V18.7975ZM65.7725 20.2566H65.5787V19.8574H65.7725V20.2566ZM65.9905 19.4169H65.8064V19.3389H65.9905V19.4169ZM65.9905 19.5729H66.0729V19.6372H65.9905V19.5729ZM66.1068 20.1464L66.0002 20.0501L66.1407 19.917L66.2424 20.018L66.1068 20.1464ZM66.3393 19.6096L66.2182 19.5316L66.349 19.3527L66.4701 19.4307L66.3393 19.6096ZM66.5137 9.19463L66.4653 3.5696H66.3732V3.4549H66.4508V2.07846L66.5283 1.93164H66.2618V1.70682H66.5428V1.91329L66.6058 1.79859L66.5137 9.19463Z" fill="#1B1C20"/>
    </g>
    <defs>
        <clipPath id="clip0_83_991">
            <rect width="120" height="22" fill="white"/>
        </clipPath>
    </defs>
</svg>
