<svg width="20" height="20" viewBox="0 0 20 20" fill="none" xmlns="http://www.w3.org/2000/svg">
<path fill-rule="evenodd" clip-rule="evenodd" d="M0 10C0 15.5228 4.47715 20 10 20C15.5228 20 20 15.5228 20 10C20 4.47715 15.5228 0 10 0C4.47715 0 0 4.47715 0 10ZM16.2759 9.61728C16.2746 12.8951 13.6081 15.5622 10.3296 15.5635H10.3271C9.33194 15.5632 8.35406 15.3135 7.48554 14.8398L4.33331 15.6666L5.1769 12.5853C4.65654 11.6835 4.38272 10.6606 4.38317 9.61258C4.38447 6.33402 7.05199 3.66665 10.3295 3.66665C11.9202 3.66734 13.4132 4.28659 14.5359 5.41057C15.6586 6.53449 16.2765 8.02845 16.2759 9.61728Z" fill="#25D366"/>
<path fill-rule="evenodd" clip-rule="evenodd" d="M5.76096 14.254L7.63154 13.7633L7.81201 13.8704C8.57084 14.3207 9.44068 14.559 10.3275 14.5593H10.3295C13.0536 14.5593 15.2707 12.3421 15.2718 9.61695C15.2723 8.29634 14.7587 7.05462 13.8256 6.12042C12.8925 5.18621 11.6516 4.67148 10.3315 4.67102C7.60531 4.67102 5.38817 6.88797 5.38709 9.61295C5.3867 10.5468 5.648 11.4563 6.14274 12.2432L6.26025 12.4302L5.76096 14.254ZM13.1218 10.8975C13.2254 10.9476 13.2954 10.9814 13.3252 11.0313C13.3624 11.0933 13.3624 11.3907 13.2386 11.7379C13.1148 12.0849 12.5212 12.4017 12.2357 12.4443C11.9797 12.4826 11.6558 12.4985 11.2999 12.3854C11.0841 12.317 10.8074 12.2255 10.4529 12.0725C9.05998 11.471 8.11867 10.121 7.94077 9.86585C7.92831 9.84798 7.91959 9.83548 7.91473 9.82898L7.91353 9.82738C7.8349 9.72247 7.30804 9.01952 7.30804 8.29199C7.30804 7.6076 7.64423 7.24888 7.79897 7.08376C7.80958 7.07245 7.81933 7.06204 7.82806 7.05251C7.96424 6.90376 8.12522 6.86657 8.22426 6.86657C8.3233 6.86657 8.42246 6.86749 8.50903 6.87183C8.51971 6.87237 8.53082 6.8723 8.54231 6.87224C8.62889 6.87173 8.73684 6.8711 8.84332 7.12688C8.88429 7.22533 8.94424 7.37128 9.00747 7.52521C9.13531 7.83645 9.27656 8.18033 9.30141 8.23009C9.33857 8.30447 9.36332 8.3912 9.3138 8.4904C9.30637 8.50528 9.29949 8.51931 9.29292 8.53273C9.25572 8.60867 9.22836 8.66453 9.16523 8.73824C9.1404 8.76723 9.11474 8.79848 9.08909 8.82972C9.03797 8.89197 8.98686 8.95422 8.94235 8.99856C8.86797 9.07265 8.79054 9.15303 8.87721 9.30178C8.96388 9.45053 9.26207 9.93705 9.70377 10.331C10.1786 10.7545 10.5912 10.9335 10.8004 11.0243C10.8412 11.042 10.8743 11.0563 10.8986 11.0685C11.0471 11.1429 11.1338 11.1304 11.2205 11.0313C11.3072 10.9322 11.5919 10.5974 11.6909 10.4487C11.79 10.3 11.8891 10.3248 12.0252 10.3744C12.1614 10.424 12.8919 10.7834 13.0405 10.8578C13.0695 10.8723 13.0966 10.8854 13.1218 10.8975Z" fill="#25D366"/>
</svg>
