<svg width="100" height="100" viewBox="0 0 100 100" fill="none" xmlns="http://www.w3.org/2000/svg">
<path d="M65.2973 98.0001C65.2518 98.0001 65.2055 97.992 65.1607 97.976L44.9214 90.6564C44.7363 90.5893 44.6257 90.3973 44.659 90.2018C44.6929 90.0062 44.8607 89.8632 45.058 89.8632H69.3507C69.4946 89.8632 69.6269 89.9398 69.6999 90.0646C69.7729 90.1894 69.7744 90.3441 69.7042 90.471L65.6512 97.7906C65.5775 97.9234 65.4401 98.0001 65.2969 98.0001H65.2973ZM47.3887 90.6805L65.1115 97.0901L68.6614 90.6805H47.3887Z" fill="white" stroke="white" stroke-width="0.2"/>
<path d="M79.473 53.9013C79.4528 53.9013 79.4325 53.8999 79.4115 53.8969C79.2134 53.867 79.0681 53.6948 79.0681 53.4926V16.7117C79.0681 16.576 79.1346 16.449 79.246 16.3731C79.3573 16.2972 79.4983 16.2819 79.6234 16.3322L89.7454 20.4189C89.9421 20.4984 90.0447 20.7166 89.9811 20.9202L79.8591 53.6136C79.8056 53.7858 79.648 53.9004 79.473 53.9004L79.473 53.9013ZM79.8779 17.3165V50.8151L89.0969 21.038L79.8779 17.3165Z" fill="white" stroke="white" stroke-width="0.2"/>
<path d="M57.2054 8.94784H32.9127C32.7826 8.94784 32.6604 8.88435 32.5845 8.7778C32.5086 8.67125 32.4876 8.53406 32.5288 8.40926L34.5533 2.27936C34.6213 2.07356 34.8367 1.95752 35.0442 2.01445L57.312 8.14435C57.5079 8.19836 57.6337 8.39028 57.607 8.59315C57.5795 8.79602 57.4075 8.94781 57.205 8.94781L57.2054 8.94784ZM33.4754 8.1305H54.1829L35.2022 2.90536L33.4754 8.1305Z" fill="white" stroke="white" stroke-width="0.2"/>
<path d="M20.7654 84.5509C20.7148 84.5509 20.6642 84.5414 20.6165 84.5224L10.2559 80.3752C10.0607 80.2964 9.95654 80.0804 10.0173 79.8768L20.3779 45.2013C20.4357 45.0072 20.6251 44.8853 20.8247 44.9153C21.0235 44.9452 21.1703 45.1167 21.1703 45.3196V84.1424C21.1703 84.2774 21.1038 84.4044 20.9932 84.4803C20.9252 84.527 20.8457 84.5511 20.7654 84.5511L20.7654 84.5509ZM10.9001 79.7534L20.3604 83.5402V48.0894L10.9001 79.7534Z" fill="white" stroke="white" stroke-width="0.2"/>
<path d="M79.4732 90.6804H63.683C63.4596 90.6804 63.2782 90.4972 63.2782 90.2717C63.2782 90.0462 63.4596 89.863 63.683 89.863H79.0684V8.94795H22.7909C22.5675 8.94795 22.386 8.76478 22.386 8.53928C22.386 8.31379 22.5675 8.13062 22.7909 8.13062H79.4737C79.6971 8.13062 79.8786 8.31379 79.8786 8.53928V90.2726C79.8786 90.4981 79.6971 90.6813 79.4737 90.6813L79.4732 90.6804ZM57.6107 90.6804H57.4083C57.1849 90.6804 57.0034 90.4972 57.0034 90.2717C57.0034 90.0462 57.1849 89.863 57.4083 89.863H57.6107C57.8341 89.863 58.0156 90.0462 58.0156 90.2717C58.0156 90.4972 57.8341 90.6804 57.6107 90.6804ZM51.3352 90.6804H20.7662C20.5428 90.6804 20.3613 90.4972 20.3613 90.2717V18.9591C20.3613 18.7336 20.5428 18.5504 20.7662 18.5504C20.9896 18.5504 21.1711 18.7336 21.1711 18.9591V89.8625H51.3347C51.5581 89.8625 51.7396 90.0457 51.7396 90.2712C51.7396 90.4967 51.5581 90.6799 51.3347 90.6799L51.3352 90.6804ZM20.7662 13.2382C20.5428 13.2382 20.3613 13.0551 20.3613 12.8296V12.6252C20.3613 12.3997 20.5428 12.2166 20.7662 12.2166C20.9896 12.2166 21.1711 12.3997 21.1711 12.6252V12.8296C21.1711 13.0551 20.9896 13.2382 20.7662 13.2382Z" fill="white" stroke="white" stroke-width="0.2"/>
<path d="M47.083 17.1204H30.0182C29.7948 17.1204 29.6133 16.9373 29.6133 16.7118C29.6133 16.4863 29.7948 16.3031 30.0182 16.3031H47.083C47.3064 16.3031 47.4879 16.4863 47.4879 16.7118C47.4879 16.9373 47.3064 17.1204 47.083 17.1204Z" fill="white" stroke="white" stroke-width="0.2"/>
<path d="M61.8509 23.2518H29.8531C29.6297 23.2518 29.4482 23.0686 29.4482 22.8431C29.4482 22.6176 29.6297 22.4344 29.8531 22.4344H61.8509C62.0743 22.4344 62.2558 22.6176 62.2558 22.8431C62.2558 23.0686 62.0743 23.2518 61.8509 23.2518Z" fill="white" stroke="white" stroke-width="0.2"/>
<path d="M44.0784 52.7877C43.9975 53.0382 44.0633 53.309 44.2526 53.4934L46.8124 55.9874L46.2082 59.5106C46.1646 59.7677 46.2715 60.0319 46.4824 60.1841C46.6004 60.2701 46.7389 60.3149 46.8854 60.3149C46.9963 60.3149 47.1069 60.2878 47.206 60.2374L50.3695 58.573L53.5348 60.2382C53.7693 60.3568 54.0475 60.3354 54.2575 60.1844C54.467 60.0316 54.575 59.7677 54.532 59.5118L53.9278 55.9874L56.4877 53.4933C56.6755 53.3078 56.7419 53.0379 56.6601 52.7868C56.5783 52.5372 56.3651 52.3579 56.106 52.3197L52.5689 51.8053L50.9866 48.5993C50.8688 48.3631 50.6329 48.2169 50.3701 48.2169C50.107 48.2169 49.8705 48.3636 49.7536 48.6002L48.1708 51.805L44.6336 52.3195C44.3729 52.3579 44.1608 52.5372 44.0785 52.7877L44.0784 52.7877ZM52.7074 55.2552C52.5441 55.4134 52.4712 55.6417 52.5108 55.8643L52.9397 58.37L50.6887 57.1859C50.5904 57.1348 50.4796 57.1078 50.3695 57.1078C50.2581 57.1078 50.1472 57.1348 50.0484 57.1859L47.7991 58.37L48.2281 55.8651C48.2668 55.6417 48.193 55.414 48.0311 55.2561L46.2108 53.4817L48.7251 53.1155C48.9486 53.0841 49.1424 52.943 49.2441 52.7393L50.3684 50.4595L51.4927 52.7393C51.5934 52.943 51.7886 53.0841 52.0117 53.1146L54.5266 53.4811L52.7074 55.2552Z" fill="white"/>
<path d="M33.1066 53.275L34.2939 55.4855C34.4139 55.709 34.6461 55.848 34.8998 55.848H34.9226C35.1825 55.8398 35.4193 55.681 35.5268 55.4428L36.5588 53.1568L39.0287 52.7099C39.2877 52.6626 39.4935 52.4762 39.5667 52.2228C39.6391 51.9732 39.561 51.699 39.3687 51.5249L37.513 49.8354L37.8513 47.3499C37.8869 47.0883 37.7738 46.8343 37.5543 46.6859C37.3411 46.5408 37.0504 46.5311 36.829 46.6596L34.6496 47.9028L32.3907 46.8132C32.1601 46.6992 31.8705 46.7306 31.6676 46.8902C31.4604 47.0521 31.3644 47.3128 31.4177 47.5713L31.9264 50.028L30.1913 51.8413C30.0095 52.0319 29.9519 52.3047 30.0417 52.5526C30.1306 52.7957 30.3549 52.9719 30.6126 52.9998L33.1066 53.275ZM33.0479 48.6574L34.3782 49.299C34.5789 49.3939 34.8251 49.3888 35.0181 49.2762L36.3006 48.5443L36.1011 50.0075C36.0703 50.2318 36.1521 50.457 36.3199 50.6103L37.4124 51.6041L35.9583 51.8672C35.7357 51.9076 35.5467 52.0544 35.4538 52.261L34.8462 53.6074L34.1479 52.3058C34.0422 52.1085 33.8438 51.9743 33.6173 51.9484L32.1492 51.7856L33.1704 50.7192C33.3274 50.5564 33.393 50.3262 33.3477 50.1036L33.0479 48.6574Z" fill="white"/>
<path d="M70.6323 60.477L68.7761 58.7886L69.1155 56.3019C69.1506 56.0417 69.0374 55.7875 68.818 55.6379C68.602 55.4937 68.3135 55.4851 68.0907 55.6125L65.9129 56.8545L63.6534 55.7644C63.4229 55.6561 63.1353 55.6835 62.9315 55.8425C62.7249 56.0044 62.6288 56.2646 62.6799 56.5239L63.1897 58.9807L61.4552 60.7927C61.2743 60.9802 61.215 61.2598 61.3048 61.5058C61.3971 61.7529 61.616 61.9242 61.8759 61.9527L64.37 62.228L65.5576 64.4379C65.677 64.6613 65.909 64.8004 66.1632 64.8004H66.1874C66.4476 64.791 66.685 64.6317 66.7905 64.3954L67.8239 62.1082L70.2917 61.6625C70.5533 61.6152 70.7602 61.4277 70.8306 61.1746C70.9025 60.9263 70.8252 60.6519 70.6323 60.4769L70.6323 60.477ZM64.3115 57.6107L65.6419 58.2525C65.8414 58.3474 66.0904 58.3412 66.2808 58.2297L67.5639 57.4973L67.3641 58.961C67.3333 59.187 67.416 59.4122 67.5847 59.5624L68.676 60.5567L67.225 60.8198C66.9999 60.8577 66.8098 61.0053 66.7189 61.214L66.1104 62.5597L65.4113 61.2584C65.3038 61.0597 65.106 60.9255 64.88 60.8996L63.4126 60.7377L64.4323 59.6726C64.588 59.5116 64.6549 59.2819 64.6116 59.0562L64.3115 57.6107Z" fill="white"/>
<path d="M56.2599 49.5876C57.633 49.5876 58.7519 48.4709 58.7519 47.0973C58.7519 45.7236 57.6336 44.606 56.2599 44.606C54.8862 44.606 53.7695 45.7235 53.7695 47.0973C53.7695 48.471 54.8862 49.5876 56.2599 49.5876ZM56.2599 45.9826C56.8744 45.9826 57.3748 46.4831 57.3748 47.0975C57.3748 47.7126 56.8743 48.2116 56.2599 48.2116C55.6463 48.2116 55.1464 47.7123 55.1464 47.0975C55.1464 46.4828 55.6463 45.9826 56.2599 45.9826Z" fill="white"/>
<path d="M36.2323 70.0071C34.8592 70.0071 33.7419 71.1237 33.7419 72.4974C33.7419 73.8711 34.8589 74.9878 36.2323 74.9878C37.606 74.9878 38.7229 73.8711 38.7229 72.4974C38.7229 71.1237 37.606 70.0071 36.2323 70.0071ZM36.2323 73.6115C35.6178 73.6115 35.1177 73.1119 35.1177 72.4974C35.1177 71.8829 35.6179 71.3825 36.2323 71.3825C36.8467 71.3825 37.3469 71.8829 37.3469 72.4974C37.3469 73.1118 36.8473 73.6115 36.2323 73.6115Z" fill="white"/>
<path d="M64.6388 67.1857C63.2642 67.1857 62.1467 68.3031 62.1467 69.6769C62.1467 71.0506 63.2637 72.1667 64.6388 72.1667C66.0119 72.1667 67.1291 71.0503 67.1291 69.6769C67.1291 68.3032 66.0125 67.1857 64.6388 67.1857ZM64.6388 70.7904C64.0237 70.7904 63.5247 70.2907 63.5247 69.6762C63.5247 69.0612 64.024 68.5613 64.6388 68.5613C65.2532 68.5613 65.7529 69.0618 65.7529 69.6762C65.7532 70.2913 65.2533 70.7904 64.6388 70.7904Z" fill="white"/>
<path d="M34.7292 62.8248C34.7292 61.6563 35.6799 60.705 36.8491 60.705C37.2281 60.705 37.5371 60.396 37.5371 60.0172C37.5371 59.6382 37.2287 59.3293 36.8491 59.3293C35.6899 59.3293 34.7395 58.3859 34.7307 57.2262C34.7278 56.8492 34.4177 56.5431 34.0407 56.5431C33.6639 56.5431 33.355 56.85 33.3527 57.2262C33.3436 58.3842 32.3942 59.3279 31.2129 59.3287C30.8333 59.3287 30.5249 59.6376 30.5249 60.0184C30.5249 60.288 30.6953 60.5345 30.953 60.6422C30.9849 60.6573 31.014 60.6636 31.0576 60.675C31.0849 60.6844 31.1217 60.6978 31.1684 60.7021L31.2343 60.7049C32.4028 60.7049 33.3536 61.656 33.3536 62.8248C33.3536 63.2036 33.6619 63.5125 34.0415 63.5125C34.4209 63.5122 34.7293 63.2036 34.7293 62.8248L34.7292 62.8248ZM34.0412 60.7443C33.8357 60.4673 33.5889 60.2213 33.3119 60.0152C33.5892 59.8086 33.8357 59.5627 34.0412 59.2856C34.2467 59.5627 34.4935 59.8098 34.7705 60.0152C34.4938 60.2213 34.2475 60.4675 34.0412 60.7443Z" fill="white"/>
<path d="M40.4392 46.1014C40.4628 46.1117 40.4885 46.1191 40.5406 46.1322C40.5689 46.1416 40.6056 46.155 40.6515 46.1593L40.7173 46.1621C41.8859 46.1621 42.8372 47.1132 42.8372 48.282C42.8372 48.6608 43.145 48.9697 43.5249 48.9697C43.9037 48.9697 44.2126 48.6608 44.2126 48.282C44.2126 47.1135 45.1642 46.1621 46.3336 46.1621C46.7123 46.1621 47.0213 45.8532 47.0213 45.4741C47.0213 45.0942 46.7129 44.7856 46.3336 44.7856C45.1748 44.7856 44.224 43.8416 44.2143 42.6832C44.2117 42.307 43.9022 42 43.5243 42C43.1473 42 42.8392 42.3069 42.8357 42.6832C42.8272 43.842 41.8765 44.7856 40.6974 44.7856C40.3174 44.7856 40.0088 45.094 40.0088 45.4753C40.0082 45.7452 40.1781 45.9911 40.4391 46.1014L40.4392 46.1014ZM42.7947 45.4727C43.0726 45.2661 43.3188 45.0201 43.5243 44.7431C43.7298 45.0201 43.9763 45.2669 44.2539 45.4727C43.9769 45.6788 43.7298 45.9247 43.5243 46.2018C43.3188 45.9247 43.0726 45.6782 42.7947 45.4727Z" fill="white"/>
<path d="M61.413 48.8953C61.4452 48.9101 61.4734 48.9172 61.5193 48.9292C61.5466 48.9389 61.5879 48.9534 61.633 48.9557L61.698 48.9588C62.8662 48.9588 63.8169 49.9096 63.8169 51.0781C63.8169 51.458 64.125 51.767 64.5038 51.767C64.8837 51.767 65.1935 51.458 65.1935 51.0781C65.1935 49.9099 66.144 48.9588 67.3128 48.9588C67.6918 48.9588 68.0005 48.6504 68.0005 48.2703C68.0005 47.8912 67.6921 47.5825 67.3128 47.5825C66.1537 47.5825 65.2032 46.6386 65.1935 45.4795C65.1906 45.1028 64.8814 44.7972 64.5038 44.7972C64.1276 44.7972 63.8198 45.1028 63.8169 45.4795C63.8075 46.6375 62.8577 47.5809 61.676 47.5817C61.2972 47.5817 60.9883 47.8906 60.9883 48.2717C60.988 48.5421 61.1587 48.7886 61.4129 48.8952L61.413 48.8953ZM63.7762 48.2697C64.0524 48.0631 64.2983 47.8171 64.5044 47.5392C64.7107 47.8171 64.9567 48.0639 65.2329 48.2697C64.9567 48.4743 64.7107 48.7208 64.5044 48.9987C64.2983 48.7217 64.0524 48.4752 63.7762 48.2697Z" fill="white"/>
<path d="M50.369 61.7377C49.9899 61.7377 49.6804 62.0461 49.6804 62.4263V76.8776C49.6804 77.2566 49.9896 77.5644 50.369 77.5644C50.7478 77.5644 51.0575 77.2566 51.0575 76.8776V62.4263C51.0573 62.0464 50.748 61.7377 50.369 61.7377Z" fill="white"/>
<path d="M62.9671 54.5949C63.1031 54.4715 63.1832 54.3019 63.1923 54.1181C63.2017 53.9354 63.1384 53.7592 63.0153 53.6224C62.7705 53.3531 62.3162 53.3283 62.0437 53.5731C56.1852 58.8602 52.8252 66.4149 52.8252 74.2997C52.8252 75.1712 52.8674 76.0596 52.9483 76.942C52.9834 77.2974 53.2783 77.5641 53.6343 77.5641L53.6993 77.5616C53.882 77.5439 54.0478 77.457 54.1647 77.3148C54.2816 77.1731 54.3371 76.9947 54.3203 76.8126C54.2422 75.9767 54.2026 75.1308 54.2026 74.2998C54.202 66.8024 57.3975 59.6201 62.9673 54.5946L62.9671 54.5949Z" fill="white"/>
<path d="M64.5444 64.4672C64.5706 64.2853 64.5253 64.1041 64.4153 63.9564C64.1956 63.6626 63.7433 63.5965 63.4526 63.8162C59.7766 66.5508 57.2016 70.5243 56.2033 75.004C56.0714 75.5968 55.9668 76.1981 55.8921 76.7915C55.8462 77.1683 56.1135 77.5126 56.4846 77.5593C56.5145 77.563 56.5459 77.5647 56.5761 77.5647C56.9209 77.5647 57.2131 77.3065 57.2567 76.9633C57.3291 76.3999 57.4263 75.8413 57.5468 75.3041C58.4719 71.1468 60.8608 67.4594 64.274 64.9203C64.421 64.81 64.5179 64.6493 64.5444 64.4675L64.5444 64.4672Z" fill="white"/>
<path d="M37.2594 63.8156C36.9662 63.5987 36.5153 63.6646 36.2967 63.9573C36.0704 64.2614 36.134 64.6932 36.4381 64.92C39.8504 67.4585 42.239 71.1458 43.165 75.3037C43.2872 75.8541 43.3847 76.4126 43.4542 76.963C43.4984 77.3061 43.7922 77.5643 44.1365 77.5643C44.1656 77.5643 44.1947 77.5626 44.2226 77.5589C44.4056 77.5361 44.5683 77.4441 44.6817 77.2987C44.794 77.1528 44.8436 76.9724 44.82 76.7906C44.7419 76.1798 44.637 75.5779 44.5079 75.0039C43.5101 70.5251 40.9363 66.5514 37.2594 63.8154L37.2594 63.8156Z" fill="white"/>
<path d="M38.6509 53.5735C38.3793 53.3286 37.9233 53.352 37.6794 53.6228C37.556 53.7596 37.493 53.9357 37.5024 54.1195C37.5118 54.3031 37.5919 54.4718 37.7287 54.5952C43.2976 59.6212 46.492 66.8029 46.492 74.3003C46.492 75.1397 46.4532 75.9853 46.3751 76.8124C46.3574 76.9953 46.4127 77.174 46.5287 77.3154C46.6467 77.4579 46.8117 77.5451 46.9913 77.5616L47.06 77.5648C47.4171 77.5648 47.7103 77.2969 47.7448 76.9417C47.8266 76.0679 47.8679 75.1799 47.8679 74.3004C47.8682 66.4148 44.5086 58.8605 38.6508 53.5738L38.6509 53.5735Z" fill="white"/>
</svg>
