<svg width="100" height="100" viewBox="0 0 100 100" fill="none" xmlns="http://www.w3.org/2000/svg">
<path d="M65.2973 98.0001C65.2518 98.0001 65.2055 97.992 65.1607 97.976L44.9214 90.6564C44.7363 90.5893 44.6257 90.3973 44.659 90.2018C44.6929 90.0062 44.8607 89.8632 45.058 89.8632H69.3507C69.4946 89.8632 69.6269 89.9398 69.6999 90.0646C69.7729 90.1894 69.7744 90.3441 69.7042 90.471L65.6512 97.7906C65.5775 97.9234 65.4401 98.0001 65.2969 98.0001H65.2973ZM47.3887 90.6805L65.1115 97.0901L68.6614 90.6805H47.3887Z" fill="white" stroke="white" stroke-width="0.2"/>
<path d="M79.473 53.9013C79.4528 53.9013 79.4325 53.8999 79.4115 53.8969C79.2134 53.867 79.0681 53.6948 79.0681 53.4926V16.7117C79.0681 16.576 79.1346 16.449 79.246 16.3731C79.3573 16.2972 79.4983 16.2819 79.6234 16.3322L89.7454 20.4189C89.9421 20.4984 90.0447 20.7166 89.9811 20.9202L79.8591 53.6136C79.8056 53.7858 79.648 53.9004 79.473 53.9004L79.473 53.9013ZM79.8779 17.3165V50.8151L89.0969 21.038L79.8779 17.3165Z" fill="white" stroke="white" stroke-width="0.2"/>
<path d="M57.2054 8.94784H32.9127C32.7826 8.94784 32.6604 8.88435 32.5845 8.7778C32.5086 8.67125 32.4876 8.53406 32.5288 8.40926L34.5533 2.27936C34.6213 2.07356 34.8367 1.95752 35.0442 2.01445L57.312 8.14435C57.5079 8.19836 57.6337 8.39028 57.607 8.59315C57.5795 8.79602 57.4075 8.94781 57.205 8.94781L57.2054 8.94784ZM33.4754 8.1305H54.1829L35.2022 2.90536L33.4754 8.1305Z" fill="white" stroke="white" stroke-width="0.2"/>
<path d="M20.7654 84.5509C20.7148 84.5509 20.6642 84.5414 20.6165 84.5224L10.2559 80.3752C10.0607 80.2964 9.95654 80.0804 10.0173 79.8768L20.3779 45.2013C20.4357 45.0072 20.6251 44.8853 20.8247 44.9153C21.0235 44.9452 21.1703 45.1167 21.1703 45.3196V84.1424C21.1703 84.2774 21.1038 84.4044 20.9932 84.4803C20.9252 84.527 20.8457 84.5511 20.7654 84.5511L20.7654 84.5509ZM10.9001 79.7534L20.3604 83.5402V48.0894L10.9001 79.7534Z" fill="white" stroke="white" stroke-width="0.2"/>
<path d="M79.4732 90.6804H63.683C63.4596 90.6804 63.2782 90.4972 63.2782 90.2717C63.2782 90.0462 63.4596 89.863 63.683 89.863H79.0684V8.94795H22.7909C22.5675 8.94795 22.386 8.76478 22.386 8.53928C22.386 8.31379 22.5675 8.13062 22.7909 8.13062H79.4737C79.6971 8.13062 79.8786 8.31379 79.8786 8.53928V90.2726C79.8786 90.4981 79.6971 90.6813 79.4737 90.6813L79.4732 90.6804ZM57.6107 90.6804H57.4083C57.1849 90.6804 57.0034 90.4972 57.0034 90.2717C57.0034 90.0462 57.1849 89.863 57.4083 89.863H57.6107C57.8341 89.863 58.0156 90.0462 58.0156 90.2717C58.0156 90.4972 57.8341 90.6804 57.6107 90.6804ZM51.3352 90.6804H20.7662C20.5428 90.6804 20.3613 90.4972 20.3613 90.2717V18.9591C20.3613 18.7336 20.5428 18.5504 20.7662 18.5504C20.9896 18.5504 21.1711 18.7336 21.1711 18.9591V89.8625H51.3347C51.5581 89.8625 51.7396 90.0457 51.7396 90.2712C51.7396 90.4967 51.5581 90.6799 51.3347 90.6799L51.3352 90.6804ZM20.7662 13.2382C20.5428 13.2382 20.3613 13.0551 20.3613 12.8296V12.6252C20.3613 12.3997 20.5428 12.2166 20.7662 12.2166C20.9896 12.2166 21.1711 12.3997 21.1711 12.6252V12.8296C21.1711 13.0551 20.9896 13.2382 20.7662 13.2382Z" fill="white" stroke="white" stroke-width="0.2"/>
<path d="M47.083 17.1204H30.0182C29.7948 17.1204 29.6133 16.9373 29.6133 16.7118C29.6133 16.4863 29.7948 16.3031 30.0182 16.3031H47.083C47.3064 16.3031 47.4879 16.4863 47.4879 16.7118C47.4879 16.9373 47.3064 17.1204 47.083 17.1204Z" fill="white" stroke="white" stroke-width="0.2"/>
<path d="M61.8509 23.2518H29.8531C29.6297 23.2518 29.4482 23.0686 29.4482 22.8431C29.4482 22.6176 29.6297 22.4344 29.8531 22.4344H61.8509C62.0743 22.4344 62.2558 22.6176 62.2558 22.8431C62.2558 23.0686 62.0743 23.2518 61.8509 23.2518Z" fill="white" stroke="white" stroke-width="0.2"/>
<path d="M36.192 79.4087C36.1736 79.5515 36.0515 79.6549 35.9127 79.6509C35.9049 79.6514 35.8971 79.652 35.8891 79.652H30.2748C30.123 79.652 30 79.527 30 79.3728C30 79.2185 30.123 79.0935 30.2748 79.0935H32.8149V77.4142L31.5689 77.4589C31.5586 77.46 31.5479 77.4606 31.537 77.4606C31.2206 77.4606 30.9717 77.3502 30.8125 77.2015C30.7231 77.1183 30.6595 77.0201 30.6242 76.9179C30.5837 76.8007 30.5808 76.6789 30.6184 76.5644C30.6604 76.4368 30.7495 76.3266 30.8886 76.2527L31.9388 75.5382C31.779 75.5219 31.6442 75.4564 31.5381 75.3644C31.4367 75.2765 31.364 75.1643 31.3226 75.0475C31.2795 74.9248 31.27 74.7931 31.2973 74.6724C31.3249 74.5509 31.3878 74.4422 31.4896 74.3625L32.3579 73.5057L32.3363 73.5052C32.3303 73.5054 32.3245 73.5057 32.3185 73.5057C32.1684 73.5057 32.0423 73.4461 31.9428 73.3512C31.9359 73.3454 31.9293 73.3389 31.9227 73.3322C31.852 73.2589 31.7983 73.1657 31.7623 73.0658C31.7284 72.9712 31.7106 72.8701 31.7106 72.7752C31.7106 72.6166 31.7583 72.4626 31.8592 72.354L32.664 71.2509C32.7899 71.0354 32.918 70.9273 33.0891 70.9273C33.2601 70.9273 33.3883 71.0351 33.5141 71.2509L34.3189 72.354C34.4198 72.4629 34.4675 72.6166 34.4675 72.7752C34.4675 72.8701 34.4497 72.9712 34.4158 73.0658C34.3799 73.1657 34.3261 73.2589 34.2554 73.3322L34.2548 73.3316C34.1522 73.438 34.0197 73.5057 33.8596 73.5057V73.5049L33.8203 73.5057L34.6885 74.3625C34.7903 74.4422 34.8532 74.5509 34.8808 74.6724C34.9081 74.7931 34.8986 74.9251 34.8555 75.0475C34.8144 75.1643 34.7414 75.2765 34.64 75.3644C34.5339 75.4564 34.3991 75.5216 34.2393 75.5382L35.2895 76.2527C35.4289 76.3266 35.5177 76.4368 35.5597 76.5644C35.5973 76.6786 35.5944 76.8007 35.5539 76.9179C35.5186 77.0201 35.455 77.1183 35.3657 77.2015C35.2064 77.3502 34.9575 77.4606 34.6411 77.4606V77.4597L34.6313 77.4594L33.363 77.4142V79.0935H35.679L36.2121 74.9435L36.572 59.3548H36.2403C36.0886 59.3548 35.9655 59.2298 35.9655 59.0756V53.8494C35.9655 53.6952 36.0886 53.5702 36.2403 53.5702H36.6548V51.5154H36.2233C36.0716 51.5154 35.9486 51.3904 35.9486 51.2362V47.3678C35.9486 47.2136 36.0716 47.0885 36.2233 47.0885H37.4205V39.2793C37.4205 39.125 37.5435 39 37.6952 39C37.847 39 37.97 39.125 37.97 39.2793V47.0885H39.0216C39.1734 47.0885 39.2964 47.2136 39.2964 47.3678V51.2362C39.2964 51.3904 39.1734 51.5154 39.0216 51.5154H38.6241V53.5702H39.0386C39.1903 53.5702 39.3134 53.6952 39.3134 53.8494V59.0756C39.3134 59.2298 39.1903 59.3548 39.0386 59.3548H38.6808L39.0406 74.9443L39.5714 79.0942H41.1942V60.9092C41.1942 60.8794 41.1988 60.8508 41.2074 60.8236C41.5566 59.4385 42.2775 58.6588 43.2854 58.2078C44.2603 57.7714 45.4912 57.659 46.9117 57.597C46.9151 57.5967 46.9188 57.5967 46.9223 57.5967V57.5959H47.2706C47.3396 57.5959 47.4028 57.6219 47.4511 57.6645L48.3844 58.367L50.2029 57.6166C50.3434 57.5588 50.5032 57.6277 50.5601 57.7703C50.5739 57.8047 50.5802 57.8401 50.5802 57.8748H50.5805V74.7325H59.6085L59.6093 73.8515H59.4429C59.2912 73.8515 59.1682 73.7265 59.1682 73.5723V72.2505C59.1682 72.0962 59.2912 71.9712 59.4429 71.9712H59.7979L60.2761 70.5448H59.931C59.7792 70.5448 59.6562 70.4198 59.6562 70.2656C59.6562 70.1113 59.7792 69.9863 59.931 69.9863H62.1205C62.2722 69.9863 62.3952 70.1113 62.3952 70.2656C62.3952 70.4198 62.2722 70.5448 62.1205 70.5448H61.7563L62.2346 71.9712H62.6085C62.7602 71.9712 62.8833 72.0962 62.8833 72.2505V73.5723C62.8833 73.7265 62.7602 73.8515 62.6085 73.8515H62.3194L62.3159 77.9042H63.9935C63.5423 75.9193 63.2213 73.5057 63.2888 71.0636C63.3535 68.7203 63.7757 66.3492 64.7816 64.2992C63.8312 61.3717 63.1857 58.3977 63.634 54.7124C63.6777 54.354 63.6981 54.335 63.905 54.1466C63.9251 54.1282 63.8607 54.1869 63.9447 54.1092L65.8962 52.2908C65.9646 52.2268 66.0634 52.2 66.1588 52.2286L69.1819 53.1365C69.1862 53.1377 69.1905 53.1388 69.1948 53.14C69.3773 53.1955 69.5043 53.3325 69.5825 53.5092C69.6544 53.6717 69.684 53.8729 69.6756 54.0637C69.661 54.3967 69.6486 54.763 69.6354 55.1617C69.5581 57.4721 69.4454 60.8395 68.7671 62.1873C68.9809 63.3638 69.1637 64.5493 69.3089 65.7399C69.8116 69.8654 69.8624 74.0607 69.1841 78.2035C69.183 78.2216 69.1798 78.2388 69.1755 78.2558C69.1292 78.5353 69.0798 78.8146 69.0269 79.0936H70.7252C70.877 79.0936 71 79.2186 71 79.3728C71 79.5271 70.877 79.6521 70.7252 79.6521H64.6931C64.6008 79.6521 64.5192 79.6059 64.4694 79.5352C64.4272 79.5008 64.3944 79.4534 64.3781 79.3965C64.2918 79.1003 64.2076 78.7883 64.1263 78.4626H62.315L62.3144 79.0468C62.3144 79.2005 62.192 79.3249 62.0408 79.3249L59.947 79.3162C59.9252 79.322 59.9019 79.3249 59.8783 79.3249C59.8545 79.3249 59.8312 79.3217 59.8091 79.3159H50.5803V79.7207C50.5803 79.875 50.4572 80 50.3055 80H41.4688C41.3171 80 41.1941 79.875 41.1941 79.7207V79.6518H39.3311C39.1836 79.6518 39.0635 79.5338 39.0566 79.386L38.4939 74.9874L38.1329 59.3546H37.1192L36.7582 74.9874L36.19 79.4085L36.192 79.4087ZM64.863 79.0935H68.4151C68.4099 78.8808 68.4021 78.6705 68.3924 78.4626H64.6931C64.7486 78.6796 64.8052 78.8902 64.863 79.0935ZM64.5569 77.9041H68.3613C68.0771 73.5645 66.8749 70.2152 65.7395 67.0535C65.499 66.3837 65.2616 65.722 65.036 65.0609C64.2381 66.9109 63.8938 69.0039 63.8366 71.0787C63.769 73.5207 64.099 75.9356 64.5568 77.9041L64.5569 77.9041ZM52.7469 52.3345L53.0461 52.5057L52.8777 52.8098L52.5785 52.6386L52.7469 52.3345ZM57.5335 48.8759L57.829 48.6983L58.0037 48.9986L57.7083 49.1762L57.5335 48.8759ZM57.883 49.4768L58.1785 49.2992L58.3532 49.5995L58.0578 49.7771L57.883 49.4768ZM58.2325 50.0777L58.528 49.9001L58.7027 50.2003L58.4073 50.3779L58.2325 50.0777ZM58.582 50.6785L58.8775 50.5009L59.0522 50.8012L58.7568 50.9788L58.582 50.6785ZM58.9315 51.2794L59.227 51.1018L59.4017 51.4021L59.1062 51.5797L58.9315 51.2794ZM59.281 51.8803L59.5765 51.7027L59.7512 52.003L59.4557 52.1806L59.281 51.8803ZM59.6305 52.4812L59.9259 52.3036L60.1007 52.6038L59.8052 52.7814L59.6305 52.4812ZM59.0766 46.5388L59.0732 46.1897L59.4167 46.1862L59.4201 46.5352L59.0766 46.5388ZM59.7633 46.5315L59.7598 46.1824L60.1033 46.1789L60.1067 46.5279L59.7633 46.5315ZM60.4499 46.5241L60.4464 46.1751L60.7899 46.1716L60.7934 46.5206L60.4499 46.5241ZM61.1365 46.5168L61.1331 46.1678L61.4765 46.1643L61.48 46.5133L61.1365 46.5168ZM61.8231 46.5095L61.8197 46.1605L62.1632 46.157L62.1666 46.506L61.8231 46.5095ZM62.5098 46.5022L62.5063 46.1532L62.8498 46.1497L62.8532 46.4987L62.5098 46.5022ZM63.1964 46.4949L63.1929 46.1459L63.5364 46.1424L63.5399 46.4914L63.1964 46.4949ZM57.856 44.0111L57.5568 43.8399L57.7255 43.5359L58.0247 43.707L57.856 44.0111ZM58.1931 43.4029L57.8939 43.2318L58.0626 42.9277L58.3618 43.0989L58.1931 43.4029ZM58.5303 42.7948L58.2311 42.6236L58.3998 42.3195L58.699 42.4907L58.5303 42.7948ZM58.8674 42.1866L58.5682 42.0154L58.7369 41.7113L59.0361 41.8825L58.8674 42.1866ZM59.2045 41.5784L58.9053 41.4073L59.0738 41.1032L59.373 41.2743L59.2045 41.5784ZM59.5417 40.9703L59.2425 40.7991L59.4109 40.495L59.7101 40.6662L59.5417 40.9703ZM59.8788 40.3621L59.5796 40.1909L59.748 39.8868L60.0472 40.058L59.8788 40.3621ZM55.0922 43.8207L54.7967 43.9983L54.622 43.698L54.9175 43.5204L55.0922 43.8207ZM54.7427 43.2198L54.4473 43.3974L54.2725 43.0971L54.568 42.9195L54.7427 43.2198ZM54.3932 42.6189L54.0978 42.7965L53.923 42.4962L54.2185 42.3186L54.3932 42.6189ZM54.0437 42.018L53.7483 42.1956L53.5735 41.8954L53.869 41.7178L54.0437 42.018ZM53.6942 41.4172L53.3988 41.5948L53.224 41.2945L53.5195 41.1169L53.6942 41.4172ZM53.3447 40.8163L53.0493 40.9939L52.8745 40.6936L53.17 40.516L53.3447 40.8163ZM52.9953 40.2154L52.6998 40.393L52.525 40.0927L52.8205 39.9151L52.9953 40.2154ZM53.5491 46.1578L53.5525 46.5069L53.2091 46.5104L53.2056 46.1613L53.5491 46.1578ZM52.8625 46.1651L52.8659 46.5142L52.5225 46.5177L52.519 46.1686L52.8625 46.1651ZM52.1758 46.1724L52.1793 46.5215L51.8358 46.525L51.8324 46.1759L52.1758 46.1724ZM51.4892 46.1797L51.4927 46.5288L51.1492 46.5323L51.1458 46.1832L51.4892 46.1797ZM50.8026 46.187L50.806 46.5361L50.4626 46.5396L50.4591 46.1905L50.8026 46.187ZM50.116 46.1943L50.1194 46.5434L49.776 46.5469L49.7725 46.1978L50.116 46.1943ZM49.4293 46.2016L49.4328 46.5507L49.0893 46.5542L49.0859 46.2051L49.4293 46.2016ZM54.7697 48.6855L55.0689 48.8566L54.9002 49.1607L54.601 48.9896L54.7697 48.6855ZM54.4326 49.2936L54.7318 49.4648L54.5631 49.7689L54.2639 49.5977L54.4326 49.2936ZM54.0955 49.9018L54.3947 50.073L54.226 50.3771L53.9268 50.2059L54.0955 49.9018ZM53.7583 50.51L54.0575 50.6812L53.8888 50.9852L53.5896 50.8141L53.7583 50.51ZM53.4212 51.1182L53.7204 51.2893L53.552 51.5934L53.2528 51.4222L53.4212 51.1182ZM53.0841 51.7263L53.3833 51.8975L53.2148 52.2016L52.9157 52.0304L53.0841 51.7263ZM51.2389 49.6044C51.1078 49.681 50.9409 49.6351 50.8656 49.5019C50.7903 49.3687 50.8354 49.199 50.9664 49.1225L54.2079 47.2205C54.339 47.144 54.5059 47.1898 54.5812 47.323C54.6565 47.4562 54.6114 47.626 54.4804 47.7025L51.2389 49.6044ZM51.0018 43.5105C50.8707 43.4333 50.8262 43.263 50.9021 43.1298C50.9779 42.9966 51.1455 42.9514 51.2765 43.0285L54.518 44.9304C54.6491 45.0075 54.6936 45.1779 54.6177 45.3111C54.5419 45.4442 54.3743 45.4895 54.2432 45.4124L51.0018 43.5105ZM56.0752 40.2546C56.0752 40.1004 56.1982 39.9753 56.3499 39.9753C56.5017 39.9753 56.6247 40.1004 56.6247 40.2546V44.0587C56.6247 44.213 56.5017 44.338 56.3499 44.338C56.1982 44.338 56.0752 44.213 56.0752 44.0587V40.2546ZM61.388 43.0924C61.519 43.0159 61.686 43.0618 61.7613 43.195C61.8366 43.3282 61.7915 43.4979 61.6604 43.5744L58.419 45.4764C58.2879 45.5529 58.1209 45.507 58.0456 45.3738C57.9703 45.2406 58.0155 45.0709 58.1465 44.9944L61.388 43.0924ZM61.6251 49.1864C61.7562 49.2635 61.8007 49.4338 61.7248 49.567C61.649 49.7002 61.4814 49.7455 61.3503 49.6684L58.1089 47.7664C57.9778 47.6893 57.9333 47.519 58.0091 47.3858C58.085 47.2526 58.2526 47.2073 58.3836 47.2845L61.6251 49.1864ZM56.5505 52.4423C56.5505 52.5959 56.4281 52.7204 56.2769 52.7204C56.1257 52.7204 56.0033 52.5959 56.0033 52.4423V48.6381C56.0033 48.4845 56.1257 48.36 56.2769 48.36C56.4281 48.36 56.5505 48.4845 56.5505 48.6381V52.4423ZM60.1575 73.8511L60.1564 75.0727V78.7602L61.7688 78.7669L61.7728 73.8511L60.1575 73.8511ZM59.6063 78.757L59.6071 77.6183V75.2905H50.7808V78.7569L59.6063 78.757ZM33.058 76.8484C33.0684 76.8472 33.079 76.8466 33.0899 76.8466C33.1 76.8466 33.1098 76.8472 33.1195 76.8484C33.6265 76.8618 34.1356 76.8849 34.6425 76.903V76.9021C34.8087 76.9021 34.9276 76.8548 34.9958 76.7914C35.0136 76.7748 35.0265 76.7587 35.0337 76.7447C35.0185 76.7371 35.0044 76.7283 34.9914 76.7187L33.3311 75.5891C33.3222 75.583 33.3136 75.5763 33.3055 75.5693C33.2158 75.4916 33.1518 75.4489 33.1046 75.4413L33.0572 75.4457C33.0121 75.46 32.9531 75.5012 32.8747 75.5693C32.8635 75.5789 32.852 75.5874 32.8399 75.595L31.1784 76.7254C31.168 76.7324 31.1571 76.7389 31.1462 76.7444C31.1534 76.7584 31.166 76.7745 31.1841 76.7912C31.2522 76.8548 31.3712 76.9019 31.5374 76.9019C31.5417 76.9019 31.5457 76.9019 31.5497 76.9022L33.0581 76.8481L33.058 76.8484ZM33.1127 72.9642L33.8553 72.9485H33.8608V72.9473C33.8617 72.9473 33.8614 72.9455 33.864 72.9429L33.8645 72.9423L33.864 72.9418C33.8798 72.9254 33.8927 72.9023 33.9019 72.876C33.9131 72.8445 33.9191 72.8094 33.9191 72.7752C33.9191 72.7516 33.9249 72.7417 33.9226 72.7393C33.9065 72.7235 33.893 72.706 33.8815 72.6876L33.09 71.603L32.2855 72.7057C32.2768 72.7177 32.2671 72.7288 32.257 72.739L32.2576 72.7396C32.2553 72.7419 32.261 72.7519 32.261 72.7755C32.261 72.8097 32.2671 72.8448 32.2783 72.8763C32.2878 72.9026 32.3007 72.9257 32.3162 72.942L32.3214 72.9476C32.3306 72.9476 32.3398 72.9482 32.3487 72.949L33.0687 72.9642C33.0758 72.9639 33.0827 72.9636 33.0899 72.9636C33.0974 72.9636 33.1052 72.9639 33.1126 72.9642L33.1127 72.9642ZM33.1894 74.8898L34.1634 74.9839C34.2154 74.9833 34.256 74.9664 34.285 74.9412C34.3103 74.9193 34.3287 74.8904 34.3396 74.8597C34.3479 74.8358 34.3511 74.8142 34.3482 74.7984C34.3356 74.7888 34.3238 74.778 34.3134 74.7666L33.1707 73.639C33.1627 73.6311 33.1552 73.6227 33.1483 73.6139C33.0994 73.5526 33.1017 73.5219 33.0905 73.5219C33.0793 73.5219 33.0816 73.5526 33.0327 73.6139C33.0241 73.6247 33.0152 73.6347 33.0054 73.6437L31.8584 74.7754C31.85 74.7835 31.8414 74.7911 31.8325 74.7978C31.8293 74.8136 31.8325 74.8352 31.8411 74.8595C31.852 74.8902 31.8704 74.9191 31.8957 74.941C31.925 74.9664 31.9664 74.9833 32.019 74.9836L32.9552 74.8966C32.9997 74.8866 33.0445 74.8817 33.0905 74.8817C33.1242 74.8817 33.1572 74.8843 33.19 74.8896L33.1894 74.8898ZM35.0409 76.7394C35.042 76.7418 35.0426 76.7435 35.0418 76.7409C35.0415 76.7397 35.0412 76.7394 35.0409 76.7394ZM68.5643 61.1119C68.9411 59.5789 69.027 57.0089 69.0894 55.1438C69.1032 54.7307 69.1158 54.3513 69.1296 54.039C69.1345 53.9295 69.1201 53.8194 69.0839 53.7379C69.0684 53.7025 69.0526 53.678 69.0396 53.6742C69.0359 53.673 69.0319 53.6719 69.0281 53.6704L66.4941 52.9094C67.2888 55.5624 68.0093 58.3103 68.5643 61.1121L68.5643 61.1119ZM65.9482 52.999L64.3146 54.5212C64.2608 54.5708 64.3163 54.5188 64.2706 54.5606C64.2051 54.6202 64.1985 54.6263 64.1798 54.7797C63.6067 59.4879 64.8816 63.0391 66.2546 66.8634C67.3154 69.8181 68.4337 72.934 68.8257 76.8742C69.2983 73.1939 69.2117 69.4751 68.7648 65.8075C68.2291 61.4106 67.1763 57.0904 65.9479 52.9992L65.9482 52.999ZM60.7518 67.4712V66.3828C60.7518 66.2285 60.8748 66.1035 61.0266 66.1035C61.1783 66.1035 61.3013 66.2285 61.3013 66.3828V67.4712C61.4413 67.4841 61.5511 67.6035 61.5511 67.7493C61.5511 67.9035 61.4281 68.0286 61.2763 68.0286H60.7768C60.6251 68.0286 60.502 67.9035 60.502 67.7493C60.502 67.6035 60.6118 67.4841 60.7518 67.4712H60.7518ZM60.4951 68.8672C60.3434 68.8672 60.2204 68.7422 60.2204 68.5879C60.2204 68.4337 60.3434 68.3087 60.4951 68.3087H61.558C61.7097 68.3087 61.8327 68.4337 61.8327 68.5879C61.8327 68.7422 61.7097 68.8672 61.558 68.8672H60.4951ZM60.2135 69.7059C60.0617 69.7059 59.9387 69.5808 59.9387 69.4266C59.9387 69.2724 60.0617 69.1473 60.2135 69.1473H61.8397C61.9914 69.1473 62.1145 69.2724 62.1145 69.4266C62.1145 69.5808 61.9914 69.7059 61.8397 69.7059H60.2135ZM61.1777 70.5445H60.8561L60.3778 71.9709H61.6557L61.1774 70.5445H61.1777ZM62.3343 72.5294H59.7185V73.2927H62.3343V72.5294ZM49.4766 58.5179L49.5163 69.0604C49.5163 69.1565 49.4398 69.2342 49.3453 69.2342C49.2507 69.2342 49.1743 69.1565 49.1743 69.0604L49.1352 58.6592L48.6069 58.8771L48.6466 64.6097C48.6469 64.7059 48.5707 64.7838 48.4761 64.7841C48.3816 64.7844 48.3048 64.707 48.3046 64.6109L48.2652 58.9495C48.2364 58.9405 48.2086 58.9265 48.183 58.9072L47.5642 58.4413V79.441H50.0316V58.2887L49.476 58.518L49.4766 58.5179ZM47.0152 79.4413V78.4321H41.745V79.4413H47.0152ZM47.0152 77.8736V75.4012H44.8551V75.4C44.2277 75.4099 43.6287 75.4278 43.0665 75.497C42.5891 75.5557 42.1456 75.6515 41.745 75.8122V77.8736L47.0152 77.8736ZM47.0152 74.8426V72.3703H45.2275V72.3694C44.4661 72.3893 43.7646 72.4246 43.1501 72.5598C42.6032 72.6802 42.1278 72.8803 41.7447 73.2235V75.2187C42.137 75.0831 42.5578 74.9978 43.0018 74.9432C43.5752 74.8728 44.1977 74.8544 44.8516 74.8442H44.8548V74.843H47.0149L47.0152 74.8426ZM47.0152 71.812V69.3397H45.6003V69.3388C44.7042 69.3686 43.898 69.4214 43.2275 69.6215C42.613 69.805 42.1083 70.1167 41.7447 70.6606V72.5278C42.1258 72.2792 42.5586 72.1191 43.0343 72.0146C43.6876 71.8711 44.424 71.8337 45.2213 71.813H45.2276V71.8121L47.0152 71.812ZM47.0152 68.7811V66.3087H45.9731V66.3082C44.9436 66.3476 44.0334 66.418 43.3007 66.6844C42.619 66.9324 42.0861 67.3589 41.7447 68.1116V69.8123C42.1184 69.4664 42.5653 69.2389 43.0732 69.0873C43.8026 68.8697 44.6519 68.8133 45.5917 68.7823H45.6004V68.7814H47.0152L47.0152 68.7811ZM47.0152 65.7502V63.2778H46.3458V63.2772C45.1795 63.3266 44.1629 63.4145 43.3705 63.7461C42.6221 64.0592 42.0619 64.6031 41.7446 65.5691V67.0796C42.1145 66.6447 42.5767 66.3546 43.1159 66.1586C43.9157 65.868 44.8786 65.7929 45.9632 65.7514L45.973 65.7511V65.7503L47.0152 65.7502ZM47.0152 62.7193V60.2469H46.9233V60.2463C45.5687 60.3056 44.4001 60.4114 43.5074 60.811C42.6578 61.1913 42.047 61.8544 41.7447 63.036V64.3365C42.1134 63.8189 42.5917 63.4701 43.1622 63.2312C44.0348 62.8663 45.1091 62.7723 46.3349 62.7206C46.3384 62.7203 46.3421 62.7203 46.3456 62.7203V62.7194L47.0152 62.7193ZM47.0152 59.6884V58.1534H46.9233V58.1528C45.5687 58.2121 44.4001 58.3178 43.5074 58.7174C42.6578 59.0978 42.047 59.7608 41.7447 60.9424V61.6131C42.1307 60.9991 42.6514 60.5846 43.2863 60.3007C44.2612 59.8643 45.4922 59.7518 46.9126 59.6899C46.916 59.6896 46.9198 59.6896 46.9232 59.6896V59.6887H47.0152L47.0152 59.6884ZM37.7827 47.6458C37.7557 47.6549 37.727 47.6595 37.6971 47.6595C37.6672 47.6595 37.6384 47.6546 37.6114 47.6458H36.5V48.4447H38.7487V47.6458H37.7827ZM38.7487 50.1574H36.5001V50.9563H38.7487V50.1574ZM38.7487 49.0032H36.5001V49.5991H38.7487V49.0032ZM37.2059 53.5692H38.0765V51.5145H37.2059V53.5692ZM38.7654 54.1274H36.5167V58.795H38.7654V54.1274Z" fill="white" stroke="white" stroke-width="0.5"/>
</svg>
