<svg width="100" height="100" viewBox="0 0 100 100" fill="none" xmlns="http://www.w3.org/2000/svg">
<path d="M65.2973 98.0001C65.2518 98.0001 65.2055 97.992 65.1607 97.976L44.9214 90.6564C44.7363 90.5893 44.6257 90.3973 44.659 90.2018C44.6929 90.0062 44.8607 89.8632 45.058 89.8632H69.3507C69.4946 89.8632 69.6269 89.9398 69.6999 90.0646C69.7729 90.1894 69.7744 90.3441 69.7042 90.471L65.6512 97.7906C65.5775 97.9234 65.4401 98.0001 65.2969 98.0001H65.2973ZM47.3887 90.6805L65.1115 97.0901L68.6614 90.6805H47.3887Z" fill="white" stroke="white" stroke-width="0.2"/>
<path d="M79.4731 53.9013C79.4529 53.9013 79.4326 53.8999 79.4117 53.8969C79.2136 53.867 79.0682 53.6948 79.0682 53.4926V16.7117C79.0682 16.576 79.1348 16.449 79.2461 16.3731C79.3574 16.2972 79.4984 16.2819 79.6235 16.3322L89.7455 20.4189C89.9422 20.4984 90.0449 20.7166 89.9812 20.9202L79.8592 53.6136C79.8057 53.7858 79.6481 53.9004 79.4731 53.9004L79.4731 53.9013ZM79.878 17.3165V50.8151L89.097 21.038L79.878 17.3165Z" fill="white" stroke="white" stroke-width="0.2"/>
<path d="M57.2052 8.94784H32.9126C32.7825 8.94784 32.6603 8.88435 32.5844 8.7778C32.5085 8.67125 32.4875 8.53406 32.5287 8.40926L34.5532 2.27936C34.6211 2.07356 34.8366 1.95752 35.0441 2.01445L57.3119 8.14435C57.5078 8.19836 57.6336 8.39028 57.6069 8.59315C57.5794 8.79602 57.4073 8.94781 57.2049 8.94781L57.2052 8.94784ZM33.4753 8.1305H54.1828L35.2021 2.90536L33.4753 8.1305Z" fill="white" stroke="white" stroke-width="0.2"/>
<path d="M20.7654 84.5509C20.7148 84.5509 20.6642 84.5414 20.6165 84.5224L10.2559 80.3752C10.0607 80.2964 9.95654 80.0804 10.0173 79.8768L20.3779 45.2013C20.4357 45.0072 20.6251 44.8853 20.8247 44.9153C21.0235 44.9452 21.1703 45.1167 21.1703 45.3196V84.1424C21.1703 84.2774 21.1038 84.4044 20.9932 84.4803C20.9252 84.527 20.8457 84.5511 20.7654 84.5511L20.7654 84.5509ZM10.9001 79.7534L20.3604 83.5402V48.0894L10.9001 79.7534Z" fill="white" stroke="white" stroke-width="0.2"/>
<path d="M79.4732 90.6804H63.683C63.4596 90.6804 63.2782 90.4972 63.2782 90.2717C63.2782 90.0462 63.4596 89.863 63.683 89.863H79.0684V8.94795H22.7909C22.5675 8.94795 22.386 8.76478 22.386 8.53928C22.386 8.31379 22.5675 8.13062 22.7909 8.13062H79.4737C79.6971 8.13062 79.8786 8.31379 79.8786 8.53928V90.2726C79.8786 90.4981 79.6971 90.6813 79.4737 90.6813L79.4732 90.6804ZM57.6107 90.6804H57.4083C57.1849 90.6804 57.0034 90.4972 57.0034 90.2717C57.0034 90.0462 57.1849 89.863 57.4083 89.863H57.6107C57.8341 89.863 58.0156 90.0462 58.0156 90.2717C58.0156 90.4972 57.8341 90.6804 57.6107 90.6804ZM51.3352 90.6804H20.7662C20.5428 90.6804 20.3613 90.4972 20.3613 90.2717V18.9591C20.3613 18.7336 20.5428 18.5504 20.7662 18.5504C20.9896 18.5504 21.1711 18.7336 21.1711 18.9591V89.8625H51.3347C51.5581 89.8625 51.7396 90.0457 51.7396 90.2712C51.7396 90.4967 51.5581 90.6799 51.3347 90.6799L51.3352 90.6804ZM20.7662 13.2382C20.5428 13.2382 20.3613 13.0551 20.3613 12.8296V12.6252C20.3613 12.3997 20.5428 12.2166 20.7662 12.2166C20.9896 12.2166 21.1711 12.3997 21.1711 12.6252V12.8296C21.1711 13.0551 20.9896 13.2382 20.7662 13.2382Z" fill="white" stroke="white" stroke-width="0.2"/>
<path d="M47.0829 17.1204H30.018C29.7946 17.1204 29.6132 16.9373 29.6132 16.7118C29.6132 16.4863 29.7946 16.3031 30.018 16.3031H47.0829C47.3063 16.3031 47.4877 16.4863 47.4877 16.7118C47.4877 16.9373 47.3063 17.1204 47.0829 17.1204Z" fill="white" stroke="white" stroke-width="0.2"/>
<path d="M61.8511 23.2518H29.8532C29.6298 23.2518 29.4484 23.0686 29.4484 22.8431C29.4484 22.6176 29.6298 22.4344 29.8532 22.4344H61.8511C62.0745 22.4344 62.2559 22.6176 62.2559 22.8431C62.2559 23.0686 62.0745 23.2518 61.8511 23.2518Z" fill="white" stroke="white" stroke-width="0.2"/>
<path d="M47 40L46.8174 78L30.3656 75.5786L30 44.4708L47 40Z" stroke="white" stroke-linecap="round" stroke-linejoin="round"/>
<path d="M49 33L59.913 36.3845C59.913 36.3845 61.3822 38.453 63.0611 41.8373L54.6669 40.7092C53.8274 40.7092 52.988 41.2735 52.988 42.0256C52.988 42.9659 53.8274 43.718 54.6669 43.718L64.3202 45.0344C64.5303 45.7865 64.74 46.5385 64.9501 47.2907L54.6669 45.9743C53.8275 45.9743 52.988 46.5386 52.988 47.2907C52.988 48.0428 53.8275 48.9831 54.6669 48.9831L65.5798 50.4873C65.7899 51.2394 65.7899 51.9915 65.7899 52.7436L54.6673 51.2395C53.8279 51.2395 53.1981 51.8037 53.1981 52.5558C53.1981 53.4962 53.8279 54.2483 54.6673 54.2483L66 55.7525V57.8209L54.8774 56.6928C53.8279 56.6928 52.9885 57.2571 52.9885 58.197C52.9885 58.9491 53.6183 59.7012 54.6673 59.7012L65.5803 60.8293C65.3702 61.5814 65.3702 62.3335 65.1605 63.0857L54.6673 62.3336C53.8279 62.3336 52.9885 62.8979 52.9885 63.8378C52.9885 64.5898 53.6183 65.3419 54.6673 65.3419L64.3207 65.9062C64.1106 66.6583 63.6909 67.4104 63.4813 68.1626H54.6673C53.8279 68.1626 52.9885 68.9147 52.9885 69.6668C52.7784 70.4188 53.6183 71.1709 54.4577 71.1709H62.0125C61.3827 72.4873 60.7533 73.6155 59.9139 74.9315L49.001 77V33.0014L49 33Z" stroke="white" stroke-linecap="round" stroke-linejoin="round"/>
<path d="M32.377 49.0764L44.6537 46.1301V48.1897L32.377 51.1361V49.0764Z" stroke="white" stroke-linecap="round" stroke-linejoin="round"/>
<path d="M32.3724 54.3591L44.6492 51.6384V53.6981L32.3724 56.4187V54.3591Z" stroke="white" stroke-linecap="round" stroke-linejoin="round"/>
<path d="M32.3794 59.2665L44.6562 57.2882V59.3479L32.3794 61.3261V59.2665Z" stroke="white" stroke-linecap="round" stroke-linejoin="round"/>
<path d="M32.369 64.2548L44.6458 63.5386V65.5983L32.369 66.3144V64.2548Z" stroke="white" stroke-linecap="round" stroke-linejoin="round"/>
<path d="M32.3756 68.5216L44.6524 68.5304V70.5901L32.3756 70.5813V68.5216Z" stroke="white" stroke-linecap="round" stroke-linejoin="round"/>
<path d="M68 79V82" stroke="white"/>
<path d="M69.1996 77.25C69.1996 78.2223 68.7194 79 67.9197 79C67.2798 79 66.6399 78.2223 66.6399 77.25V77.0554C66.3199 76.8607 66 76.2777 66 75.5C66 74.9165 66.1602 74.5277 66.4801 74.1389C66.6403 72.9723 67.2802 72 67.9201 72C68.7202 72 69.1999 72.7777 69.3601 73.9442C69.6801 74.333 70 74.9165 70 75.4996C70 76.2772 69.68 76.8607 69.1999 77.2495L69.1996 77.25Z" stroke="white"/>
</svg>
