<svg width="100" height="100" viewBox="0 0 100 100" fill="none" xmlns="http://www.w3.org/2000/svg">
<path d="M65.2973 98.0001C65.2518 98.0001 65.2055 97.992 65.1607 97.976L44.9214 90.6564C44.7363 90.5893 44.6257 90.3973 44.659 90.2018C44.6929 90.0062 44.8607 89.8632 45.058 89.8632H69.3507C69.4946 89.8632 69.6269 89.9398 69.6999 90.0646C69.7729 90.1894 69.7744 90.3441 69.7042 90.471L65.6512 97.7906C65.5775 97.9234 65.4401 98.0001 65.2969 98.0001H65.2973ZM47.3887 90.6805L65.1115 97.0901L68.6614 90.6805H47.3887Z" fill="white" stroke="white" stroke-width="0.2"/>
<path d="M79.4731 53.9013C79.4529 53.9013 79.4326 53.8999 79.4117 53.8969C79.2136 53.867 79.0682 53.6948 79.0682 53.4926V16.7117C79.0682 16.576 79.1348 16.449 79.2461 16.3731C79.3574 16.2972 79.4984 16.2819 79.6235 16.3322L89.7455 20.4189C89.9422 20.4984 90.0449 20.7166 89.9812 20.9202L79.8592 53.6136C79.8057 53.7858 79.6481 53.9004 79.4731 53.9004L79.4731 53.9013ZM79.878 17.3165V50.8151L89.097 21.038L79.878 17.3165Z" fill="white" stroke="white" stroke-width="0.2"/>
<path d="M57.2052 8.94784H32.9126C32.7825 8.94784 32.6603 8.88435 32.5844 8.7778C32.5085 8.67125 32.4875 8.53406 32.5287 8.40926L34.5532 2.27936C34.6211 2.07356 34.8366 1.95752 35.0441 2.01445L57.3119 8.14435C57.5078 8.19836 57.6336 8.39028 57.6069 8.59315C57.5794 8.79602 57.4073 8.94781 57.2049 8.94781L57.2052 8.94784ZM33.4753 8.1305H54.1828L35.2021 2.90536L33.4753 8.1305Z" fill="white" stroke="white" stroke-width="0.2"/>
<path d="M20.7654 84.5509C20.7148 84.5509 20.6642 84.5414 20.6165 84.5224L10.2559 80.3752C10.0607 80.2964 9.95654 80.0804 10.0173 79.8768L20.3779 45.2013C20.4357 45.0072 20.6251 44.8853 20.8247 44.9153C21.0235 44.9452 21.1703 45.1167 21.1703 45.3196V84.1424C21.1703 84.2774 21.1038 84.4044 20.9932 84.4803C20.9252 84.527 20.8457 84.5511 20.7654 84.5511L20.7654 84.5509ZM10.9001 79.7534L20.3604 83.5402V48.0894L10.9001 79.7534Z" fill="white" stroke="white" stroke-width="0.2"/>
<path d="M79.4732 90.6804H63.683C63.4596 90.6804 63.2782 90.4972 63.2782 90.2717C63.2782 90.0462 63.4596 89.863 63.683 89.863H79.0684V8.94795H22.7909C22.5675 8.94795 22.386 8.76478 22.386 8.53928C22.386 8.31379 22.5675 8.13062 22.7909 8.13062H79.4737C79.6971 8.13062 79.8786 8.31379 79.8786 8.53928V90.2726C79.8786 90.4981 79.6971 90.6813 79.4737 90.6813L79.4732 90.6804ZM57.6107 90.6804H57.4083C57.1849 90.6804 57.0034 90.4972 57.0034 90.2717C57.0034 90.0462 57.1849 89.863 57.4083 89.863H57.6107C57.8341 89.863 58.0156 90.0462 58.0156 90.2717C58.0156 90.4972 57.8341 90.6804 57.6107 90.6804ZM51.3352 90.6804H20.7662C20.5428 90.6804 20.3613 90.4972 20.3613 90.2717V18.9591C20.3613 18.7336 20.5428 18.5504 20.7662 18.5504C20.9896 18.5504 21.1711 18.7336 21.1711 18.9591V89.8625H51.3347C51.5581 89.8625 51.7396 90.0457 51.7396 90.2712C51.7396 90.4967 51.5581 90.6799 51.3347 90.6799L51.3352 90.6804ZM20.7662 13.2382C20.5428 13.2382 20.3613 13.0551 20.3613 12.8296V12.6252C20.3613 12.3997 20.5428 12.2166 20.7662 12.2166C20.9896 12.2166 21.1711 12.3997 21.1711 12.6252V12.8296C21.1711 13.0551 20.9896 13.2382 20.7662 13.2382Z" fill="white" stroke="white" stroke-width="0.2"/>
<path d="M47.0829 17.1204H30.018C29.7946 17.1204 29.6132 16.9373 29.6132 16.7118C29.6132 16.4863 29.7946 16.3031 30.018 16.3031H47.0829C47.3063 16.3031 47.4877 16.4863 47.4877 16.7118C47.4877 16.9373 47.3063 17.1204 47.0829 17.1204Z" fill="white" stroke="white" stroke-width="0.2"/>
<path d="M61.8511 23.2518H29.8532C29.6298 23.2518 29.4484 23.0686 29.4484 22.8431C29.4484 22.6176 29.6298 22.4344 29.8532 22.4344H61.8511C62.0745 22.4344 62.2559 22.6176 62.2559 22.8431C62.2559 23.0686 62.0745 23.2518 61.8511 23.2518Z" fill="white" stroke="white" stroke-width="0.2"/>
<path d="M36.9648 78.9996C37.5783 78.9996 38.0758 78.5021 38.0758 77.8875L38.0761 57.8502H38.2861C41.4004 57.8502 43.9346 55.318 43.9346 52.2053V40.112C43.9346 39.4985 43.4371 39.001 42.8225 39.001C42.209 39.001 41.7115 39.4985 41.7115 40.112V52.2061C41.7115 54.0931 40.1745 55.6278 38.2861 55.6278H35.6449C33.7578 55.6278 32.2232 54.0926 32.2232 52.2061V40.112C32.2232 39.4985 31.7256 39.001 31.111 39.001C30.4975 39.001 30 39.4985 30 40.112V52.2061C30 55.3187 32.5322 57.851 35.6449 57.851H35.8532V77.8882C35.8529 78.5025 36.3505 79.0001 36.9648 79.0001L36.9648 78.9996Z" stroke="white"/>
<path d="M69.9299 53.547V40.111C69.9299 39.4975 69.4324 39 68.8189 39H49.7326C49.1191 39 48.6216 39.4975 48.6216 40.111V53.5463C48.6216 59.6396 52.6507 64.3272 58.1626 64.885V76.7756L52.0937 76.7759C51.4794 76.7759 50.9815 77.2734 50.9815 77.8869C50.9815 78.5013 51.4791 78.9991 52.0937 78.9991H67.3935C68.007 78.9991 68.5045 78.5016 68.5045 77.8869C68.5045 77.2734 68.007 76.7759 67.3935 76.7759H60.3852V64.886C65.899 64.3286 69.9298 59.6412 69.9298 53.5459L69.9299 53.547ZM67.7073 41.2237V49.0734C66.915 49.9365 64.0028 52.5005 59.2524 49.8259C55.9168 47.9487 52.868 48.4877 50.8449 49.4878L50.8446 41.2241L67.7073 41.2237ZM50.8442 53.547V52.0974C51.7789 51.3969 54.5787 49.7468 58.1613 51.7622C60.0846 52.8454 61.7958 53.2441 63.275 53.2441C65.1401 53.2441 66.6297 52.609 67.707 51.9135V53.547C67.707 58.862 64.1614 62.7193 59.2757 62.7193C54.3889 62.719 50.8438 58.8615 50.8438 53.547L50.8442 53.547Z" stroke="white"/>
<path d="M38.0761 51.5776V40.1117C38.0761 39.4983 37.5785 39.0007 36.9651 39.0007C36.3507 39.0007 35.8529 39.4983 35.8529 40.1117V51.5776C35.8529 52.1919 36.3504 52.6898 36.9651 52.6898C37.5783 52.6892 38.0761 52.1917 38.0761 51.5776Z" stroke="white"/>
</svg>
